<?xml version="1.0" standalone="no"?>
<!DOCTYPE svg PUBLIC "-//W3C//DTD SVG 20010904//EN"
 "http://www.w3.org/TR/2001/REC-SVG-20010904/DTD/svg10.dtd">
<svg version="1.0" xmlns="http://www.w3.org/2000/svg"
 width="746.000000pt" height="746.000000pt" viewBox="0 0 746.000000 746.000000"
 preserveAspectRatio="xMidYMid meet">
<metadata>
Created by potrace 1.14, written by Peter Selinger 2001-2017
</metadata>
<g transform="translate(0.000000,746.000000) scale(0.100000,-0.100000)"
fill="#000000" stroke="none">
<path d="M1408 7255 c-2 -2 -90 -5 -195 -5 -157 -1 -192 -4 -197 -16 -6 -16
-27 -143 -56 -339 -11 -71 -22 -146 -25 -165 -3 -19 -21 -143 -40 -275 -20
-132 -38 -251 -40 -265 -4 -22 -89 -586 -101 -665 -2 -16 -15 -104 -28 -195
-14 -91 -34 -228 -46 -305 -11 -77 -22 -151 -25 -165 -6 -32 -51 -336 -70
-465 -8 -55 -30 -203 -49 -330 -19 -126 -49 -322 -66 -435 -17 -113 -33 -216
-35 -230 -2 -14 -22 -149 -45 -300 -42 -283 -83 -550 -99 -655 -18 -113 -40
-250 -68 -420 -24 -150 -27 -198 -28 -405 0 -215 2 -242 23 -318 77 -282 193
-486 397 -700 263 -277 610 -459 994 -523 127 -21 364 -24 1821 -23 1775 2
2184 4 2300 16 246 23 526 117 743 247 391 236 647 555 763 952 26 90 28 105
30 339 2 135 -1 268 -5 295 -5 28 -12 73 -15 100 -4 28 -23 151 -42 275 -41
269 -32 214 -100 655 -30 198 -82 538 -115 755 -33 217 -63 411 -65 430 -3 19
-7 46 -9 60 -2 14 -9 57 -15 95 -5 39 -14 97 -20 130 -8 49 -79 510 -95 620
-2 17 -15 104 -30 195 -32 208 -34 220 -46 305 -6 39 -14 95 -19 125 -5 30
-14 89 -20 130 -9 63 -43 287 -175 1155 -48 309 -46 304 -82 313 -23 6 -5000
12 -5005 7z"/>
</g>
</svg>
