<?xml version="1.0" encoding="UTF-8"?>
<svg xmlns="http://www.w3.org/2000/svg" viewBox="0 0 1841 552">
  <path fill="#ea5d2b" d="M417.99 329.93c-1.69 0-3.8 0.45-6.85 1.48-2.54 0.81-3.57 1.21-4.42 1.21-1.35 0-1.83-1.13-1.83-2.02 0-1.3 1.03-3.37 2.77-5.06 1.7-1.58 3.76-2.73 6.81-2.73 2.07 0 2.5 0.45 3.25 0.95 0.18 0.89 1.08 1.49 2.43 1.49 1.09 0 2.12-0.5 2.12-2.29 0-2.21-4.09-4.33-7.56-4.33-3.15 0-6.39 0.99-9.39 3.5-2.59 2.17-4.8 5.74-4.8 9.31 0 3.31 1.74 5.71 5.78 5.71 1.22 0 3-0.34 6.16-1.43 3.33-1.1 4.88-1.25 6.24-1.25 1.55 0 2.45 1.03 2.45 2.57 0 1.98-0.43 3.76-2.03 5.58-2.25 2.47-6.34 4.7-10.33 4.7-1.88 0-2.72-0.45-3.38-2.97-0.47-1.73-0.98-2.81-2.4-2.81-1.17 0-2.39 1.18-2.39 2.91 0 1.73 1.03 3.75 2.3 4.98 1.55 1.48 3.33 2.07 5.92 2.07 2.2 0 3.76-0.2 6.53-1.23 2.25-0.89 3.85-1.77 6.48-4.34 2.26-2.22 3.67-4.99 3.67-9.39 0-4.34-2.87-6.61-7.53-6.61zm19.13-33.31c-0.56 0-1.22 0.11-1.69 0.55l-8.92 1.28 0-24.56c0.19-0.29 0.38-0.54 0.38-1.04 0-1.03-0.33-2.47-2.49-2.47-1.04 0-2.4 0.45-2.4 2.47 0 0.45 0.05 0.75 0.19 0.95l0 25.34c-0.38 0.5-0.47 1.03-0.47 1.72 0 1.44 1.03 2.24 2.4 2.24 0.51 0 0.84-0.05 1.41-0.2l11.08-1.49c0.14 0.09 0.56 0.19 0.84 0.14 1.03-0.19 1.84-1.03 1.84-2.71 0-1.37-1.14-2.17-2.17-2.22zm16.81-12.44c2.12 0 2.44 1.49 2.44 2.04 0 0.8-0.51 1.1-1.73 1.45-1.64 0.44-4.03 1.03-7.13 1.68l-0.09-0.05c1.88-4.03 4.17-5.12 6.51-5.12zm0.57 7.26c4.55-1.05 6.19-2.54 6.19-4.72 0-3.42-2.86-6.22-6.47-6.22-3.47 0-6.61 1.56-9 4.73-2.03 2.68-3.29 6.26-3.29 10.22 0 4.16 2.3 7.65 6.7 7.65 2.83 0 5.26-0.64 7.64-2.46 1.89-1.42 3.96-3.46 3.96-4.75 0-0.93-0.85-2.03-2.4-2.03-1.18 0-2.3 0.74-2.25 2.18-1.69 2.33-4.45 3.38-6.23 3.38-2.07 0-3.1-1.29-3.1-3.48 0-1.18 0.05-1.93 0.24-2.67l8.01-1.83zm12.77-20.55c-1.7 0-2.74 1.63-2.74 4.79 0 1.38 0.85 2.57 2.4 2.57 1.56 0 2.87-1.49 2.87-4.75 0-1.62-0.7-2.61-2.53-2.61zm1.79 13.36c0.14-0.15 0.38-0.49 0.38-1.19 0-1.43-1.23-2.56-2.26-2.56-1.55 0-2.63 0.69-2.63 2.87 0 0.44 0.1 0.78 0.28 1.08l0 14.34c-0.42 0.74-0.42 0.99-0.42 1.34 0 1.08 0.61 2.52 2.3 2.52 1.55 0 2.77-1.04 2.77-2.48 0-0.44-0.14-0.79-0.42-1.18l0-14.74zm20.75 2.62c-2.02 0-3.94 0.64-6.42 1.57-1.89 0.72-3.2 1.26-3.86 1.26-0.52 0-0.94-0.15-0.94-0.89 0-0.88 0.75-1.88 2.39-3.01 2.02-1.38 5.07-2.02 8.31-2.02 0.8 0.35 1.17 0.54 1.69 0.54 0.84 0 2.02-0.19 2.02-1.97 0-1.42-1.79-2.51-3.76-2.51-3.8 0-7.51 0.94-10.18 2.51-2.87 1.78-4.8 4.29-4.8 7.35 0 2.56 2.21 4.34 4.42 4.34 2.35 0 4.08-0.74 6.29-1.63 1.83-0.71 3.2-1.21 4.23-1.21 0.89 0 1.4 0.44 1.4 1.24 0 1.13-0.51 2.57-2.25 4.05-2.01 1.78-4.87 2.58-6.7 2.58-1.59 0-2.29-0.4-2.81-0.75l0.1-0.79c0-1.39-1.18-1.68-2.4-1.68-0.8 0-1.93 0.89-1.93 2.72 0 1.23 0.99 2.51 2.26 3.25 1.22 0.74 3.28 1.18 4.74 1.18 3.65 0 7.22-1.67 9.6-3.59 1.88-1.48 3.71-4.21 3.71-7.62 0-2.12-1.31-4.92-5.11-4.92zm27.34-3.66c0.23-1.42-0.15-2.71-2.26-2.71-1.64 0-2.11 0.73-2.11 1.62 0 0.95 0 0.55 0.14 1.09l0 12.04c-1.84 1.54-4.84 3.96-7.38 3.96-0.52 0-1.65-0.69-1.65-1.63l0-13.87c0.24-0.35 0.33-0.69 0.33-1.19 0-0.94-0.61-2.17-2.25-2.17-1.22 0-2.44 0.68-2.44 2.27 0 0.3 0 0.59 0.14 0.94l0 14.07c0 3.9 3.19 5.57 5.68 5.57 2.59 0 5.69-2.02 7.43-3.44l0 0.54c-0.52 1.07 0.19 2.3 1.97 2.3 1.17 0 2.73-0.39 2.73-2.08 0-0.45-0.05-0.84-0.33-1.19l0-16.12zm17.49-2.77c-0.7 0-1.17 0.25-2.82 1.19-1.12 0.65-2.72 2.03-4.03 3.16l0-1.38c0.13-0.55 0.19-0.79 0.19-1.09 0-1.09-0.76-1.97-2.12-1.97-1.08 0-2.44 0.58-2.44 2.17 0 0.39 0.05 0.69 0.14 1.08l0 15.44c-0.28 0.39-0.47 0.94-0.47 1.38 0 1.24 0.8 2.18 2.35 2.18 1.83 0 2.82-0.6 2.82-2.33 0-0.49-0.24-0.94-0.47-1.23l0-9.41c1.31-1.42 4.27-3.9 5.68-4.74-0.04 0.64-0.04 0.84-0.04 1.14 0 1.29 1.31 1.88 2.2 1.88 0.66 0 2.02-0.1 2.02-1.88 0-2.72-0.38-5.59-3.01-5.59zm16.28 3.74c2.11 0 2.44 1.49 2.44 2.04 0 0.8-0.52 1.1-1.73 1.45-1.65 0.44-4.04 1.03-7.13 1.68l-0.09-0.05c1.88-4.03 4.17-5.12 6.51-5.12zm0.56 7.26c4.56-1.05 6.2-2.54 6.2-4.72 0-3.42-2.86-6.22-6.47-6.22-3.48 0-6.62 1.56-9.01 4.73-2.02 2.68-3.29 6.26-3.29 10.22 0 4.16 2.31 7.65 6.71 7.65 2.82 0 5.25-0.64 7.64-2.46 1.89-1.42 3.95-3.46 3.95-4.75 0-0.93-0.84-2.03-2.39-2.03-1.18 0-2.3 0.74-2.26 2.18-1.69 2.33-4.45 3.38-6.23 3.38-2.06 0-3.09-1.29-3.09-3.48 0-1.18 0.05-1.93 0.23-2.67l8.01-1.83zm33.24 4.3c-1.82 1.84-5.84 3.83-7.61 3.83-0.85 0-1.17-0.4-1.17-1.15 0-1.42 1.91-3.79 4.25-5.13 1.78-1.05 4.53-2.13 6.96-2.53 0 2.5-0.32 2.95-2.43 4.98zm6.66-10.87c0-2.42-1.13-4.87-5.16-4.87-3.46 0-7.38 0.63-10.8 3.09-0.99 0.15-1.88 0.99-1.88 2.22 0 1.3 0.98 2.19 2.21 2.19 1.21 0 2.29-0.84 2.43-1.83 1.68-1.2 4.67-1.99 7.06-1.99 1.82 0 1.91 0.49 1.91 1.68l0 2.09c-2.99 0.3-6.58 1.34-9.77 3.22-3.65 2.19-5.77 5.37-5.77 8.35 0 2.61 1.83 4.23 4.89 4.23 3.32 0 7.71-2.02 10.65-5.47l0 1.7c-0.14 0.2-0.37 0.49-0.37 1.24 0 1.09 0.7 1.93 2.2 1.93 1.18 0 2.73-0.4 2.73-2.03 0-0.45-0.05-0.84-0.33-1.19l0-14.56zm24.12-1.57c0-2.17-2.44-3.45-3.71-3.45-2.44 0-5.45 2.76-9.54 5.77l0-2.42c0.14-0.25 0.33-0.64 0.33-1.24 0-0.88-0.42-2.11-2.3-2.11-1.17 0-2.44 0.78-2.44 2.22 0 0.45 0.04 0.78 0.18 1.03l0 5.63c-0.33 0.54-0.46 1.18-0.46 1.68 0 0.44 0.09 0.93 0.46 1.33l0 7.7c-0.18 0.35-0.37 0.74-0.37 1.29 0 1.03 0.75 1.92 2.25 1.92 1.08 0 2.49-0.3 2.49-2.12 0-0.4-0.05-0.69-0.14-0.94l0-8.98c4.09-3.21 7.43-5.83 7.98-5.83 0.34 0 1.04 0.3 1.04 0.94l0 13.92c-0.14 0.34-0.23 0.59-0.23 0.84 0 1.23 0.84 2.17 2.25 2.17 1.42 0 2.35-0.64 2.35-2.27 0-0.4 0-0.69-0.14-1.04l0-16.04zm16.75 11.32c-2.19 2.37-4.54 4.5-6.74 4.5-0.99 0-1.41-0.7-1.41-1.79 0-2.03 1.64-5.19 3.84-7.66 2.16-2.47 4.88-3.95 7.17-3.95 1.22 0 1.5 0.94 1.5 1.58 0 1.19-0.66 3.31-4.36 7.32zm8.54-21.32c0.04-0.34 0.09-0.59 0.09-0.93 0-1.14-0.65-2.53-2.3-2.53-1.08 0-2.44 0.74-2.44 2.33 0 0.59 0.09 1.13 0.42 1.53l-0.05 8.48c-0.41-0.49-1.4-0.59-2.33-0.59-6.37 0-14.41 8.77-14.41 15.43 0 3.87 1.79 6.23 5.22 6.23 2.11 0 3.99-0.59 6.14-2.12 1.64-1.13 3.8-3.35 5.34-5.43l0.09 0 0 3.54c-0.09 0.3-0.19 0.7-0.19 1.29 0 1.08 0.57 2.12 2.26 2.12 1.5 0 2.58-0.64 2.58-2.17 0-0.3-0.05-0.79-0.42-1.33l0-25.85zm30.76 0.72c2.48 0 3.94 0.79 4.08 1.39 0.23 1.13 0.85 2.08 2.11 2.08 1.32 0 2.44-1.09 2.44-2.68 0-2.51-4.83-4.97-8.82-4.97-3.29 0-6.52 1.37-9.3 5.32-2.16 3.17-4.56 9.45-4.56 14.25 0 7.38 3.2 13.79 10.01 13.79 1.4 0 2.44-0.2 4.46-1.13 2.06-1.04 4.65-2.95 5.91-4.39 1.27-1.39 1.88-2.32 1.88-3.37 0-1.23-0.93-2.42-2.77-2.42-1.36 0-2.02 1.19-2.3 3.02-1.51 1.88-4.22 4.11-6.48 4.11-2.2 0-3.28-0.45-4.45-1.98-0.94-1.24-1.89-3.71-1.89-6.98 0-2.67 0.85-7.48 3.1-11.49 1.69-2.96 3.81-4.55 6.58-4.55zm30.27 9.19c0.24-1.42-0.14-2.71-2.26-2.71-1.63 0-2.11 0.73-2.11 1.62 0 0.95 0 0.55 0.15 1.09l0 12.04c-1.83 1.54-4.85 3.96-7.39 3.96-0.51 0-1.64-0.69-1.64-1.63l0-13.87c0.23-0.35 0.33-0.69 0.33-1.19 0-0.94-0.61-2.17-2.26-2.17-1.21 0-2.43 0.68-2.43 2.27 0 0.3 0 0.59 0.14 0.94l0 14.07c0 3.9 3.19 5.57 5.68 5.57 2.59 0 5.69-2.02 7.42-3.44l0 0.54c-0.51 1.07 0.19 2.3 1.97 2.3 1.18 0 2.73-0.39 2.73-2.08 0-0.45-0.05-0.84-0.33-1.19l0-16.12zm11.06-11.1c0-1.23-0.94-2.28-2.39-2.28-1.59 0-2.58 0.45-2.58 2.58 0 0.64 0.14 1.04 0.27 1.33l0 25.46c-0.18 0.48-0.18 0.73-0.18 0.93 0 1.38 0.98 2.47 2.58 2.47 1.13 0 2.3-0.79 2.3-2.22 0-0.45 0-0.89-0.46-1.43l0-25.01c0.32-0.44 0.46-0.94 0.46-1.83zm20.7 19.14c-0.99 0-1.84 0.49-1.97 1.93-0.85 1.24-1.97 2.28-2.77 2.93-2.21 1.63-2.63 1.93-3.33 1.93-0.43 0-0.43-0.84-0.43-1.54l0-12.48 5.63-0.89c0.33 0.15 0.71 0.1 0.85 0.1 1.13 0 1.83-0.88 1.83-2.46 0-0.45-0.7-1.82-2.06-1.82-0.33 0-0.75 0.15-0.99 0.25l-5.26 0.8 0-2.97c0.24-0.35 0.29-0.74 0.29-1.19 0-1.48-1.23-1.72-2.07-1.72-1.27-0.05-2.58 0.3-2.58 1.88 0 0.25 0 0.64 0.14 0.99l0 3.66-2.63 0.38-0.51-0.1c-1.18 0.06-2.35 0.9-2.35 2.48 0 0.54 0.6 1.91 2.25 1.91 0.37-0.07 0.61-0.17 0.89-0.37l2.35-0.35 0 15.32c0 2.33 1.41 3.08 3.14 3.08 1.37 0 3.29-0.89 5.54-2.53 2.35-1.79 6.39-5.36 6.39-7.04 0-0.59-0.28-2.18-2.35-2.18zm23.07-8.04c0.24-1.42-0.14-2.71-2.25-2.71-1.65 0-2.12 0.73-2.12 1.62 0 0.95 0 0.55 0.14 1.09l0 12.04c-1.82 1.54-4.83 3.96-7.37 3.96-0.52 0-1.65-0.69-1.65-1.63l0-13.87c0.24-0.35 0.33-0.69 0.33-1.19 0-0.94-0.61-2.17-2.25-2.17-1.22 0-2.44 0.68-2.44 2.27 0 0.3 0 0.59 0.14 0.94l0 14.07c0 3.9 3.19 5.57 5.68 5.57 2.59 0 5.69-2.02 7.42-3.44l0 0.54c-0.51 1.07 0.19 2.3 1.98 2.3 1.17 0 2.72-0.39 2.72-2.08 0-0.45-0.05-0.84-0.33-1.19l0-16.12zm17.5-2.77c-0.7 0-1.17 0.25-2.81 1.19-1.13 0.65-2.73 2.03-4.05 3.16l0-1.38c0.15-0.55 0.2-0.79 0.2-1.09 0-1.09-0.76-1.97-2.13-1.97-1.07 0-2.43 0.58-2.43 2.17 0 0.39 0.05 0.69 0.14 1.08l0 15.44c-0.28 0.39-0.47 0.94-0.47 1.38 0 1.24 0.8 2.18 2.35 2.18 1.83 0 2.81-0.6 2.81-2.33 0-0.49-0.23-0.94-0.47-1.23l0-9.41c1.32-1.42 4.28-3.9 5.69-4.74-0.05 0.64-0.05 0.84-0.05 1.14 0 1.29 1.32 1.88 2.21 1.88 0.65 0 2.01-0.1 2.01-1.88 0-2.72-0.37-5.59-3-5.59zm17.03 15.3c-1.82 1.84-5.84 3.83-7.62 3.83-0.83 0-1.17-0.4-1.17-1.15 0-1.42 1.92-3.79 4.26-5.13 1.77-1.05 4.53-2.13 6.96-2.53 0 2.5-0.32 2.95-2.43 4.98zm6.66-10.87c0-2.42-1.13-4.87-5.16-4.87-3.46 0-7.38 0.63-10.8 3.09-0.99 0.15-1.88 0.99-1.88 2.22 0 1.3 0.99 2.19 2.21 2.19 1.21 0 2.29-0.84 2.42-1.83 1.69-1.2 4.68-1.99 7.07-1.99 1.82 0 1.91 0.49 1.91 1.68l0 2.09c-2.99 0.3-6.59 1.34-9.77 3.22-3.65 2.19-5.77 5.37-5.77 8.35 0 2.61 1.83 4.23 4.89 4.23 3.31 0 7.71-2.02 10.65-5.47l0 1.7c-0.14 0.2-0.37 0.49-0.37 1.24 0 1.09 0.7 1.93 2.21 1.93 1.17 0 2.72-0.4 2.72-2.03 0-0.45-0.05-0.84-0.33-1.19l0-14.56zm10.67-10.93c0.33-0.45 0.46-0.94 0.46-1.83 0-1.23-0.93-2.27-2.38-2.27-1.6 0-2.59 0.44-2.59 2.57 0 0.64 0.14 1.04 0.29 1.33l0 25.45c-0.2 0.49-0.2 0.74-0.2 0.94 0 1.38 0.99 2.47 2.59 2.47 1.12 0 2.29-0.79 2.29-2.22 0-0.45 0-0.9-0.46-1.44l0-25zm-368.35 58.64c2.11 0 2.44 1.49 2.44 2.04 0 0.79-0.52 1.09-1.74 1.44-1.63 0.45-4.03 1.05-7.12 1.69l-0.09-0.05c1.87-4.03 4.17-5.12 6.51-5.12zm0.56 7.25c4.56-1.04 6.2-2.53 6.2-4.72 0-3.42-2.87-6.22-6.48-6.22-3.46 0-6.6 1.58-9 4.73-2.02 2.69-3.29 6.26-3.29 10.23 0 4.16 2.3 7.65 6.71 7.65 2.82 0 5.25-0.64 7.65-2.46 1.87-1.43 3.94-3.46 3.94-4.74 0-0.95-0.85-2.04-2.4-2.04-1.17 0-2.29 0.74-2.25 2.18-1.69 2.33-4.45 3.37-6.23 3.37-2.07 0-3.1-1.29-3.1-3.47 0-1.19 0.06-1.93 0.24-2.67l8.01-1.84zm20.59-10.98c-0.7 0-1.17 0.24-2.82 1.18-1.12 0.64-2.72 2.02-4.04 3.16l0-1.38c0.14-0.55 0.19-0.8 0.19-1.09 0-1.09-0.75-1.98-2.12-1.98-1.08 0-2.44 0.6-2.44 2.18 0 0.4 0.05 0.69 0.14 1.08l0 15.43c-0.28 0.4-0.46 0.95-0.46 1.4 0 1.23 0.79 2.17 2.34 2.17 1.83 0 2.82-0.6 2.82-2.33 0-0.49-0.23-0.94-0.47-1.24l0-9.39c1.32-1.44 4.28-3.91 5.69-4.75-0.05 0.64-0.05 0.84-0.05 1.14 0 1.28 1.32 1.88 2.2 1.88 0.66 0 2.02-0.1 2.02-1.88 0-2.72-0.38-5.58-3-5.58zm22.27-0.31c-1.22 0-1.83 0.69-2.48 2.53-0.99 2.52-2.02 4.5-3.43 7.02-1.09 1.93-2.07 3.86-2.59 5.64l-0.09 0c-0.37-1.83-0.89-4.16-1.78-7.12-0.57-1.88-1.04-3.22-1.13-4.26 0.19-0.59 0.28-0.99 0.28-1.33 0-1.04-0.93-2.08-2.24-2.08-1.17 0-2.39 0.85-2.39 2.23 0 0.64 0 0.89 0.19 1.23 0.05 0.84 0.14 1.49 0.47 2.87 0.51 2.37 0.74 3.27 2.24 7.77 1.41 4.2 1.64 5.04 1.64 5.24 0 1.73 0.99 2.92 2.39 2.92 1.37 0 2.12-0.89 2.4-2.33 0.14-0.74 0.84-2.72 4.18-8.85 1.91-3.41 1.6-2.87 2.77-4.95 0.51-1.23 1.64-3.32 1.64-4.35 0-1.59-0.94-2.18-2.07-2.18zm9.35 4.11c0.14-0.15 0.37-0.5 0.37-1.19 0-1.43-1.22-2.56-2.25-2.56-1.55 0-2.62 0.68-2.62 2.86 0 0.44 0.09 0.79 0.28 1.09l0 14.34c-0.43 0.74-0.43 1-0.43 1.33 0 1.09 0.61 2.53 2.3 2.53 1.55 0 2.77-1.04 2.77-2.47 0-0.45-0.14-0.8-0.42-1.19l0-14.74zm-1.79-13.36c-1.7 0-2.74 1.63-2.74 4.78 0 1.39 0.85 2.57 2.4 2.57 1.56 0 2.88-1.48 2.88-4.73 0-1.64-0.71-2.62-2.54-2.62zm22.18 21.18c-0.8 0-1.12 0.09-1.6 0.59-0.47 0.5-0.47 0.6-0.6 1.39-1.51 2.93-4.13 5.07-6.01 5.07-2.26 0-3.61-1.2-3.61-4.22 0-3.52 0.93-5.81 2.85-7.95 1.89-2.13 2.45-2.62 4.79-2.62 0.66 0 0.85 0.09 1.32 0.88 0.38 0.75 0.85 1.5 1.88 1.5 1.22 0 2.72-0.6 2.72-2.38 0-2.08-2.44-4.14-5.92-4.14-3.05 0-5.59 1.28-6.99 2.86-3.9 4.3-4.99 6.93-4.99 12.49 0 3.82 2.5 7.71 7.15 7.71 2.02 0 4.18-0.49 6.43-2.22 2.02-1.52 4.79-5 4.79-6.78 0-0.8-0.56-2.18-2.21-2.18zm17.21-7.89c2.11 0 2.44 1.49 2.44 2.04 0 0.79-0.52 1.09-1.73 1.44-1.64 0.45-4.03 1.05-7.13 1.69l-0.1-0.05c1.88-4.03 4.18-5.12 6.52-5.12zm0.57 7.25c4.55-1.04 6.19-2.53 6.19-4.72 0-3.42-2.86-6.22-6.48-6.22-3.46 0-6.6 1.58-8.99 4.73-2.03 2.69-3.3 6.26-3.3 10.23 0 4.16 2.3 7.65 6.72 7.65 2.81 0 5.24-0.64 7.64-2.46 1.88-1.43 3.94-3.46 3.94-4.74 0-0.95-0.85-2.04-2.39-2.04-1.18 0-2.3 0.74-2.25 2.18-1.7 2.33-4.46 3.37-6.24 3.37-2.06 0-3.09-1.29-3.09-3.47 0-1.19 0.04-1.93 0.23-2.67l8.02-1.84zm24.98-4.57c-2.02 0-3.94 0.65-6.43 1.58-1.88 0.72-3.19 1.26-3.85 1.26-0.52 0-0.94-0.14-0.94-0.89 0-0.89 0.75-1.88 2.39-3 2.02-1.39 5.07-2.03 8.31-2.03 0.79 0.35 1.18 0.54 1.69 0.54 0.85 0 2.02-0.19 2.02-1.97 0-1.42-1.79-2.5-3.76-2.5-3.8 0-7.51 0.93-10.18 2.5-2.87 1.78-4.79 4.29-4.79 7.35 0 2.56 2.2 4.33 4.41 4.33 2.35 0 4.09-0.74 6.3-1.62 1.83-0.72 3.19-1.21 4.22-1.21 0.88 0 1.4 0.44 1.4 1.24 0 1.13-0.52 2.56-2.24 4.05-2.02 1.78-4.88 2.57-6.71 2.57-1.58 0-2.29-0.39-2.81-0.74l0.1-0.79c0-1.38-1.18-1.68-2.4-1.68-0.8 0-1.92 0.89-1.92 2.72 0 1.23 0.98 2.51 2.25 3.25 1.22 0.74 3.29 1.18 4.74 1.18 3.65 0 7.22-1.68 9.6-3.59 1.88-1.49 3.72-4.21 3.72-7.62 0-2.12-1.31-4.93-5.12-4.93zm35.22 6.05c-2.58 2.57-6.9 4.7-9.72 5.24l0-21.56c1.79-1.14 4.89-2.37 8.16-2.37 3.82 0 6.34 3.21 6.34 7.27 0 3.46-1.35 8-4.78 11.42zm-0.8-22.88c-3.66 0-5.4 0.59-8.73 1.87-0.19-1.02-0.99-1.57-2.07-1.57-1.22 0-2.63 0.65-2.63 2.13 0 0.54 0.19 1.09 0.19 1.19l0 27.57c0 0.94 0.33 1.83 1.88 1.83 1.32 0 5.02-0.94 8.03-2.28 1.88-0.84 4.83-2.42 7.23-4.7 4.18-4.05 6.06-9.59 6.06-14.98 0-5.74-4.7-11.06-9.96-11.06zm22.63 14.15c2.11 0 2.43 1.49 2.43 2.04 0 0.79-0.51 1.09-1.73 1.44-1.64 0.45-4.02 1.05-7.12 1.69l-0.09-0.05c1.87-4.03 4.17-5.12 6.51-5.12zm0.56 7.25c4.56-1.04 6.2-2.53 6.2-4.72 0-3.42-2.87-6.22-6.48-6.22-3.47 0-6.61 1.58-8.99 4.73-2.03 2.69-3.3 6.26-3.3 10.23 0 4.16 2.3 7.65 6.71 7.65 2.81 0 5.25-0.64 7.64-2.46 1.89-1.43 3.95-3.46 3.95-4.74 0-0.95-0.84-2.04-2.4-2.04-1.17 0-2.3 0.74-2.25 2.18-1.69 2.33-4.45 3.37-6.23 3.37-2.07 0-3.09-1.29-3.09-3.47 0-1.19 0.04-1.93 0.23-2.67l8.01-1.84zm16.69 7.38c-0.66 0-1.54-0.29-1.83-1.09l0-5.49c0.61-1.36 1.83-3.24 4.17-5.32 1.45-1.29 2.68-2.19 4.6-2.19 1.68 0 2.25 1.49 2.25 2.73 0 4.37-4.59 11.36-9.19 11.36zm7.27-18.22c-3.85 0-6.62 2.31-9.1 5.28l0-2.36c0 0 0.29-0.3 0.29-0.89 0-1.73-1.33-2.28-2.55-2.28-1.12 0-2.2 0.8-2.2 2.38 0 0.44 0 0.84 0.23 1.24l0 30.37c-0.23 0.49-0.23 1.08-0.23 1.38 0 1.03 0.47 1.98 2.16 1.98 1.22 0 2.59-0.45 2.59-2.18 0-0.54 0-0.79-0.29-1.13l0-12.03c0.52 0.4 1.08 0.6 2.16 0.6 2.95 0 6.89-2.32 9.47-5.48 2.4-3.02 3.71-6.99 3.71-10.42 0-4.2-2.77-6.46-6.24-6.46zm21.68 15.15c-1.83 1.83-5.85 3.82-7.62 3.82-0.85 0-1.17-0.4-1.17-1.14 0-1.42 1.92-3.8 4.25-5.14 1.78-1.03 4.54-2.12 6.97-2.52 0 2.5-0.33 2.94-2.43 4.98zm6.65-10.88c0-2.41-1.13-4.87-5.16-4.87-3.46 0-7.38 0.64-10.8 3.1-0.99 0.15-1.88 0.99-1.88 2.22 0 1.3 0.99 2.19 2.2 2.19 1.22 0 2.3-0.85 2.44-1.84 1.68-1.18 4.67-1.98 7.06-1.98 1.83 0 1.92 0.5 1.92 1.69l0 2.08c-3 0.3-6.59 1.34-9.77 3.22-3.66 2.19-5.78 5.37-5.78 8.35 0 2.61 1.84 4.23 4.89 4.23 3.31 0 7.71-2.02 10.66-5.48l0 1.7c-0.14 0.2-0.38 0.5-0.38 1.24 0 1.1 0.71 1.94 2.2 1.94 1.18 0 2.73-0.4 2.73-2.03 0-0.45-0.05-0.85-0.33-1.19l0-14.57zm19.69-1.72c-0.33-1.54-1.09-2.69-2.76-2.69-0.7 0-1.17 0.24-2.82 1.18-1.13 0.64-2.72 2.02-4.04 3.16l0-1.38c0.15-0.55 0.19-0.8 0.19-1.09 0-1.09-0.75-1.98-2.11-1.98-1.08 0-2.45 0.6-2.45 2.18 0 0.39 0.05 0.69 0.14 1.08l0 15.43c-0.27 0.4-0.46 0.95-0.46 1.39 0 1.24 0.8 2.18 2.34 2.18 1.84 0 2.82-0.6 2.82-2.33 0-0.49-0.23-0.94-0.47-1.24l0-9.39c1.32-1.44 4.28-3.91 5.69-4.75-0.05 0.64-0.05 0.84-0.05 1.14 0 1.28 1.31 1.88 2.21 1.88 0.66 0 2.01-0.1 2.01-1.88 0-0.66-0.02-1.34-0.09-1.97-0.12-0.25-0.2-0.49-0.2-0.66l0.05-0.26zm21.11 8.11c-0.99 0-1.83 0.49-1.98 1.93-0.84 1.24-1.96 2.28-2.76 2.92-2.21 1.64-2.64 1.94-3.34 1.94-0.42 0-0.42-0.85-0.42-1.54l0-12.48 5.64-0.89c0.32 0.15 0.7 0.1 0.84 0.1 1.12 0 1.83-0.89 1.83-2.46 0-0.44-0.71-1.82-2.07-1.82-0.32 0-0.75 0.14-0.98 0.24l-5.26 0.8 0-2.96c0.24-0.35 0.28-0.74 0.28-1.19 0-1.48-1.21-1.73-2.05-1.73-1.28-0.04-2.6 0.31-2.6 1.89 0 0.24 0 0.64 0.15 0.99l0 3.65-2.63 0.4-0.52-0.1c-1.1 0.04-2.16 0.81-2.29 2.2 0.05 0.29 0.1 0.61 0.14 0.92 0.29 0.59 0.91 1.26 2.05 1.26 0.38-0.08 0.62-0.17 0.9-0.37l2.35-0.35 0 15.32c0 2.33 1.4 3.08 3.14 3.08 1.36 0 3.29-0.9 5.54-2.53 2.35-1.78 6.39-5.36 6.39-7.05 0-0.59-0.28-2.17-2.35-2.17zm35.32-7.91c0-1.42-0.8-3.44-2.58-3.44-2.02 0-4 1.28-9.82 5.56l0-1.08c0-2.13-0.38-4.48-2.73-4.48-0.65 0-1.83 0.19-3.33 1.18-1.27 0.79-2.17 1.38-6.34 4.04l0-1.78c0.33-0.54 0.33-0.83 0.33-1.13 0-1.28-0.71-2.31-2.08-2.31-1.4 0-2.77 0.29-2.77 2.31 0 0.64 0.1 0.93 0.29 1.33l0 15.56c-0.24 0.63-0.24 0.58-0.24 1.17 0 1.09 0.43 2.38 2.45 2.38 1.54 0 2.35-0.84 2.35-2.28 0-0.44-0.06-0.79-0.33-1.18l0-9.59c4.7-2.81 7.32-4.78 7.65-4.78 0.29 0 0.52 0.15 0.52 0.49l0 13.88c-0.28 0.29-0.47 0.74-0.47 1.28 0 1.14 0.57 2.18 2.21 2.18 1.68 0 2.49-0.69 2.49-3.02l0-9.68c7.14-4.93 7.33-5.03 7.7-5.03 0.48 0 0.48 0.44 0.48 1.04l0 13.47c-0.19 0.2-0.29 0.55-0.29 0.94 0 1.49 0.75 2.28 2.21 2.28 1.13 0 2.63-0.55 2.63-2.18 0-0.59-0.09-0.93-0.33-1.28l0-15.85zm17.16 0.84c2.1 0 2.44 1.49 2.44 2.04 0 0.79-0.52 1.09-1.74 1.44-1.64 0.45-4.03 1.05-7.12 1.69l-0.1-0.05c1.88-4.03 4.17-5.12 6.52-5.12zm0.57 7.25c4.54-1.04 6.19-2.53 6.19-4.72 0-3.42-2.87-6.22-6.48-6.22-3.47 0-6.61 1.58-9 4.73-2.02 2.69-3.29 6.26-3.29 10.23 0 4.16 2.31 7.65 6.71 7.65 2.81 0 5.25-0.64 7.64-2.46 1.88-1.43 3.95-3.46 3.95-4.74 0-0.95-0.84-2.04-2.4-2.04-1.18 0-2.3 0.74-2.25 2.18-1.69 2.33-4.45 3.37-6.24 3.37-2.06 0-3.09-1.29-3.09-3.47 0-1.19 0.04-1.93 0.24-2.67l8.02-1.84zm28-8.13c0-2.18-2.44-3.45-3.7-3.45-2.45 0-5.46 2.76-9.55 5.76l0-2.41c0.14-0.24 0.33-0.64 0.33-1.23 0-0.9-0.42-2.12-2.3-2.12-1.17 0-2.45 0.78-2.45 2.22 0 0.44 0.06 0.78 0.19 1.04l0 5.62c-0.32 0.54-0.47 1.18-0.47 1.68 0 0.44 0.09 0.94 0.47 1.33l0 7.7c-0.19 0.34-0.38 0.74-0.38 1.28 0 1.04 0.76 1.93 2.26 1.93 1.09 0 2.49-0.3 2.49-2.13 0-0.39-0.05-0.69-0.14-0.93l0-8.99c4.09-3.2 7.43-5.82 7.99-5.82 0.33 0 1.03 0.29 1.03 0.93l0 13.93c-0.14 0.34-0.23 0.59-0.23 0.83 0 1.24 0.85 2.18 2.25 2.18 1.41 0 2.35-0.64 2.35-2.27 0-0.4 0-0.69-0.14-1.04l0-16.04zm21.28 7.95c-0.98 0-1.83 0.49-1.97 1.93-0.85 1.24-1.97 2.28-2.77 2.92-2.2 1.64-2.63 1.94-3.33 1.94-0.43 0-0.43-0.85-0.43-1.54l0-12.48 5.64-0.89c0.33 0.15 0.71 0.1 0.85 0.1 1.12 0 1.83-0.89 1.83-2.46 0-0.44-0.71-1.82-2.07-1.82-0.33 0-0.75 0.14-0.98 0.24l-5.27 0.8 0-2.96c0.24-0.35 0.29-0.74 0.29-1.19 0-1.48-1.23-1.73-2.07-1.73-1.26-0.04-2.58 0.31-2.58 1.89 0 0.24 0 0.64 0.14 0.99l0 3.65-2.63 0.4-0.51-0.1c-1.17 0.04-2.35 0.89-2.35 2.47 0 0.53 0.61 1.91 2.26 1.91 0.36-0.08 0.6-0.17 0.88-0.37l2.35-0.35 0 15.32c0 2.33 1.41 3.08 3.15 3.08 1.36 0 3.28-0.9 5.53-2.53 2.35-1.78 6.39-5.36 6.39-7.05 0-0.59-0.28-2.17-2.35-2.17zm-365.07-117.72l0.05-2.93 8.93-0.05c0.61 0 0.89 0.46 0.82 1.4l0-0.05 0.05 1.58-9.85 0.05zm9.85 5.59c0 0.94-0.42 1.33-1.26 1.17l-8.59 0.05 0-3.14 9.85 0.05 0 1.87zm-13.15 11.43c-0.36-0.81-0.85-1.21-1.46-1.21-0.28 0-0.62 0.18-1.02 0.53-0.4 0.34-0.71 0.6-0.93 0.76 0.14-0.3 0.22-0.58 0.22-0.85 0-0.51-0.25-0.96-0.76-1.35l-5.95-4.34 9.9 0 0 6.46zm-0.05-23.68l-11.6-0.08c-0.43 0-0.78 0.22-1.05 0.62-0.29 0.42-0.43 0.9-0.43 1.46 0 1.11 0.43 1.68 1.29 1.68l11.79 0.05 0 2.93-13.84 0-0.03-7.48c0-0.87 0.41-1.29 1.24-1.29l12.63 0.04 0 2.07zm19.78 6.61l-3.28 0 0-3.08c0-0.99-0.31-1.85-0.94-2.57-0.62-0.72-1.38-1.08-2.29-1.08l-9.79 0.04 0-2.11 15.34 0.08c0.84 0 1.26-0.58 1.26-1.74 0-1.31-0.5-1.97-1.5-1.97l-15.95 0-0.04-3.03c0-1.02-0.51-1.53-1.53-1.53-1.17 0-1.75 0.54-1.75 1.62l0.1 2.94-11.53 0c-3.35-0.03-5.03 1.53-5.03 4.68l0.05 9.75c0 6.88-0.29 11.62-0.86 14.21-0.58 2.6-1.53 5.48-2.86 8.67-0.24 0.47-0.35 0.91-0.35 1.33 0 1.21 0.51 1.8 1.53 1.8 0.43 0 0.83-0.17 1.21-0.51 0.72-0.64 1.62-2.84 2.68-6.59 0.73-2.56 1.24-5.27 1.55-8.11 0.3-2.84 0.46-5.89 0.46-9.13l13.79-0.05 0 3.29c-6.86 0-10.73 0.01-11.62 0.05-0.87 0.02-1.31 0.55-1.31 1.57 0 0.43 0.08 0.8 0.25 1.11-0.51 0.35-0.77 0.84-0.77 1.49 0 0.75 0.29 1.32 0.87 1.69l6.16 4.82c0.64 0.49 1.18 0.68 1.61 0.59-1.76 1.29-4.89 3.2-9.38 5.72-0.61 0.33-0.91 0.86-0.91 1.59 0 0.49 0.14 0.91 0.42 1.28 0.28 0.37 0.61 0.56 1.01 0.56 0.35 0 1.92-0.78 4.73-2.34 2.8-1.55 5.58-3.48 8.35-5.8l0.02 0 0.57-0.92 0 5.46c0 1.1-0.42 1.64-1.23 1.64-0.3 0-0.81-0.13-1.52-0.41-0.72-0.28-1.26-0.56-1.62-0.84-0.36-0.28-0.66-0.42-0.92-0.42-0.47 0-0.92 0.25-1.35 0.75-0.43 0.51-0.64 1.03-0.64 1.6 0 0.81 0.69 1.6 2.06 2.35 1.37 0.77 2.61 1.14 3.71 1.14 1.39 0 2.53-0.49 3.43-1.46 0.91-0.98 1.37-2.07 1.4-3.3 0.02-1.21 0.03-3.84 0.03-7.86 1.63 2.27 4.08 4.75 7.34 7.47 3.27 2.71 5.8 4.07 7.62 4.07 0.95 0 1.42-0.67 1.42-2 0-0.92-0.27-1.44-0.81-1.55-3.46-1.18-6.7-3.32-9.72-6.44 0.59-0.05 1.07-0.2 1.44-0.45 0.38-0.26 1.15-0.82 2.34-1.68 1.18-0.87 2.43-1.82 3.73-2.88 1.31-1.05 2.04-1.7 2.2-1.95 0.15-0.24 0.23-0.54 0.23-0.91 0-0.49-0.14-0.93-0.44-1.33-0.29-0.39-0.65-0.59-1.06-0.59-0.3 0-0.57 0.1-0.82 0.32-0.25 0.22-1.21 0.98-2.88 2.28-1.68 1.31-3.04 2.34-4.07 3.09-1.04 0.74-1.63 1.31-1.78 1.7-0.15 0.38-0.23 0.67-0.23 0.85-2.15-2.21-3.65-3.92-4.51-5.16-0.05-0.38-0.02-0.81 0.08-1.31 1.74-0.04 3.19-0.07 4.34-0.07l4.12 0.07c0.89 0 1.66-0.17 2.32-0.53 0.66-0.34 1.16-0.82 1.53-1.41 0.36-0.6 0.56-1.31 0.61-2.16 0.05-0.85 0.09-1.74 0.1-2.68l3.24-0.1c0.84 0 1.25-0.57 1.25-1.72 0-1.27-0.4-1.9-1.21-1.9zm29.11 6.42c-0.98 0.02-1.47-0.56-1.47-1.72l0-4.2 5.6 0 0 4.15c0 1.15-0.47 1.72-1.38 1.72l-2.75 0.05zm-1.47-12.98c0-0.55 0.08-0.94 0.25-1.15 0.17-0.21 0.57-0.32 1.18-0.32l2.57 0c0.67 0 1.1 0.1 1.3 0.31 0.2 0.2 0.3 0.64 0.3 1.32l0 3.82-5.6 0 0-3.98zm13.81 5.36c-1.6 3.2-2.91 5.59-3.94 7.15-0.38 0.13-0.63 0.27-0.75 0.4l-0.27 0.25-0.04-12.31 5 4.51zm9.33 26.04c-5.76-1.84-11.51-5.07-17.27-9.69 2.36 0.05 4.76 0.07 7.18 0.07 6.04 0 9.26-0.07 9.67-0.22 0.41-0.15 0.62-0.58 0.62-1.3 0-1.09-0.56-1.64-1.66-1.64l-17.51 0 0-2.75 2.36 0c0.49 0 1.01-0.27 1.54-0.79 0.29-0.3 0.48-0.63 0.61-0.97 0.04 0.26 0.07 0.52 0.22 0.8 0.21 0.39 0.45 0.59 0.72 0.59l0.2-0.06 9.96-1.1c0.94 2.14 1.48 3.28 1.62 3.42 0.14 0.15 0.33 0.22 0.55 0.22 0.4 0 0.78-0.17 1.16-0.53 0.38-0.34 0.57-0.75 0.57-1.19 0-0.24-0.52-1.63-1.56-4.14-1.04-2.52-1.81-4.17-2.29-4.97-0.47-0.8-0.97-1.2-1.48-1.2-0.39 0-0.74 0.15-1.04 0.46-0.31 0.3-0.46 0.66-0.46 1.07 0 0.23 0.05 0.46 0.15 0.69l1.4 3.4c-2.07 0.3-3.66 0.48-4.73 0.55 1.84-3.19 3.48-6.5 4.94-9.95 1.46-3.43 2.18-5.24 2.18-5.42 0-0.37-0.21-0.73-0.62-1.07-0.43-0.33-0.86-0.5-1.3-0.5-0.5 0-0.81 0.21-0.96 0.64-1.15 2.99-2.07 5.21-2.77 6.65l-2.05-1.92c2.18-5.8 3.26-8.97 3.26-9.49 0-0.3-0.19-0.57-0.57-0.8-0.39-0.24-0.82-0.36-1.27-0.36-0.6 0-0.96 0.2-1.1 0.62-1.05 3.44-2 6.1-2.88 7.96-0.24-0.1-0.47-0.15-0.66-0.15-0.42 0-0.77 0.21-1.06 0.61l0.04-1.42c0-1.51-1.55-2.21-4.63-2.07 0.16-2.49 0.24-3.89 0.24-4.22 0-0.95-0.48-1.42-1.43-1.42-0.43 0-0.8 0.13-1.11 0.42-0.32 0.29-0.48 0.72-0.5 1.29-0.03 0.58-0.13 1.89-0.29 3.93-0.52-0.06-0.98-0.08-1.36-0.08-2.07 0-3.11 0.94-3.11 2.81l0.06 15.24c0.01 0.51 0.28 1.06 0.79 1.64 0.5 0.57 1.42 0.86 2.73 0.86 0.23 0 0.48-0.02 0.74-0.05l-0.02 2.75c-5.21-0.04-9.08-0.07-11.6-0.07-2.83 0-4.46 0.02-4.9 0.04-0.45 0.03-0.81 0.19-1.09 0.51-0.28 0.31-0.42 0.67-0.42 1.08 0 0.96 0.52 1.46 1.55 1.53l15.62 0c-2.09 2.08-5.4 4.37-9.92 6.86-4.52 2.48-7.04 3.93-7.56 4.34-0.52 0.41-0.78 0.86-0.78 1.36 0 0.87 0.53 1.3 1.58 1.3 0.38 0 1.49-0.44 3.33-1.33 1.84-0.89 4.19-2.18 7.06-3.86 2.86-1.69 5.24-3.43 7.13-5.24l0.02 5.55 0 3.45c0.02 0.72 0.17 1.2 0.46 1.42 0.28 0.22 0.64 0.34 1.05 0.34 1.21 0 1.79-0.78 1.71-2.31-0.07-1.54-0.08-4.71-0.03-9.51 4.52 3.66 8.41 6.26 11.68 7.8 3.27 1.54 5.34 2.31 6.23 2.31 0.52 0 0.99-0.17 1.38-0.51 0.39-0.33 0.59-0.7 0.59-1.09 0-0.51-0.3-0.9-0.91-1.19zm-41.05-18.03c-0.34 0.17-0.5 0.52-0.5 1.07 0 0.42 0.13 0.8 0.38 1.12 0.26 0.32 0.6 0.48 1.03 0.46l11-0.87c0.48 1.48 1.13 2.22 1.95 2.22 0.94 0 1.46-0.53 1.58-1.6l-3.04-7.37c-0.24-0.58-0.64-0.87-1.18-0.87-0.41 0-0.79 0.17-1.13 0.5-0.35 0.33-0.52 0.72-0.52 1.18 0 0.29 0.12 0.73 0.39 1.29 0.26 0.57 0.49 1.15 0.67 1.71-1.61 0.28-2.85 0.44-3.73 0.48 1.08-1.67 2.37-4.15 3.9-7.47 1.53-3.31 2.66-5.62 3.38-6.94 0.12-0.21 0.17-0.42 0.17-0.64 0-0.37-0.18-0.7-0.56-0.96-0.36-0.26-0.79-0.39-1.26-0.39-0.72 0-1.23 0.3-1.51 0.88-0.3 0.59-0.75 1.72-1.38 3.35-0.62 1.65-1.04 2.67-1.23 3.06l-1.93-1.82 3.7-10.4 0.05-0.25c0-0.32-0.2-0.63-0.61-0.93-0.42-0.3-0.83-0.45-1.26-0.45-0.33 0-0.57 0.07-0.73 0.21-0.16 0.15-0.66 1.37-1.52 3.66l-2.3 6.01c-0.21-0.21-0.49-0.42-0.86-0.67-0.38-0.24-0.7-0.47-0.97-0.68-0.27-0.21-0.5-0.32-0.7-0.32-0.38 0-0.71 0.17-0.99 0.51-0.28 0.35-0.42 0.72-0.42 1.11 0 0.3 0.07 0.51 0.2 0.62 0.13 0.12 1.08 0.93 2.83 2.42 1.76 1.5 3.1 2.7 4.03 3.6-0.91 1.9-2.21 4.17-3.9 6.78-1.7 0.1-2.7 0.23-3.03 0.39zm76.11 9.59c-4.39-3.74-7.67-8.51-9.84-14.33l0.05 0.05 17.09 0.05c0.58 0 0.87 0.27 0.87 0.81 0 1-0.65 2.84-1.96 5.49-1.31 2.66-3.38 5.3-6.21 7.93zm-11.62-27.06l13.15 0c0.66 0 0.99 0.36 0.99 1.07 0 1.16-0.68 3.84-2.02 8.01-2.61 0.05-5.29 0.08-8.07 0.08-2.38 0-3.82-0.03-4.3-0.08 0.25-4.52 0.33-7.54 0.25-9.08zm26.4 36.45c-5.76-2.79-9.81-5.1-12.16-6.9 2.73-2.73 4.93-5.74 6.6-9.04 1.67-3.29 2.5-5.83 2.5-7.58 0-0.97-0.27-1.85-0.83-2.63-0.56-0.78-1.49-1.17-2.77-1.17l-4.24 0.05c1.56-5.13 2.34-8.23 2.34-9.3 0-1.08-0.27-1.93-0.8-2.53-0.54-0.6-1.19-0.9-1.96-0.9l-26.87-0.05c-0.99 0-1.48 0.65-1.48 1.92 0 1.09 0.43 1.63 1.29 1.63l8.78-0.05c0.1 4.99-0.2 9.75-0.94 14.28-0.74 4.54-1.87 8.46-3.38 11.76-1.52 3.31-3.6 6.62-6.27 9.92-0.33 0.38-0.49 0.79-0.49 1.24 0 0.4 0.15 0.8 0.44 1.19 0.3 0.39 0.65 0.58 1.06 0.58 1.45 0 3.51-2.47 6.18-7.4 2.67-4.93 4.49-10.44 5.44-16.52 2.35 5.54 5.69 10.41 10.02 14.6-4.15 3.26-9.35 5.53-15.62 6.8-0.77 0.14-1.16 0.66-1.16 1.58 0 1.24 0.42 1.86 1.27 1.86 0.88 0 2.91-0.43 6.08-1.29 3.18-0.85 6.51-2.58 10-5.18 0.95-0.7 1.67-1.19 2.14-1.45 2.26 1.83 4.93 3.56 8.03 5.2 3.1 1.62 4.94 2.44 5.52 2.44 0.47 0 0.88-0.22 1.22-0.66 0.34-0.45 0.51-0.94 0.51-1.49 0-0.47-0.16-0.78-0.45-0.91zm29.62-11.93c-4.91-5.66-7.87-12.22-8.9-19.7l17.59 0c-0.93 7.61-3.82 14.18-8.69 19.7zm19.42-23.42l-18.07 0 0-5.78c0-1.03-0.53-1.55-1.6-1.55-0.98 0-1.52 0.46-1.61 1.36l-0.05 6.06-16.49 0c-0.98 0-1.56 0.1-1.74 0.29-0.2 0.19-0.33 0.43-0.43 0.72-0.09 0.28-0.13 0.58-0.13 0.9 0 1.15 0.39 1.72 1.18 1.72l7.26-0.05c0.95 8.06 4.19 15.56 9.72 22.5-4.4 4.04-10.11 7.11-17.15 9.22-0.54 0.22-0.82 0.76-0.82 1.58 0 1.31 0.56 1.97 1.66 1.97 1.19 0 3.8-0.99 7.86-2.98 4.05-1.97 7.68-4.47 10.87-7.47 3.33 3.18 7.02 5.77 11.07 7.76 4.05 1.99 6.51 2.99 7.38 2.99 0.48 0 0.87-0.22 1.19-0.65 0.33-0.43 0.49-0.9 0.49-1.43 0-0.74-0.29-1.19-0.87-1.36-6.02-1.43-11.61-4.68-16.77-9.76 5.43-6.19 8.66-13.66 9.69-22.42l5.91 0.08c0.65 0 1.17-0.01 1.53-0.02 0.38-0.01 0.67-0.18 0.88-0.54 0.21-0.35 0.32-0.78 0.32-1.27 0-1.23-0.43-1.85-1.28-1.87zm20.71-7.39c-0.88 0-1.35 0.42-1.4 1.24-1 6.17-2.08 10.63-3.24 13.39-1.14 2.76-2.51 5.02-4.09 6.78-0.48 0.54-0.93 1.02-1.34 1.43-0.42 0.41-0.64 0.9-0.64 1.46 0 0.67 0.2 1.17 0.58 1.48 0.37 0.31 0.75 0.46 1.13 0.46 0.51 0 1.16-0.47 1.95-1.43 0.79-0.95 1.64-2.13 2.56-3.52l0 23.18c0 1.3 0.51 1.95 1.54 1.95 0.43 0 0.83-0.14 1.18-0.43 0.35-0.3 0.52-0.64 0.52-1.02l0-29.99 1.15-3.59c0.35-1.14 0.66-2.32 0.91-3.52 0.25-1.2 0.48-2.35 0.68-3.48 0.19-1.12 0.29-1.94 0.29-2.49 0-1.26-0.59-1.9-1.78-1.9zm27.81 30c-0.44 0-0.84 0.16-1.19 0.48-0.34 0.32-0.51 0.7-0.51 1.17l0.15 3.13c0 1.91-0.27 3.39-0.82 4.48-0.54 1.07-1.24 1.81-2.1 2.21-0.85 0.41-2.81 0.61-5.89 0.61-2.91 0-4.86-0.65-5.84-1.93-1-1.3-1.45-3.22-1.39-5.78 0.06-2.55 0.07-6.08 0.02-10.57 3.03-2.07 5.81-4.1 8.34-6.08 2.54-2 4.87-4 7-6.02 2.13-2.01 3.27-3.19 3.42-3.54 0.16-0.35 0.24-0.68 0.24-0.98 0-0.47-0.14-0.9-0.43-1.3-0.28-0.38-0.65-0.57-1.1-0.57-0.41 0-0.77 0.19-1.06 0.57-4.97 4.99-10.44 9.55-16.41 13.63l-0.05 0.05 0.05-18.17c0-1.24-0.49-1.85-1.48-1.85-0.46 0-0.87 0.17-1.22 0.52-0.35 0.34-0.53 0.78-0.53 1.33l0 34.4c0 3.04 0.76 5.44 2.28 7.21 1.5 1.77 4.52 2.65 9.05 2.65 4.44 0 7.41-0.96 8.93-2.89 1.51-1.93 2.27-4.57 2.27-7.91 0-2.22-0.15-3.58-0.45-4.09-0.29-0.51-0.72-0.76-1.28-0.76zm45.59-3.71l0 1.71-12.07 0 0-2.77 11.15 0c0.64 0 0.96 0.36 0.96 1.06l-0.04 0zm0.04 6.72c0 1.01-0.3 1.52-0.91 1.52l-11.15 0.05 0-2.79 12.06 0 0 1.22zm-15.46-16.72l-11.11 0c-0.37 0-0.56-0.36-0.56-1.07 0-0.15 0.02-0.51 0.07-1.07 0.04-0.57 0.33-0.85 0.86-0.85l10.74 0 0 2.99zm3.35-2.99l10.88 0c0.4 0 0.6 0.47 0.6 1.4 0 1.02-0.27 1.53-0.8 1.53l-10.68 0.06 0-2.99zm18.18 14.74l-2.91 0 0.08-2.58c0-1.01-0.33-1.9-1-2.69-0.67-0.79-1.46-1.18-2.38-1.18l-12.02 0-0.03-1.61 10.89 0c2.49 0 3.75-1.76 3.75-5.28 0-1.85-0.37-3.14-1.1-3.85-0.73-0.72-1.47-1.08-2.21-1.08l-11.3 0-0.03-1.82c2.52-0.04 5.55-0.05 9.09-0.05 5.19 0 8.26 0.01 9.17 0.05 0.92 0.03 1.39-0.53 1.39-1.68 0-1.22-0.4-1.86-1.19-1.95l-18.43 0c0.05-0.46 0.05-1.24-0.01-2.34-0.06-1.11-0.63-1.65-1.71-1.65-1.1 0-1.66 0.7-1.66 2.11l0.03 1.93-8.04 0-6.96-0.02-3.11 0.02c-0.38 0-0.67 0.17-0.91 0.51-0.21 0.33-0.32 0.75-0.32 1.24 0 1.15 0.41 1.73 1.23 1.73l18.08 0.05 0.03 1.87-9.11-0.07c-1.91 0-3.14 0.1-3.7 0.31-0.56 0.2-1.03 0.65-1.42 1.35-0.39 0.69-0.58 1.89-0.58 3.56 0 3.45 1.18 5.16 3.53 5.16l11.37-0.04-0.09 1.59-14.29-0.04c-0.41 0-0.77 0.19-1.07 0.59-0.31 0.39-0.46 0.9-0.46 1.5 0 0.39 0.15 0.74 0.46 1.03 0.3 0.28 0.69 0.43 1.15 0.43l14.18 0 0 3-17.26 0c-0.57 0-0.97 0.19-1.23 0.59-0.26 0.38-0.39 0.75-0.39 1.09 0 1.25 0.46 1.87 1.37 1.87l17.51-0.04 0 3.13-14.62-0.03c-0.98-0.01-1.47 0.64-1.47 1.96 0 1.13 0.41 1.69 1.24 1.69l14.85-0.04 0.03 2.27c0 1.06-0.59 1.6-1.75 1.6-0.83 0-1.86-0.25-3.1-0.76-1.24-0.5-2.13-0.75-2.66-0.75-0.6 0-1.06 0.25-1.37 0.73-0.31 0.48-0.47 0.97-0.47 1.47 0 0.49 0.13 0.87 0.4 1.16 0.25 0.28 1.24 0.68 2.94 1.2 1.7 0.54 3.16 0.8 4.38 0.8 1.53 0 2.77-0.35 3.7-1.04 0.94-0.69 1.39-1.72 1.36-3.1-0.04-1.37-0.05-2.6-0.03-3.69l-0.05 0 5.55-0.02 5.8-0.02c0.83 0 1.54-0.21 2.15-0.61 0.61-0.43 1.08-0.95 1.42-1.58 0.33-0.63 0.5-1.28 0.5-1.96l-0.05-2.47c0.27 0.04 1.23 0.06 2.89 0.06 1.05 0 1.58-0.56 1.58-1.65 0-0.52-0.14-0.97-0.44-1.37-0.3-0.41-0.68-0.6-1.17-0.59zm35.13-19.23l8.31 0c-0.72 3.29-2.02 5.79-3.92 7.52-1.97-1.89-3.44-4.39-4.39-7.52zm15.32 13.39c-4.07-1.24-6.82-2.43-8.27-3.54 2.22-2.36 3.81-5.64 4.76-9.85 0.91 0 1.79 0.01 2.64 0.03 0.86 0.01 1.28-0.55 1.28-1.71 0-1.31-0.42-1.98-1.28-1.99l-14.08-0.05c0.23-1.29 0.35-2.3 0.35-3.03 0-1.13-0.63-1.69-1.85-1.69-0.97 0-1.5 0.39-1.57 1.17 0 4.98-1.9 9.09-5.72 12.33-0.34 0.28-0.51 0.64-0.51 1.08 0 0.48 0.16 0.91 0.49 1.29 0.33 0.37 0.72 0.56 1.16 0.56 1.13 0 2.75-1.57 4.86-4.7 1.15 2.64 2.48 4.79 3.99 6.45-1.6 1.09-3.87 2.18-6.8 3.29-0.57 0.24-0.84 0.75-0.84 1.52 0 1.29 0.55 1.93 1.65 1.93 0.62 0 1.86-0.46 3.7-1.38 1.85-0.93 3.54-1.9 5.09-2.91 1.87 1.46 3.93 2.59 6.18 3.4 2.24 0.81 3.61 1.21 4.13 1.21 0.44 0 0.81-0.21 1.11-0.63 0.29-0.42 0.44-0.9 0.44-1.45 0-0.85-0.3-1.3-0.91-1.33zm-24.69 1.14c0 0.79-0.72 2.66-2.15 5.62-0.13 0.33-0.2 0.64-0.2 0.94 0 0.49 0.17 0.91 0.52 1.24 0.34 0.34 0.74 0.51 1.2 0.51 0.65 0 1.22-0.47 1.72-1.42 0.51-0.94 0.97-2.11 1.42-3.52 0.45-1.39 0.66-2.82 0.66-4.29 0-2.61-1.17-3.92-3.55-3.92l-1.94 0.05-1.59-2.66c2.7-1.97 4.61-3.91 5.72-5.83 1.11-1.91 1.66-3.39 1.66-4.41 0-0.72-0.26-1.38-0.77-1.97-0.52-0.59-1.03-0.89-1.53-0.89l-15.73 0.11c-0.35 0.01-0.65 0.19-0.9 0.55-0.26 0.35-0.39 0.75-0.39 1.19 0 0.8 0.39 1.39 1.16 1.8l14.69 0c-1.4 2.72-3.42 4.94-6.06 6.66l-3.86-4.39c-0.25-0.29-0.62-0.44-1.09-0.44-0.44 0-0.85 0.16-1.2 0.48-0.35 0.32-0.53 0.7-0.53 1.15 0 0.47 0.15 0.85 0.45 1.13 0.31 0.28 1.13 1.18 2.45 2.7 1.33 1.52 2.53 3.11 3.61 4.77-1.23 0.05-2.64 0.08-4.21 0.08l-3.27-0.03c-0.96 0-1.56 0.09-1.79 0.26-0.23 0.18-0.41 0.41-0.55 0.71-0.13 0.29-0.19 0.61-0.19 0.96 0 1.1 0.44 1.67 1.33 1.72l7.67-0.05c-1.72 3.87-4.56 7.69-8.51 11.47-0.26 0.28-0.4 0.64-0.4 1.09 0 0.49 0.16 0.93 0.48 1.32 0.31 0.38 0.67 0.57 1.11 0.57 1.4 0 3.97-2.82 7.67-8.46 0.03 1.47 0.05 5.75 0.05 12.85 0 1.06-0.57 1.58-1.7 1.58-1.27 0-2.95-0.45-5.01-1.38l-0.54-0.12c-0.44 0-0.84 0.21-1.16 0.64-0.31 0.43-0.48 0.91-0.48 1.46 0 0.47 0.13 0.84 0.37 1.1 0.25 0.25 1.13 0.6 2.65 1.05 1.51 0.43 2.7 0.66 3.57 0.66 1.62 0 2.94-0.38 3.99-1.15 1.05-0.76 1.57-1.84 1.57-3.24l0.02-19.44c1.73 0 2.75 0.06 3.07 0.16 0.32 0.11 0.49 0.46 0.49 1.03zm22.12 4.83c-0.54-0.64-1.97-0.93-4.27-0.87-2.32 0.05-3.84 0.05-4.56 0l0-2.68c0-1.2-0.51-1.8-1.53-1.8-0.46 0-0.87 0.17-1.23 0.52-0.37 0.34-0.54 0.77-0.54 1.28l0.1 2.73-6.4-0.05c-0.98 0-1.48 0.66-1.48 1.96 0 1.11 0.43 1.68 1.28 1.68l6.37 0c-0.52 6.34-4.41 10.24-11.65 11.71-0.46 0.15-0.68 0.61-0.68 1.38 0 1.38 0.6 2.07 1.8 2.07 0.72 0 2.44-0.55 5.17-1.67 2.72-1.1 4.78-2.72 6.18-4.86 1.39-2.14 2.25-5.02 2.56-8.63l5.95 0c0.54 0 0.81 0.46 0.81 1.4 0 3.45-0.06 5.73-0.17 6.83-0.12 1.1-0.51 1.94-1.17 2.52-0.67 0.58-1.57 0.86-2.7 0.86-0.58 0-1.25-0.19-2.02-0.59-0.76-0.4-1.26-0.6-1.51-0.6-0.44 0-0.79 0.23-1.07 0.67-0.3 0.44-0.44 0.97-0.44 1.55 0 0.68 0.21 1.2 0.62 1.56l0 0.05c1.61 0.67 3.16 1.01 4.64 1.01 2.04 0 3.77-0.71 5.2-2.15 1.43-1.43 2.15-4.5 2.15-9.22 0-2.63-0.1-4.24-0.29-4.82-0.2-0.59-0.57-1.19-1.12-1.84zm34.13-6.43l0-2.71 6.41 0c-2.32 1.85-4.22 2.78-5.7 2.78-0.23 0-0.47-0.02-0.71-0.07zm10.11 8.81c0.22 0.21 0.32 0.68 0.32 1.4 0 0.25-0.03 0.82-0.09 1.73l-20.83 0 0-1.34 4.37-2.07 16.23 0.28zm-0.15 10.99l-20.2-0.14c-0.22-0.4-0.32-1.05-0.32-1.98l0.07-2.07 0.03-0.05 20.75 0 0.12 2.4c0 0.93-0.15 1.55-0.45 1.84zm-15.05-36.35l7.73 0 0 4.83-7.73 0 0-4.83zm-3.28 4.83l-6.9-0.1c-0.2-0.29-0.3-0.83-0.3-1.62l0.07-2.36c0-0.5 0.11-0.75 0.32-0.75l6.81 0 0 4.83zm14.34-4.83l7.17 0.05c0.25 0.25 0.38 0.83 0.38 1.73 0 2.03-0.15 3.05-0.45 3.05l-7.1 0 0-4.83zm4.78 10.41l-10.88-0.27 0.05-1.75 13.6-0.13-2.64 2.35-0.13-0.2zm0.89 9.54c2.74-0.01 5.04-0.09 6.93-0.22 0.36-0.44 0.55-0.93 0.55-1.45 0-0.6-0.23-1.16-0.69-1.68l-9.8-0.15c4.38-2.93 7.05-5.3 8.02-7.1-0.31-1.11-0.76-1.73-1.36-1.88 0.91-0.61 1.36-2.01 1.36-4.22l-0.12-3.03c-0.04-0.89-0.18-1.53-0.44-1.93-0.25-0.4-0.6-0.8-1.04-1.2-0.44-0.39-0.82-0.59-1.12-0.59l-29.33-0.05c-0.03 0-0.21 0.02-0.56 0.08-0.33 0.04-0.51 0.07-0.51 0.07-1.59 0.87-2.38 2.43-2.38 4.66 0 0.46 0.04 1.15 0.1 2.07 0.08 0.92 0.12 1.59 0.12 2 0 0.56 0.32 1.19 0.96 1.89 0.64 0.69 1.19 1.04 1.63 1.04l12.82 0.23-0.04 1.8-13.84 0c-0.55 0-0.99 0.17-1.32 0.52-0.34 0.33-0.51 0.76-0.51 1.25 0 0.75 0.37 1.33 1.11 1.73l14.56-0.05 0 2.76c-11.95 0-17.99 0.07-18.14 0.22-0.36 0.39-0.54 0.86-0.54 1.38 0 0.71 0.3 1.27 0.89 1.68l17.42 0.17c-6.18 3.23-12.2 5.67-18.06 7.33-0.38 0.36-0.57 0.79-0.57 1.3 0 0.7 0.31 1.28 0.92 1.76 1.94-0.25 4.48-0.91 7.62-2l0.09 6.71c0.04 0.62 0.07 1.23 0.11 1.81 0.03 0.58 0.33 1.21 0.91 1.88 0.58 0.66 1.18 1.04 1.82 1.14 0.63 0.1 1.55 0.15 2.74 0.15l4.42-0.07 5.72 0.05c5.85 0 8.89-0.09 9.16-0.25 0.8-0.51 1.41-1.11 1.81-1.81 0.4-0.7 0.6-2.64 0.6-5.81 0-1.51-0.03-3.21-0.12-5.08-0.08-1.88-0.2-2.94-0.36-3.18-0.15-0.25-0.36-0.54-0.62-0.87-0.27-0.33-0.55-0.61-0.84-0.85-0.28-0.24-0.55-0.36-0.8-0.36l-10.78-0.14 3.16-1.71 8.34 0zm-507.84 140.42c54.98 0 99.56-44.58 99.56-99.56 0-54.99-44.58-99.56-99.56-99.56-54.99 0-99.57 44.57-99.57 99.56 0 54.98 44.58 99.56 99.57 99.56z"/>
  <path fill="#bbe2ef" d="M340.02 360.32c9.61-4.73 18.34-10.94 25.9-18.38 29.14-137.82-147.85-10.01-210.78 68.67 182.39-135.97 202.99-110 184.88-50.29zm-10.59-139.53c11.19 0 20.25-7.3 20.25-16.32 0-9.03-9.06-16.34-20.25-16.34-11.19 0-20.25 7.31-20.25 16.34 0 9.02 9.06 16.32 20.25 16.32zm51.33 32.26c-18.52 82.18-140.86-92.7-155.97-18.09 6.25-90.04 149.78 84.29 149.99-15.81l0.2-0.33c8.9 22.65 6.51 26.7 5.78 34.23z"/>
  <path fill="#d29f10" d="M1106.1 220.15l-30.28 0c-28.14 0-49.98 19.11-56.98 49.88-4.21 19.31-18 31.34-35.98 31.42l-30.33 0c-2.6 0-4.72 2.11-4.72 4.71l0 11.65c0 2.6 2.12 4.72 4.72 4.72l30.28 0c28.14 0 49.97-19.12 56.98-49.89 4.21-19.3 18-31.33 35.99-31.41l30.32 0c2.6 0 4.72-2.12 4.72-4.72l0-11.65c0-2.6-2.12-4.71-4.72-4.71zm0 40.65c-0.02 0-9.56-0.38-17.93-0.38-4.97 0-8.58 0.13-10.73 0.4-9.88 1.21-16.71 6.32-19.72 14.76-0.52 1.43-0.29 3.04 0.59 4.3 0.89 1.25 2.33 1.99 3.86 1.99l43.93 0c2.6 0 4.72-2.11 4.72-4.71l0-11.65c0-2.59-2.12-4.71-4.72-4.71zm-153.57 20.69c0.02 0 9.62 0.38 17.95 0.38 4.96 0 8.56-0.13 10.71-0.4 9.88-1.21 16.7-6.32 19.72-14.76 0.51-1.44 0.29-3.04-0.59-4.3-0.89-1.25-2.33-1.99-3.86-1.99l-43.93 0c-2.6 0-4.72 2.11-4.72 4.71l0 11.65c0 2.59 2.12 4.71 4.72 4.71zm0-40.26l33.59 0c13.3 0 24.11-10.81 24.11-24.09l0-22.47c0-2.6-2.11-4.71-4.71-4.71l-11.67 0c-2.6 0-4.72 2.11-4.72 4.71l0 22.47c0 1.66-1.35 3.01-3.01 3.01l-33.59 0c-2.6 0-4.72 2.12-4.72 4.72l0 11.65c0 2.6 2.12 4.71 4.72 4.71zm153.57 60.22l-33.55 0c-13.3 0-24.12 10.81-24.12 24.09l0 22.47c0 2.6 2.12 4.71 4.72 4.71l11.66 0c2.61 0 4.72-2.11 4.72-4.71l0-22.47c0-1.66 1.36-3.01 3.02-3.01l33.55 0c2.6 0 4.72-2.12 4.72-4.72l0-11.64c0-2.6-2.12-4.72-4.72-4.72zm-47.48-86.17c6.99 0 12.67-5.68 12.67-12.67 0-6.97-5.68-12.65-12.67-12.65-6.99 0-12.68 5.68-12.68 12.65 0 6.99 5.69 12.67 12.68 12.67zm-59.09 112.13c-6.99 0-12.68 5.67-12.68 12.66 0 6.97 5.69 12.65 12.68 12.65 6.99 0 12.67-5.68 12.67-12.65 0-6.99-5.68-12.66-12.67-12.66z"/>
  <path fill="#332c2b" d="M1153.88 212.28c0-0.58 0.28-0.87 0.86-0.87l3.26 0c0.59 0 0.89 0.29 0.89 0.87l0 23.46c0 0.6-0.3 0.9-0.89 0.9l-3.26 0c-0.58 0-0.86-0.3-0.86-0.9l0-23.46zm27.05 23.53c0 0.55-0.28 0.83-0.83 0.83l-3.08 0c-0.58 0-0.86-0.28-0.86-0.83l0-10.64c0-1.26-0.27-2.21-0.81-2.83-0.54-0.62-1.42-0.93-2.67-0.93-1.34 0-2.37 0.39-3.09 1.17-0.73 0.77-1.1 1.83-1.1 3.16l0 10.07c0 0.55-0.27 0.83-0.82 0.83l-3.09 0c-0.55 0-0.82-0.28-0.82-0.83l0-17.23c0-0.55 0.27-0.82 0.82-0.82l2.84 0c0.5 0 0.77 0.24 0.82 0.71l0.18 1.86c1.2-2 3.2-3 6.02-3 2.17 0 3.8 0.6 4.87 1.82 1.07 1.22 1.62 2.94 1.62 5.16l0 11.5zm9.8-14.04l0 8.71c0 1.02 0.17 1.73 0.5 2.11 0.33 0.38 0.99 0.57 1.97 0.57 0.17 0 0.67-0.06 1.51-0.18 0.23-0.02 0.41 0.03 0.52 0.15 0.11 0.12 0.17 0.31 0.19 0.57l0.22 2.01c0.02 0.4-0.2 0.68-0.68 0.82-0.79 0.26-1.8 0.4-3.01 0.4-2.11 0-3.61-0.46-4.52-1.37-0.91-0.91-1.36-2.43-1.36-4.58l0-9.21-1.97 0c-0.57 0-0.86-0.28-0.86-0.83l0-2c0-0.55 0.29-0.82 0.86-0.82l2.04 0 0-4.41c0-0.5 0.28-0.76 0.83-0.76l2.86 0c0.58 0 0.86 0.26 0.86 0.76l0 4.41 3.98 0c0.55 0 0.82 0.27 0.82 0.82l0 2c0 0.55-0.27 0.83-0.82 0.83l-3.94 0zm19.2 6.2c-1.34 0.04-2.44 0.11-3.3 0.19-0.86 0.09-1.68 0.25-2.45 0.47-0.78 0.23-1.35 0.55-1.71 0.97-0.35 0.42-0.53 0.95-0.53 1.59 0 0.77 0.27 1.38 0.82 1.83 0.55 0.46 1.33 0.68 2.33 0.68 1.57 0 2.77-0.39 3.6-1.17 0.82-0.77 1.24-1.78 1.24-3.02l0-1.54zm4.62 7.84c0 0.55-0.29 0.83-0.86 0.83l-2.66 0c-0.49 0-0.77-0.23-0.82-0.68l-0.14-1.94c-1.27 1.96-3.44 2.94-6.52 2.94-1.89 0-3.38-0.48-4.48-1.43-1.1-0.96-1.65-2.31-1.65-4.05 0-1.03 0.2-1.92 0.61-2.67 0.41-0.75 0.95-1.35 1.63-1.79 0.68-0.44 1.58-0.8 2.69-1.08 1.11-0.27 2.24-0.46 3.4-0.57 1.16-0.1 2.55-0.17 4.18-0.2l0-0.82c0-1.12-0.32-1.95-0.97-2.47-0.65-0.53-1.69-0.79-3.12-0.79-1.74 0-3.53 0.36-5.37 1.07-0.5 0.17-0.85 0-1.04-0.5l-0.65-1.97c-0.14-0.43 0.03-0.76 0.51-1 2.12-0.91 4.51-1.36 7.16-1.36 5.4 0 8.1 2.26 8.1 6.81l0 11.67zm21.42 0c0 0.55-0.28 0.83-0.83 0.83l-3.08 0c-0.58 0-0.86-0.28-0.86-0.83l0-10.64c0-1.26-0.27-2.21-0.81-2.83-0.54-0.62-1.42-0.93-2.67-0.93-1.34 0-2.37 0.39-3.09 1.17-0.73 0.77-1.1 1.83-1.1 3.16l0 10.07c0 0.55-0.27 0.83-0.82 0.83l-3.09 0c-0.55 0-0.82-0.28-0.82-0.83l0-17.23c0-0.55 0.27-0.82 0.82-0.82l2.84 0c0.5 0 0.77 0.24 0.82 0.71l0.18 1.86c1.2-2 3.2-3 6.02-3 2.17 0 3.8 0.6 4.87 1.82 1.07 1.22 1.62 2.94 1.62 5.16l0 11.5zm12.34-14.94c-2.72 0-4.08 1.71-4.08 5.13 0 3.41 1.36 5.12 4.08 5.12 1.31 0 2.34-0.45 3.07-1.36 0.72-0.91 1.09-2.22 1.09-3.94 0-3.3-1.39-4.95-4.16-4.95zm8.82 12.58c0 2.46-0.8 4.34-2.38 5.62-1.59 1.3-3.82 1.94-6.69 1.94-2.84 0-5.04-0.37-6.59-1.11-0.48-0.24-0.65-0.56-0.5-0.97l0.61-1.93c0.14-0.53 0.48-0.71 1-0.54 1.7 0.6 3.4 0.9 5.12 0.9 1.63 0 2.86-0.36 3.69-1.08 0.84-0.72 1.26-1.73 1.26-3.04l0-1.54c-0.48 0.88-1.21 1.57-2.21 2.05-0.99 0.49-2.09 0.74-3.31 0.74-2.32 0-4.17-0.7-5.55-2.08-1.39-1.39-2.08-3.52-2.08-6.41 0-2.89 0.67-5.06 2.02-6.49 1.35-1.43 3.16-2.15 5.43-2.15 1.24 0 2.38 0.26 3.4 0.77 1.03 0.51 1.78 1.19 2.26 2.03l0.11-1.69c0.05-0.48 0.33-0.71 0.86-0.71l2.72 0c0.55 0 0.83 0.27 0.83 0.82l0 14.87zm9.3 2.36c0 0.55-0.28 0.83-0.82 0.83l-3.12 0c-0.55 0-0.83-0.28-0.83-0.83l0-17.23c0-0.55 0.28-0.82 0.83-0.82l3.12 0c0.54 0 0.82 0.27 0.82 0.82l0 17.23zm0-20.99c0 0.55-0.26 0.82-0.79 0.82l-3.19 0c-0.52 0-0.79-0.27-0.79-0.82l0-2.51c0-0.55 0.27-0.82 0.79-0.82l3.19 0c0.53 0 0.79 0.27 0.79 0.82l0 2.51zm14.01 18.38c1.53 0 2.66-0.47 3.4-1.42 0.74-0.94 1.11-2.48 1.11-4.6 0-2.12-0.37-3.66-1.11-4.6-0.74-0.95-1.87-1.42-3.4-1.42-3.09 0-4.63 2.01-4.63 6.02 0 4.01 1.54 6.02 4.63 6.02zm-4.88 2.76c-0.04 0.45-0.32 0.68-0.82 0.68l-2.83 0c-0.55 0-0.83-0.27-0.83-0.82l0-23.62c0-0.52 0.28-0.78 0.83-0.78l3.08 0c0.55 0 0.82 0.26 0.82 0.78l0 8.1c0.51-0.93 1.31-1.66 2.41-2.19 1.1-0.52 2.29-0.78 3.58-0.78 2.53 0 4.49 0.83 5.89 2.49 1.4 1.66 2.09 4.11 2.09 7.36 0 3.25-0.69 5.7-2.09 7.36-1.4 1.66-3.36 2.49-5.89 2.49-1.34 0-2.56-0.26-3.68-0.79-1.11-0.52-1.92-1.27-2.45-2.25l-0.11 1.97zm22.67-0.15c0 0.55-0.28 0.83-0.83 0.83l-3.11 0c-0.53 0-0.79-0.28-0.79-0.83l0-23.61c0-0.52 0.26-0.79 0.79-0.79l3.11 0c0.55 0 0.83 0.27 0.83 0.79l0 23.61zm8.24-9.88l8.88 0 0-0.22c0-1.53-0.36-2.72-1.09-3.58-0.73-0.86-1.79-1.29-3.17-1.29-2.84 0-4.39 1.69-4.62 5.09zm10.6 6.52c0.5-0.24 0.86-0.08 1.08 0.5l0.61 1.68c0.11 0.46-0.06 0.8-0.54 1.04-1.87 0.93-3.95 1.4-6.24 1.4-3.18 0-5.65-0.87-7.43-2.6-1.78-1.73-2.67-4.15-2.67-7.25 0-3.13 0.82-5.56 2.45-7.3 1.64-1.73 3.87-2.59 6.69-2.59 2.74 0 4.87 0.81 6.37 2.45 1.51 1.64 2.26 3.82 2.26 6.54l0 1.75c0 0.58-0.28 0.87-0.86 0.87l-12.22 0c0.19 1.43 0.8 2.55 1.81 3.38 1.02 0.82 2.35 1.24 4 1.24 1.64 0 3.21-0.37 4.69-1.11zm32.48-0.9c0.55-0.22 0.95-0.05 1.22 0.5l1.01 2.22c0.16 0.41-0.02 0.77-0.55 1.08-1.71 1.12-4 1.68-6.84 1.68-3.7 0-6.57-1.1-8.62-3.29-2.04-2.2-3.06-5.44-3.06-9.71 0-4.28 1.01-7.52 3.03-9.73 2.02-2.21 4.84-3.32 8.47-3.32 2.75 0 5.01 0.54 6.77 1.62 0.5 0.33 0.67 0.7 0.5 1.11l-0.96 2.19c-0.21 0.54-0.62 0.69-1.22 0.42-1.29-0.6-2.72-0.89-4.3-0.89-2.44 0-4.25 0.7-5.43 2.11-1.18 1.41-1.77 3.57-1.77 6.49 0 2.91 0.6 5.07 1.81 6.46 1.21 1.4 3.06 2.1 5.57 2.1 1.62 0 3.08-0.35 4.37-1.04zm5.4-12.97c0-0.55 0.29-0.82 0.86-0.82l3.08 0c0.53 0 0.79 0.27 0.79 0.82l0 10.71c0 1.22 0.25 2.15 0.75 2.78 0.5 0.63 1.36 0.95 2.58 0.95 1.29 0 2.31-0.38 3.07-1.15 0.75-0.76 1.12-1.79 1.12-3.08l0-10.21c0-0.55 0.28-0.82 0.83-0.82l3.11 0c0.53 0 0.79 0.27 0.79 0.82l0 17.23c0 0.55-0.26 0.83-0.79 0.83l-2.86 0c-0.53 0-0.81-0.23-0.86-0.68l-0.14-1.94c-1.15 2.01-3.1 3.02-5.84 3.02-4.33 0-6.49-2.29-6.49-6.85l0-11.61zm26.25 17.23c0 0.55-0.27 0.83-0.82 0.83l-3.12 0c-0.53 0-0.79-0.28-0.79-0.83l0-23.61c0-0.52 0.26-0.79 0.79-0.79l3.12 0c0.55 0 0.82 0.27 0.82 0.79l0 23.61zm9.99-14.04l0 8.71c0 1.02 0.17 1.73 0.51 2.11 0.33 0.38 0.99 0.57 1.97 0.57 0.16 0 0.66-0.06 1.5-0.18 0.24-0.02 0.41 0.03 0.52 0.15 0.11 0.12 0.17 0.31 0.2 0.57l0.21 2.01c0.02 0.4-0.2 0.68-0.68 0.82-0.79 0.26-1.79 0.4-3.01 0.4-2.1 0-3.61-0.46-4.51-1.37-0.91-0.91-1.37-2.43-1.37-4.58l0-9.21-1.97 0c-0.57 0-0.86-0.28-0.86-0.83l0-2c0-0.55 0.29-0.82 0.86-0.82l2.05 0 0-4.41c0-0.5 0.27-0.76 0.82-0.76l2.87 0c0.57 0 0.86 0.26 0.86 0.76l0 4.41 3.97 0c0.55 0 0.83 0.27 0.83 0.82l0 2c0 0.55-0.28 0.83-0.83 0.83l-3.94 0zm7.59-3.19c0-0.55 0.29-0.82 0.86-0.82l3.08 0c0.53 0 0.79 0.27 0.79 0.82l0 10.71c0 1.22 0.25 2.15 0.75 2.78 0.51 0.63 1.37 0.95 2.59 0.95 1.28 0 2.3-0.38 3.06-1.15 0.75-0.76 1.13-1.79 1.13-3.08l0-10.21c0-0.55 0.27-0.82 0.82-0.82l3.12 0c0.52 0 0.78 0.27 0.78 0.82l0 17.23c0 0.55-0.26 0.83-0.78 0.83l-2.87 0c-0.52 0-0.81-0.23-0.86-0.68l-0.14-1.94c-1.15 2.01-3.1 3.02-5.84 3.02-4.33 0-6.49-2.29-6.49-6.85l0-11.61zm25.1-0.82c0.53 0 0.82 0.25 0.87 0.75l0.17 2.83c0.41-0.96 1.11-1.82 2.12-2.58 1-0.77 2.19-1.14 3.58-1.14 0.26 0 0.45 0.04 0.56 0.14 0.1 0.09 0.16 0.28 0.16 0.57l0 3.33c0 0.43-0.23 0.65-0.68 0.65-0.1 0-0.26-0.02-0.5-0.04-0.24-0.02-0.46-0.03-0.65-0.03-1.31 0-2.4 0.53-3.26 1.59-0.86 1.06-1.29 2.31-1.29 3.75l0 8.24c0 0.55-0.28 0.82-0.82 0.82l-3.08 0c-0.58 0-0.87-0.27-0.87-0.82l0-17.24c0-0.55 0.29-0.82 0.87-0.82l2.82 0zm20.42 10.21c-1.33 0.04-2.43 0.11-3.3 0.19-0.85 0.09-1.67 0.25-2.45 0.47-0.77 0.23-1.34 0.55-1.7 0.97-0.36 0.42-0.54 0.95-0.54 1.59 0 0.77 0.28 1.38 0.83 1.83 0.55 0.46 1.32 0.68 2.33 0.68 1.57 0 2.77-0.39 3.6-1.17 0.82-0.77 1.23-1.78 1.23-3.02l0-1.54zm4.62 7.84c0 0.55-0.28 0.83-0.86 0.83l-2.65 0c-0.5 0-0.77-0.23-0.82-0.68l-0.14-1.94c-1.27 1.96-3.45 2.94-6.52 2.94-1.89 0-3.38-0.48-4.48-1.43-1.1-0.96-1.65-2.31-1.65-4.05 0-1.03 0.2-1.92 0.61-2.67 0.4-0.75 0.95-1.35 1.63-1.79 0.68-0.44 1.58-0.8 2.69-1.08 1.11-0.27 2.24-0.46 3.4-0.57 1.16-0.1 2.55-0.17 4.17-0.2l0-0.82c0-1.12-0.32-1.95-0.97-2.47-0.64-0.53-1.68-0.79-3.11-0.79-1.75 0-3.54 0.36-5.38 1.07-0.5 0.17-0.84 0-1.03-0.5l-0.65-1.97c-0.14-0.43 0.02-0.76 0.5-1 2.13-0.91 4.51-1.36 7.16-1.36 5.41 0 8.1 2.26 8.1 6.81l0 11.67zm9.09 0c0 0.55-0.27 0.83-0.82 0.83l-3.12 0c-0.52 0-0.78-0.28-0.78-0.83l0-23.61c0-0.52 0.26-0.79 0.78-0.79l3.12 0c0.55 0 0.82 0.27 0.82 0.79l0 23.61zm29.87-9.78l-9.96 0 0 9.71c0 0.6-0.3 0.9-0.89 0.9l-3.23 0c-0.59 0-0.89-0.3-0.89-0.9l0-23.47c0-0.57 0.3-0.85 0.89-0.85l3.23 0c0.59 0 0.89 0.28 0.89 0.85l0 9.25 9.96 0 0-9.25c0-0.57 0.29-0.85 0.87-0.85l3.25 0c0.58 0 0.87 0.28 0.87 0.85l0 23.47c0 0.6-0.29 0.9-0.87 0.9l-3.25 0c-0.58 0-0.87-0.3-0.87-0.9l0-9.71zm13.43-0.1l8.88 0 0-0.22c0-1.53-0.36-2.72-1.09-3.58-0.73-0.86-1.78-1.29-3.17-1.29-2.84 0-4.38 1.69-4.62 5.09zm10.6 6.52c0.51-0.24 0.86-0.08 1.08 0.5l0.61 1.68c0.11 0.46-0.06 0.8-0.54 1.04-1.86 0.93-3.94 1.4-6.23 1.4-3.18 0-5.66-0.87-7.44-2.6-1.78-1.73-2.67-4.15-2.67-7.25 0-3.13 0.82-5.56 2.46-7.3 1.63-1.73 3.86-2.59 6.68-2.59 2.74 0 4.87 0.81 6.38 2.45 1.5 1.64 2.25 3.82 2.25 6.54l0 1.75c0 0.58-0.28 0.87-0.86 0.87l-12.21 0c0.18 1.43 0.79 2.55 1.8 3.38 1.02 0.82 2.35 1.24 4 1.24 1.65 0 3.21-0.37 4.69-1.11zm9.84-14.69c0.53 0 0.82 0.25 0.86 0.75l0.18 2.83c0.41-0.96 1.11-1.82 2.12-2.58 1-0.77 2.19-1.14 3.58-1.14 0.26 0 0.45 0.04 0.55 0.14 0.11 0.09 0.17 0.28 0.17 0.57l0 3.33c0 0.43-0.23 0.65-0.68 0.65-0.1 0-0.27-0.02-0.51-0.04-0.24-0.02-0.45-0.03-0.64-0.03-1.31 0-2.4 0.53-3.26 1.59-0.86 1.06-1.29 2.31-1.29 3.75l0 8.24c0 0.55-0.28 0.82-0.83 0.82l-3.07 0c-0.58 0-0.87-0.27-0.87-0.82l0-17.24c0-0.55 0.29-0.82 0.87-0.82l2.82 0zm15.33 18.05c0 0.55-0.27 0.83-0.82 0.83l-3.12 0c-0.55 0-0.82-0.28-0.82-0.83l0-17.23c0-0.55 0.27-0.82 0.82-0.82l3.12 0c0.55 0 0.82 0.27 0.82 0.82l0 17.23zm0-20.99c0 0.55-0.26 0.82-0.79 0.82l-3.19 0c-0.52 0-0.78-0.27-0.78-0.82l0-2.51c0-0.55 0.26-0.82 0.78-0.82l3.19 0c0.53 0 0.79 0.27 0.79 0.82l0 2.51zm10.03 6.95l0 8.71c0 1.02 0.17 1.73 0.5 2.11 0.33 0.38 0.99 0.57 1.97 0.57 0.17 0 0.67-0.06 1.51-0.18 0.24-0.02 0.41 0.03 0.52 0.15 0.1 0.12 0.17 0.31 0.2 0.57l0.21 2.01c0.02 0.4-0.21 0.68-0.68 0.82-0.79 0.26-1.79 0.4-3.01 0.4-2.1 0-3.61-0.46-4.51-1.37-0.91-0.91-1.37-2.43-1.37-4.58l0-9.21-1.97 0c-0.57 0-0.86-0.28-0.86-0.83l0-2c0-0.55 0.29-0.82 0.86-0.82l2.04 0 0-4.41c0-0.5 0.27-0.76 0.83-0.76l2.87 0c0.57 0 0.85 0.26 0.85 0.76l0 4.41 3.98 0c0.55 0 0.82 0.27 0.82 0.82l0 2c0 0.55-0.27 0.83-0.82 0.83l-3.94 0zm19.2 6.2c-1.34 0.04-2.44 0.11-3.3 0.19-0.86 0.09-1.68 0.25-2.45 0.47-0.78 0.23-1.35 0.55-1.71 0.97-0.35 0.42-0.53 0.95-0.53 1.59 0 0.77 0.27 1.38 0.82 1.83 0.55 0.46 1.33 0.68 2.33 0.68 1.58 0 2.77-0.39 3.6-1.17 0.82-0.77 1.24-1.78 1.24-3.02l0-1.54zm4.62 7.84c0 0.55-0.29 0.83-0.86 0.83l-2.65 0c-0.51 0-0.78-0.23-0.83-0.68l-0.14-1.94c-1.26 1.96-3.44 2.94-6.52 2.94-1.89 0-3.38-0.48-4.48-1.43-1.1-0.96-1.65-2.31-1.65-4.05 0-1.03 0.21-1.92 0.61-2.67 0.41-0.75 0.95-1.35 1.63-1.79 0.68-0.44 1.58-0.8 2.69-1.08 1.11-0.27 2.24-0.46 3.4-0.57 1.16-0.1 2.55-0.17 4.18-0.2l0-0.82c0-1.12-0.32-1.95-0.97-2.47-0.65-0.53-1.68-0.79-3.12-0.79-1.74 0-3.53 0.36-5.37 1.07-0.5 0.17-0.85 0-1.04-0.5l-0.65-1.97c-0.14-0.43 0.03-0.76 0.51-1 2.12-0.91 4.51-1.36 7.16-1.36 5.4 0 8.1 2.26 8.1 6.81l0 11.67zm12.31-14.94c-2.72 0-4.08 1.71-4.08 5.13 0 3.41 1.36 5.12 4.08 5.12 1.32 0 2.34-0.45 3.06-1.36 0.73-0.91 1.1-2.22 1.1-3.94 0-3.3-1.39-4.95-4.16-4.95zm8.82 12.58c0 2.46-0.8 4.34-2.39 5.62-1.58 1.3-3.81 1.94-6.68 1.94-2.84 0-5.04-0.37-6.59-1.11-0.48-0.24-0.65-0.56-0.5-0.97l0.61-1.93c0.14-0.53 0.48-0.71 1-0.54 1.7 0.6 3.4 0.9 5.12 0.9 1.63 0 2.86-0.36 3.7-1.08 0.83-0.72 1.25-1.73 1.25-3.04l0-1.54c-0.48 0.88-1.21 1.57-2.21 2.05-0.99 0.49-2.09 0.74-3.31 0.74-2.32 0-4.17-0.7-5.55-2.08-1.39-1.39-2.08-3.52-2.08-6.41 0-2.89 0.67-5.06 2.02-6.49 1.35-1.43 3.17-2.15 5.43-2.15 1.24 0 2.38 0.26 3.4 0.77 1.03 0.51 1.78 1.19 2.26 2.03l0.11-1.69c0.05-0.48 0.33-0.71 0.86-0.71l2.72 0c0.55 0 0.83 0.27 0.83 0.82l0 14.87zm8.19-7.52l8.89 0 0-0.22c0-1.53-0.37-2.72-1.09-3.58-0.73-0.86-1.79-1.29-3.18-1.29-2.84 0-4.38 1.69-4.62 5.09zm10.61 6.52c0.5-0.24 0.86-0.08 1.07 0.5l0.61 1.68c0.12 0.46-0.06 0.8-0.54 1.04-1.86 0.93-3.94 1.4-6.23 1.4-3.18 0-5.66-0.87-7.44-2.6-1.77-1.73-2.67-4.15-2.67-7.25 0-3.13 0.82-5.56 2.46-7.3 1.64-1.73 3.86-2.59 6.68-2.59 2.75 0 4.87 0.81 6.38 2.45 1.5 1.64 2.26 3.82 2.26 6.54l0 1.75c0 0.58-0.29 0.87-0.86 0.87l-12.22 0c0.19 1.43 0.79 2.55 1.81 3.38 1.01 0.82 2.35 1.24 3.99 1.24 1.65 0 3.21-0.37 4.7-1.11zm-452.22 31.03l0 9.35c0 0.6-0.3 0.9-0.89 0.9l-3.19 0c-0.6 0-0.9-0.3-0.9-0.9l0-23.46c0-0.58 0.3-0.87 0.9-0.87l14.01 0c0.57 0 0.86 0.28 0.86 0.83l0 2.54c0 0.6-0.29 0.9-0.86 0.9l-9.93 0 0 6.52 9.61 0c0.57 0 0.85 0.3 0.85 0.9l0 2.43c0 0.57-0.28 0.86-0.85 0.86l-9.61 0zm13.97-7.81c0-0.55 0.28-0.83 0.86-0.83l3.08 0c0.52 0 0.79 0.28 0.79 0.83l0 10.71c0 1.22 0.25 2.14 0.75 2.78 0.5 0.63 1.36 0.95 2.58 0.95 1.29 0 2.31-0.38 3.06-1.15 0.75-0.76 1.13-1.79 1.13-3.08l0-10.21c0-0.55 0.27-0.83 0.82-0.83l3.12 0c0.53 0 0.79 0.28 0.79 0.83l0 17.23c0 0.55-0.26 0.83-0.79 0.83l-2.86 0c-0.53 0-0.82-0.23-0.86-0.68l-0.15-1.94c-1.15 2.01-3.09 3.01-5.84 3.01-4.32 0-6.48-2.28-6.48-6.84l0-11.61zm38.57 17.23c0 0.55-0.27 0.83-0.82 0.83l-3.08 0c-0.58 0-0.86-0.28-0.86-0.83l0-10.64c0-1.26-0.27-2.21-0.81-2.83-0.54-0.62-1.43-0.93-2.67-0.93-1.34 0-2.37 0.39-3.1 1.16-0.72 0.78-1.09 1.84-1.09 3.18l0 10.06c0 0.55-0.27 0.83-0.82 0.83l-3.08 0c-0.56 0-0.83-0.28-0.83-0.83l0-17.23c0-0.55 0.27-0.82 0.83-0.82l2.82 0c0.51 0 0.78 0.24 0.83 0.71l0.18 1.86c1.19-2 3.2-3 6.02-3 2.17 0 3.8 0.6 4.87 1.82 1.08 1.22 1.61 2.94 1.61 5.16l0 11.5zm12.86-14.65c-1.51 0-2.64 0.47-3.39 1.42-0.76 0.94-1.13 2.47-1.13 4.6 0 2.12 0.37 3.66 1.13 4.6 0.75 0.95 1.88 1.42 3.39 1.42 3.1 0 4.65-2.01 4.65-6.02 0-4.01-1.55-6.02-4.65-6.02zm4.76 12.83c-0.5 0.98-1.32 1.73-2.44 2.25-1.12 0.53-2.35 0.79-3.69 0.79-2.53 0-4.5-0.83-5.89-2.49-1.4-1.66-2.1-4.11-2.1-7.36 0-3.25 0.7-5.7 2.1-7.37 1.39-1.65 3.36-2.48 5.89-2.48 1.29 0 2.49 0.26 3.6 0.78 1.11 0.53 1.91 1.26 2.38 2.19l0-8.1c0-0.52 0.28-0.78 0.83-0.78l3.08 0c0.57 0 0.86 0.26 0.86 0.78l0 23.62c0 0.54-0.29 0.82-0.86 0.82l-2.79 0c-0.53 0-0.82-0.23-0.86-0.68l-0.11-1.97zm13.99 1.82c0 0.55-0.27 0.83-0.82 0.83l-3.12 0c-0.55 0-0.82-0.28-0.82-0.83l0-17.23c0-0.55 0.27-0.82 0.82-0.82l3.12 0c0.55 0 0.82 0.27 0.82 0.82l0 17.23zm0-20.99c0 0.55-0.26 0.82-0.78 0.82l-3.19 0c-0.53 0-0.79-0.27-0.79-0.82l0-2.51c0-0.55 0.26-0.83 0.79-0.83l3.19 0c0.52 0 0.78 0.28 0.78 0.83l0 2.51zm21.68 20.99c0 0.55-0.28 0.83-0.83 0.83l-3.08 0c-0.57 0-0.86-0.28-0.86-0.83l0-10.64c0-1.26-0.27-2.21-0.8-2.83-0.55-0.62-1.43-0.93-2.67-0.93-1.34 0-2.37 0.39-3.1 1.16-0.73 0.78-1.09 1.84-1.09 3.18l0 10.06c0 0.55-0.28 0.83-0.83 0.83l-3.08 0c-0.55 0-0.82-0.28-0.82-0.83l0-17.23c0-0.55 0.27-0.82 0.82-0.82l2.83 0c0.5 0 0.78 0.24 0.82 0.71l0.18 1.86c1.2-2 3.2-3 6.02-3 2.17 0 3.8 0.6 4.87 1.82 1.08 1.22 1.62 2.94 1.62 5.16l0 11.5zm12.35-14.94c-2.73 0-4.09 1.71-4.09 5.13 0 3.41 1.36 5.12 4.09 5.12 1.31 0 2.33-0.45 3.06-1.36 0.73-0.91 1.09-2.22 1.09-3.94 0-3.3-1.38-4.95-4.15-4.95zm8.81 12.58c0 2.46-0.79 4.34-2.39 5.62-1.58 1.29-3.81 1.94-6.67 1.94-2.84 0-5.04-0.37-6.6-1.11-0.47-0.24-0.64-0.56-0.5-0.97l0.61-1.93c0.15-0.53 0.47-0.71 1-0.54 1.7 0.6 3.41 0.9 5.13 0.9 1.62 0 2.85-0.36 3.69-1.08 0.83-0.72 1.25-1.73 1.25-3.04l0-1.54c-0.48 0.88-1.21 1.57-2.2 2.05-1 0.49-2.1 0.74-3.32 0.74-2.31 0-4.16-0.69-5.55-2.08-1.38-1.39-2.07-3.52-2.07-6.41 0-2.89 0.67-5.06 2.02-6.49 1.35-1.43 3.15-2.15 5.42-2.15 1.25 0 2.38 0.26 3.41 0.77 1.03 0.51 1.78 1.19 2.26 2.03l0.1-1.69c0.05-0.48 0.34-0.71 0.86-0.71l2.73 0c0.54 0 0.82 0.27 0.82 0.82l0 14.87zm29 1.72c-1.74 1.19-4.06 1.79-6.98 1.79-3.32 0-5.91-0.47-7.78-1.4-0.52-0.26-0.7-0.62-0.53-1.07l0.86-2.3c0.19-0.57 0.55-0.75 1.07-0.53 1.72 0.71 3.62 1.07 5.7 1.07 1.62 0 2.91-0.25 3.85-0.75 0.94-0.5 1.41-1.25 1.41-2.26 0-0.4-0.1-0.78-0.3-1.12-0.2-0.35-0.42-0.63-0.64-0.85-0.23-0.21-0.62-0.46-1.17-0.75-0.55-0.29-0.98-0.5-1.3-0.63-0.33-0.13-0.88-0.34-1.64-0.62-0.98-0.36-1.74-0.66-2.29-0.9-0.55-0.24-1.2-0.59-1.95-1.06-0.75-0.46-1.33-0.94-1.72-1.43-0.4-0.49-0.74-1.12-1.04-1.88-0.3-0.77-0.45-1.62-0.45-2.58 0-4.59 3.04-6.88 9.1-6.88 2.75 0 5.03 0.42 6.84 1.25 0.53 0.27 0.71 0.62 0.54 1.08l-0.82 2.22c-0.21 0.53-0.6 0.69-1.15 0.5-1.36-0.52-3.01-0.79-4.94-0.79-3.04 0-4.55 0.91-4.55 2.73 0 1.07 0.68 1.95 2.04 2.65 0.43 0.21 1.35 0.61 2.76 1.18 0.79 0.31 1.29 0.51 1.5 0.61 0.22 0.1 0.67 0.3 1.35 0.61 0.68 0.31 1.13 0.55 1.36 0.72 0.22 0.16 0.59 0.42 1.09 0.77 0.5 0.34 0.85 0.67 1.04 0.98 0.19 0.31 0.42 0.69 0.68 1.13 0.26 0.44 0.44 0.92 0.54 1.43 0.09 0.51 0.14 1.08 0.14 1.71 0 2.38-0.87 4.17-2.62 5.37zm7.75-15.32c1.71-1.68 4.01-2.53 6.9-2.53 2.36 0 4.2 0.41 5.52 1.22 0.5 0.29 0.65 0.66 0.46 1.12l-0.86 1.93c-0.24 0.5-0.63 0.63-1.18 0.4-1.03-0.46-2.15-0.69-3.37-0.69-1.64 0-2.92 0.48-3.83 1.46-0.91 0.96-1.36 2.42-1.36 4.38 0 1.98 0.45 3.47 1.36 4.46 0.91 1 2.16 1.49 3.76 1.49 1.36 0 2.59-0.29 3.69-0.86 0.55-0.24 0.92-0.11 1.11 0.39l0.86 1.97c0.17 0.41 0 0.78-0.5 1.12-1.44 0.88-3.26 1.32-5.48 1.32-2.96 0-5.31-0.85-7.04-2.56-1.73-1.71-2.6-4.15-2.6-7.33 0-3.17 0.85-5.6 2.56-7.29zm33.73 15.96c0 0.55-0.28 0.83-0.83 0.83l-3.08 0c-0.55 0-0.83-0.28-0.83-0.83l0-10.64c0-1.26-0.27-2.21-0.82-2.83-0.55-0.62-1.44-0.93-2.69-0.93-1.36 0-2.41 0.4-3.15 1.2-0.74 0.8-1.11 1.85-1.11 3.14l0 10.06c0 0.55-0.27 0.83-0.83 0.83l-3.07 0c-0.55 0-0.83-0.28-0.83-0.83l0-23.61c0-0.52 0.28-0.79 0.83-0.79l3.07 0c0.56 0 0.83 0.27 0.83 0.79l0 8.06c0.45-0.81 1.18-1.5 2.18-2.08 1.01-0.57 2.27-0.85 3.8-0.85 2.2 0 3.84 0.6 4.91 1.82 1.07 1.22 1.62 2.95 1.62 5.2l0 11.46zm8.04-9.89l8.89 0 0-0.21c0-1.53-0.36-2.72-1.09-3.58-0.73-0.86-1.79-1.29-3.18-1.29-2.84 0-4.37 1.69-4.62 5.08zm10.61 6.53c0.5-0.24 0.86-0.08 1.08 0.5l0.6 1.68c0.12 0.45-0.06 0.8-0.53 1.04-1.87 0.93-3.95 1.4-6.24 1.4-3.17 0-5.65-0.87-7.43-2.6-1.78-1.73-2.67-4.15-2.67-7.25 0-3.13 0.82-5.57 2.46-7.3 1.63-1.73 3.86-2.59 6.67-2.59 2.75 0 4.88 0.81 6.38 2.45 1.51 1.64 2.26 3.82 2.26 6.54l0 1.75c0 0.58-0.29 0.87-0.86 0.87l-12.22 0c0.19 1.43 0.8 2.55 1.81 3.38 1.02 0.82 2.35 1.24 4 1.24 1.65 0 3.21-0.37 4.69-1.11zm22.56 3.36c0 0.55-0.27 0.83-0.82 0.83l-3.05 0c-0.55 0-0.82-0.28-0.82-0.83l0-10.81c0-1.2-0.23-2.1-0.7-2.71-0.47-0.61-1.24-0.92-2.31-0.92-1.24 0-2.21 0.39-2.92 1.17-0.71 0.78-1.06 1.78-1.06 3.03l0 10.24c0 0.55-0.27 0.83-0.82 0.83l-3.05 0c-0.57 0-0.86-0.28-0.86-0.83l0-17.23c0-0.55 0.29-0.82 0.86-0.82l2.83 0c0.53 0 0.82 0.24 0.86 0.71l0.18 1.86c0.43-0.8 1.13-1.51 2.1-2.11 0.96-0.59 2.17-0.89 3.6-0.89 2.79 0 4.61 1.06 5.44 3.19 1.27-2.13 3.35-3.19 6.24-3.19 2 0 3.51 0.6 4.51 1.79 1.01 1.19 1.51 2.89 1.51 5.08l0 11.61c0 0.55-0.28 0.83-0.83 0.83l-3.08 0c-0.55 0-0.82-0.28-0.82-0.83l0-10.78c0-1.22-0.24-2.13-0.72-2.74-0.47-0.61-1.26-0.92-2.36-0.92-1.2 0-2.15 0.38-2.85 1.13-0.7 0.75-1.06 1.7-1.06 2.85l0 10.46zm19.76-9.89l8.89 0 0-0.21c0-1.53-0.37-2.72-1.09-3.58-0.73-0.86-1.79-1.29-3.18-1.29-2.84 0-4.38 1.69-4.62 5.08zm10.61 6.53c0.5-0.24 0.86-0.08 1.07 0.5l0.61 1.68c0.12 0.45-0.06 0.8-0.54 1.04-1.86 0.93-3.94 1.4-6.23 1.4-3.18 0-5.65-0.87-7.44-2.6-1.77-1.73-2.67-4.15-2.67-7.25 0-3.13 0.82-5.57 2.46-7.3 1.63-1.73 3.86-2.59 6.68-2.59 2.75 0 4.87 0.81 6.38 2.45 1.51 1.64 2.26 3.82 2.26 6.54l0 1.75c0 0.58-0.29 0.87-0.86 0.87l-12.22 0c0.19 1.43 0.79 2.55 1.81 3.38 1.01 0.82 2.35 1.24 3.99 1.24 1.65 0 3.21-0.37 4.7-1.11zm-239.96 45.21l-10.68 0 0 8.53-4.42 0 0-34.49 4.42 0 0 4.75 10 0 0 4.12-10 0 0 4.41 9.19 0 0 4-9.19 0 0 4.56 10.68 0 0 4.12zm-23.88-25.96l4.37 0 0 17.28c0 6.05-1.82 13.39-10.79 17.69-0.7-1.08-2.11-2.49-3.15-3.34 3.75-1.44 6.08-3.86 7.53-6.41l-7.75 1.33-0.82-4.41c2.63-0.3 6.34-0.74 10.2-1.26 0.29-1.3 0.41-2.52 0.41-3.56l0-0.04-8.83 0 0-4 8.83 0 0-4.41-9.24 0 0-4.12 9.24 0 0-4.75zm66.49 5.56c0 0-0.04 1.49-0.08 2.01-0.7 16.53-1.37 22.58-2.77 24.43-0.86 1.26-1.67 1.67-2.9 1.93-1.04 0.19-2.59 0.19-4.19 0.11-0.11-1.26-0.55-3.08-1.22-4.3 1.37 0.15 2.59 0.15 3.3 0.15 0.56 0 0.92-0.15 1.37-0.71 0.93-1.18 1.6-6.22 2.19-19.54l-0.19 0c-1.81 9.35-5.63 18.99-11.6 23.92-0.86-0.85-2.37-1.93-3.6-2.56 5.93-4.26 9.64-12.68 11.5-21.36l-1.75 0c-1.63 6.05-4.74 12.68-8.49 16.25-0.81-0.86-2.22-1.86-3.37-2.49 3.67-2.89 6.56-8.38 8.19-13.76l-1.89 0c-1.07 2.56-2.37 4.86-3.82 6.64-0.71-0.7-2.44-1.93-3.34-2.48 2.93-3.23 4.98-8.53 6.09-13.98l4 0.74c-0.37 1.71-0.85 3.37-1.37 5l13.94 0zm-19.95 14.5c-1.33 0.37-2.63 0.82-4 1.23l0 13.19-4.05 0 0-11.97c-1.99 0.59-3.85 1.19-5.56 1.63l-1.07-4.19c1.85-0.41 4.11-1 6.63-1.7l0-7.09-2.48 0c-0.41 1.82-0.85 3.42-1.37 4.75-0.67-0.56-2.3-1.56-3.11-2.04 1.14-2.93 1.77-7.56 2.11-11.94l3.67 0.63c-0.15 1.48-0.34 2.93-0.56 4.41l1.74 0 0-7.12 4.05 0 0 7.12 3.07 0 0 4.19-3.07 0 0 5.97 3.41-0.96 0.59 3.89zm53 3.97l-15.31 0 0 1.67 15.31 0 0-1.67zm0-4.19l-15.31 0 0 1.71 15.31 0 0-1.71zm0-4.12l-15.31 0 0 1.68 15.31 0 0-1.68zm-0.15-3.22l0-3.9-3.19 0c-0.44 1.64-1.18 3.2-2.44 4.49l10.23 0 0 15.28-4.9 0c3.49 1.03 7.01 2.26 9.35 3.19l-2.04 3.07c-2.63-1.18-7.04-2.85-11.16-4.11l1.33-2.15-9.6 0 2.41 1.41c-3.19 1.78-8.19 3.78-11.94 4.89-0.37-0.77-1.45-2.82-2.11-3.71 3.08-0.59 6.82-1.52 9.56-2.59l-4.89 0 0-15.28 13.27 0c-0.78-0.67-2.19-1.59-2.92-1.97 2.37-2.11 2.66-4.81 2.66-6.93l0-2.7c4.16-0.19 8.87-0.75 11.46-1.63l2.75 2.44c-2.82 0.97-6.79 1.52-10.5 1.78l0 0.19c0 0.37 0 0.74-0.03 1.11l11.9 0 0 3.22-5.23 0 0 3.9-3.97 0zm-18.35-3.9c-0.63 1.9-1.67 3.71-3.52 5.2-0.56-0.78-2.08-2.3-2.86-2.82 2.82-2.12 3.23-4.75 3.23-6.9l0-2.48c3.85-0.22 8.3-0.78 10.9-1.67l2.44 2.56c-2.59 0.92-6.15 1.41-9.56 1.7 0 0.37 0 0.78-0.04 1.19l10.09 0 0 3.22-3.56 0 0 3.79-3.9 0 0-3.79-3.22 0zm47.17 1.75c1.6 3.89 3.82 7.34 6.68 10.27 2.56-2.82 4.6-6.19 6.04-10.27l-12.72 0zm17.69 0c-1.89 5.34-4.41 9.68-7.64 13.27 3.82 2.97 8.49 5.12 14.02 6.42-1 0.96-2.3 2.89-2.97 4.11-5.82-1.56-10.61-4-14.5-7.26-4.07 3.33-9.05 5.78-15.02 7.48-0.47-1.03-1.77-3.11-2.66-4.11 5.78-1.45 10.56-3.56 14.42-6.56-3.34-3.67-5.89-8.12-7.9-13.35l-5.82 0 0-4.31 15.65 0c-0.41-1.51-1.22-3.59-2.08-5.22l4.71-1.37c0.96 1.7 2.08 4.07 2.52 5.6l-3.19 0.99 16.14 0 0 4.31-5.68 0zm42.02 19.35c1.89 0 2.19-1.55 2.53-7.67 0.99 0.77 2.74 1.63 3.89 1.85-0.49 7.16-1.6 9.72-6.08 9.72l-6.2 0c-4.56 0-5.85-1.49-5.85-6.53l0-26.55 4.26 0 0 9.42 12.9 0 0 4.23-12.9 0 0 12.98c0 2.18 0.26 2.55 2.04 2.55l5.41 0zm-14.61-28.36c-1 2.37-2.22 4.74-3.59 7.04l0 26.07-4.19 0 0-19.99c-1.19 1.49-2.34 2.78-3.56 3.93-0.41-1.07-1.63-3.48-2.34-4.59 3.79-3.27 7.46-8.53 9.57-13.83l4.11 1.37zm52.82 4.04l3.56 0 0-1.48-3.56 0 0 1.48zm-6.9 17.2l9.9 0 0-1.11-9.9 0 0 1.11zm0-3.22l9.9 0 0-1.15-9.9 0 0 1.15zm0-3.27l9.9 0 0-1.11-9.9 0 0 1.11zm2.71-12.19l-3.56 0 0 1.48 3.56 0 0-1.48zm1.48 22.13c-1.93 1.23-4.67 2.67-6.97 3.6 1.85 0.3 3.97 0.37 6.34 0.37 2.74 0 6.45-0.15 9.86-0.41-1.93-0.81-4.71-1.89-7.3-2.71l1.26-2.03-5.79 0 2.6 1.18zm13.42-14.27l-24.62 0 0-3.12 9.72 0 0-1-7.57 0 0-6.04 7.57 0 0-1.78 4.19 0 0 1.78 7.86 0 0 6.04-7.86 0 0 1 10.71 0 0 3.12zm-30.03-4.38c-0.44-1.67-1.37-4.34-2.01-6.37l3.45-1.08c0.67 2.04 1.56 4.56 2.08 6.23l-3.52 1.22zm26.58 22.14c1.64-0.15 3.12-0.3 4.38-0.49-0.49 1.19-1.23 3.34-1.26 4.53-3.08 0.19-9.61 0.44-13.94 0.44-4.94 0-8.05-0.4-10.72-1.96-1.56-0.85-2.89-2.08-3.63-2.08-0.86 0-2.19 2.52-3.08 4.64l-2.97-4.19c1.34-1.6 2.75-2.86 4.01-3.6 0.78-1.82 1.44-4.15 1.93-6.37l-4.57 0c0.9-2.2 1.86-5.16 2.75-8.05l-3.41 0 0-3.93 8.64 0c-0.78 2.59-1.75 5.52-2.6 8.16l1.37 0 0.64-0.12 1.81 0.6c-0.59 3.34-1.52 6.82-2.71 9.6 0.63 0.37 1.38 0.93 2.41 1.56 0.82 0.52 1.78 0.89 2.86 1.14-0.67-0.77-1.6-1.89-2.19-2.44 2-0.52 4.27-1.33 6.01-2.11l-4.19 0 0-12.09 18.68 0 0 12.09-5 0c2.41 0.74 4.86 1.56 6.49 2.15l-1.71 2.52zm24.75-23.29c2.33 0.52 4.78 1.08 7.22 1.67 1.79-0.48 3.49-1.08 4.87-1.67l-12.09 0zm13.34 6.42c-1.81-0.64-4.04-1.26-6.37-1.89-2.67 0.7-5.38 1.33-7.97 1.89l14.34 0zm-7.56 11.83l0-1.93-6.04 0c-0.41 0.67-0.82 1.3-1.26 1.93l7.3 0zm16.02 5.52l0 3.56-27.25 0 0-3.56 11.23 0 0-2.15-7.86 0 0-2.67c-0.66 0.85-1.41 1.59-2.11 2.26-0.26-0.78-1.11-2.63-1.75-3.67-0.44 3.85-1.52 8.12-3.96 11.12-0.67-0.81-2.49-2.37-3.41-2.85 3-3.71 3.3-8.97 3.3-12.79l0-6.6 5 0c-0.59-0.64-1.33-1.3-1.85-1.71 2.67-0.41 5.6-0.92 8.45-1.6-2.33-0.59-4.75-1.1-6.93-1.51l2.08-1.6-6.38 0 0-3.45 12.9 0c-0.45-0.7-0.96-1.37-1.41-1.93l2.97-1.44c0.85 0.97 1.85 2.26 2.48 3.37l12.83 0 0 3.45-5.37 0 1.77 1.11c-1.33 0.63-2.89 1.27-4.56 1.86 2.19 0.59 4.19 1.19 5.86 1.74l-2.08 1.71 5.46 0 0 3.52-26.93 0 0 3.11c0 1.19-0.03 2.49-0.18 3.9 1.78-1.75 3.3-4.12 4.23-6.68l3.75 1.11c-0.19 0.49-0.38 0.97-0.6 1.49l4.3 0 0-2.26 4.34 0 0 2.26 9.16 0 0 3.45-9.16 0 0 1.93 8.08 0 0 3.37-8.08 0 0 2.15 11.68 0zm17.44-4.37l16.05 0 0-1.67-16.05 0 0 1.67zm0-4.16l16.05 0 0-1.59-16.05 0 0 1.59zm0-4.07l16.05 0 0-1.6-16.05 0 0 1.6zm1.22-12.54l-9.49 0 0-3.22 9.49 0 0 3.22zm13.91 23.36c3.41 1.26 7.04 2.74 9.23 3.82l-3.97 2.37c-2.11-1.22-5.97-3.04-9.64-4.37l2.26-1.82-10.45 0 3.22 1.48c-3.04 1.93-7.82 3.79-11.56 4.82-0.75-0.85-2.3-2.48-3.27-3.22 3.56-0.67 7.53-1.78 10.12-3.08l-5.33 0 0-15.05 24.8 0 0 15.05-5.41 0zm-1-21.8c2 1.96 5.93 2.89 10.93 3.15-0.89 0.85-1.93 2.45-2.45 3.52-4.14-0.52-7.37-1.7-9.71-3.74-1.4 1.63-4.48 3.07-10.71 3.78-0.3-0.71-0.89-1.63-1.49-2.41l-9.82 0 0-3.37 11.2 0 0 2.26c7.08-0.75 8.01-2.41 8.01-3.78l0-0.56-2.23 0c-0.78 1.22-1.67 2.33-2.6 3.19-0.7-0.67-2.33-1.75-3.26-2.26 1.97-1.64 3.49-4.08 4.34-6.6l3.86 0.85c-0.19 0.56-0.41 1.11-0.63 1.63l10.53 0 0.66-0.19 3.01 0.93c-0.97 2.04-2.23 4.38-3.41 5.86l-3.42-1.26c0.41-0.59 0.9-1.37 1.3-2.15l-4.11 0 0 0.74 0 0.41zm25.33 18.65c1.56-0.3 3.19-0.67 4.9-1l0-3.49-4.9 0 0 4.49zm4.9-12.17l-4.9 0 0 3.82 4.9 0 0-3.82zm-4.9-3.85l4.9 0 0-3.74-4.9 0 0 3.74zm27.18 0.7c-0.33 15.21-0.67 20.66-1.89 22.36-0.86 1.26-1.74 1.67-3.08 1.89-1.18 0.22-3.11 0.19-5.04 0.12-0.07-1.19-0.52-3.04-1.3-4.19 1.82 0.11 3.49 0.15 4.31 0.15 0.59 0 0.96-0.12 1.29-0.64 0.85-1 1.19-5.6 1.41-17.5l-3.93 0c-0.56 9.79-2.56 17.58-9.72 22.51-0.66-1.08-2.03-2.56-3.08-3.34 1.82-1.22 3.27-2.59 4.38-4.19-5.67 1.41-11.75 2.82-16.27 3.89l-0.71-4.52c0.74-0.15 1.63-0.3 2.56-0.48l0-24.47 12.86 0 0 21.84 1.6-0.34 0.41 3.49c2.48-3.86 3.37-8.64 3.71-14.39l-4.71 0 0-4.15 4.86 0c0.03-2.52 0.03-5.15 0.03-7.97l4.34 0c0 2.78 0 5.45-0.08 7.97l8.05 0 0 1.96zm43.58 6.72l-6.86 0 0 17.98-4.59 0 0-17.98-6.49 0 0-4.34 6.49 0 0-11.64 4.59 0 0 11.64 6.86 0 0 4.34zm-27.92 12.38l4.82 0 0-4.15-4.82 0 0 4.15zm8.64 3.56l-8.64 0 0 1.56-3.7 0 0-12.79 12.34 0 0 11.23zm-0.15-13.02l-12.34 0 0-3.33 12.34 0 0 3.33zm-12.34-8.3l12.42 0 0 3.34-12.42 0 0-3.34zm13.97-1.67l-15.6 0 0-3.49 6.45 0c-0.56-1.4-1.53-3.26-2.38-4.67l3.45-1.59c1 1.52 2.15 3.56 2.71 4.93l-2.45 1.33 7.82 0 0 3.49zm59.49-8.86l0 28.77c0 2.34-0.49 3.52-1.82 4.19-1.34 0.71-3.34 0.89-6.26 0.85-0.15-1.18-0.75-3.07-1.34-4.33 1.97 0.07 3.78 0.07 4.41 0.07 0.6 0 0.82-0.19 0.82-0.78l0-28.77 4.19 0zm-7.16 24.62l-4 0 0-20.88 4 0 0 20.88zm-10.42 0.29l-3.26 0 0 1.19 3.26 0 0-1.19zm0-3.18l-3.26 0 0 1.22 3.26 0 0-1.22zm-0.29-14.24l-3.12 0 0 1.33 3.12 0 0-1.33zm-3.12-2.67l3.12 0 0-1.19-3.12 0 0 1.19zm-6.93 21.28l3.41 0 0-1.19-3.41 0 0 1.19zm0-3.15l3.41 0 0-1.22-3.41 0 0 1.22zm13.94 5.23l-17.35 0 0-8.49 17.35 0 0 8.49zm-19.28 1.45c5.26-0.15 13.38-0.41 20.98-0.75l-0.11 3.3c-7.41 0.34-15.31 0.67-20.58 0.86l-0.29-3.41zm19.09-24.81l1.97 0 0 2.67-1.97 0 0 3.71-6.82 0 0 1.11 7.23 0 0 2.41-7.23 0 0 1.11 8.6 0 0 2.78-20.65 0 0-2.78 8.12 0 0-1.11-6.52 0 0-2.41 6.52 0 0-1.11-6.45 0 0-2.38 6.45 0 0-1.33-8.34 0 0-2.67 8.34 0 0-1.19-6.34 0 0-2.37 6.34 0 0-2 3.93 0 0 2 6.82 0 0 3.56z"/>
</svg>
