<?xml version="1.0" encoding="UTF-8"?>
<svg xmlns="http://www.w3.org/2000/svg" viewBox="0 0 1689 552">
  <path fill="#ea5d2b" d="M433.35 300c-0.42 0-0.91 0.07-1.26 0.4l-6.66 0.96 0-18.33c0.15-0.22 0.29-0.4 0.29-0.77 0-0.77-0.25-1.84-1.87-1.84-0.77 0-1.78 0.33-1.78 1.84 0 0.33 0.03 0.55 0.14 0.7l0 18.92c-0.28 0.36-0.35 0.77-0.35 1.28 0 1.07 0.77 1.67 1.79 1.67 0.38 0 0.62-0.04 1.05-0.15l8.27-1.12 0.62 0.11c0.78-0.14 1.38-0.77 1.38-2.02 0-1.02-0.85-1.62-1.62-1.65zm12.55-9.29c1.57 0 1.82 1.11 1.82 1.52 0 0.6-0.39 0.82-1.3 1.08-1.22 0.33-3.01 0.78-5.32 1.26l-0.07-0.04c1.41-3 3.12-3.82 4.87-3.82zm0.42 5.42c3.39-0.78 4.62-1.9 4.62-3.53 0-2.55-2.14-4.64-4.83-4.64-2.59 0-4.94 1.17-6.72 3.53-1.51 2-2.45 4.67-2.45 7.63 0 3.1 1.71 5.71 5.01 5.71 2.09 0 3.91-0.48 5.7-1.84 1.4-1.06 2.94-2.58 2.94-3.53 0-0.71-0.63-1.52-1.79-1.52-0.88 0-1.72 0.55-1.68 1.62-1.26 1.74-3.32 2.52-4.64 2.52-1.55 0-2.32-0.96-2.32-2.59 0-0.89 0.04-1.44 0.18-2l5.98-1.36zm9.52-15.34c-1.26 0-2.03 1.22-2.03 3.58 0 1.03 0.63 1.91 1.78 1.91 1.17 0 2.15-1.11 2.15-3.54 0-1.21-0.53-1.95-1.9-1.95zm1.34 9.97c0.11-0.11 0.29-0.36 0.29-0.88 0-1.07-0.92-1.92-1.69-1.92-1.16 0-1.96 0.51-1.96 2.14 0 0.33 0.07 0.59 0.21 0.82l0 10.69c-0.32 0.56-0.32 0.74-0.32 1 0 0.81 0.46 1.88 1.72 1.88 1.15 0 2.06-0.78 2.06-1.84 0-0.33-0.1-0.59-0.31-0.89l0-11zm15.49 1.96c-1.51 0-2.95 0.48-4.8 1.17-1.4 0.54-2.39 0.94-2.88 0.94-0.38 0-0.7-0.11-0.7-0.66 0-0.67 0.56-1.4 1.79-2.25 1.51-1.03 3.78-1.51 6.2-1.51 0.59 0.26 0.87 0.41 1.26 0.41 0.63 0 1.51-0.15 1.51-1.47 0-1.07-1.33-1.88-2.81-1.88-2.83 0-5.6 0.7-7.6 1.88-2.13 1.32-3.57 3.2-3.57 5.48 0 1.91 1.64 3.24 3.29 3.24 1.76 0 3.05-0.55 4.69-1.22 1.37-0.53 2.39-0.9 3.16-0.9 0.66 0 1.05 0.33 1.05 0.92 0 0.85-0.39 1.92-1.68 3.03-1.5 1.33-3.64 1.92-5 1.92-1.19 0-1.72-0.3-2.1-0.56l0.07-0.59c0-1.03-0.87-1.25-1.79-1.25-0.59 0-1.44 0.66-1.44 2.03 0 0.92 0.74 1.87 1.69 2.42 0.91 0.56 2.45 0.89 3.54 0.89 2.72 0 5.38-1.25 7.17-2.68 1.4-1.11 2.76-3.14 2.76-5.69 0-1.58-0.98-3.67-3.81-3.67zm20.39-2.73c0.18-1.07-0.1-2.03-1.68-2.03-1.22 0-1.57 0.55-1.57 1.22 0 0.71 0 0.41 0.1 0.81l0 8.99c-1.37 1.14-3.61 2.95-5.51 2.95-0.38 0-1.22-0.52-1.22-1.22l0-10.35c0.17-0.26 0.24-0.52 0.24-0.89 0-0.7-0.45-1.62-1.68-1.62-0.91 0-1.82 0.51-1.82 1.7 0 0.22 0 0.44 0.11 0.7l0 10.5c0 2.91 2.37 4.15 4.23 4.15 1.94 0 4.25-1.51 5.55-2.56l0 0.4c-0.39 0.8 0.14 1.72 1.47 1.72 0.87 0 2.03-0.3 2.03-1.55 0-0.34-0.04-0.63-0.25-0.89l0-12.03zm13.06-2.07c-0.52 0-0.87 0.19-2.1 0.89-0.84 0.48-2.03 1.51-3.02 2.36l0-1.04c0.11-0.4 0.15-0.58 0.15-0.81 0-0.81-0.57-1.47-1.58-1.47-0.8 0-1.82 0.44-1.82 1.62 0 0.3 0.03 0.52 0.1 0.81l0 11.52c-0.21 0.29-0.35 0.71-0.35 1.03 0 0.92 0.6 1.63 1.75 1.63 1.37 0 2.11-0.44 2.11-1.74 0-0.37-0.18-0.7-0.36-0.92l0-7.02c0.99-1.06 3.2-2.91 4.25-3.53-0.04 0.47-0.04 0.62-0.04 0.84 0 0.96 0.98 1.4 1.65 1.4 0.49 0 1.5-0.07 1.5-1.4 0-2.02-0.28-4.17-2.24-4.17zm12.15 2.79c1.57 0 1.82 1.11 1.82 1.52 0 0.6-0.39 0.82-1.3 1.08-1.22 0.33-3 0.78-5.31 1.26l-0.07-0.04c1.4-3 3.11-3.82 4.86-3.82zm0.42 5.42c3.4-0.78 4.62-1.9 4.62-3.53 0-2.55-2.14-4.64-4.83-4.64-2.59 0-4.93 1.17-6.72 3.53-1.51 2-2.45 4.67-2.45 7.63 0 3.1 1.71 5.71 5.01 5.71 2.09 0 3.91-0.48 5.7-1.84 1.4-1.06 2.94-2.58 2.94-3.53 0-0.71-0.63-1.52-1.79-1.52-0.87 0-1.71 0.55-1.68 1.62-1.26 1.74-3.32 2.52-4.65 2.52-1.53 0-2.31-0.96-2.31-2.59 0-0.89 0.04-1.44 0.18-2l5.98-1.36zm24.8 3.21c-1.35 1.37-4.35 2.85-5.68 2.85-0.63 0-0.87-0.3-0.87-0.85 0-1.06 1.43-2.84 3.17-3.83 1.32-0.78 3.38-1.59 5.19-1.89 0 1.86-0.24 2.2-1.81 3.72zm4.97-8.11c0-1.81-0.84-3.64-3.85-3.64-2.58 0-5.51 0.48-8.06 2.31-0.74 0.11-1.4 0.73-1.4 1.66 0 0.97 0.73 1.63 1.64 1.63 0.91 0 1.72-0.62 1.82-1.37 1.26-0.89 3.48-1.48 5.27-1.48 1.35 0 1.42 0.37 1.42 1.26l0 1.55c-2.22 0.23-4.91 1-7.29 2.41-2.72 1.63-4.3 4-4.3 6.22 0 1.95 1.36 3.16 3.64 3.16 2.48 0 5.76-1.5 7.95-4.08l0 1.27c-0.1 0.15-0.27 0.37-0.27 0.92 0 0.82 0.52 1.44 1.64 1.44 0.88 0 2.03-0.29 2.03-1.51 0-0.33-0.03-0.63-0.24-0.89l0-10.86zm18-1.17c0-1.63-1.82-2.58-2.77-2.58-1.83 0-4.07 2.06-7.12 4.31l0-1.8c0.11-0.2 0.24-0.49 0.24-0.93 0-0.67-0.31-1.58-1.71-1.58-0.88 0-1.82 0.59-1.82 1.65 0 0.34 0.03 0.59 0.14 0.77l0 4.2c-0.25 0.41-0.36 0.89-0.36 1.26 0 0.33 0.08 0.7 0.36 0.99l0 5.75c-0.14 0.26-0.28 0.55-0.28 0.96 0 0.77 0.56 1.43 1.68 1.43 0.8 0 1.86-0.22 1.86-1.58 0-0.3-0.04-0.51-0.11-0.7l0-6.7c3.05-2.4 5.54-4.35 5.96-4.35 0.25 0 0.77 0.22 0.77 0.7l0 10.39c-0.1 0.26-0.17 0.44-0.17 0.63 0 0.91 0.63 1.61 1.68 1.61 1.06 0 1.75-0.47 1.75-1.69 0-0.29 0-0.51-0.1-0.77l0-11.97zm12.5 8.44c-1.64 1.77-3.39 3.36-5.03 3.36-0.74 0-1.05-0.52-1.05-1.34 0-1.51 1.22-3.87 2.86-5.71 1.61-1.85 3.64-2.95 5.35-2.95 0.91 0 1.12 0.7 1.12 1.18 0 0.89-0.49 2.47-3.25 5.46zm6.36-15.9c0.04-0.26 0.08-0.45 0.08-0.7 0-0.86-0.49-1.89-1.72-1.89-0.81 0-1.82 0.55-1.82 1.73 0 0.45 0.07 0.86 0.32 1.16l-0.04 6.32c-0.31-0.37-1.05-0.44-1.75-0.44-4.75 0-10.74 6.54-10.74 11.52 0 2.88 1.33 4.64 3.89 4.64 1.57 0 2.97-0.44 4.57-1.58 1.23-0.85 2.84-2.5 4-4.05l0.07 0 0 2.64c-0.07 0.22-0.15 0.52-0.15 0.96 0 0.81 0.43 1.58 1.69 1.58 1.12 0 1.92-0.47 1.92-1.61 0-0.23-0.03-0.59-0.32-1l0-19.28zm22.96 0.53c1.86 0 2.95 0.59 3.05 1.03 0.17 0.85 0.63 1.56 1.57 1.56 0.98 0 1.83-0.82 1.83-2 0-1.87-3.61-3.71-6.59-3.71-2.45 0-4.87 1.03-6.93 3.97-1.62 2.37-3.41 7.05-3.41 10.63 0 5.51 2.39 10.29 7.47 10.29 1.05 0 1.83-0.14 3.33-0.84 1.54-0.77 3.46-2.2 4.41-3.27 0.94-1.04 1.4-1.74 1.4-2.52 0-0.92-0.7-1.81-2.07-1.81-1.01 0-1.5 0.89-1.71 2.25-1.13 1.41-3.15 3.07-4.84 3.07-1.64 0-2.45-0.33-3.33-1.47-0.7-0.93-1.4-2.77-1.4-5.21 0-2 0.63-5.58 2.31-8.57 1.27-2.21 2.84-3.4 4.91-3.4zm22.6 6.86c0.17-1.07-0.12-2.03-1.69-2.03-1.22 0-1.58 0.55-1.58 1.22 0 0.71 0 0.41 0.11 0.81l0 8.99c-1.37 1.14-3.61 2.95-5.51 2.95-0.38 0-1.22-0.52-1.22-1.22l0-10.35c0.17-0.26 0.24-0.52 0.24-0.89 0-0.7-0.46-1.62-1.68-1.62-0.91 0-1.82 0.51-1.82 1.7 0 0.22 0 0.44 0.1 0.7l0 10.5c0 2.91 2.38 4.15 4.25 4.15 1.92 0 4.24-1.51 5.53-2.56l0 0.4c-0.38 0.8 0.14 1.72 1.47 1.72 0.88 0 2.04-0.3 2.04-1.55 0-0.34-0.04-0.63-0.24-0.89l0-12.03zm8.25-8.29c0-0.92-0.71-1.69-1.79-1.69-1.19 0-1.93 0.33-1.93 1.92 0 0.48 0.11 0.77 0.21 0.99l0 18.99c-0.14 0.37-0.14 0.56-0.14 0.71 0 1.02 0.74 1.84 1.93 1.84 0.84 0 1.72-0.59 1.72-1.66 0-0.33 0-0.67-0.35-1.07l0-18.66c0.24-0.33 0.35-0.7 0.35-1.37zm15.44 14.28c-0.74 0-1.37 0.37-1.47 1.45-0.63 0.93-1.47 1.7-2.07 2.18-1.64 1.22-1.95 1.44-2.48 1.44-0.32 0-0.32-0.62-0.32-1.14l0-9.32 4.21-0.66 0.62 0.07c0.84 0 1.37-0.66 1.37-1.83 0-0.33-0.53-1.36-1.54-1.36-0.24 0-0.56 0.11-0.74 0.19l-3.92 0.59 0-2.22c0.18-0.25 0.21-0.55 0.21-0.88 0-1.1-0.91-1.29-1.54-1.29-0.95-0.04-1.93 0.23-1.93 1.41 0 0.18 0 0.47 0.11 0.73l0 2.73-1.96 0.29-0.39-0.07c-0.88 0.04-1.75 0.67-1.75 1.85 0 0.39 0.45 1.42 1.68 1.42 0.28-0.05 0.46-0.13 0.66-0.27l1.76-0.27 0 11.44c0 1.73 1.05 2.29 2.34 2.29 1.02 0 2.46-0.66 4.14-1.88 1.75-1.33 4.76-4 4.76-5.26 0-0.44-0.2-1.63-1.75-1.63zm17.21-5.99c0.18-1.07-0.1-2.03-1.67-2.03-1.23 0-1.58 0.55-1.58 1.22 0 0.71 0 0.41 0.1 0.81l0 8.99c-1.36 1.14-3.61 2.95-5.5 2.95-0.39 0-1.23-0.52-1.23-1.22l0-10.35c0.18-0.26 0.25-0.52 0.25-0.89 0-0.7-0.46-1.62-1.69-1.62-0.91 0-1.82 0.51-1.82 1.7 0 0.22 0 0.44 0.11 0.7l0 10.5c0 2.91 2.38 4.15 4.24 4.15 1.93 0 4.24-1.51 5.54-2.56l0 0.4c-0.39 0.8 0.14 1.72 1.47 1.72 0.88 0 2.03-0.3 2.03-1.55 0-0.34-0.03-0.63-0.25-0.89l0-12.03zm13.07-2.07c-0.53 0-0.88 0.19-2.1 0.89-0.85 0.48-2.04 1.51-3.02 2.36l0-1.04c0.1-0.4 0.15-0.58 0.15-0.81 0-0.81-0.57-1.47-1.59-1.47-0.8 0-1.82 0.44-1.82 1.62 0 0.3 0.04 0.52 0.1 0.81l0 11.52c-0.2 0.29-0.35 0.71-0.35 1.03 0 0.92 0.61 1.63 1.76 1.63 1.36 0 2.1-0.44 2.1-1.74 0-0.37-0.17-0.7-0.35-0.92l0-7.02c0.98-1.06 3.19-2.91 4.24-3.53-0.04 0.47-0.04 0.62-0.04 0.84 0 0.96 0.99 1.4 1.66 1.4 0.48 0 1.5-0.07 1.5-1.4 0-2.02-0.28-4.17-2.24-4.17zm12.7 11.42c-1.35 1.37-4.36 2.85-5.69 2.85-0.62 0-0.87-0.3-0.87-0.85 0-1.06 1.44-2.84 3.18-3.83 1.32-0.78 3.38-1.59 5.2-1.89 0 1.86-0.24 2.2-1.82 3.72zm4.97-8.11c0-1.81-0.84-3.64-3.85-3.64-2.58 0-5.51 0.48-8.06 2.31-0.74 0.11-1.4 0.73-1.4 1.66 0 0.97 0.73 1.63 1.65 1.63 0.91 0 1.71-0.62 1.81-1.37 1.25-0.89 3.49-1.48 5.27-1.48 1.36 0 1.43 0.37 1.43 1.26l0 1.55c-2.23 0.23-4.92 1-7.29 2.41-2.73 1.63-4.31 4-4.31 6.22 0 1.95 1.37 3.16 3.64 3.16 2.48 0 5.76-1.5 7.96-4.08l0 1.27c-0.1 0.15-0.28 0.37-0.28 0.92 0 0.82 0.52 1.44 1.65 1.44 0.87 0 2.02-0.29 2.02-1.51 0-0.33-0.03-0.63-0.24-0.89l0-10.86zm7.96-8.16c0.25-0.33 0.35-0.7 0.35-1.37 0-0.92-0.7-1.69-1.78-1.69-1.2 0-1.93 0.33-1.93 1.92 0 0.48 0.11 0.77 0.21 0.98l0 19c-0.14 0.37-0.14 0.56-0.14 0.71 0 1.03 0.74 1.83 1.93 1.83 0.84 0 1.71-0.58 1.71-1.65 0-0.33 0-0.67-0.35-1.07l0-18.66zm-291.4 41.78c-1.26 0-2.84 0.34-5.12 1.11-1.89 0.6-2.67 0.9-3.29 0.9-1.02 0-1.37-0.84-1.37-1.51 0-0.97 0.77-2.52 2.07-3.77 1.26-1.19 2.8-2.04 5.08-2.04 1.54 0 1.86 0.33 2.42 0.7 0.14 0.67 0.81 1.11 1.82 1.11 0.81 0 1.58-0.36 1.58-1.7 0-1.65-3.05-3.23-5.65-3.23-2.34 0-4.76 0.74-7.01 2.61-1.92 1.62-3.58 4.28-3.58 6.94 0 2.47 1.31 4.27 4.33 4.27 0.91 0 2.23-0.25 4.59-1.07 2.48-0.82 3.64-0.93 4.65-0.93 1.16 0 1.83 0.77 1.83 1.91 0 1.48-0.32 2.81-1.51 4.17-1.69 1.84-4.73 3.51-7.71 3.51-1.4 0-2.03-0.34-2.53-2.22-0.35-1.29-0.72-2.1-1.78-2.1-0.88 0-1.79 0.89-1.79 2.17 0 1.3 0.77 2.8 1.72 3.72 1.16 1.11 2.48 1.55 4.41 1.55 1.66 0 2.81-0.15 4.88-0.92 1.68-0.67 2.87-1.32 4.83-3.24 1.69-1.66 2.74-3.73 2.74-7.01 0-3.24-2.14-4.93-5.61-4.93zm16.54 1.98c1.57 0 1.82 1.11 1.82 1.52 0 0.59-0.39 0.81-1.3 1.07-1.22 0.34-3.01 0.79-5.31 1.27l-0.07-0.04c1.4-3.01 3.11-3.82 4.86-3.82zm0.42 5.41c3.4-0.78 4.63-1.89 4.63-3.52 0-2.56-2.15-4.64-4.84-4.64-2.59 0-4.93 1.17-6.71 3.53-1.52 2-2.46 4.66-2.46 7.62 0 3.11 1.71 5.72 5.01 5.72 2.09 0 3.92-0.48 5.7-1.84 1.4-1.06 2.94-2.58 2.94-3.54 0-0.7-0.63-1.52-1.79-1.52-0.87 0-1.71 0.56-1.68 1.63-1.25 1.74-3.31 2.51-4.65 2.51-1.54 0-2.31-0.96-2.31-2.59 0-0.88 0.04-1.44 0.18-1.99l5.98-1.37zm15.36-8.2c-0.52 0-0.88 0.18-2.1 0.89-0.84 0.47-2.04 1.5-3.02 2.35l0-1.03c0.1-0.4 0.14-0.59 0.14-0.81 0-0.81-0.56-1.47-1.58-1.47-0.81 0-1.82 0.44-1.82 1.62 0 0.29 0.04 0.52 0.11 0.81l0 11.51c-0.21 0.3-0.35 0.71-0.35 1.04 0 0.92 0.59 1.62 1.75 1.62 1.37 0 2.1-0.44 2.1-1.74 0-0.36-0.17-0.69-0.35-0.92l0-7.01c0.98-1.07 3.19-2.92 4.24-3.55-0.03 0.48-0.03 0.63-0.03 0.85 0 0.96 0.98 1.41 1.65 1.41 0.48 0 1.5-0.08 1.5-1.41 0-2.02-0.28-4.16-2.24-4.16zm16.62-0.23c-0.91 0-1.37 0.52-1.85 1.89-0.74 1.88-1.51 3.36-2.56 5.24-0.81 1.44-1.54 2.88-1.93 4.21l-0.07 0c-0.28-1.37-0.67-3.1-1.33-5.31-0.42-1.41-0.77-2.41-0.84-3.18 0.14-0.44 0.21-0.74 0.21-1 0-0.77-0.7-1.55-1.67-1.55-0.88 0-1.79 0.63-1.79 1.67 0 0.47 0 0.65 0.14 0.91 0.04 0.63 0.1 1.12 0.35 2.15 0.38 1.77 0.56 2.43 1.68 5.79 1.04 3.14 1.22 3.77 1.22 3.92 0 1.29 0.73 2.17 1.78 2.17 1.02 0 1.58-0.66 1.79-1.74 0.1-0.55 0.63-2.02 3.12-6.6 1.43-2.54 1.19-2.14 2.06-3.69 0.4-0.93 1.23-2.48 1.23-3.25 0-1.18-0.7-1.63-1.54-1.63zm6.97 3.07c0.11-0.11 0.29-0.37 0.29-0.88 0-1.08-0.91-1.92-1.69-1.92-1.15 0-1.95 0.51-1.95 2.14 0 0.33 0.06 0.59 0.2 0.81l0 10.7c-0.31 0.56-0.31 0.74-0.31 0.99 0 0.82 0.45 1.89 1.72 1.89 1.15 0 2.06-0.77 2.06-1.84 0-0.34-0.11-0.6-0.32-0.9l0-10.99zm-1.33-9.97c-1.27 0-2.04 1.21-2.04 3.57 0 1.04 0.63 1.91 1.79 1.91 1.16 0 2.14-1.1 2.14-3.53 0-1.21-0.52-1.95-1.89-1.95zm16.55 15.8c-0.59 0-0.84 0.07-1.19 0.45-0.35 0.37-0.35 0.44-0.45 1.03-1.13 2.19-3.09 3.78-4.49 3.78-1.68 0-2.69-0.89-2.69-3.15 0-2.62 0.7-4.33 2.13-5.92 1.4-1.59 1.83-1.96 3.58-1.96 0.48 0 0.63 0.07 0.98 0.66 0.28 0.56 0.63 1.11 1.39 1.11 0.92 0 2.04-0.44 2.04-1.77 0-1.55-1.82-3.09-4.41-3.09-2.28 0-4.17 0.96-5.22 2.13-2.92 3.21-3.72 5.18-3.72 9.32 0 2.85 1.86 5.76 5.32 5.76 1.51 0 3.13-0.37 4.81-1.66 1.5-1.13 3.57-3.73 3.57-5.06 0-0.59-0.42-1.63-1.65-1.63zm12.85-5.88c1.57 0 1.81 1.11 1.81 1.52 0 0.59-0.38 0.81-1.29 1.07-1.22 0.34-3.01 0.79-5.32 1.27l-0.07-0.04c1.4-3.01 3.12-3.82 4.87-3.82zm0.41 5.41c3.4-0.78 4.63-1.89 4.63-3.52 0-2.56-2.14-4.64-4.83-4.64-2.59 0-4.94 1.17-6.72 3.53-1.51 2-2.45 4.66-2.45 7.62 0 3.11 1.71 5.72 5.01 5.72 2.09 0 3.91-0.48 5.7-1.84 1.4-1.06 2.94-2.58 2.94-3.54 0-0.7-0.63-1.52-1.79-1.52-0.88 0-1.71 0.56-1.68 1.63-1.26 1.74-3.32 2.51-4.65 2.51-1.54 0-2.31-0.96-2.31-2.59 0-0.88 0.03-1.44 0.18-1.99l5.97-1.37zm18.64-3.41c-1.5 0-2.93 0.48-4.78 1.18-1.41 0.54-2.4 0.94-2.89 0.94-0.38 0-0.69-0.11-0.69-0.67 0-0.66 0.55-1.4 1.78-2.24 1.5-1.04 3.78-1.51 6.2-1.51 0.59 0.26 0.88 0.4 1.26 0.4 0.63 0 1.51-0.14 1.51-1.47 0-1.06-1.33-1.87-2.81-1.87-2.83 0-5.6 0.69-7.59 1.87-2.15 1.33-3.58 3.21-3.58 5.49 0 1.91 1.65 3.23 3.29 3.23 1.76 0 3.05-0.55 4.7-1.21 1.37-0.54 2.38-0.9 3.15-0.9 0.66 0 1.05 0.32 1.05 0.92 0 0.84-0.39 1.91-1.67 3.02-1.51 1.33-3.64 1.92-5.01 1.92-1.18 0-1.71-0.29-2.1-0.55l0.08-0.59c0-1.03-0.89-1.26-1.79-1.26-0.6 0-1.44 0.68-1.44 2.04 0 0.91 0.73 1.87 1.68 2.42 0.91 0.55 2.46 0.88 3.54 0.88 2.73 0 5.38-1.25 7.17-2.68 1.4-1.11 2.77-3.14 2.77-5.68 0-1.59-0.98-3.68-3.83-3.68zm26.29 4.51c-1.93 1.92-5.15 3.51-7.26 3.91l0-16.09c1.33-0.85 3.66-1.77 6.1-1.77 2.84 0 4.73 2.4 4.73 5.42 0 2.59-1.01 5.98-3.57 8.53zm-0.6-17.07c-2.73 0-4.02 0.44-6.51 1.39-0.15-0.76-0.74-1.17-1.54-1.17-0.91 0-1.97 0.48-1.97 1.59 0 0.4 0.15 0.82 0.15 0.89l0 20.57c0 0.71 0.24 1.37 1.39 1.37 0.99 0 3.75-0.7 6-1.7 1.4-0.63 3.61-1.81 5.39-3.5 3.12-3.03 4.53-7.17 4.53-11.19 0-4.28-3.51-8.25-7.44-8.25zm16.89 10.56c1.57 0 1.81 1.11 1.81 1.52 0 0.59-0.38 0.81-1.29 1.07-1.22 0.34-3 0.79-5.31 1.27l-0.07-0.04c1.4-3.01 3.11-3.82 4.86-3.82zm0.42 5.41c3.4-0.78 4.62-1.89 4.62-3.52 0-2.56-2.14-4.64-4.83-4.64-2.59 0-4.93 1.17-6.72 3.53-1.5 2-2.45 4.66-2.45 7.62 0 3.11 1.72 5.72 5.01 5.72 2.1 0 3.91-0.48 5.7-1.84 1.4-1.06 2.94-2.58 2.94-3.54 0-0.7-0.63-1.52-1.79-1.52-0.87 0-1.71 0.56-1.68 1.63-1.26 1.74-3.32 2.51-4.65 2.51-1.53 0-2.3-0.96-2.3-2.59 0-0.88 0.03-1.44 0.17-1.99l5.98-1.37zm12.45 5.51c-0.49 0-1.15-0.22-1.36-0.82l0-4.1c0.45-1.01 1.36-2.41 3.11-3.96 1.09-0.98 2-1.64 3.43-1.64 1.26 0 1.68 1.11 1.68 2.04 0 3.26-3.43 8.48-6.86 8.48zm5.43-13.6c-2.87 0-4.94 1.72-6.79 3.93l0-1.75c0 0 0.21-0.22 0.21-0.66 0-1.3-0.99-1.71-1.9-1.71-0.84 0-1.64 0.6-1.64 1.78 0 0.33 0 0.63 0.18 0.92l0 22.66c-0.18 0.37-0.18 0.81-0.18 1.03 0 0.78 0.35 1.48 1.61 1.48 0.91 0 1.93-0.33 1.93-1.62 0-0.41 0-0.59-0.21-0.85l0-8.97c0.38 0.29 0.8 0.45 1.6 0.45 2.2 0 5.15-1.74 7.07-4.09 1.8-2.26 2.77-5.22 2.77-7.78 0-3.13-2.06-4.82-4.65-4.82zm16.17 11.3c-1.36 1.37-4.36 2.86-5.69 2.86-0.62 0-0.87-0.3-0.87-0.85 0-1.07 1.43-2.84 3.18-3.84 1.32-0.77 3.38-1.59 5.19-1.88 0 1.86-0.24 2.19-1.81 3.71zm4.97-8.11c0-1.8-0.85-3.64-3.85-3.64-2.58 0-5.51 0.48-8.06 2.31-0.74 0.11-1.4 0.74-1.4 1.66 0 0.97 0.73 1.64 1.64 1.64 0.91 0 1.72-0.64 1.81-1.38 1.26-0.88 3.5-1.48 5.28-1.48 1.36 0 1.42 0.38 1.42 1.26l0 1.56c-2.23 0.22-4.91 1-7.28 2.41-2.73 1.62-4.32 4-4.32 6.22 0 1.95 1.38 3.15 3.65 3.15 2.48 0 5.75-1.5 7.95-4.08l0 1.27c-0.1 0.15-0.28 0.38-0.28 0.92 0 0.82 0.53 1.45 1.65 1.45 0.88 0 2.03-0.3 2.03-1.52 0-0.32-0.03-0.62-0.24-0.88l0-10.87zm14.69-1.29c-0.25-1.14-0.81-2.01-2.06-2.01-0.52 0-0.88 0.19-2.1 0.89-0.85 0.48-2.03 1.5-3.02 2.35l0-1.02c0.11-0.42 0.14-0.6 0.14-0.82 0-0.81-0.56-1.48-1.58-1.48-0.8 0-1.82 0.45-1.82 1.63 0 0.3 0.04 0.52 0.11 0.81l0 11.51c-0.21 0.3-0.35 0.71-0.35 1.04 0 0.92 0.59 1.62 1.75 1.62 1.37 0 2.1-0.44 2.1-1.74 0-0.36-0.17-0.7-0.35-0.92l0-7.01c0.99-1.07 3.19-2.92 4.24-3.54-0.04 0.47-0.04 0.62-0.04 0.85 0 0.95 0.99 1.4 1.66 1.4 0.49 0 1.5-0.08 1.5-1.4 0-0.5-0.01-1-0.07-1.47l-0.15-0.49 0.04-0.2zm15.75 6.05c-0.74 0-1.37 0.37-1.47 1.44-0.63 0.93-1.47 1.71-2.07 2.19-1.64 1.22-1.96 1.44-2.49 1.44-0.31 0-0.31-0.63-0.31-1.15l0-9.31 4.21-0.67 0.63 0.07c0.83 0 1.36-0.65 1.36-1.83 0-0.32-0.53-1.36-1.54-1.36-0.25 0-0.56 0.11-0.74 0.19l-3.92 0.59 0-2.21c0.18-0.26 0.21-0.55 0.21-0.89 0-1.1-0.91-1.29-1.54-1.29-0.94-0.03-1.93 0.23-1.93 1.41 0 0.18 0 0.48 0.11 0.74l0 2.72-1.96 0.3-0.39-0.07c-0.82 0.03-1.61 0.6-1.71 1.64l0.11 0.69c0.21 0.44 0.68 0.94 1.53 0.94 0.28-0.06 0.46-0.13 0.66-0.28l1.76-0.26 0 11.44c0 1.73 1.05 2.29 2.34 2.29 1.02 0 2.46-0.67 4.14-1.89 1.75-1.33 4.76-4 4.76-5.25 0-0.45-0.2-1.63-1.75-1.63zm26.36-5.9c0-1.06-0.6-2.57-1.93-2.57-1.5 0-2.98 0.95-7.33 4.15l0-0.81c0-1.58-0.28-3.34-2.03-3.34-0.49 0-1.36 0.14-2.49 0.88-0.95 0.59-1.61 1.03-4.73 3.02l0-1.33c0.25-0.4 0.25-0.62 0.25-0.85 0-0.95-0.53-1.72-1.55-1.72-1.05 0-2.07 0.22-2.07 1.72 0 0.49 0.07 0.7 0.22 1l0 11.61c-0.18 0.48-0.18 0.43-0.18 0.88 0 0.81 0.32 1.77 1.82 1.77 1.15 0 1.76-0.63 1.76-1.7 0-0.33-0.04-0.59-0.25-0.88l0-7.15c3.51-2.1 5.47-3.57 5.71-3.57 0.21 0 0.39 0.11 0.39 0.37l0 10.35c-0.21 0.22-0.35 0.55-0.35 0.95 0 0.86 0.42 1.63 1.64 1.63 1.27 0 1.86-0.52 1.86-2.25l0-7.23c5.33-3.67 5.47-3.75 5.75-3.75 0.36 0 0.36 0.33 0.36 0.77l0 10.06c-0.15 0.15-0.22 0.41-0.22 0.7 0 1.11 0.56 1.7 1.65 1.7 0.84 0 1.96-0.41 1.96-1.63 0-0.44-0.06-0.7-0.24-0.95l0-11.83zm12.8 0.63c1.57 0 1.82 1.11 1.82 1.52 0 0.59-0.39 0.81-1.29 1.07-1.23 0.34-3.01 0.79-5.32 1.27l-0.07-0.04c1.4-3.01 3.11-3.82 4.86-3.82zm0.43 5.41c3.39-0.78 4.62-1.89 4.62-3.52 0-2.56-2.14-4.64-4.84-4.64-2.59 0-4.93 1.17-6.71 3.53-1.51 2-2.46 4.66-2.46 7.62 0 3.11 1.72 5.72 5.01 5.72 2.1 0 3.92-0.48 5.7-1.84 1.41-1.06 2.95-2.58 2.95-3.54 0-0.7-0.64-1.52-1.79-1.52-0.88 0-1.72 0.56-1.69 1.63-1.25 1.74-3.31 2.51-4.65 2.51-1.53 0-2.3-0.96-2.3-2.59 0-0.88 0.03-1.44 0.17-1.99l5.99-1.37zm20.89-6.07c0-1.62-1.82-2.58-2.76-2.58-1.83 0-4.07 2.06-7.13 4.31l0-1.8c0.11-0.19 0.25-0.48 0.25-0.92 0-0.67-0.32-1.59-1.72-1.59-0.87 0-1.82 0.6-1.82 1.66 0 0.33 0.04 0.59 0.14 0.78l0 4.19c-0.24 0.41-0.35 0.88-0.35 1.25 0 0.34 0.07 0.71 0.35 0.99l0 5.76c-0.14 0.25-0.28 0.55-0.28 0.95 0 0.78 0.56 1.44 1.68 1.44 0.81 0 1.86-0.23 1.86-1.59 0-0.29-0.03-0.51-0.11-0.7l0-6.7c3.06-2.39 5.55-4.34 5.97-4.34 0.24 0 0.77 0.21 0.77 0.69l0 10.39c-0.1 0.26-0.18 0.45-0.18 0.63 0 0.92 0.64 1.62 1.68 1.62 1.05 0 1.76-0.47 1.76-1.69 0-0.3 0-0.52-0.11-0.78l0-11.97zm15.88 5.93c-0.74 0-1.36 0.37-1.47 1.44-0.63 0.93-1.47 1.71-2.07 2.19-1.64 1.22-1.95 1.44-2.48 1.44-0.32 0-0.32-0.63-0.32-1.15l0-9.31 4.21-0.67c0.24 0.12 0.52 0.07 0.63 0.07 0.84 0 1.37-0.65 1.37-1.83 0-0.32-0.53-1.36-1.55-1.36l-0.74 0.19-3.92 0.59 0-2.21c0.18-0.26 0.22-0.55 0.22-0.89 0-1.1-0.92-1.29-1.55-1.29-0.94-0.03-1.92 0.23-1.92 1.41 0 0.18 0 0.48 0.1 0.74l0 2.72-1.96 0.3-0.38-0.07c-0.88 0.04-1.76 0.66-1.76 1.84 0 0.4 0.46 1.43 1.69 1.43 0.27-0.06 0.45-0.13 0.65-0.28l1.76-0.26 0 11.44c0 1.73 1.05 2.29 2.35 2.29 1.02 0 2.45-0.67 4.13-1.89 1.75-1.33 4.76-4 4.76-5.25 0-0.45-0.2-1.63-1.75-1.63zm-272.42-87.84l0.04-2.19 6.67-0.03c0.45 0 0.65 0.34 0.6 1.04l0-0.04 0.04 1.18-7.35 0.04zm7.35 4.17c0 0.7-0.31 0.99-0.94 0.87l-6.41 0.04 0-2.34 7.35 0.04 0 1.39zm-9.81 8.53c-0.27-0.61-0.64-0.91-1.09-0.91-0.2 0-0.46 0.14-0.76 0.4-0.3 0.26-0.53 0.45-0.7 0.57l0.17-0.63c0-0.38-0.19-0.72-0.57-1.02l-4.44-3.24 7.39 0 0 4.83zm-0.04-17.67l-8.65-0.06c-0.32 0-0.58 0.16-0.79 0.46-0.21 0.31-0.31 0.67-0.31 1.09 0 0.83 0.31 1.26 0.95 1.26l8.8 0.03 0 2.19-10.33 0-0.01-5.58c0-0.65 0.3-0.97 0.92-0.97l9.42 0.04 0 1.54zm14.77 4.93l-2.45 0 0-2.3c0-0.74-0.24-1.37-0.7-1.91-0.47-0.54-1.04-0.82-1.71-0.82l-7.31 0.04 0-1.58 11.45 0.06c0.62 0 0.94-0.43 0.94-1.29 0-0.98-0.37-1.47-1.12-1.47l-11.9 0-0.03-2.27c0-0.76-0.39-1.13-1.14-1.13-0.87 0-1.31 0.4-1.31 1.2l0.07 2.2-8.6 0c-2.5-0.02-3.75 1.14-3.75 3.49l0.04 7.27c0 5.14-0.22 8.68-0.65 10.61-0.43 1.93-1.14 4.09-2.13 6.47-0.19 0.35-0.27 0.68-0.27 0.99 0 0.9 0.39 1.35 1.15 1.35 0.32 0 0.62-0.13 0.9-0.39 0.54-0.48 1.21-2.11 2.01-4.91 0.53-1.92 0.92-3.94 1.14-6.06 0.23-2.12 0.35-4.39 0.35-6.81l10.29-0.03 0 2.45c-5.12 0-8.01 0.01-8.67 0.03-0.65 0.02-0.98 0.42-0.98 1.18 0 0.32 0.06 0.59 0.19 0.83-0.39 0.26-0.58 0.62-0.58 1.1 0 0.57 0.22 0.99 0.65 1.27l4.6 3.59c0.48 0.37 0.88 0.51 1.2 0.44-1.31 0.97-3.65 2.4-7 4.27-0.45 0.25-0.68 0.64-0.68 1.2 0 0.36 0.11 0.67 0.32 0.94 0.2 0.28 0.46 0.42 0.75 0.42 0.26 0 1.43-0.58 3.53-1.74 2.09-1.16 4.16-2.6 6.23-4.34l0.02 0 0.42-0.68 0 4.07c0 0.82-0.31 1.24-0.92 1.24-0.22 0-0.6-0.11-1.13-0.32-0.54-0.21-0.94-0.41-1.21-0.62-0.27-0.21-0.49-0.31-0.68-0.31-0.36 0-0.7 0.18-1.01 0.55-0.33 0.38-0.48 0.77-0.48 1.2 0 0.6 0.51 1.19 1.53 1.75 1.03 0.58 1.96 0.86 2.78 0.86 1.03 0 1.88-0.37 2.56-1.1 0.67-0.73 1.02-1.55 1.03-2.46 0.02-0.9 0.03-2.86 0.03-5.87 1.22 1.69 3.04 3.55 5.48 5.58 2.44 2.02 4.33 3.03 5.68 3.03 0.71 0 1.07-0.49 1.07-1.49 0-0.68-0.21-1.07-0.61-1.15-2.58-0.89-5-2.48-7.25-4.81 0.44-0.03 0.8-0.15 1.07-0.34 0.28-0.18 0.86-0.61 1.74-1.25 0.88-0.64 1.81-1.36 2.79-2.14 0.98-0.79 1.52-1.28 1.64-1.46 0.12-0.18 0.17-0.4 0.17-0.68 0-0.36-0.1-0.7-0.33-0.99-0.22-0.3-0.48-0.45-0.79-0.45l-0.61 0.25c-0.18 0.15-0.9 0.72-2.15 1.7-1.25 0.98-2.27 1.74-3.04 2.3-0.77 0.55-1.21 0.98-1.32 1.27-0.12 0.29-0.17 0.5-0.17 0.63-1.61-1.64-2.73-2.92-3.37-3.85-0.04-0.27-0.01-0.6 0.06-0.97 1.3-0.04 2.38-0.05 3.24-0.05l3.07 0.05c0.66 0 1.24-0.13 1.73-0.39 0.49-0.26 0.87-0.62 1.15-1.06 0.26-0.45 0.42-0.98 0.45-1.61 0.04-0.64 0.06-1.3 0.08-2l2.41-0.07c0.63 0 0.94-0.43 0.94-1.29 0-0.94-0.3-1.42-0.9-1.42zm21.72 4.8c-0.74 0.01-1.1-0.43-1.1-1.3l0-3.13 4.18 0 0 3.1c0 0.86-0.35 1.29-1.04 1.29l-2.04 0.04zm-1.1-9.69c0-0.42 0.06-0.7 0.19-0.86 0.12-0.16 0.42-0.24 0.88-0.24l1.91 0c0.5 0 0.83 0.08 0.98 0.22 0.14 0.17 0.22 0.5 0.22 1l0 2.85-4.18 0 0-2.97zm10.31 4c-1.2 2.38-2.18 4.16-2.95 5.33-0.28 0.1-0.47 0.2-0.55 0.3l-0.21 0.19-0.03-9.19 3.74 3.37zm6.96 19.43c-4.3-1.37-8.6-3.78-12.89-7.23 1.76 0.03 3.55 0.05 5.36 0.05 4.5 0 6.9-0.05 7.21-0.17 0.31-0.1 0.47-0.43 0.47-0.97 0-0.81-0.42-1.21-1.25-1.21l-13.06 0 0-2.06 1.76 0c0.37 0 0.75-0.2 1.14-0.59 0.23-0.23 0.37-0.47 0.46-0.72l0.17 0.59c0.16 0.3 0.34 0.44 0.53 0.44l0.15-0.04 7.45-0.82c0.69 1.6 1.09 2.45 1.2 2.55l0.41 0.17c0.3 0 0.58-0.13 0.87-0.4 0.28-0.26 0.42-0.56 0.42-0.89 0-0.18-0.39-1.22-1.17-3.09-0.78-1.88-1.35-3.11-1.7-3.71-0.36-0.6-0.73-0.89-1.11-0.89-0.29 0-0.55 0.11-0.78 0.34-0.22 0.22-0.34 0.49-0.34 0.8l0.12 0.52 1.04 2.54c-1.55 0.21-2.73 0.35-3.53 0.4 1.37-2.38 2.6-4.85 3.69-7.42 1.08-2.56 1.62-3.91 1.62-4.05 0-0.28-0.15-0.55-0.47-0.8-0.31-0.25-0.63-0.37-0.96-0.37-0.37 0-0.61 0.16-0.72 0.47-0.86 2.24-1.55 3.89-2.06 4.97l-1.53-1.43c1.62-4.33 2.43-6.7 2.43-7.09 0-0.22-0.14-0.42-0.43-0.6-0.29-0.17-0.61-0.26-0.95-0.26-0.44 0-0.71 0.15-0.81 0.46-0.79 2.57-1.5 4.55-2.15 5.94l-0.5-0.11c-0.31 0-0.57 0.15-0.79 0.46l0.03-1.06c0-1.14-1.15-1.65-3.46-1.55 0.12-1.86 0.19-2.91 0.19-3.15 0-0.71-0.36-1.06-1.07-1.06-0.32 0-0.6 0.1-0.83 0.32-0.23 0.21-0.36 0.53-0.38 0.96-0.01 0.43-0.09 1.41-0.21 2.93-0.39-0.04-0.73-0.06-1.01-0.06-1.55 0-2.32 0.7-2.32 2.1l0.04 11.38c0.01 0.37 0.21 0.78 0.59 1.21 0.38 0.43 1.06 0.65 2.03 0.65l0.56-0.04-0.02 2.06c-3.89-0.04-6.77-0.06-8.65-0.06-2.11 0-3.33 0.01-3.66 0.03-0.34 0.02-0.6 0.15-0.82 0.38-0.2 0.23-0.3 0.5-0.3 0.8 0 0.72 0.38 1.1 1.16 1.15l11.65 0c-1.56 1.55-4.03 3.26-7.4 5.11-3.38 1.86-5.26 2.93-5.65 3.25-0.38 0.31-0.58 0.64-0.58 1.01 0 0.65 0.4 0.97 1.18 0.97 0.29 0 1.11-0.32 2.49-0.99 1.37-0.66 3.12-1.63 5.26-2.89 2.14-1.25 3.91-2.55 5.32-3.9l0.02 4.14 0 2.58c0.01 0.53 0.13 0.89 0.34 1.05 0.21 0.17 0.48 0.25 0.78 0.25 0.91 0 1.34-0.57 1.28-1.72-0.05-1.15-0.06-3.51-0.02-7.1 3.37 2.74 6.28 4.68 8.71 5.83 2.44 1.14 3.99 1.72 4.65 1.72 0.4 0 0.74-0.13 1.03-0.37 0.3-0.26 0.45-0.53 0.45-0.82 0-0.38-0.23-0.68-0.68-0.89zm-30.64-13.45c-0.25 0.12-0.37 0.38-0.37 0.79 0 0.32 0.09 0.6 0.29 0.84 0.19 0.23 0.44 0.35 0.76 0.34l8.21-0.65c0.36 1.11 0.85 1.66 1.45 1.66 0.7 0 1.1-0.39 1.18-1.2l-2.26-5.5c-0.18-0.43-0.48-0.64-0.89-0.64-0.3 0-0.58 0.12-0.84 0.36-0.26 0.25-0.39 0.54-0.39 0.89 0 0.22 0.1 0.54 0.3 0.96 0.19 0.43 0.36 0.85 0.49 1.28-1.2 0.21-2.12 0.33-2.78 0.35 0.81-1.23 1.78-3.09 2.92-5.56 1.14-2.48 1.97-4.2 2.51-5.18l0.14-0.48c0-0.29-0.14-0.53-0.42-0.72-0.28-0.2-0.59-0.3-0.95-0.3-0.54 0-0.91 0.23-1.13 0.67-0.22 0.44-0.56 1.28-1.02 2.5-0.47 1.22-0.78 1.98-0.92 2.29l-1.44-1.37 2.76-7.76 0.04-0.19c0-0.23-0.15-0.46-0.46-0.69-0.31-0.23-0.62-0.34-0.94-0.34-0.25 0-0.43 0.06-0.54 0.16-0.12 0.12-0.49 1.02-1.14 2.73l-1.71 4.48c-0.17-0.15-0.37-0.31-0.64-0.49-0.28-0.18-0.53-0.36-0.73-0.51l-0.52-0.24c-0.28 0-0.53 0.13-0.74 0.38-0.21 0.26-0.31 0.53-0.31 0.83l0.15 0.46c0.09 0.09 0.8 0.69 2.11 1.8 1.31 1.12 2.31 2.02 3 2.7-0.67 1.42-1.64 3.1-2.91 5.06-1.26 0.07-2.02 0.17-2.26 0.29zm56.8 7.15c-3.28-2.78-5.72-6.35-7.34-10.69l0.03 0.03 12.76 0.04c0.43 0 0.65 0.21 0.65 0.61 0 0.75-0.5 2.11-1.47 4.09-0.97 1.99-2.52 3.96-4.63 5.92zm-8.67-20.19l9.81 0c0.49 0 0.74 0.27 0.74 0.79 0 0.87-0.5 2.87-1.51 5.99-1.94 0.03-3.95 0.05-6.02 0.05-1.78 0-2.85-0.02-3.21-0.05 0.19-3.38 0.25-5.64 0.19-6.78zm19.69 27.2c-4.28-2.09-7.31-3.8-9.07-5.15 2.04-2.04 3.68-4.29 4.92-6.75 1.25-2.46 1.88-4.34 1.88-5.66 0-0.72-0.21-1.37-0.63-1.95-0.42-0.59-1.11-0.88-2.06-0.88l-3.17 0.04c1.16-3.83 1.75-6.14 1.75-6.94 0-0.81-0.2-1.44-0.6-1.89-0.4-0.45-0.89-0.67-1.46-0.67l-20.05-0.04c-0.74 0-1.11 0.48-1.11 1.44 0 0.81 0.32 1.22 0.96 1.22l6.55-0.05c0.09 3.73-0.14 7.28-0.7 10.66-0.54 3.39-1.39 6.31-2.52 8.78-1.13 2.46-2.69 4.93-4.67 7.4-0.24 0.28-0.37 0.59-0.37 0.92 0 0.3 0.11 0.6 0.33 0.89 0.22 0.29 0.49 0.44 0.79 0.44 1.08 0 2.62-1.85 4.61-5.53 2-3.68 3.36-7.79 4.06-12.33 1.76 4.14 4.25 7.77 7.48 10.9-3.1 2.43-6.98 4.12-11.66 5.08-0.57 0.1-0.86 0.49-0.86 1.18 0 0.91 0.31 1.38 0.94 1.38 0.66 0 2.18-0.32 4.54-0.96 2.37-0.64 4.86-1.92 7.46-3.87 0.71-0.52 1.24-0.89 1.6-1.09 1.69 1.37 3.68 2.66 5.99 3.88 2.32 1.22 3.69 1.83 4.12 1.83 0.36 0 0.66-0.17 0.91-0.5 0.26-0.33 0.38-0.7 0.38-1.1 0-0.36-0.11-0.58-0.34-0.68zm22.11-8.9c-3.66-4.23-5.88-9.13-6.64-14.71l13.12 0c-0.69 5.68-2.85 10.59-6.48 14.71zm14.49-17.48l-13.48 0 0-4.31c0-0.77-0.4-1.16-1.2-1.16-0.73 0-1.13 0.34-1.2 1.01l-0.03 4.52-12.31 0c-0.73 0-1.17 0.08-1.3 0.22l-0.32 0.53-0.1 0.68c0 0.86 0.3 1.28 0.89 1.28l5.41-0.03c0.71 6.01 3.13 11.61 7.25 16.78-3.28 3.02-7.54 5.31-12.79 6.89-0.4 0.17-0.61 0.56-0.61 1.17 0 0.98 0.41 1.48 1.23 1.48 0.89 0 2.84-0.74 5.87-2.23 3.02-1.47 5.73-3.33 8.11-5.58 2.49 2.38 5.24 4.31 8.27 5.8 3.01 1.48 4.85 2.23 5.5 2.23 0.35 0 0.65-0.16 0.89-0.48 0.24-0.32 0.36-0.67 0.36-1.07 0-0.56-0.22-0.89-0.64-1.02-4.49-1.06-8.67-3.49-12.52-7.28 4.05-4.62 6.46-10.19 7.23-16.73l4.4 0.06c0.49 0 0.88-0.01 1.15-0.02 0.28 0 0.5-0.13 0.65-0.4 0.17-0.27 0.24-0.58 0.24-0.95 0-0.92-0.31-1.38-0.95-1.39zm15.46-5.51c-0.67 0-1.01 0.3-1.05 0.92-0.74 4.6-1.55 7.93-2.42 9.99-0.85 2.06-1.87 3.74-3.05 5.07-0.35 0.4-0.69 0.75-1 1.06-0.32 0.3-0.47 0.67-0.47 1.09 0 0.5 0.14 0.87 0.42 1.1 0.28 0.23 0.57 0.34 0.85 0.34 0.38 0 0.87-0.35 1.46-1.06 0.58-0.71 1.22-1.59 1.91-2.63l0 17.3c0 0.97 0.38 1.46 1.14 1.46 0.33 0 0.63-0.11 0.88-0.33 0.26-0.22 0.39-0.47 0.39-0.76l0-22.38 0.87-2.68c0.25-0.85 0.48-1.73 0.67-2.63 0.19-0.89 0.36-1.75 0.51-2.59 0.14-0.83 0.21-1.45 0.21-1.86 0-0.94-0.44-1.41-1.32-1.41zm20.75 22.38c-0.34 0-0.63 0.12-0.89 0.36-0.25 0.23-0.38 0.53-0.38 0.87l0.11 2.34c0 1.42-0.2 2.53-0.61 3.34-0.41 0.8-0.93 1.35-1.57 1.65-0.63 0.3-2.1 0.45-4.4 0.45-2.17 0-3.62-0.48-4.35-1.44-0.74-0.97-1.09-2.4-1.04-4.31 0.05-1.9 0.06-4.53 0.02-7.88 2.26-1.55 4.33-3.06 6.22-4.55 1.89-1.49 3.63-2.98 5.23-4.48 1.58-1.5 2.43-2.39 2.55-2.65 0.11-0.26 0.18-0.5 0.18-0.73 0-0.35-0.11-0.67-0.33-0.96-0.21-0.29-0.48-0.44-0.81-0.44-0.31 0-0.58 0.15-0.8 0.43-3.71 3.73-7.78 7.12-12.24 10.17l-0.04 0.04 0.04-13.56c0-0.92-0.37-1.38-1.1-1.38-0.35 0-0.66 0.13-0.92 0.39-0.26 0.25-0.39 0.58-0.39 0.99l0 25.67c0 2.27 0.56 4.06 1.69 5.38 1.13 1.32 3.38 1.98 6.76 1.98 3.31 0 5.53-0.72 6.66-2.16 1.13-1.44 1.7-3.41 1.7-5.9 0-1.65-0.12-2.67-0.34-3.05-0.21-0.38-0.54-0.57-0.95-0.57zm34.01-2.77l0 1.28-9 0 0-2.06 8.32 0c0.48 0 0.72 0.26 0.72 0.78l-0.04 0zm0.04 5.02c0 0.75-0.23 1.13-0.68 1.13l-8.32 0.04 0-2.08 9 0 0 0.91zm-11.54-12.48l-8.29 0c-0.28 0-0.42-0.27-0.42-0.8 0-0.11 0.02-0.38 0.06-0.8 0.03-0.42 0.24-0.63 0.64-0.63l8.01 0 0 2.23zm2.5-2.23l8.12 0c0.29 0 0.44 0.35 0.44 1.04 0 0.76-0.19 1.14-0.59 1.14l-7.97 0.05 0-2.23zm13.57 11l-2.18 0 0.06-1.93c0-0.75-0.25-1.42-0.74-2.01-0.5-0.59-1.09-0.88-1.78-0.88l-8.97 0-0.02-1.19 8.13 0c1.86 0 2.79-1.32 2.79-3.95 0-1.38-0.27-2.34-0.82-2.87-0.54-0.54-1.09-0.8-1.65-0.8l-8.43 0-0.02-1.37c1.89-0.02 4.15-0.04 6.78-0.04 3.88 0 6.16 0.02 6.85 0.04 0.69 0.03 1.03-0.39 1.03-1.25 0-0.91-0.29-1.39-0.88-1.45l-13.76 0c0.04-0.35 0.04-0.93 0-1.75-0.05-0.82-0.48-1.23-1.29-1.23-0.81 0-1.23 0.52-1.23 1.57l0.02 1.45-6 0-5.19-0.02-2.32 0.02c-0.29 0-0.51 0.12-0.68 0.37-0.16 0.25-0.24 0.57-0.24 0.93 0 0.86 0.31 1.29 0.92 1.29l13.49 0.03 0.02 1.41-6.8-0.06c-1.42 0-2.34 0.08-2.75 0.23-0.43 0.16-0.77 0.49-1.07 1.01-0.28 0.52-0.42 1.41-0.42 2.66 0 2.57 0.87 3.85 2.63 3.85l8.48-0.04-0.07 1.2-10.67-0.04c-0.3 0-0.57 0.15-0.79 0.44-0.23 0.3-0.34 0.67-0.34 1.13 0 0.29 0.11 0.55 0.34 0.76 0.22 0.22 0.51 0.32 0.86 0.32l10.58 0 0 2.25-12.88 0c-0.42 0-0.72 0.14-0.92 0.43-0.19 0.29-0.28 0.56-0.28 0.82 0 0.93 0.34 1.4 1.01 1.4l13.07-0.04 0 2.34-10.91-0.02c-0.73-0.02-1.1 0.47-1.1 1.45 0 0.85 0.31 1.28 0.93 1.28l11.08-0.04 0.02 1.69c0 0.79-0.44 1.2-1.31 1.2-0.61 0-1.38-0.19-2.31-0.57-0.92-0.37-1.59-0.56-1.98-0.56-0.45 0-0.79 0.18-1.03 0.54-0.23 0.36-0.34 0.73-0.34 1.1 0 0.37 0.09 0.65 0.29 0.87 0.19 0.2 0.93 0.5 2.2 0.9 1.27 0.39 2.36 0.59 3.27 0.59 1.14 0 2.06-0.26 2.76-0.78 0.7-0.51 1.03-1.28 1.01-2.31-0.03-1.02-0.03-1.94-0.02-2.75l-0.04 0 4.15-0.02 4.32-0.01c0.62 0 1.15-0.16 1.6-0.47 0.46-0.31 0.81-0.69 1.06-1.17 0.25-0.47 0.38-0.96 0.38-1.46l-0.04-1.84c0.2 0.03 0.92 0.04 2.15 0.04 0.79 0 1.18-0.41 1.18-1.23 0-0.39-0.1-0.73-0.33-1.02-0.22-0.31-0.5-0.45-0.86-0.44zm26.21-14.35l6.21 0c-0.54 2.46-1.52 4.33-2.93 5.61-1.47-1.41-2.57-3.29-3.28-5.61zm11.43 9.99c-3.03-0.93-5.09-1.81-6.16-2.65 1.65-1.75 2.83-4.2 3.55-7.34 0.67 0 1.33 0.01 1.97 0.02 0.64 0.01 0.95-0.41 0.95-1.28 0-0.98-0.31-1.47-0.95-1.48l-10.51-0.04c0.17-0.96 0.26-1.71 0.26-2.26 0-0.84-0.47-1.25-1.39-1.25-0.72 0-1.11 0.29-1.16 0.86 0 3.71-1.42 6.79-4.27 9.2-0.26 0.21-0.38 0.48-0.38 0.81 0 0.36 0.12 0.68 0.36 0.96 0.25 0.28 0.54 0.42 0.87 0.42 0.85 0 2.06-1.17 3.63-3.51 0.86 1.97 1.85 3.58 2.98 4.82-1.21 0.81-2.9 1.62-5.08 2.45-0.42 0.18-0.63 0.56-0.63 1.14 0 0.95 0.41 1.43 1.23 1.43 0.47 0 1.39-0.34 2.76-1.03 1.38-0.69 2.64-1.41 3.8-2.16 1.4 1.08 2.93 1.93 4.61 2.53 1.68 0.6 2.7 0.9 3.08 0.9 0.33 0 0.61-0.16 0.83-0.47 0.22-0.31 0.33-0.67 0.33-1.08 0-0.63-0.22-0.97-0.68-0.99zm-18.42 0.85c0 0.59-0.54 1.98-1.61 4.19-0.09 0.25-0.14 0.48-0.14 0.71 0 0.36 0.12 0.67 0.38 0.92 0.26 0.26 0.56 0.38 0.9 0.38 0.48 0 0.91-0.35 1.28-1.06 0.38-0.7 0.72-1.58 1.06-2.62 0.33-1.04 0.5-2.11 0.5-3.2 0-1.96-0.88-2.93-2.66-2.93l-1.45 0.04-1.18-1.99c2.02-1.47 3.43-2.92 4.27-4.35 0.83-1.43 1.24-2.53 1.24-3.29 0-0.54-0.2-1.02-0.58-1.47-0.38-0.44-0.77-0.66-1.14-0.66l-11.74 0.08c-0.26 0-0.48 0.14-0.67 0.41-0.19 0.26-0.29 0.56-0.29 0.88 0 0.6 0.29 1.04 0.87 1.35l10.96 0c-1.05 2.03-2.55 3.68-4.52 4.97l-2.88-3.28c-0.2-0.21-0.46-0.33-0.82-0.33-0.33 0-0.63 0.12-0.89 0.36-0.27 0.25-0.4 0.53-0.4 0.86 0 0.35 0.12 0.64 0.34 0.84 0.23 0.21 0.84 0.89 1.83 2.03 0.99 1.12 1.89 2.31 2.69 3.55-0.91 0.04-1.97 0.05-3.14 0.05l-2.44-0.01c-0.72 0-1.17 0.06-1.34 0.19l-0.4 0.53c-0.1 0.21-0.15 0.46-0.15 0.72 0 0.82 0.33 1.25 0.99 1.28l5.73-0.03c-1.29 2.88-3.4 5.73-6.35 8.55-0.19 0.21-0.3 0.48-0.3 0.81 0 0.37 0.12 0.7 0.35 0.99 0.24 0.29 0.51 0.42 0.83 0.42 1.05 0 2.97-2.09 5.72-6.3 0.03 1.09 0.05 4.28 0.05 9.58 0 0.79-0.43 1.18-1.28 1.18-0.95 0-2.19-0.34-3.73-1.03l-0.41-0.09c-0.33 0-0.62 0.16-0.86 0.48-0.23 0.32-0.35 0.68-0.35 1.08 0 0.36 0.09 0.63 0.27 0.83 0.19 0.19 0.84 0.44 1.98 0.77 1.12 0.33 2.01 0.51 2.66 0.51 1.21 0 2.19-0.29 2.97-0.86 0.79-0.57 1.18-1.38 1.18-2.42l0.01-14.5c1.29 0 2.06 0.03 2.29 0.11 0.25 0.09 0.37 0.34 0.37 0.77zm16.51 3.61c-0.41-0.48-1.48-0.7-3.19-0.66-1.73 0.04-2.86 0.04-3.41 0.01l0-2c0-0.9-0.37-1.35-1.14-1.35-0.34 0-0.65 0.13-0.91 0.39-0.28 0.26-0.41 0.58-0.41 0.96l0.07 2.03-4.77-0.03c-0.73 0-1.1 0.49-1.1 1.46 0 0.82 0.32 1.25 0.96 1.25l4.75 0c-0.4 4.73-3.29 7.65-8.69 8.73-0.35 0.12-0.52 0.46-0.52 1.04 0 1.03 0.45 1.55 1.35 1.55 0.54 0 1.83-0.42 3.86-1.25 2.02-0.82 3.56-2.03 4.6-3.63 1.05-1.6 1.68-3.74 1.92-6.44l4.44 0c0.4 0 0.6 0.35 0.6 1.05 0 2.57-0.04 4.27-0.13 5.09-0.08 0.82-0.37 1.45-0.87 1.89-0.5 0.42-1.17 0.63-2.01 0.63-0.43 0-0.94-0.14-1.51-0.44-0.57-0.29-0.94-0.44-1.13-0.44-0.32 0-0.58 0.17-0.8 0.5-0.21 0.33-0.32 0.72-0.32 1.15 0 0.51 0.16 0.89 0.46 1.17l0 0.04c1.2 0.5 2.36 0.75 3.46 0.75 1.52 0 2.82-0.53 3.88-1.6 1.07-1.07 1.6-3.36 1.6-6.89 0-1.96-0.07-3.16-0.22-3.6-0.14-0.43-0.42-0.89-0.82-1.36zm25.46-4.81l0-2.02 4.79 0c-1.73 1.39-3.15 2.08-4.26 2.08l-0.53-0.06zm7.55 6.58c0.16 0.16 0.23 0.51 0.23 1.05 0 0.18-0.02 0.61-0.06 1.29l-15.55 0 0-1 3.27-1.54 12.11 0.2zm-0.12 8.2l-15.07-0.11c-0.16-0.29-0.23-0.78-0.23-1.47l0.04-1.54 0.03-0.04 15.48 0 0.09 1.78c0 0.7-0.11 1.17-0.34 1.38zm-11.22-27.12l5.76 0 0 3.6-5.76 0 0-3.6zm-2.45 3.61l-5.15-0.08c-0.15-0.22-0.23-0.63-0.23-1.21l0.06-1.77c0-0.37 0.08-0.55 0.24-0.55l5.08 0 0 3.61zm10.69-3.61l5.36 0.03c0.19 0.19 0.28 0.62 0.28 1.29 0 1.52-0.11 2.29-0.33 2.29l-5.31 0 0-3.61zm3.58 7.76l-8.12-0.2 0.04-1.31 10.14-0.09-1.97 1.75-0.09-0.15zm0.66 7.13c2.04-0.01 3.76-0.07 5.18-0.17 0.26-0.33 0.4-0.7 0.4-1.08 0-0.45-0.17-0.87-0.52-1.26l-7.31-0.11c3.27-2.18 5.27-3.95 5.98-5.29-0.22-0.83-0.56-1.3-1.01-1.4 0.68-0.46 1.01-1.51 1.01-3.16l-0.08-2.26c-0.03-0.66-0.14-1.14-0.33-1.44-0.19-0.3-0.45-0.6-0.77-0.9-0.34-0.29-0.62-0.44-0.84-0.44l-21.89-0.04c0 0-0.16 0.02-0.41 0.06-0.26 0.04-0.38 0.06-0.38 0.06-1.19 0.65-1.79 1.81-1.79 3.48 0 0.34 0.04 0.86 0.09 1.54 0.06 0.69 0.08 1.19 0.08 1.5 0 0.41 0.24 0.88 0.72 1.4 0.48 0.52 0.88 0.78 1.22 0.78l9.56 0.17-0.03 1.34-10.33 0c-0.41 0-0.74 0.13-0.98 0.39-0.25 0.25-0.38 0.57-0.38 0.94 0 0.56 0.27 0.99 0.82 1.29l10.87-0.04 0 2.06c-8.92 0-13.42 0.05-13.53 0.16-0.27 0.3-0.41 0.64-0.41 1.04 0 0.53 0.22 0.94 0.67 1.25l12.99 0.13c-4.61 2.41-9.11 4.22-13.47 5.46-0.29 0.27-0.43 0.6-0.43 0.98 0 0.52 0.23 0.95 0.68 1.3 1.45-0.18 3.35-0.68 5.7-1.49l0.07 5.01c0.02 0.47 0.04 0.92 0.07 1.35 0.03 0.44 0.25 0.91 0.68 1.41 0.43 0.49 0.88 0.78 1.36 0.85 0.47 0.07 1.16 0.11 2.05 0.11l3.29-0.05 4.27 0.03c4.37 0 6.64-0.06 6.84-0.18 0.6-0.39 1.05-0.83 1.35-1.35 0.3-0.53 0.45-1.98 0.45-4.34 0-1.13-0.03-2.4-0.09-3.79-0.07-1.4-0.15-2.19-0.27-2.37l-0.47-0.65c-0.19-0.25-0.4-0.46-0.61-0.63l-0.6-0.28-8.05-0.1 2.36-1.27 6.22 0zm-411.54 119.96c54.83 0 99.29-44.44 99.29-99.25 0-54.82-44.46-99.25-99.29-99.25-54.84 0-99.29 44.43-99.29 99.25 0 54.81 44.45 99.25 99.29 99.25z"/>
  <path fill="#bbe2ef" d="M339.32 360.15c9.59-4.71 18.29-10.91 25.83-18.32 29.05-137.37-147.45-9.97-210.2 68.45 181.89-135.53 202.43-109.65 184.37-50.13zm-10.56-139.07c11.15 0 20.2-7.29 20.2-16.28 0-8.99-9.05-16.29-20.2-16.29-11.16 0-20.2 7.3-20.2 16.29 0 8.99 9.04 16.28 20.2 16.28zm51.19 32.14c-18.47 81.92-140.47-92.4-155.53-18.03 6.23-89.76 149.35 84.03 149.57-15.75l0.2-0.34c8.87 22.58 6.48 26.63 5.76 34.12z"/>
  <path fill="#d29f10" d="M1031.65 231.33l-30.68 0c-28.51 0-50.63 19.37-57.73 50.55-4.27 19.56-18.24 31.75-36.46 31.83l-30.73 0c-2.63 0-4.78 2.14-4.78 4.78l0 11.79c0 2.64 2.15 4.78 4.78 4.78l30.69 0c28.5 0 50.63-19.36 57.72-50.54 4.28-19.56 18.25-31.75 36.46-31.83l30.73 0c2.64 0 4.78-2.14 4.78-4.78l0-11.8c0-2.63-2.14-4.78-4.78-4.78zm0 41.19c-0.02-0.01-9.68-0.39-18.16-0.39-5.04 0-8.7 0.14-10.87 0.41-10.02 1.23-16.93 6.41-19.98 14.95-0.53 1.46-0.3 3.09 0.59 4.36 0.9 1.27 2.36 2.02 3.91 2.02l44.51 0c2.64 0 4.78-2.14 4.78-4.78l0-11.79c0-2.64-2.14-4.78-4.78-4.78zm-155.6 20.96c0.03 0 9.75 0.39 18.2 0.39 5.02 0 8.67-0.14 10.84-0.41 10.02-1.23 16.93-6.4 19.98-14.95 0.52-1.46 0.3-3.09-0.6-4.36-0.89-1.27-2.35-2.02-3.9-2.02l-44.52 0c-2.63 0-4.78 2.14-4.78 4.78l0 11.8c0 2.63 2.15 4.77 4.78 4.77zm0-40.79l34.03 0c13.48 0 24.44-10.95 24.44-24.41l0-22.76c0-2.64-2.14-4.78-4.78-4.78l-11.82 0c-2.64 0-4.78 2.14-4.78 4.78l0 22.76c0 1.69-1.37 3.06-3.06 3.06l-34.03 0c-2.63 0-4.78 2.14-4.78 4.77l0 11.81c0 2.63 2.15 4.77 4.78 4.77zm155.6 61.02l-33.99 0c-13.47 0-24.44 10.95-24.44 24.41l0 22.76c0 2.64 2.15 4.78 4.78 4.78l11.82 0c2.64 0 4.78-2.14 4.78-4.78l0-22.76c0-1.69 1.38-3.06 3.06-3.06l33.99 0c2.64 0 4.78-2.14 4.78-4.77l0-11.8c0-2.64-2.14-4.78-4.78-4.78zm-48.11-87.31c7.08 0 12.85-5.76 12.85-12.83 0-7.07-5.77-12.83-12.85-12.83-7.08 0-12.84 5.76-12.84 12.83 0 7.07 5.76 12.83 12.84 12.83zm-59.87 113.61c-7.08 0-12.84 5.75-12.84 12.82 0 7.08 5.76 12.83 12.84 12.83 7.08 0 12.85-5.75 12.85-12.83 0-7.07-5.77-12.82-12.85-12.82z"/>
  <path fill="#332c2b" d="M1079.54 232.95c0-0.48 0.24-0.72 0.72-0.72l2.71 0c0.5 0 0.75 0.24 0.75 0.72l0 19.53c0 0.5-0.25 0.74-0.75 0.74l-2.71 0c-0.48 0-0.72-0.24-0.72-0.74l0-19.53zm22.51 19.59c0 0.45-0.23 0.68-0.69 0.68l-2.56 0c-0.48 0-0.71-0.23-0.71-0.68l0-8.86c0-1.05-0.23-1.84-0.67-2.35-0.45-0.52-1.2-0.78-2.23-0.78-1.11 0-1.97 0.33-2.58 0.97-0.6 0.64-0.91 1.52-0.91 2.64l0 8.38c0 0.45-0.23 0.68-0.68 0.68l-2.57 0c-0.45 0-0.68-0.23-0.68-0.68l0-14.34c0-0.46 0.23-0.69 0.68-0.69l2.36 0c0.42 0 0.65 0.2 0.68 0.6l0.15 1.54c0.99-1.66 2.67-2.5 5.01-2.5 1.81 0 3.16 0.51 4.06 1.52 0.89 1.02 1.34 2.45 1.34 4.3l0 9.57zm8.16-11.69l0 7.24c0 0.86 0.14 1.44 0.42 1.76 0.28 0.32 0.82 0.48 1.64 0.48 0.14 0 0.55-0.05 1.25-0.15 0.2-0.02 0.34 0.02 0.43 0.12 0.09 0.1 0.15 0.26 0.17 0.48l0.18 1.67c0.02 0.34-0.17 0.56-0.57 0.68-0.66 0.22-1.49 0.33-2.51 0.33-1.75 0-3-0.37-3.76-1.13-0.75-0.76-1.13-2.03-1.13-3.82l0-7.66-1.63 0c-0.48 0-0.72-0.23-0.72-0.69l0-1.67c0-0.45 0.24-0.68 0.72-0.68l1.69 0 0-3.67c0-0.42 0.23-0.63 0.69-0.63l2.38 0c0.48 0 0.72 0.21 0.72 0.63l0 3.67 3.31 0c0.46 0 0.68 0.23 0.68 0.68l0 1.67c0 0.46-0.22 0.69-0.68 0.69l-3.28 0zm15.98 5.16c-1.11 0.03-2.03 0.09-2.75 0.16-0.71 0.07-1.39 0.2-2.04 0.39-0.64 0.19-1.12 0.46-1.41 0.8-0.3 0.35-0.45 0.79-0.45 1.33 0 0.64 0.23 1.14 0.68 1.52 0.46 0.38 1.11 0.57 1.94 0.57 1.31 0 2.31-0.33 3-0.97 0.69-0.65 1.03-1.49 1.03-2.52l0-1.28zm3.84 6.53c0 0.45-0.23 0.68-0.71 0.68l-2.21 0c-0.41 0-0.64-0.19-0.68-0.57l-0.12-1.6c-1.06 1.63-2.87 2.44-5.43 2.44-1.57 0-2.81-0.4-3.73-1.19-0.91-0.8-1.37-1.92-1.37-3.37 0-0.86 0.17-1.6 0.51-2.22 0.34-0.63 0.79-1.12 1.35-1.5 0.57-0.36 1.32-0.66 2.24-0.89 0.92-0.23 1.87-0.38 2.84-0.48 0.96-0.08 2.12-0.14 3.47-0.16l0-0.69c0-0.93-0.27-1.61-0.81-2.05-0.53-0.44-1.4-0.66-2.59-0.66-1.45 0-2.94 0.3-4.47 0.9-0.42 0.14-0.71 0-0.87-0.42l-0.53-1.64c-0.13-0.36 0.02-0.64 0.41-0.84 1.77-0.75 3.76-1.13 5.97-1.13 4.49 0 6.73 1.89 6.73 5.66l0 9.73zm17.83 0c0 0.45-0.23 0.68-0.69 0.68l-2.56 0c-0.48 0-0.72-0.23-0.72-0.68l0-8.86c0-1.05-0.22-1.84-0.67-2.35-0.45-0.52-1.19-0.78-2.22-0.78-1.12 0-1.97 0.33-2.58 0.97-0.61 0.64-0.91 1.52-0.91 2.64l0 8.38c0 0.45-0.23 0.68-0.68 0.68l-2.57 0c-0.46 0-0.69-0.23-0.69-0.68l0-14.34c0-0.46 0.23-0.69 0.69-0.69l2.35 0c0.42 0 0.65 0.2 0.69 0.6l0.15 1.54c0.99-1.66 2.66-2.5 5.01-2.5 1.81 0 3.16 0.51 4.06 1.52 0.89 1.02 1.34 2.45 1.34 4.3l0 9.57zm10.28-12.44c-2.27 0-3.41 1.42-3.41 4.27 0 2.84 1.14 4.26 3.41 4.26 1.09 0 1.94-0.37 2.54-1.13 0.61-0.76 0.91-1.85 0.91-3.28 0-2.75-1.15-4.12-3.45-4.12zm7.33 10.47c0 2.05-0.66 3.61-1.98 4.68-1.32 1.07-3.18 1.61-5.56 1.61-2.37 0-4.2-0.31-5.49-0.92-0.4-0.2-0.54-0.47-0.42-0.81l0.51-1.61c0.12-0.44 0.4-0.58 0.83-0.45 1.42 0.5 2.84 0.75 4.27 0.75 1.35 0 2.37-0.3 3.07-0.9 0.69-0.59 1.04-1.43 1.04-2.53l0-1.28c-0.4 0.73-1 1.3-1.83 1.71-0.82 0.41-1.75 0.61-2.76 0.61-1.93 0-3.47-0.57-4.62-1.72-1.15-1.16-1.73-2.94-1.73-5.34 0-2.41 0.56-4.21 1.68-5.4 1.13-1.19 2.63-1.79 4.52-1.79 1.04 0 1.98 0.21 2.84 0.64 0.85 0.43 1.47 0.99 1.87 1.69l0.09-1.4c0.04-0.4 0.28-0.6 0.72-0.6l2.26 0c0.46 0 0.69 0.23 0.69 0.69l0 12.37zm7.75 1.97c0 0.45-0.23 0.68-0.69 0.68l-2.6 0c-0.45 0-0.68-0.23-0.68-0.68l0-14.34c0-0.46 0.23-0.69 0.68-0.69l2.6 0c0.46 0 0.69 0.23 0.69 0.69l0 14.34zm0-17.47c0 0.45-0.22 0.68-0.66 0.68l-2.65 0c-0.44 0-0.66-0.23-0.66-0.68l0-2.09c0-0.46 0.22-0.69 0.66-0.69l2.65 0c0.44 0 0.66 0.23 0.66 0.69l0 2.09zm11.65 15.29c1.27 0 2.22-0.39 2.83-1.18 0.62-0.78 0.93-2.06 0.93-3.83 0-1.77-0.31-3.05-0.93-3.83-0.61-0.78-1.56-1.18-2.83-1.18-2.56 0-3.85 1.67-3.85 5.01 0 3.34 1.29 5.01 3.85 5.01zm-4.06 2.3c-0.04 0.38-0.26 0.56-0.68 0.56l-2.36 0c-0.46 0-0.68-0.23-0.68-0.69l0-19.64c0-0.44 0.22-0.66 0.68-0.66l2.57 0c0.45 0 0.68 0.22 0.68 0.66l0 6.73c0.42-0.77 1.09-1.38 2-1.81 0.92-0.44 1.91-0.66 2.98-0.66 2.11 0 3.75 0.69 4.91 2.07 1.16 1.38 1.74 3.43 1.74 6.13 0 2.7-0.58 4.75-1.74 6.13-1.16 1.38-2.8 2.07-4.91 2.07-1.11 0-2.13-0.22-3.05-0.66-0.93-0.43-1.61-1.06-2.04-1.88l-0.1 1.65zm18.87-0.12c0 0.45-0.23 0.68-0.69 0.68l-2.59 0c-0.44 0-0.66-0.23-0.66-0.68l0-19.65c0-0.44 0.22-0.66 0.66-0.66l2.59 0c0.46 0 0.69 0.22 0.69 0.66l0 19.65zm6.85-8.23l7.4 0 0-0.18c0-1.27-0.31-2.27-0.91-2.99-0.61-0.71-1.49-1.07-2.64-1.07-2.37 0-3.65 1.42-3.85 4.24zm8.83 5.42c0.42-0.2 0.72-0.06 0.89 0.42l0.51 1.4c0.1 0.38-0.05 0.67-0.45 0.87-1.55 0.77-3.27 1.16-5.18 1.16-2.65 0-4.71-0.72-6.19-2.16-1.48-1.44-2.22-3.46-2.22-6.04 0-2.6 0.68-4.62 2.04-6.07 1.36-1.44 3.22-2.16 5.56-2.16 2.29 0 4.06 0.68 5.31 2.04 1.25 1.37 1.88 3.18 1.88 5.44l0 1.47c0 0.47-0.24 0.71-0.72 0.71l-10.16 0c0.15 1.19 0.65 2.14 1.5 2.82 0.84 0.69 1.95 1.03 3.32 1.03 1.38 0 2.68-0.31 3.91-0.93zm27.03-0.74c0.46-0.18 0.8-0.04 1.02 0.42l0.83 1.85c0.14 0.33-0.01 0.63-0.45 0.89-1.43 0.94-3.33 1.4-5.69 1.4-3.08 0-5.47-0.91-7.17-2.74-1.7-1.83-2.55-4.53-2.55-8.08 0-3.56 0.84-6.26 2.52-8.1 1.68-1.84 4.03-2.76 7.05-2.76 2.29 0 4.16 0.45 5.63 1.35 0.42 0.27 0.56 0.58 0.42 0.92l-0.8 1.82c-0.18 0.46-0.52 0.58-1.02 0.35-1.07-0.49-2.26-0.74-3.58-0.74-2.02 0-3.53 0.59-4.51 1.76-0.98 1.17-1.48 2.97-1.48 5.4 0 2.42 0.5 4.22 1.51 5.38 1 1.16 2.55 1.74 4.64 1.74 1.35 0 2.56-0.28 3.63-0.86zm4.5-10.79c0-0.46 0.23-0.69 0.71-0.69l2.57 0c0.43 0 0.65 0.23 0.65 0.69l0 8.91c0 1.01 0.21 1.78 0.63 2.31 0.42 0.53 1.13 0.79 2.14 0.79 1.08 0 1.93-0.32 2.55-0.95 0.63-0.64 0.94-1.49 0.94-2.57l0-8.49c0-0.46 0.23-0.69 0.69-0.69l2.59 0c0.44 0 0.66 0.23 0.66 0.69l0 14.34c0 0.45-0.22 0.68-0.66 0.68l-2.38 0c-0.44 0-0.68-0.18-0.72-0.56l-0.12-1.62c-0.95 1.68-2.57 2.51-4.86 2.51-3.59 0-5.39-1.9-5.39-5.69l0-9.66zm21.84 14.34c0 0.45-0.22 0.68-0.68 0.68l-2.59 0c-0.44 0-0.66-0.23-0.66-0.68l0-19.65c0-0.44 0.22-0.66 0.66-0.66l2.59 0c0.46 0 0.68 0.22 0.68 0.66l0 19.65zm8.32-11.69l0 7.24c0 0.86 0.14 1.44 0.42 1.76 0.28 0.32 0.82 0.48 1.64 0.48 0.14 0 0.55-0.05 1.25-0.15 0.2-0.02 0.34 0.02 0.43 0.12 0.09 0.1 0.15 0.26 0.17 0.48l0.17 1.67c0.02 0.34-0.16 0.56-0.56 0.68-0.66 0.22-1.49 0.33-2.51 0.33-1.75 0-3-0.37-3.76-1.13-0.75-0.76-1.13-2.03-1.13-3.82l0-7.66-1.63 0c-0.48 0-0.72-0.23-0.72-0.69l0-1.67c0-0.45 0.24-0.68 0.72-0.68l1.69 0 0-3.67c0-0.42 0.23-0.63 0.69-0.63l2.38 0c0.48 0 0.72 0.21 0.72 0.63l0 3.67 3.31 0c0.46 0 0.68 0.23 0.68 0.68l0 1.67c0 0.46-0.22 0.69-0.68 0.69l-3.28 0zm6.32-2.65c0-0.46 0.23-0.69 0.71-0.69l2.57 0c0.43 0 0.66 0.23 0.66 0.69l0 8.91c0 1.01 0.2 1.78 0.62 2.31 0.42 0.53 1.13 0.79 2.14 0.79 1.08 0 1.93-0.32 2.55-0.95 0.63-0.64 0.95-1.49 0.95-2.57l0-8.49c0-0.46 0.22-0.69 0.68-0.69l2.59 0c0.44 0 0.66 0.23 0.66 0.69l0 14.34c0 0.45-0.22 0.68-0.66 0.68l-2.38 0c-0.44 0-0.68-0.18-0.72-0.56l-0.12-1.62c-0.95 1.68-2.57 2.51-4.86 2.51-3.59 0-5.39-1.9-5.39-5.69l0-9.66zm20.89-0.69c0.44 0 0.68 0.21 0.72 0.62l0.14 2.36c0.34-0.8 0.93-1.51 1.77-2.15 0.83-0.63 1.82-0.95 2.98-0.95 0.22 0 0.37 0.04 0.46 0.12 0.09 0.08 0.13 0.24 0.13 0.48l0 2.77c0 0.36-0.19 0.54-0.57 0.54-0.07 0-0.21-0.02-0.41-0.04-0.2-0.01-0.38-0.03-0.54-0.03-1.09 0-2 0.45-2.71 1.33-0.72 0.89-1.07 1.93-1.07 3.12l0 6.85c0 0.47-0.23 0.69-0.69 0.69l-2.57 0c-0.47 0-0.71-0.22-0.71-0.69l0-14.33c0-0.46 0.24-0.69 0.71-0.69l2.36 0zm16.99 8.5c-1.11 0.03-2.02 0.09-2.75 0.16-0.71 0.07-1.39 0.2-2.04 0.39-0.64 0.19-1.12 0.46-1.41 0.8-0.3 0.35-0.45 0.79-0.45 1.33 0 0.64 0.23 1.14 0.69 1.52 0.46 0.38 1.1 0.57 1.93 0.57 1.32 0 2.31-0.33 3-0.97 0.69-0.65 1.03-1.49 1.03-2.52l0-1.28zm3.85 6.53c0 0.45-0.24 0.68-0.72 0.68l-2.21 0c-0.41 0-0.64-0.19-0.68-0.57l-0.12-1.6c-1.05 1.63-2.87 2.44-5.43 2.44-1.57 0-2.81-0.4-3.73-1.19-0.91-0.8-1.37-1.92-1.37-3.37 0-0.86 0.17-1.6 0.51-2.22 0.34-0.63 0.79-1.12 1.36-1.5 0.56-0.36 1.31-0.66 2.24-0.89 0.92-0.23 1.86-0.38 2.83-0.48 0.96-0.08 2.12-0.14 3.47-0.16l0-0.69c0-0.93-0.27-1.61-0.8-2.05-0.54-0.44-1.41-0.66-2.6-0.66-1.45 0-2.94 0.3-4.47 0.9-0.42 0.14-0.71 0-0.86-0.42l-0.54-1.64c-0.12-0.36 0.02-0.64 0.41-0.84 1.78-0.75 3.76-1.13 5.97-1.13 4.49 0 6.74 1.89 6.74 5.66l0 9.73zm7.56 0c0 0.45-0.23 0.68-0.68 0.68l-2.6 0c-0.43 0-0.65-0.23-0.65-0.68l0-19.65c0-0.44 0.22-0.66 0.65-0.66l2.6 0c0.45 0 0.68 0.22 0.68 0.66l0 19.65zm24.86-8.14l-8.29 0 0 8.08c0 0.49-0.24 0.74-0.74 0.74l-2.68 0c-0.5 0-0.75-0.25-0.75-0.74l0-19.53c0-0.48 0.25-0.72 0.75-0.72l2.68 0c0.5 0 0.74 0.24 0.74 0.72l0 7.69 8.29 0 0-7.69c0-0.48 0.24-0.72 0.72-0.72l2.71 0c0.48 0 0.72 0.24 0.72 0.72l0 19.53c0 0.49-0.24 0.74-0.72 0.74l-2.71 0c-0.48 0-0.72-0.25-0.72-0.74l0-8.08zm11.18-0.09l7.39 0 0-0.18c0-1.27-0.31-2.27-0.91-2.99-0.6-0.71-1.49-1.07-2.64-1.07-2.37 0-3.64 1.42-3.84 4.24zm8.82 5.42c0.42-0.2 0.72-0.06 0.89 0.42l0.51 1.4c0.1 0.38-0.05 0.67-0.44 0.87-1.56 0.77-3.28 1.16-5.19 1.16-2.64 0-4.71-0.72-6.19-2.16-1.48-1.44-2.22-3.46-2.22-6.04 0-2.6 0.68-4.62 2.04-6.07 1.36-1.44 3.22-2.16 5.56-2.16 2.29 0 4.06 0.68 5.31 2.04 1.25 1.37 1.88 3.18 1.88 5.44l0 1.47c0 0.47-0.24 0.71-0.72 0.71l-10.16 0c0.15 1.19 0.66 2.14 1.5 2.82 0.84 0.69 1.95 1.03 3.32 1.03 1.38 0 2.68-0.31 3.91-0.93zm8.19-12.22c0.44 0 0.68 0.21 0.72 0.62l0.15 2.36c0.34-0.8 0.92-1.51 1.76-2.15 0.83-0.63 1.82-0.95 2.98-0.95 0.22 0 0.37 0.04 0.46 0.12 0.09 0.08 0.13 0.24 0.13 0.48l0 2.77c0 0.36-0.18 0.54-0.56 0.54-0.08 0-0.22-0.02-0.42-0.04-0.2-0.01-0.37-0.03-0.54-0.03-1.09 0-1.99 0.45-2.71 1.33-0.72 0.89-1.07 1.93-1.07 3.12l0 6.85c0 0.47-0.23 0.69-0.69 0.69l-2.56 0c-0.48 0-0.72-0.22-0.72-0.69l0-14.33c0-0.46 0.24-0.69 0.72-0.69l2.35 0zm12.76 15.03c0 0.45-0.23 0.68-0.69 0.68l-2.59 0c-0.46 0-0.68-0.23-0.68-0.68l0-14.34c0-0.46 0.22-0.69 0.68-0.69l2.59 0c0.46 0 0.69 0.23 0.69 0.69l0 14.34zm0-17.47c0 0.45-0.22 0.68-0.65 0.68l-2.66 0c-0.44 0-0.65-0.23-0.65-0.68l0-2.09c0-0.46 0.21-0.69 0.65-0.69l2.66 0c0.43 0 0.65 0.23 0.65 0.69l0 2.09zm8.34 5.78l0 7.24c0 0.86 0.15 1.44 0.42 1.76 0.28 0.32 0.83 0.48 1.64 0.48 0.14 0 0.56-0.05 1.25-0.15 0.2-0.02 0.34 0.02 0.44 0.12 0.09 0.1 0.14 0.26 0.16 0.48l0.18 1.67c0.02 0.34-0.17 0.56-0.57 0.68-0.66 0.22-1.49 0.33-2.5 0.33-1.75 0-3-0.37-3.76-1.13-0.76-0.76-1.13-2.03-1.13-3.82l0-7.66-1.64 0c-0.48 0-0.72-0.23-0.72-0.69l0-1.67c0-0.45 0.24-0.68 0.72-0.68l1.7 0 0-3.67c0-0.42 0.23-0.63 0.68-0.63l2.39 0c0.47 0 0.71 0.21 0.71 0.63l0 3.67 3.31 0c0.46 0 0.69 0.23 0.69 0.68l0 1.67c0 0.46-0.23 0.69-0.69 0.69l-3.28 0zm15.98 5.16c-1.11 0.03-2.02 0.09-2.75 0.16-0.71 0.07-1.39 0.2-2.04 0.39-0.64 0.19-1.12 0.46-1.41 0.8-0.3 0.35-0.45 0.79-0.45 1.33 0 0.64 0.23 1.14 0.69 1.52 0.46 0.38 1.1 0.57 1.93 0.57 1.32 0 2.31-0.33 3-0.97 0.69-0.65 1.03-1.49 1.03-2.52l0-1.28zm3.85 6.53c0 0.45-0.24 0.68-0.72 0.68l-2.21 0c-0.41 0-0.64-0.19-0.68-0.57l-0.12-1.6c-1.05 1.63-2.87 2.44-5.43 2.44-1.57 0-2.81-0.4-3.72-1.19-0.92-0.8-1.38-1.92-1.38-3.37 0-0.86 0.17-1.6 0.51-2.22 0.34-0.63 0.79-1.12 1.36-1.5 0.56-0.36 1.31-0.66 2.24-0.89 0.92-0.23 1.86-0.38 2.83-0.48 0.96-0.08 2.12-0.14 3.47-0.16l0-0.69c0-0.93-0.27-1.61-0.8-2.05-0.54-0.44-1.41-0.66-2.6-0.66-1.45 0-2.94 0.3-4.47 0.9-0.42 0.14-0.71 0-0.86-0.42l-0.54-1.64c-0.12-0.36 0.02-0.64 0.41-0.84 1.78-0.75 3.76-1.13 5.97-1.13 4.49 0 6.74 1.89 6.74 5.66l0 9.73zm10.25-12.44c-2.27 0-3.4 1.42-3.4 4.27 0 2.84 1.13 4.26 3.4 4.26 1.09 0 1.94-0.37 2.54-1.13 0.61-0.76 0.92-1.85 0.92-3.28 0-2.75-1.16-4.12-3.46-4.12zm7.33 10.47c0 2.05-0.66 3.61-1.98 4.68-1.32 1.07-3.18 1.61-5.56 1.61-2.37 0-4.2-0.31-5.49-0.92-0.4-0.2-0.54-0.47-0.42-0.81l0.51-1.61c0.12-0.44 0.4-0.58 0.84-0.45 1.41 0.5 2.83 0.75 4.26 0.75 1.35 0 2.37-0.3 3.07-0.9 0.7-0.59 1.05-1.43 1.05-2.53l0-1.28c-0.4 0.73-1.01 1.3-1.84 1.71-0.82 0.41-1.74 0.61-2.76 0.61-1.93 0-3.46-0.57-4.62-1.72-1.15-1.16-1.73-2.94-1.73-5.34 0-2.41 0.57-4.21 1.69-5.4 1.12-1.19 2.63-1.79 4.51-1.79 1.04 0 1.98 0.21 2.84 0.64 0.85 0.43 1.48 0.99 1.87 1.69l0.1-1.4c0.03-0.4 0.27-0.6 0.71-0.6l2.26 0c0.46 0 0.69 0.23 0.69 0.69l0 12.37zm6.82-6.26l7.4 0 0-0.18c0-1.27-0.31-2.27-0.91-2.99-0.61-0.71-1.49-1.07-2.64-1.07-2.37 0-3.65 1.42-3.85 4.24zm8.83 5.42c0.42-0.2 0.72-0.06 0.9 0.42l0.5 1.4c0.1 0.38-0.05 0.67-0.45 0.87-1.55 0.77-3.28 1.16-5.19 1.16-2.64 0-4.7-0.72-6.18-2.16-1.48-1.44-2.23-3.46-2.23-6.04 0-2.6 0.69-4.62 2.05-6.07 1.36-1.44 3.21-2.16 5.56-2.16 2.28 0 4.06 0.68 5.31 2.04 1.25 1.37 1.88 3.18 1.88 5.44l0 1.47c0 0.47-0.24 0.71-0.72 0.71l-10.17 0c0.16 1.19 0.66 2.14 1.51 2.82 0.84 0.69 1.95 1.03 3.32 1.03 1.37 0 2.68-0.31 3.91-0.93zm-376.36 29.95l0 7.78c0 0.5-0.25 0.75-0.75 0.75l-2.65 0c-0.5 0-0.75-0.25-0.75-0.75l0-19.53c0-0.47 0.25-0.71 0.75-0.71l11.66 0c0.47 0 0.71 0.23 0.71 0.68l0 2.12c0 0.5-0.24 0.75-0.71 0.75l-8.26 0 0 5.42 7.99 0c0.48 0 0.71 0.25 0.71 0.75l0 2.03c0 0.47-0.23 0.71-0.71 0.71l-7.99 0zm11.62-6.5c0-0.46 0.23-0.69 0.71-0.69l2.57 0c0.43 0 0.66 0.23 0.66 0.69l0 8.92c0 1.01 0.2 1.78 0.62 2.31 0.42 0.52 1.13 0.79 2.14 0.79 1.08 0 1.93-0.32 2.55-0.96 0.63-0.63 0.95-1.48 0.95-2.56l0-8.5c0-0.46 0.23-0.69 0.68-0.69l2.6 0c0.43 0 0.65 0.23 0.65 0.69l0 14.34c0 0.46-0.22 0.69-0.65 0.69l-2.39 0c-0.44 0-0.68-0.19-0.72-0.57l-0.12-1.61c-0.95 1.67-2.57 2.51-4.86 2.51-3.59 0-5.39-1.9-5.39-5.7l0-9.66zm32.1 14.34c0 0.46-0.23 0.69-0.68 0.69l-2.57 0c-0.47 0-0.71-0.23-0.71-0.69l0-8.85c0-1.06-0.23-1.84-0.67-2.36-0.45-0.51-1.19-0.77-2.22-0.77-1.12 0-1.98 0.32-2.59 0.97-0.6 0.64-0.91 1.52-0.91 2.64l0 8.37c0 0.46-0.22 0.69-0.68 0.69l-2.57 0c-0.45 0-0.68-0.23-0.68-0.69l0-14.34c0-0.46 0.23-0.68 0.68-0.68l2.36 0c0.42 0 0.65 0.2 0.69 0.59l0.15 1.55c0.99-1.67 2.66-2.5 5.01-2.5 1.8 0 3.16 0.5 4.05 1.52 0.89 1.01 1.34 2.44 1.34 4.3l0 9.56zm10.7-12.19c-1.25 0-2.19 0.39-2.82 1.18-0.62 0.78-0.94 2.06-0.94 3.83 0 1.77 0.32 3.04 0.94 3.83 0.63 0.79 1.57 1.18 2.82 1.18 2.58 0 3.88-1.67 3.88-5.01 0-3.34-1.3-5.01-3.88-5.01zm3.96 10.67c-0.41 0.82-1.09 1.44-2.02 1.88-0.94 0.44-1.96 0.66-3.08 0.66-2.1 0-3.74-0.69-4.9-2.08-1.16-1.38-1.74-3.42-1.74-6.12 0-2.71 0.58-4.75 1.74-6.13 1.16-1.38 2.8-2.07 4.9-2.07 1.08 0 2.08 0.22 3 0.65 0.93 0.44 1.59 1.05 1.99 1.82l0-6.73c0-0.44 0.22-0.66 0.68-0.66l2.57 0c0.47 0 0.71 0.22 0.71 0.66l0 19.64c0 0.46-0.24 0.69-0.71 0.69l-2.33 0c-0.44 0-0.68-0.19-0.72-0.57l-0.09-1.64zm11.65 1.52c0 0.46-0.22 0.69-0.68 0.69l-2.59 0c-0.46 0-0.69-0.23-0.69-0.69l0-14.34c0-0.46 0.23-0.68 0.69-0.68l2.59 0c0.46 0 0.68 0.22 0.68 0.68l0 14.34zm0-17.47c0 0.46-0.21 0.69-0.65 0.69l-2.65 0c-0.44 0-0.66-0.23-0.66-0.69l0-2.08c0-0.46 0.22-0.69 0.66-0.69l2.65 0c0.44 0 0.65 0.23 0.65 0.69l0 2.08zm18.04 17.47c0 0.46-0.23 0.69-0.69 0.69l-2.56 0c-0.47 0-0.71-0.23-0.71-0.69l0-8.85c0-1.06-0.23-1.84-0.67-2.36-0.45-0.51-1.2-0.77-2.23-0.77-1.11 0-1.97 0.32-2.58 0.97-0.6 0.64-0.91 1.52-0.91 2.64l0 8.37c0 0.46-0.23 0.69-0.68 0.69l-2.57 0c-0.45 0-0.68-0.23-0.68-0.69l0-14.34c0-0.46 0.23-0.68 0.68-0.68l2.36 0c0.42 0 0.65 0.2 0.68 0.59l0.15 1.55c1-1.67 2.67-2.5 5.01-2.5 1.81 0 3.16 0.5 4.06 1.52 0.89 1.01 1.34 2.44 1.34 4.3l0 9.56zm10.28-12.43c-2.27 0-3.4 1.42-3.4 4.26 0 2.85 1.13 4.27 3.4 4.27 1.09 0 1.94-0.38 2.55-1.14 0.6-0.75 0.9-1.84 0.9-3.28 0-2.74-1.15-4.11-3.45-4.11zm7.33 10.47c0 2.04-0.66 3.61-1.98 4.68-1.32 1.07-3.18 1.61-5.56 1.61-2.37 0-4.2-0.31-5.49-0.93-0.39-0.2-0.54-0.46-0.42-0.8l0.51-1.61c0.12-0.44 0.4-0.59 0.84-0.45 1.41 0.5 2.83 0.75 4.26 0.75 1.36 0 2.38-0.3 3.07-0.9 0.7-0.6 1.05-1.44 1.05-2.53l0-1.29c-0.4 0.74-1.01 1.31-1.84 1.72-0.82 0.41-1.74 0.61-2.75 0.61-1.93 0-3.47-0.58-4.63-1.73-1.15-1.15-1.73-2.93-1.73-5.34 0-2.4 0.57-4.2 1.69-5.39 1.12-1.19 2.63-1.79 4.52-1.79 1.03 0 1.98 0.21 2.83 0.64 0.85 0.43 1.48 0.99 1.87 1.68l0.1-1.4c0.03-0.4 0.27-0.59 0.71-0.59l2.27 0c0.45 0 0.68 0.22 0.68 0.68l0 12.38zm24.14 1.43c-1.45 0.99-3.39 1.49-5.81 1.49-2.76 0-4.92-0.39-6.47-1.17-0.44-0.21-0.59-0.51-0.45-0.89l0.72-1.91c0.16-0.47 0.46-0.62 0.89-0.44 1.43 0.59 3.01 0.89 4.74 0.89 1.36 0 2.42-0.21 3.21-0.63 0.79-0.41 1.18-1.04 1.18-1.88 0-0.33-0.09-0.65-0.26-0.94-0.17-0.28-0.35-0.52-0.54-0.7-0.19-0.17-0.51-0.38-0.97-0.62-0.45-0.24-0.81-0.41-1.08-0.53-0.27-0.1-0.72-0.28-1.36-0.52-0.81-0.29-1.45-0.54-1.91-0.74-0.46-0.2-1-0.49-1.62-0.88-0.63-0.39-1.11-0.79-1.44-1.19-0.32-0.41-0.61-0.93-0.86-1.57-0.25-0.64-0.37-1.35-0.37-2.14 0-3.82 2.53-5.73 7.57-5.73 2.29 0 4.19 0.35 5.7 1.04 0.43 0.22 0.58 0.52 0.45 0.9l-0.69 1.85c-0.18 0.43-0.5 0.57-0.95 0.42-1.14-0.44-2.51-0.66-4.12-0.66-2.52 0-3.78 0.76-3.78 2.26 0 0.9 0.56 1.63 1.69 2.21 0.36 0.18 1.13 0.51 2.3 0.99 0.65 0.25 1.07 0.42 1.25 0.5 0.18 0.08 0.55 0.25 1.12 0.51 0.57 0.26 0.94 0.46 1.13 0.59 0.19 0.14 0.5 0.36 0.91 0.65 0.42 0.28 0.71 0.56 0.87 0.81 0.16 0.27 0.35 0.57 0.56 0.95 0.22 0.36 0.37 0.76 0.45 1.19 0.08 0.43 0.12 0.9 0.12 1.42 0 1.98-0.73 3.47-2.18 4.47zm6.45-12.75c1.42-1.4 3.33-2.1 5.74-2.1 1.97 0 3.5 0.34 4.59 1.01 0.42 0.24 0.55 0.55 0.39 0.93l-0.72 1.61c-0.2 0.41-0.52 0.52-0.98 0.33-0.85-0.38-1.79-0.57-2.8-0.57-1.37 0-2.44 0.4-3.19 1.21-0.76 0.8-1.14 2.02-1.14 3.65 0 1.65 0.38 2.89 1.14 3.71 0.75 0.83 1.8 1.24 3.13 1.24 1.13 0 2.16-0.24 3.07-0.72 0.46-0.2 0.76-0.09 0.92 0.33l0.72 1.64c0.14 0.34 0 0.65-0.42 0.93-1.19 0.73-2.71 1.1-4.56 1.1-2.47 0-4.42-0.71-5.86-2.13-1.44-1.43-2.16-3.46-2.16-6.1 0-2.65 0.71-4.67 2.13-6.07zm28.07 13.28c0 0.46-0.23 0.69-0.69 0.69l-2.56 0c-0.46 0-0.69-0.23-0.69-0.69l0-8.85c0-1.06-0.23-1.84-0.69-2.36-0.45-0.51-1.2-0.77-2.23-0.77-1.13 0-2.01 0.33-2.62 0.99-0.62 0.67-0.93 1.54-0.93 2.62l0 8.37c0 0.46-0.23 0.69-0.68 0.69l-2.57 0c-0.46 0-0.68-0.23-0.68-0.69l0-19.65c0-0.43 0.22-0.65 0.68-0.65l2.57 0c0.45 0 0.68 0.22 0.68 0.65l0 6.71c0.38-0.67 0.98-1.25 1.82-1.73 0.84-0.48 1.89-0.71 3.16-0.71 1.83 0 3.19 0.5 4.09 1.52 0.89 1.01 1.34 2.45 1.34 4.32l0 9.54zm6.7-8.23l7.4 0 0-0.17c0-1.28-0.31-2.27-0.92-2.99-0.6-0.71-1.49-1.07-2.64-1.07-2.36 0-3.64 1.41-3.84 4.23zm8.82 5.43c0.42-0.2 0.72-0.06 0.9 0.42l0.5 1.4c0.11 0.38-0.04 0.67-0.44 0.87-1.56 0.77-3.28 1.16-5.19 1.16-2.64 0-4.7-0.72-6.18-2.17-1.49-1.43-2.23-3.45-2.23-6.03 0-2.61 0.68-4.63 2.04-6.07 1.37-1.44 3.22-2.16 5.57-2.16 2.28 0 4.05 0.68 5.3 2.04 1.25 1.36 1.88 3.18 1.88 5.44l0 1.46c0 0.48-0.24 0.72-0.72 0.72l-10.16 0c0.16 1.19 0.66 2.13 1.5 2.82 0.85 0.68 1.95 1.03 3.33 1.03 1.37 0 2.67-0.31 3.9-0.93zm18.78 2.8c0 0.46-0.23 0.69-0.69 0.69l-2.53 0c-0.45 0-0.68-0.23-0.68-0.69l0-9c0-1-0.2-1.75-0.58-2.25-0.39-0.51-1.03-0.76-1.93-0.76-1.04 0-1.84 0.32-2.43 0.96-0.59 0.66-0.88 1.49-0.88 2.53l0 8.52c0 0.46-0.23 0.69-0.69 0.69l-2.53 0c-0.48 0-0.72-0.23-0.72-0.69l0-14.34c0-0.46 0.24-0.68 0.72-0.68l2.36 0c0.43 0 0.67 0.2 0.71 0.59l0.15 1.55c0.36-0.67 0.94-1.26 1.74-1.76 0.81-0.49 1.81-0.74 3-0.74 2.33 0 3.84 0.88 4.53 2.65 1.06-1.77 2.79-2.65 5.19-2.65 1.67 0 2.93 0.5 3.76 1.49 0.83 0.99 1.25 2.4 1.25 4.23l0 9.66c0 0.46-0.23 0.69-0.68 0.69l-2.57 0c-0.46 0-0.68-0.23-0.68-0.69l0-8.97c0-1.01-0.2-1.78-0.6-2.28-0.4-0.51-1.05-0.76-1.97-0.76-0.99 0-1.79 0.31-2.37 0.94-0.59 0.62-0.88 1.41-0.88 2.37l0 8.7zm16.45-8.23l7.39 0 0-0.17c0-1.28-0.3-2.27-0.91-2.99-0.6-0.71-1.49-1.07-2.64-1.07-2.36 0-3.64 1.41-3.84 4.23zm8.82 5.43c0.42-0.2 0.72-0.06 0.9 0.42l0.5 1.4c0.1 0.38-0.05 0.67-0.44 0.87-1.56 0.77-3.28 1.16-5.19 1.16-2.64 0-4.71-0.72-6.19-2.17-1.48-1.43-2.22-3.45-2.22-6.03 0-2.61 0.68-4.63 2.04-6.07 1.36-1.44 3.22-2.16 5.56-2.16 2.29 0 4.06 0.68 5.31 2.04 1.25 1.36 1.88 3.18 1.88 5.44l0 1.46c0 0.48-0.24 0.72-0.72 0.72l-10.16 0c0.16 1.19 0.66 2.13 1.5 2.82 0.85 0.68 1.95 1.03 3.33 1.03 1.37 0 2.67-0.31 3.9-0.93zm-199.62 43.43l-8.86 0 0 7.07-3.67 0 0-28.61 3.67 0 0 3.94 8.31 0 0 3.41-8.31 0 0 3.66 7.63 0 0 3.33-7.63 0 0 3.78 8.86 0 0 3.42zm-19.82-21.54l3.63 0 0 14.34c0 5.01-1.51 11.1-8.95 14.67-0.58-0.89-1.75-2.06-2.62-2.77 3.11-1.2 5.05-3.2 6.25-5.32l-6.43 1.11-0.67-3.66c2.18-0.25 5.25-0.62 8.46-1.05 0.24-1.08 0.33-2.09 0.33-2.95l0-0.03-7.32 0 0-3.33 7.32 0 0-3.66-7.66 0 0-3.41 7.66 0 0-3.94zm55.16 4.61c0 0-0.02 1.23-0.06 1.67-0.58 13.72-1.14 18.73-2.3 20.27-0.71 1.05-1.39 1.39-2.4 1.6-0.87 0.15-2.16 0.15-3.48 0.09-0.09-1.05-0.46-2.55-1.02-3.57 1.14 0.13 2.16 0.13 2.74 0.13 0.46 0 0.77-0.13 1.14-0.59 0.77-0.98 1.32-5.17 1.82-16.21l-0.16 0c-1.51 7.75-4.67 15.75-9.63 19.85-0.71-0.72-1.97-1.61-2.98-2.13 4.92-3.54 8-10.52 9.53-17.72l-1.44 0c-1.35 5.01-3.94 10.52-7.05 13.47-0.67-0.71-1.84-1.54-2.79-2.06 3.04-2.4 5.44-6.95 6.79-11.41l-1.57 0c-0.89 2.12-1.97 4.03-3.17 5.51-0.58-0.59-2.03-1.61-2.76-2.06 2.43-2.68 4.12-7.08 5.04-11.6l3.33 0.61c-0.31 1.42-0.71 2.8-1.15 4.15l11.57 0zm-16.55 12.04c-1.1 0.3-2.18 0.67-3.32 1.01l0 10.95-3.36 0 0-9.93c-1.66 0.49-3.2 0.98-4.61 1.35l-0.89-3.48c1.54-0.34 3.42-0.83 5.5-1.41l0-5.88-2.06 0c-0.33 1.51-0.7 2.83-1.14 3.94-0.55-0.46-1.9-1.3-2.58-1.69 0.95-2.44 1.48-6.28 1.76-9.91l3.04 0.52c-0.12 1.23-0.28 2.43-0.46 3.67l1.44 0 0-5.91 3.36 0 0 5.91 2.55 0 0 3.47-2.55 0 0 4.95 2.83-0.8 0.49 3.24zm43.96 3.28l-12.71 0 0 1.39 12.71 0 0-1.39zm0-3.47l-12.71 0 0 1.42 12.71 0 0-1.42zm0-3.42l-12.71 0 0 1.38 12.71 0 0-1.38zm-0.12-2.67l0-3.23-2.65 0c-0.37 1.35-0.98 2.64-2.03 3.72l8.49 0 0 12.68-4.06 0c2.89 0.86 5.82 1.87 7.76 2.64l-1.69 2.56c-2.19-0.99-5.85-2.37-9.27-3.42l1.11-1.78-7.97 0 2 1.17c-2.64 1.47-6.8 3.14-9.9 4.06-0.31-0.65-1.2-2.35-1.76-3.08 2.55-0.49 5.66-1.26 7.94-2.15l-4.06 0 0-12.68 11.01 0c-0.65-0.55-1.81-1.32-2.43-1.63 1.97-1.75 2.22-4 2.22-5.75l0-2.25c3.45-0.15 7.35-0.62 9.5-1.35l2.28 2.03c-2.34 0.8-5.63 1.26-8.71 1.47l0 0.15c0 0.31 0 0.62-0.03 0.93l9.88 0 0 2.68-4.34 0 0 3.23-3.29 0zm-15.23-3.23c-0.52 1.56-1.39 3.07-2.92 4.31-0.47-0.65-1.73-1.91-2.37-2.34 2.34-1.76 2.67-3.94 2.67-5.73l0-2.06c3.21-0.18 6.9-0.64 9.05-1.38l2.03 2.12c-2.15 0.77-5.11 1.17-7.94 1.42 0 0.31 0 0.64-0.03 0.98l8.37 0 0 2.68-2.95 0 0 3.13-3.23 0 0-3.13-2.68 0zm39.13 1.44c1.33 3.23 3.17 6.1 5.54 8.53 2.12-2.34 3.81-5.14 5.01-8.53l-10.55 0zm14.68 0c-1.57 4.43-3.66 8.03-6.34 11.02 3.17 2.46 7.04 4.24 11.63 5.32-0.83 0.8-1.91 2.4-2.47 3.42-4.82-1.3-8.79-3.33-12.02-6.04-3.39 2.77-7.51 4.8-12.46 6.22-0.4-0.86-1.48-2.59-2.22-3.42 4.8-1.2 8.77-2.95 11.97-5.44-2.77-3.05-4.89-6.74-6.55-11.08l-4.83 0 0-3.57 12.98 0c-0.34-1.26-1.01-2.98-1.72-4.33l3.91-1.14c0.79 1.41 1.72 3.38 2.08 4.64l-2.64 0.83 13.38 0 0 3.57-4.7 0zm34.85 16.06c1.57 0 1.82-1.29 2.1-6.37 0.82 0.65 2.27 1.36 3.22 1.54-0.4 5.94-1.32 8.06-5.04 8.06l-5.14 0c-3.78 0-4.86-1.23-4.86-5.41l0-22.03 3.54 0 0 7.82 10.7 0 0 3.5-10.7 0 0 10.77c0 1.81 0.21 2.12 1.69 2.12l4.49 0zm-12.12-23.53c-0.83 1.97-1.85 3.94-2.99 5.84l0 21.63-3.47 0 0-16.58c-0.98 1.23-1.94 2.31-2.95 3.26-0.34-0.9-1.36-2.9-1.94-3.82 3.13-2.7 6.18-7.07 7.93-11.47l3.42 1.14zm43.81 3.35l2.95 0 0-1.23-2.95 0 0 1.23zm-5.72 14.27l8.21 0 0-0.92-8.21 0 0 0.92zm0-2.67l8.21 0 0-0.96-8.21 0 0 0.96zm0-2.71l8.21 0 0-0.92-8.21 0 0 0.92zm2.24-10.12l-2.95 0 0 1.23 2.95 0 0-1.23zm1.23 18.36c-1.6 1.02-3.87 2.22-5.78 2.99 1.54 0.25 3.29 0.31 5.26 0.31 2.28 0 5.35-0.12 8.18-0.34-1.6-0.68-3.9-1.57-6.06-2.25l1.05-1.69-4.8 0 2.15 0.98zm11.14-11.84l-20.43 0 0-2.58 8.06 0 0-0.83-6.27 0 0-5.02 6.27 0 0-1.48 3.48 0 0 1.48 6.52 0 0 5.02-6.52 0 0 0.83 8.89 0 0 2.58zm-24.92-3.63c-0.37-1.39-1.14-3.6-1.66-5.29l2.86-0.89c0.55 1.69 1.29 3.78 1.72 5.17l-2.92 1.01zm22.06 18.37c1.35-0.12 2.58-0.25 3.63-0.4-0.4 0.98-1.02 2.77-1.05 3.76-2.55 0.15-7.96 0.36-11.57 0.36-4.08 0-6.67-0.34-8.89-1.63-1.29-0.71-2.4-1.72-3.01-1.72-0.71 0-1.82 2.09-2.55 3.84l-2.47-3.47c1.11-1.33 2.28-2.37 3.33-2.99 0.65-1.51 1.2-3.44 1.59-5.29l-3.78 0c0.74-1.81 1.54-4.27 2.28-6.68l-2.83 0 0-3.26 7.17 0c-0.65 2.16-1.45 4.59-2.16 6.77l1.14 0 0.52-0.09 1.51 0.49c-0.49 2.77-1.26 5.66-2.24 7.97 0.52 0.31 1.13 0.77 2 1.29 0.67 0.43 1.47 0.74 2.36 0.96-0.55-0.65-1.32-1.57-1.81-2.04 1.66-0.43 3.54-1.1 4.98-1.75l-3.48 0 0-10.03 15.51 0 0 10.03-4.15 0c2 0.62 4.03 1.29 5.38 1.79l-1.41 2.09zm20.52-19.32c1.93 0.43 3.96 0.89 6 1.38 1.47-0.4 2.89-0.89 4.02-1.38l-10.02 0zm11.07 5.32c-1.51-0.52-3.36-1.05-5.29-1.57-2.22 0.59-4.46 1.11-6.62 1.57l11.91 0zm-6.27 9.81l0-1.59-5.02 0c-0.34 0.55-0.68 1.07-1.05 1.59l6.07 0zm13.28 4.59l0 2.95-22.61 0 0-2.95 9.33 0 0-1.79-6.53 0 0-2.21c-0.55 0.71-1.17 1.32-1.75 1.88-0.22-0.65-0.93-2.19-1.45-3.05-0.37 3.2-1.26 6.74-3.29 9.23-0.55-0.68-2.06-1.97-2.83-2.37 2.49-3.08 2.74-7.44 2.74-10.61l0-5.48 4.15 0c-0.49-0.52-1.1-1.08-1.54-1.41 2.22-0.34 4.65-0.77 7.02-1.32-1.94-0.5-3.94-0.93-5.76-1.27l1.73-1.32-5.3 0 0-2.86 10.71 0c-0.37-0.59-0.8-1.14-1.17-1.6l2.46-1.2c0.71 0.8 1.54 1.87 2.07 2.8l10.64 0 0 2.86-4.46 0 1.48 0.92c-1.11 0.52-2.4 1.05-3.79 1.54 1.82 0.49 3.48 0.98 4.87 1.45l-1.73 1.41 4.52 0 0 2.92-22.33 0 0 2.59c0 0.98-0.03 2.06-0.16 3.23 1.48-1.45 2.74-3.41 3.51-5.54l3.11 0.92c-0.16 0.4-0.31 0.8-0.5 1.23l3.58 0 0-1.87 3.59 0 0 1.87 7.61 0 0 2.87-7.61 0 0 1.59 6.71 0 0 2.8-6.71 0 0 1.79 9.69 0zm14.46-3.63l13.32 0 0-1.38-13.32 0 0 1.38zm0-3.45l13.32 0 0-1.33-13.32 0 0 1.33zm0-3.39l13.32 0 0-1.32-13.32 0 0 1.32zm1.02-10.39l-7.88 0 0-2.68 7.88 0 0 2.68zm11.54 19.38c2.83 1.05 5.84 2.28 7.66 3.17l-3.3 1.97c-1.75-1.01-4.95-2.52-7.99-3.63l1.87-1.51-8.67 0 2.67 1.23c-2.52 1.6-6.49 3.14-9.6 4-0.61-0.71-1.9-2.06-2.7-2.67 2.95-0.56 6.24-1.48 8.39-2.56l-4.43 0 0-12.49 20.59 0 0 12.49-4.49 0zm-0.84-18.09c1.67 1.63 4.93 2.4 9.08 2.62-0.74 0.7-1.6 2.02-2.03 2.92-3.45-0.43-6.12-1.42-8.06-3.11-1.17 1.36-3.72 2.56-8.89 3.14-0.25-0.58-0.74-1.35-1.23-2l-8.16 0 0-2.8 9.29 0 0 1.88c5.88-0.62 6.65-2 6.65-3.14l0-0.47-1.84 0c-0.65 1.02-1.39 1.95-2.16 2.65-0.58-0.55-1.94-1.45-2.71-1.87 1.64-1.35 2.89-3.38 3.6-5.48l3.2 0.71c-0.15 0.46-0.33 0.92-0.52 1.35l8.74 0 0.55-0.15 2.49 0.77c-0.8 1.69-1.84 3.63-2.83 4.86l-2.83-1.05c0.34-0.49 0.74-1.14 1.08-1.79l-3.42 0 0 0.62 0 0.34zm21.01 15.48c1.3-0.25 2.65-0.56 4.06-0.83l0-2.9-4.06 0 0 3.73zm4.06-10.09l-4.06 0 0 3.16 4.06 0 0-3.16zm-4.06-3.2l4.06 0 0-3.11-4.06 0 0 3.11zm22.56 0.58c-0.28 12.62-0.56 17.14-1.57 18.55-0.71 1.05-1.45 1.39-2.56 1.57-0.98 0.18-2.58 0.16-4.18 0.09-0.06-0.98-0.43-2.52-1.08-3.47 1.51 0.09 2.9 0.12 3.57 0.12 0.49 0 0.8-0.09 1.08-0.52 0.71-0.83 0.98-4.65 1.17-14.52l-3.26 0c-0.47 8.12-2.13 14.58-8.07 18.67-0.55-0.89-1.69-2.12-2.55-2.77 1.51-1.01 2.71-2.15 3.63-3.48-4.7 1.18-9.75 2.34-13.5 3.23l-0.59-3.75c0.62-0.12 1.35-0.24 2.12-0.4l0-20.31 10.68 0 0 18.13 1.32-0.28 0.34 2.89c2.06-3.2 2.8-7.17 3.08-11.93l-3.91 0 0-3.45 4.03 0c0.03-2.09 0.03-4.28 0.03-6.61l3.6 0c0 2.3 0 4.52-0.06 6.61l6.68 0 0 1.63zm36.14 5.57l-5.69 0 0 14.92-3.81 0 0-14.92-5.39 0 0-3.6 5.39 0 0-9.66 3.81 0 0 9.66 5.69 0 0 3.6zm-23.16 10.28l3.99 0 0-3.45-3.99 0 0 3.45zm7.16 2.95l-7.16 0 0 1.29-3.08 0 0-10.62 10.24 0 0 9.33zm-0.12-10.8l-10.24 0 0-2.77 10.24 0 0 2.77zm-10.25-6.89l10.31 0 0 2.76-10.31 0 0-2.76zm11.61-1.39l-12.96 0 0-2.89 5.36 0c-0.47-1.17-1.26-2.71-1.97-3.87l2.86-1.33c0.83 1.27 1.78 2.96 2.25 4.1l-2.04 1.1 6.5 0 0 2.89zm49.34-7.35l0 23.87c0 1.95-0.4 2.93-1.51 3.48-1.1 0.59-2.76 0.74-5.19 0.71-0.13-0.99-0.62-2.55-1.11-3.6 1.63 0.06 3.13 0.06 3.66 0.06 0.49 0 0.68-0.15 0.68-0.65l0-23.87 3.47 0zm-5.94 20.43l-3.32 0 0-17.32 3.32 0 0 17.32zm-8.64 0.25l-2.71 0 0 0.98 2.71 0 0-0.98zm0-2.65l-2.71 0 0 1.02 2.71 0 0-1.02zm-0.25-11.82l-2.58 0 0 1.11 2.58 0 0-1.11zm-2.58-2.21l2.58 0 0-0.98-2.58 0 0 0.98zm-5.76 17.66l2.83 0 0-0.98-2.83 0 0 0.98zm0-2.62l2.83 0 0-1.01-2.83 0 0 1.01zm11.57 4.34l-14.4 0 0-7.04 14.4 0 0 7.04zm-15.99 1.2c4.36-0.12 11.1-0.34 17.41-0.61l-0.1 2.73c-6.15 0.28-12.7 0.56-17.07 0.71l-0.24-2.83zm15.84-20.58l1.63 0 0 2.21-1.63 0 0 3.08-5.66 0 0 0.93 6 0 0 2-6 0 0 0.92 7.13 0 0 2.31-17.13 0 0-2.31 6.74 0 0-0.92-5.42 0 0-2 5.42 0 0-0.93-5.36 0 0-1.97 5.36 0 0-1.11-6.92 0 0-2.21 6.92 0 0-0.99-5.26 0 0-1.96 5.26 0 0-1.67 3.26 0 0 1.67 5.66 0 0 2.95z"/>
</svg>
