<?xml version="1.0" encoding="UTF-8"?>
<svg xmlns="http://www.w3.org/2000/svg" viewBox="0 0 2475 552">
  <path fill="#ea5d2b" d="M237.5 369.73c55.38 0 100.29-44.9 100.29-100.29 0-55.39-44.91-100.28-100.29-100.28-55.39 0-100.3 44.89-100.3 100.28 0 55.39 44.91 100.29 100.3 100.29zm141.99-74.4c-0.57 0-1.22 0.1-1.7 0.54l-8.98 1.3 0-24.74c0.18-0.3 0.37-0.55 0.37-1.04 0-1.05-0.32-2.49-2.5-2.49-1.04 0-2.42 0.45-2.42 2.49 0 0.44 0.05 0.74 0.19 0.94l0 25.54c-0.38 0.49-0.48 1.03-0.48 1.72 0 1.45 1.05 2.26 2.42 2.26 0.52 0 0.85-0.05 1.42-0.21l11.16-1.5c0.15 0.1 0.57 0.2 0.86 0.15 1.03-0.19 1.84-1.04 1.84-2.73 0-1.39-1.14-2.18-2.18-2.23zm16.94-12.54c2.13 0 2.46 1.51 2.46 2.06 0 0.8-0.53 1.1-1.75 1.45-1.66 0.45-4.06 1.05-7.18 1.7l-0.1-0.05c1.9-4.06 4.2-5.16 6.57-5.16zm0.56 7.31c4.59-1.05 6.25-2.55 6.25-4.75 0-3.45-2.89-6.27-6.53-6.27-3.49 0-6.66 1.58-9.06 4.76-2.04 2.71-3.32 6.31-3.32 10.31 0 4.18 2.32 7.7 6.76 7.7 2.84 0 5.29-0.64 7.7-2.48 1.89-1.43 3.97-3.48 3.97-4.78 0-0.94-0.85-2.04-2.41-2.04-1.19 0-2.31 0.74-2.27 2.19-1.7 2.35-4.48 3.4-6.27 3.4-2.08 0-3.12-1.3-3.12-3.5 0-1.19 0.04-1.94 0.23-2.69l8.07-1.85zm12.87-20.7c-1.72 0-2.76 1.64-2.76 4.83 0 1.39 0.86 2.59 2.42 2.59 1.57 0 2.9-1.5 2.9-4.78 0-1.64-0.72-2.64-2.56-2.64zm1.8 13.46c0.14-0.15 0.38-0.49 0.38-1.2 0-1.43-1.23-2.58-2.27-2.58-1.56 0-2.65 0.7-2.65 2.89 0 0.44 0.1 0.79 0.28 1.09l0 14.45c-0.42 0.74-0.42 1-0.42 1.35 0 1.09 0.62 2.54 2.31 2.54 1.57 0 2.8-1.05 2.8-2.5 0-0.44-0.15-0.79-0.43-1.19l0-14.85zm20.9 2.64c-2.02 0-3.97 0.64-6.46 1.58-1.91 0.73-3.23 1.27-3.89 1.27-0.53 0-0.95-0.14-0.95-0.89 0-0.9 0.76-1.89 2.41-3.03 2.03-1.4 5.11-2.04 8.37-2.04 0.8 0.34 1.18 0.55 1.7 0.55 0.85 0 2.04-0.21 2.04-1.98 0-1.45-1.8-2.53-3.79-2.53-3.83 0-7.56 0.93-10.25 2.53-2.89 1.77-4.84 4.31-4.84 7.39 0 2.58 2.23 4.37 4.45 4.37 2.37 0 4.12-0.74 6.34-1.64 1.85-0.72 3.22-1.22 4.26-1.22 0.89 0 1.41 0.45 1.41 1.25 0 1.14-0.52 2.59-2.26 4.08-2.03 1.79-4.91 2.6-6.75 2.6-1.61 0-2.32-0.4-2.83-0.75l0.09-0.8c0-1.4-1.18-1.69-2.41-1.69-0.8 0-1.95 0.89-1.95 2.74 0 1.23 1 2.52 2.28 3.27 1.23 0.75 3.31 1.19 4.77 1.19 3.68 0 7.27-1.68 9.68-3.62 1.89-1.49 3.73-4.23 3.73-7.68 0-2.13-1.32-4.95-5.15-4.95zm27.54-3.68c0.24-1.44-0.15-2.74-2.27-2.74-1.66 0-2.13 0.74-2.13 1.64 0 0.95 0 0.55 0.14 1.1l0 12.13c-1.84 1.54-4.88 3.98-7.43 3.98-0.52 0-1.66-0.7-1.66-1.64l0-13.97c0.24-0.35 0.34-0.7 0.34-1.2 0-0.94-0.62-2.19-2.27-2.19-1.23 0-2.47 0.69-2.47 2.29 0 0.3 0 0.59 0.15 0.95l0 14.17c0 3.93 3.22 5.61 5.72 5.61 2.6 0 5.73-2.03 7.48-3.47l0 0.55c-0.52 1.07 0.19 2.32 1.99 2.32 1.18 0 2.74-0.4 2.74-2.1 0-0.45-0.05-0.84-0.33-1.2l0-16.23zm17.63-2.79c-0.71 0-1.19 0.25-2.84 1.2-1.14 0.64-2.75 2.03-4.07 3.18l0-1.39c0.14-0.56 0.19-0.8 0.19-1.1 0-1.1-0.76-1.99-2.13-1.99-1.09 0-2.46 0.59-2.46 2.19 0 0.39 0.05 0.69 0.14 1.09l0 15.55c-0.28 0.39-0.47 0.95-0.47 1.39 0 1.25 0.81 2.2 2.37 2.2 1.84 0 2.84-0.61 2.84-2.35 0-0.49-0.25-0.95-0.48-1.24l0-9.48c1.32-1.43 4.31-3.93 5.72-4.77-0.04 0.65-0.04 0.84-0.04 1.15 0 1.29 1.32 1.88 2.22 1.88 0.66 0 2.03-0.1 2.03-1.88 0-2.74-0.38-5.63-3.02-5.63zm16.39 3.76c2.12 0 2.46 1.51 2.46 2.06 0 0.8-0.52 1.1-1.75 1.45-1.65 0.45-4.06 1.05-7.17 1.7l-0.1-0.05c1.89-4.06 4.2-5.16 6.56-5.16zm0.57 7.31c4.59-1.05 6.24-2.55 6.24-4.75 0-3.45-2.89-6.27-6.52-6.27-3.5 0-6.66 1.58-9.07 4.76-2.04 2.71-3.31 6.31-3.31 10.31 0 4.18 2.31 7.7 6.75 7.7 2.84 0 5.29-0.64 7.7-2.48 1.9-1.43 3.98-3.48 3.98-4.78 0-0.94-0.85-2.04-2.42-2.04-1.18 0-2.31 0.74-2.27 2.19-1.7 2.35-4.48 3.4-6.27 3.4-2.08 0-3.12-1.3-3.12-3.5 0-1.19 0.05-1.94 0.24-2.69l8.07-1.85zm33.48 4.34c-1.83 1.85-5.89 3.85-7.67 3.85-0.85 0-1.18-0.4-1.18-1.16 0-1.42 1.93-3.81 4.28-5.16 1.79-1.06 4.57-2.15 7.02-2.55 0 2.52-0.33 2.97-2.45 5.02zm6.71-10.95c0-2.44-1.14-4.91-5.2-4.91-3.49 0-7.44 0.64-10.88 3.11-1 0.15-1.9 0.99-1.9 2.24 0 1.31 1 2.2 2.23 2.2 1.22 0 2.31-0.84 2.45-1.84 1.7-1.2 4.71-2.01 7.11-2.01 1.83 0 1.93 0.51 1.93 1.7l0 2.1c-3.01 0.31-6.64 1.35-9.85 3.26-3.68 2.2-5.81 5.4-5.81 8.4 0 2.63 1.85 4.26 4.92 4.26 3.35 0 7.77-2.03 10.74-5.51l0 1.72c-0.14 0.2-0.38 0.49-0.38 1.24 0 1.1 0.71 1.94 2.22 1.94 1.19 0 2.75-0.4 2.75-2.04 0-0.45-0.05-0.85-0.33-1.19l0-14.67zm24.29-1.58c0-2.2-2.46-3.48-3.73-3.48-2.47 0-5.5 2.78-9.62 5.82l0-2.44c0.15-0.26 0.34-0.65 0.34-1.25 0-0.89-0.43-2.13-2.32-2.13-1.18 0-2.46 0.79-2.46 2.23 0 0.45 0.05 0.79 0.19 1.04l0 5.68c-0.33 0.54-0.47 1.19-0.47 1.69 0 0.44 0.09 0.94 0.47 1.34l0 7.76c-0.19 0.34-0.38 0.74-0.38 1.29 0 1.04 0.76 1.94 2.27 1.94 1.09 0 2.51-0.3 2.51-2.14 0-0.4-0.05-0.7-0.15-0.94l0-9.05c4.12-3.24 7.49-5.87 8.05-5.87 0.34 0 1.04 0.3 1.04 0.94l0 14.02c-0.14 0.35-0.23 0.6-0.23 0.85 0 1.24 0.85 2.19 2.27 2.19 1.42 0 2.36-0.65 2.36-2.29 0-0.4 0-0.69-0.14-1.05l0-16.15zm16.88 11.4c-2.22 2.39-4.58 4.53-6.8 4.53-0.99 0-1.41-0.7-1.41-1.8 0-2.05 1.65-5.23 3.86-7.72 2.18-2.49 4.92-3.98 7.23-3.98 1.22 0 1.51 0.95 1.51 1.6 0 1.19-0.66 3.34-4.39 7.37zm8.59-21.47c0.05-0.35 0.1-0.6 0.1-0.95 0-1.15-0.66-2.54-2.32-2.54-1.09 0-2.46 0.74-2.46 2.34 0 0.6 0.1 1.15 0.43 1.55l-0.05 8.54c-0.42-0.5-1.41-0.6-2.36-0.6-6.41 0-14.5 8.84-14.5 15.55 0 3.89 1.8 6.27 5.25 6.27 2.13 0 4.02-0.6 6.18-2.14 1.66-1.13 3.83-3.37 5.39-5.46l0.09 0 0 3.56c-0.09 0.3-0.19 0.7-0.19 1.3 0 1.09 0.57 2.13 2.27 2.13 1.51 0 2.6-0.64 2.6-2.18 0-0.3-0.05-0.79-0.43-1.34l0-26.03zm30.99 0.72c2.5 0 3.98 0.79 4.11 1.39 0.24 1.15 0.85 2.1 2.13 2.1 1.32 0 2.46-1.1 2.46-2.7 0-2.53-4.87-5-8.89-5-3.32 0-6.57 1.38-9.37 5.35-2.17 3.2-4.59 9.53-4.59 14.36 0 7.43 3.23 13.89 10.09 13.89 1.41 0 2.46-0.2 4.48-1.14 2.08-1.04 4.69-2.97 5.96-4.42 1.28-1.4 1.89-2.34 1.89-3.39 0-1.24-0.94-2.44-2.79-2.44-1.37 0-2.03 1.2-2.31 3.03-1.52 1.9-4.26 4.15-6.53 4.15-2.22 0-3.31-0.45-4.49-2-0.95-1.25-1.89-3.74-1.89-7.03 0-2.69 0.85-7.53 3.12-11.56 1.7-2.99 3.83-4.59 6.62-4.59zm30.5 9.26c0.23-1.44-0.15-2.74-2.28-2.74-1.64 0-2.12 0.74-2.12 1.64 0 0.95 0 0.55 0.14 1.1l0 12.13c-1.84 1.54-4.88 3.98-7.44 3.98-0.52 0-1.65-0.7-1.65-1.64l0-13.97c0.23-0.35 0.33-0.7 0.33-1.2 0-0.94-0.61-2.19-2.28-2.19-1.22 0-2.45 0.69-2.45 2.29 0 0.3 0 0.59 0.14 0.95l0 14.17c0 3.93 3.22 5.61 5.73 5.61 2.6 0 5.73-2.03 7.48-3.47l0 0.55c-0.52 1.07 0.18 2.32 1.98 2.32 1.18 0 2.75-0.4 2.75-2.1 0-0.45-0.05-0.84-0.33-1.2l0-16.23zm11.14-11.19c0-1.24-0.95-2.29-2.41-2.29-1.61 0-2.61 0.45-2.61 2.6 0 0.64 0.15 1.04 0.28 1.33l0 25.64c-0.18 0.5-0.18 0.75-0.18 0.95 0 1.39 0.99 2.49 2.6 2.49 1.14 0 2.32-0.8 2.32-2.24 0-0.45 0-0.9-0.47-1.45l0-25.18c0.33-0.45 0.47-0.95 0.47-1.85zm20.85 19.28c-1 0-1.85 0.49-1.99 1.95-0.85 1.25-1.99 2.3-2.79 2.95-2.23 1.64-2.65 1.94-3.36 1.94-0.43 0-0.43-0.85-0.43-1.55l0-12.57 5.68-0.89c0.33 0.15 0.71 0.1 0.85 0.1 1.14 0 1.84-0.9 1.84-2.48 0-0.45-0.7-1.84-2.07-1.84-0.33 0-0.76 0.15-1 0.25l-5.3 0.81 0-3c0.24-0.34 0.29-0.74 0.29-1.19 0-1.49-1.23-1.73-2.08-1.73-1.28-0.05-2.6 0.3-2.6 1.89 0 0.25 0 0.64 0.14 1l0 3.68-2.64 0.39-0.52-0.1c-1.19 0.06-2.37 0.91-2.37 2.5 0 0.53 0.61 1.92 2.27 1.92 0.37-0.07 0.62-0.18 0.89-0.37l2.37-0.36 0 15.44c0 2.34 1.42 3.1 3.17 3.1 1.37 0 3.31-0.9 5.58-2.55 2.37-1.8 6.43-5.4 6.43-7.1 0-0.59-0.28-2.19-2.36-2.19zm23.23-8.09c0.24-1.44-0.14-2.74-2.26-2.74-1.66 0-2.13 0.74-2.13 1.64 0 0.95 0 0.55 0.14 1.1l0 12.13c-1.84 1.54-4.87 3.98-7.44 3.98-0.51 0-1.65-0.7-1.65-1.64l0-13.97c0.24-0.35 0.33-0.7 0.33-1.2 0-0.94-0.61-2.19-2.27-2.19-1.23 0-2.46 0.69-2.46 2.29 0 0.3 0 0.59 0.15 0.95l0 14.17c0 3.93 3.21 5.61 5.72 5.61 2.6 0 5.73-2.03 7.48-3.47l0 0.55c-0.52 1.07 0.19 2.32 1.98 2.32 1.19 0 2.75-0.4 2.75-2.1 0-0.45-0.05-0.84-0.34-1.2l0-16.23zm17.63-2.79c-0.71 0-1.18 0.25-2.83 1.2-1.14 0.64-2.75 2.03-4.08 3.18l0-1.39c0.15-0.56 0.2-0.8 0.2-1.1 0-1.1-0.76-1.99-2.14-1.99-1.08 0-2.45 0.59-2.45 2.19 0 0.39 0.05 0.69 0.14 1.09l0 15.55c-0.28 0.39-0.47 0.95-0.47 1.39 0 1.25 0.8 2.2 2.37 2.2 1.83 0 2.83-0.61 2.83-2.35 0-0.49-0.24-0.95-0.48-1.24l0-9.48c1.33-1.43 4.31-3.93 5.73-4.77-0.04 0.65-0.04 0.84-0.04 1.15 0 1.29 1.32 1.88 2.21 1.88 0.67 0 2.04-0.1 2.04-1.88 0-2.74-0.38-5.63-3.03-5.63zm17.16 15.41c-1.84 1.85-5.89 3.85-7.68 3.85-0.84 0-1.18-0.4-1.18-1.16 0-1.42 1.94-3.81 4.29-5.16 1.79-1.06 4.57-2.15 7.01-2.55 0 2.52-0.32 2.97-2.44 5.02zm6.7-10.95c0-2.44-1.13-4.91-5.19-4.91-3.49 0-7.44 0.64-10.89 3.11-0.99 0.15-1.89 0.99-1.89 2.24 0 1.31 0.99 2.2 2.23 2.2 1.22 0 2.31-0.84 2.44-1.84 1.7-1.2 4.71-2.01 7.12-2.01 1.83 0 1.92 0.51 1.92 1.7l0 2.1c-3 0.31-6.63 1.35-9.83 3.26-3.69 2.2-5.82 5.4-5.82 8.4 0 2.63 1.85 4.26 4.92 4.26 3.34 0 7.77-2.03 10.73-5.51l0 1.72c-0.13 0.2-0.37 0.49-0.37 1.24 0 1.1 0.71 1.94 2.22 1.94 1.18 0 2.74-0.4 2.74-2.04 0-0.45-0.04-0.85-0.33-1.19l0-14.67zm10.75-11.01c0.34-0.45 0.47-0.95 0.47-1.85 0-1.24-0.94-2.29-2.4-2.29-1.61 0-2.61 0.45-2.61 2.59 0 0.65 0.15 1.05 0.28 1.34l0 25.64c-0.19 0.5-0.19 0.75-0.19 0.95 0 1.39 1 2.49 2.61 2.49 1.13 0 2.31-0.8 2.31-2.24 0-0.45 0-0.9-0.47-1.45l0-25.18zm-393.37 56.4c-1.7 0-3.83 0.45-6.9 1.49-2.55 0.82-3.6 1.22-4.45 1.22-1.37 0-1.84-1.14-1.84-2.04 0-1.31 1.04-3.4 2.79-5.1 1.71-1.59 3.79-2.74 6.86-2.74 2.08 0 2.51 0.45 3.26 0.95 0.19 0.89 1.1 1.5 2.46 1.5 1.09 0 2.13-0.5 2.13-2.31 0-2.22-4.11-4.36-7.62-4.36-3.16 0-6.43 1-9.46 3.53-2.6 2.18-4.83 5.78-4.83 9.38 0 3.33 1.76 5.75 5.83 5.75 1.23 0 3.02-0.34 6.2-1.44 3.36-1.11 4.91-1.26 6.29-1.26 1.56 0 2.46 1.04 2.46 2.58 0 2-0.43 3.79-2.04 5.63-2.27 2.49-6.39 4.73-10.4 4.73-1.9 0-2.75-0.45-3.41-2.99-0.47-1.74-0.99-2.84-2.42-2.84-1.18 0-2.41 1.2-2.41 2.94 0 1.74 1.04 3.78 2.32 5.02 1.56 1.49 3.36 2.08 5.97 2.08 2.22 0 3.78-0.2 6.57-1.24 2.27-0.89 3.88-1.78 6.53-4.37 2.27-2.24 3.69-5.03 3.69-9.46 0-4.37-2.89-6.65-7.58-6.65zm22.33 2.66c2.12 0 2.46 1.51 2.46 2.06 0 0.8-0.52 1.09-1.75 1.45-1.65 0.45-4.06 1.05-7.17 1.71l-0.1-0.06c1.89-4.05 4.2-5.16 6.56-5.16zm0.57 7.31c4.59-1.05 6.24-2.55 6.24-4.75 0-3.45-2.88-6.27-6.52-6.27-3.49 0-6.66 1.58-9.06 4.77-2.04 2.7-3.33 6.3-3.33 10.29 0 4.2 2.33 7.71 6.76 7.71 2.84 0 5.3-0.64 7.71-2.48 1.89-1.43 3.97-3.48 3.97-4.78 0-0.94-0.85-2.04-2.41-2.04-1.19 0-2.32 0.75-2.27 2.19-1.7 2.35-4.49 3.4-6.28 3.4-2.08 0-3.12-1.3-3.12-3.5 0-1.19 0.05-1.94 0.24-2.69l8.07-1.85zm20.73-11.07c-0.7 0-1.18 0.25-2.83 1.2-1.14 0.64-2.75 2.04-4.08 3.18l0-1.39c0.15-0.55 0.2-0.8 0.2-1.09 0-1.11-0.76-2-2.13-2-1.09 0-2.46 0.59-2.46 2.19 0 0.4 0.04 0.7 0.14 1.09l0 15.55c-0.28 0.4-0.47 0.95-0.47 1.4 0 1.25 0.8 2.19 2.36 2.19 1.85 0 2.84-0.61 2.84-2.34 0-0.5-0.23-0.95-0.48-1.25l0-9.47c1.33-1.44 4.32-3.93 5.73-4.78-0.04 0.64-0.04 0.85-0.04 1.15 0 1.29 1.32 1.89 2.22 1.89 0.66 0 2.03-0.1 2.03-1.89 0-2.74-0.38-5.63-3.03-5.63zm22.44-0.3c-1.23 0-1.84 0.7-2.5 2.54-0.99 2.54-2.03 4.54-3.46 7.07-1.09 1.95-2.08 3.9-2.6 5.68l-0.1 0c-0.37-1.83-0.89-4.18-1.79-7.17-0.56-1.89-1.04-3.24-1.14-4.28 0.2-0.6 0.29-1.01 0.29-1.35 0-1.04-0.94-2.09-2.26-2.09-1.18 0-2.41 0.85-2.41 2.24 0 0.65 0 0.9 0.2 1.24 0.04 0.85 0.13 1.5 0.46 2.89 0.52 2.4 0.76 3.29 2.27 7.83 1.41 4.24 1.65 5.08 1.65 5.28 0 1.74 0.99 2.94 2.41 2.94 1.37 0 2.12-0.89 2.41-2.35 0.14-0.74 0.86-2.73 4.21-8.91 1.93-3.44 1.61-2.89 2.79-4.98 0.52-1.25 1.66-3.35 1.66-4.39 0-1.6-0.95-2.19-2.09-2.19zm9.42 4.14c0.14-0.15 0.38-0.5 0.38-1.2 0-1.45-1.23-2.59-2.27-2.59-1.57 0-2.65 0.7-2.65 2.89 0 0.45 0.1 0.8 0.28 1.1l0 14.44c-0.42 0.75-0.42 1-0.42 1.35 0 1.09 0.61 2.54 2.31 2.54 1.57 0 2.79-1.04 2.79-2.5 0-0.44-0.14-0.79-0.42-1.19l0-14.84zm-1.81-13.47c-1.71 0-2.75 1.65-2.75 4.83 0 1.4 0.85 2.58 2.42 2.58 1.56 0 2.89-1.49 2.89-4.77 0-1.64-0.7-2.64-2.56-2.64zm22.35 21.34c-0.8 0-1.13 0.09-1.61 0.6-0.47 0.5-0.47 0.6-0.61 1.4-1.52 2.95-4.16 5.1-6.06 5.1-2.26 0-3.63-1.2-3.63-4.25 0-3.55 0.94-5.85 2.88-8.01 1.89-2.14 2.46-2.64 4.82-2.64 0.66 0 0.85 0.1 1.32 0.9 0.39 0.75 0.86 1.5 1.89 1.5 1.24 0 2.75-0.6 2.75-2.4 0-2.09-2.46-4.16-5.96-4.16-3.07 0-5.63 1.29-7.05 2.88-3.93 4.32-5.02 6.98-5.02 12.58 0 3.85 2.52 7.76 7.2 7.76 2.03 0 4.21-0.49 6.48-2.24 2.03-1.52 4.82-5.02 4.82-6.83 0-0.79-0.56-2.19-2.22-2.19zm17.34-7.95c2.12 0 2.45 1.51 2.45 2.06 0 0.8-0.52 1.09-1.75 1.45-1.65 0.45-4.06 1.05-7.17 1.71l-0.1-0.06c1.9-4.05 4.2-5.16 6.57-5.16zm0.56 7.31c4.58-1.05 6.25-2.55 6.25-4.75 0-3.45-2.9-6.27-6.53-6.27-3.5 0-6.66 1.58-9.07 4.77-2.04 2.7-3.31 6.3-3.31 10.29 0 4.2 2.32 7.71 6.76 7.71 2.83 0 5.29-0.64 7.7-2.48 1.89-1.43 3.97-3.48 3.97-4.78 0-0.94-0.85-2.04-2.42-2.04-1.18 0-2.31 0.75-2.26 2.19-1.7 2.35-4.49 3.4-6.28 3.4-2.08 0-3.12-1.3-3.12-3.5 0-1.19 0.05-1.94 0.24-2.69l8.07-1.85zm25.16-4.6c-2.02 0-3.96 0.65-6.46 1.58-1.9 0.74-3.23 1.28-3.89 1.28-0.52 0-0.94-0.15-0.94-0.9 0-0.89 0.75-1.89 2.41-3.03 2.03-1.39 5.1-2.04 8.36-2.04 0.81 0.35 1.19 0.55 1.71 0.55 0.85 0 2.03-0.2 2.03-1.99 0-1.43-1.8-2.52-3.78-2.52-3.83 0-7.57 0.94-10.26 2.52-2.89 1.79-4.83 4.32-4.83 7.41 0 2.58 2.22 4.36 4.45 4.36 2.37 0 4.12-0.75 6.34-1.63 1.84-0.73 3.22-1.22 4.25-1.22 0.9 0 1.42 0.44 1.42 1.24 0 1.14-0.52 2.59-2.26 4.09-2.04 1.79-4.92 2.58-6.76 2.58-1.6 0-2.3-0.39-2.83-0.74l0.1-0.79c0-1.4-1.19-1.7-2.42-1.7-0.8 0-1.94 0.9-1.94 2.74 0 1.24 0.99 2.53 2.28 3.27 1.22 0.75 3.3 1.19 4.76 1.19 3.69 0 7.28-1.69 9.68-3.62 1.9-1.49 3.75-4.23 3.75-7.67 0-2.13-1.33-4.96-5.17-4.96zm35.49 6.09c-2.61 2.59-6.96 4.73-9.79 5.28l0-21.72c1.79-1.15 4.92-2.39 8.22-2.39 3.84 0 6.39 3.24 6.39 7.32 0 3.49-1.37 8.07-4.82 11.51zm-0.81-23.05c-3.68 0-5.43 0.6-8.79 1.89-0.19-1.03-0.99-1.59-2.09-1.59-1.22 0-2.65 0.65-2.65 2.15 0 0.54 0.19 1.09 0.19 1.19l0 27.78c0 0.95 0.33 1.84 1.89 1.84 1.34 0 5.07-0.94 8.1-2.29 1.89-0.85 4.86-2.44 7.28-4.73 4.21-4.09 6.11-9.67 6.11-15.09 0-5.79-4.74-11.15-10.04-11.15zm22.8 14.25c2.12 0 2.44 1.51 2.44 2.06 0 0.8-0.51 1.09-1.74 1.45-1.65 0.45-4.05 1.05-7.17 1.71l-0.09-0.06c1.88-4.05 4.2-5.16 6.56-5.16zm0.56 7.31c4.59-1.05 6.25-2.55 6.25-4.75 0-3.45-2.89-6.27-6.53-6.27-3.5 0-6.66 1.58-9.06 4.77-2.05 2.7-3.32 6.3-3.32 10.29 0 4.2 2.32 7.71 6.76 7.71 2.83 0 5.29-0.64 7.7-2.48 1.89-1.43 3.98-3.48 3.98-4.78 0-0.94-0.86-2.04-2.42-2.04-1.19 0-2.32 0.75-2.28 2.19-1.69 2.35-4.48 3.4-6.27 3.4-2.08 0-3.12-1.3-3.12-3.5 0-1.19 0.05-1.94 0.24-2.69l8.07-1.85zm16.81 7.43c-0.66 0-1.55-0.29-1.84-1.1l0-5.53c0.61-1.36 1.84-3.26 4.2-5.36 1.46-1.3 2.69-2.2 4.63-2.2 1.7 0 2.27 1.5 2.27 2.75 0 4.41-4.63 11.44-9.26 11.44zm7.32-18.35c-3.87 0-6.66 2.33-9.16 5.31l0-2.37c0 0 0.29-0.3 0.29-0.89 0-1.75-1.34-2.3-2.57-2.3-1.13 0-2.21 0.8-2.21 2.39 0 0.45 0 0.85 0.23 1.25l0 30.59c-0.23 0.5-0.23 1.1-0.23 1.39 0 1.05 0.47 2 2.17 2 1.23 0 2.61-0.45 2.61-2.2 0-0.54 0-0.8-0.29-1.14l0-12.11c0.52 0.4 1.08 0.6 2.17 0.6 2.98 0 6.94-2.34 9.54-5.52 2.42-3.04 3.74-7.04 3.74-10.49 0-4.23-2.79-6.51-6.29-6.51zm21.84 15.26c-1.84 1.85-5.89 3.85-7.68 3.85-0.84 0-1.17-0.4-1.17-1.15 0-1.43 1.93-3.83 4.28-5.18 1.79-1.04 4.57-2.14 7.02-2.54 0 2.52-0.33 2.97-2.45 5.02zm6.7-10.96c0-2.42-1.13-4.9-5.2-4.9-3.48 0-7.43 0.64-10.87 3.12-1 0.15-1.9 0.99-1.9 2.24 0 1.3 1 2.2 2.22 2.2 1.23 0 2.32-0.86 2.45-1.85 1.7-1.2 4.71-2 7.11-2 1.85 0 1.94 0.5 1.94 1.7l0 2.1c-3.02 0.3-6.64 1.35-9.84 3.24-3.69 2.21-5.82 5.41-5.82 8.41 0 2.63 1.85 4.26 4.92 4.26 3.34 0 7.77-2.03 10.74-5.51l0 1.71c-0.14 0.2-0.38 0.5-0.38 1.25 0 1.1 0.71 1.95 2.22 1.95 1.18 0 2.74-0.4 2.74-2.05 0-0.44-0.04-0.85-0.33-1.19l0-14.68zm19.84-1.73c-0.34-1.55-1.1-2.72-2.79-2.72-0.7 0-1.18 0.25-2.83 1.2-1.14 0.64-2.75 2.04-4.07 3.18l0-1.39c0.14-0.55 0.19-0.8 0.19-1.1 0-1.09-0.76-1.99-2.13-1.99-1.08 0-2.46 0.6-2.46 2.19 0 0.4 0.04 0.7 0.14 1.1l0 15.54c-0.28 0.4-0.47 0.95-0.47 1.4 0 1.25 0.8 2.19 2.36 2.19 1.85 0 2.84-0.6 2.84-2.34 0-0.5-0.23-0.95-0.47-1.25l0-9.47c1.32-1.44 4.3-3.93 5.72-4.78-0.05 0.64-0.05 0.85-0.05 1.15 0 1.29 1.33 1.89 2.23 1.89 0.66 0 2.03-0.1 2.03-1.89 0-0.67-0.03-1.34-0.1-1.99-0.12-0.25-0.2-0.49-0.2-0.65l0.06-0.27zm21.26 8.16c-1 0-1.84 0.49-1.99 1.95-0.85 1.25-1.98 2.3-2.79 2.94-2.22 1.65-2.65 1.96-3.35 1.96-0.44 0-0.44-0.86-0.44-1.56l0-12.57 5.69-0.89c0.33 0.15 0.7 0.1 0.85 0.1 1.12 0 1.84-0.9 1.84-2.48 0-0.44-0.72-1.84-2.08-1.84-0.33 0-0.76 0.15-1 0.25l-5.3 0.8 0-2.98c0.25-0.35 0.29-0.75 0.29-1.2 0-1.48-1.22-1.74-2.07-1.74-1.28-0.04-2.61 0.31-2.61 1.9 0 0.25 0 0.65 0.15 1l0 3.67-2.66 0.41-0.52-0.1c-1.11 0.05-2.17 0.82-2.31 2.22 0.06 0.3 0.11 0.61 0.15 0.92 0.29 0.6 0.91 1.27 2.07 1.27 0.38-0.07 0.61-0.17 0.9-0.37l2.37-0.35 0 15.43c0 2.35 1.41 3.1 3.16 3.1 1.37 0 3.31-0.9 5.58-2.55 2.37-1.8 6.43-5.39 6.43-7.09 0-0.6-0.27-2.2-2.36-2.2zm35.58-7.96c0-1.43-0.81-3.47-2.6-3.47-2.04 0-4.03 1.29-9.9 5.61l0-1.1c0-2.13-0.38-4.51-2.74-4.51-0.66 0-1.84 0.19-3.36 1.19-1.28 0.79-2.18 1.39-6.38 4.07l0-1.79c0.32-0.54 0.32-0.84 0.32-1.14 0-1.29-0.71-2.33-2.08-2.33-1.42 0-2.79 0.29-2.79 2.33 0 0.64 0.09 0.94 0.29 1.34l0 15.67c-0.24 0.64-0.24 0.59-0.24 1.19 0 1.09 0.42 2.39 2.46 2.39 1.56 0 2.36-0.84 2.36-2.3 0-0.44-0.05-0.79-0.32-1.19l0-9.65c4.73-2.84 7.37-4.81 7.7-4.81 0.29 0 0.53 0.14 0.53 0.49l0 13.97c-0.29 0.3-0.48 0.75-0.48 1.29 0 1.16 0.58 2.2 2.23 2.2 1.7 0 2.5-0.69 2.5-3.04l0-9.75c7.2-4.97 7.38-5.06 7.76-5.06 0.49 0 0.49 0.44 0.49 1.04l0 13.57c-0.2 0.2-0.3 0.55-0.3 0.94 0 1.5 0.76 2.3 2.23 2.3 1.14 0 2.65-0.55 2.65-2.2 0-0.59-0.09-0.94-0.33-1.28l0-15.97zm17.28 0.84c2.12 0 2.46 1.51 2.46 2.06 0 0.8-0.53 1.09-1.75 1.45-1.65 0.45-4.06 1.05-7.17 1.71l-0.11-0.06c1.9-4.05 4.21-5.16 6.57-5.16zm0.57 7.31c4.58-1.05 6.24-2.55 6.24-4.75 0-3.45-2.88-6.27-6.53-6.27-3.49 0-6.65 1.58-9.06 4.77-2.04 2.7-3.31 6.3-3.31 10.29 0 4.2 2.32 7.71 6.76 7.71 2.83 0 5.28-0.64 7.69-2.48 1.9-1.43 3.97-3.48 3.97-4.78 0-0.94-0.84-2.04-2.4-2.04-1.2 0-2.32 0.75-2.28 2.19-1.7 2.35-4.48 3.4-6.27 3.4-2.08 0-3.12-1.3-3.12-3.5 0-1.19 0.04-1.94 0.24-2.69l8.07-1.85zm28.22-8.19c0-2.19-2.47-3.48-3.74-3.48-2.47 0-5.49 2.78-9.62 5.81l0-2.43c0.15-0.25 0.34-0.65 0.34-1.24 0-0.9-0.43-2.14-2.32-2.14-1.18 0-2.46 0.79-2.46 2.24 0 0.44 0.05 0.79 0.19 1.04l0 5.67c-0.33 0.54-0.48 1.19-0.48 1.69 0 0.45 0.1 0.95 0.48 1.34l0 7.76c-0.19 0.34-0.38 0.74-0.38 1.29 0 1.05 0.75 1.94 2.27 1.94 1.09 0 2.51-0.3 2.51-2.14 0-0.39-0.05-0.7-0.15-0.94l0-9.05c4.13-3.23 7.48-5.87 8.05-5.87 0.33 0 1.04 0.3 1.04 0.94l0 14.02c-0.13 0.35-0.24 0.6-0.24 0.85 0 1.24 0.86 2.19 2.28 2.19 1.41 0 2.36-0.65 2.36-2.29 0-0.4 0-0.69-0.13-1.04l0-16.16zm21.43 8c-1 0-1.85 0.49-1.99 1.95-0.85 1.25-1.98 2.3-2.79 2.94-2.22 1.65-2.64 1.96-3.36 1.96-0.43 0-0.43-0.86-0.43-1.56l0-12.57 5.68-0.89c0.33 0.15 0.72 0.1 0.86 0.1 1.14 0 1.84-0.9 1.84-2.48 0-0.44-0.7-1.84-2.08-1.84-0.33 0-0.75 0.15-0.99 0.25l-5.31 0.8 0-2.98c0.25-0.35 0.3-0.75 0.3-1.2 0-1.48-1.24-1.74-2.09-1.74-1.27-0.04-2.59 0.31-2.59 1.9 0 0.25 0 0.65 0.13 1l0 3.67-2.64 0.41-0.52-0.1c-1.18 0.05-2.37 0.89-2.37 2.49 0 0.54 0.61 1.92 2.27 1.92 0.38-0.07 0.62-0.17 0.9-0.37l2.36-0.35 0 15.43c0 2.35 1.42 3.1 3.17 3.1 1.38 0 3.31-0.9 5.58-2.55 2.37-1.8 6.43-5.39 6.43-7.09 0-0.6-0.28-2.2-2.36-2.2zm-367.74-118.57l0.05-2.96 9-0.05c0.61 0 0.89 0.47 0.82 1.42l0-0.05 0.05 1.59-9.92 0.05zm9.92 5.63c0 0.94-0.42 1.34-1.27 1.17l-8.65 0.05 0-3.15 9.92 0.05 0 1.88zm-13.24 11.51c-0.37-0.82-0.86-1.22-1.47-1.22-0.28 0-0.63 0.18-1.03 0.54-0.4 0.34-0.71 0.6-0.95 0.76 0.15-0.31 0.24-0.59 0.24-0.86 0-0.51-0.26-0.96-0.77-1.36l-5.99-4.37 9.97 0 0 6.51zm-0.06-23.85l-11.67-0.08c-0.44 0-0.8 0.21-1.07 0.62-0.28 0.42-0.43 0.91-0.43 1.47 0 1.12 0.43 1.69 1.3 1.69l11.87 0.05 0 2.96-13.94 0-0.03-7.53c0-0.88 0.42-1.31 1.25-1.31l12.72 0.04 0 2.09zm19.94 6.66l-3.31 0 0-3.11c0-1-0.31-1.85-0.95-2.58-0.63-0.73-1.39-1.09-2.31-1.09l-9.86 0.04 0-2.13 15.45 0.08c0.85 0 1.27-0.59 1.27-1.75 0-1.32-0.5-1.98-1.51-1.98l-16.06 0-0.05-3.06c0-1.03-0.51-1.54-1.53-1.54-1.18 0-1.77 0.55-1.77 1.63l0.1 2.97-11.61 0c-3.37-0.04-5.07 1.54-5.07 4.71l0.05 9.82c0 6.94-0.29 11.71-0.87 14.32-0.58 2.61-1.54 5.51-2.88 8.73-0.24 0.47-0.35 0.92-0.35 1.34 0 1.21 0.52 1.82 1.54 1.82 0.43 0 0.84-0.18 1.22-0.52 0.73-0.65 1.63-2.87 2.7-6.64 0.74-2.58 1.25-5.31 1.56-8.17 0.3-2.86 0.46-5.93 0.46-9.19l13.9-0.05 0 3.3c-6.92 0-10.81 0.02-11.7 0.05-0.89 0.03-1.33 0.56-1.33 1.6 0 0.42 0.08 0.8 0.25 1.1-0.51 0.36-0.77 0.85-0.77 1.5 0 0.76 0.29 1.33 0.87 1.71l6.21 4.85c0.65 0.49 1.19 0.7 1.62 0.6-1.77 1.3-4.92 3.22-9.45 5.76-0.61 0.33-0.92 0.87-0.92 1.61 0 0.48 0.15 0.91 0.43 1.28 0.28 0.38 0.62 0.56 1.01 0.56 0.35 0 1.94-0.78 4.77-2.35 2.82-1.57 5.62-3.51 8.41-5.85l0.02 0 0.58-0.91 0 5.49c0 1.1-0.42 1.65-1.25 1.65-0.29 0-0.8-0.13-1.52-0.41-0.73-0.29-1.27-0.56-1.63-0.85-0.37-0.28-0.67-0.42-0.93-0.42-0.48 0-0.93 0.25-1.37 0.76-0.42 0.51-0.64 1.03-0.64 1.6 0 0.83 0.7 1.62 2.08 2.38 1.38 0.77 2.63 1.15 3.73 1.15 1.4 0 2.55-0.5 3.46-1.48 0.91-0.99 1.38-2.09 1.41-3.32 0.02-1.22 0.03-3.87 0.03-7.93 1.64 2.29 4.11 4.8 7.4 7.54 3.29 2.72 5.84 4.09 7.67 4.09 0.95 0 1.44-0.67 1.44-2.01 0-0.93-0.28-1.45-0.82-1.56-3.49-1.19-6.75-3.35-9.79-6.49 0.59-0.04 1.07-0.2 1.45-0.46 0.37-0.26 1.15-0.81 2.35-1.68 1.19-0.88 2.44-1.84 3.76-2.9 1.32-1.06 2.05-1.72 2.21-1.96 0.16-0.25 0.24-0.55 0.24-0.92 0-0.5-0.14-0.95-0.45-1.35-0.29-0.39-0.65-0.59-1.07-0.59-0.29 0-0.57 0.11-0.82 0.32-0.25 0.22-1.21 0.98-2.9 2.3-1.7 1.32-3.06 2.35-4.1 3.11-1.05 0.74-1.64 1.32-1.79 1.71-0.16 0.39-0.23 0.67-0.23 0.85-2.17-2.21-3.69-3.94-4.55-5.19-0.05-0.38-0.02-0.81 0.08-1.31 1.76-0.05 3.21-0.08 4.37-0.08l4.15 0.08c0.9 0 1.68-0.18 2.34-0.54 0.66-0.35 1.18-0.83 1.54-1.42 0.36-0.6 0.57-1.32 0.62-2.18 0.05-0.85 0.08-1.75 0.1-2.69l3.26-0.1c0.84 0 1.26-0.58 1.26-1.74 0-1.27-0.4-1.91-1.21-1.91zm29.32 6.47c-0.99 0.01-1.49-0.57-1.49-1.74l0-4.23 5.64 0 0 4.18c0 1.16-0.46 1.74-1.39 1.74l-2.76 0.05zm-1.49-13.08c0-0.56 0.09-0.94 0.26-1.16 0.17-0.21 0.57-0.32 1.18-0.32l2.59 0c0.68 0 1.11 0.1 1.31 0.31 0.2 0.21 0.3 0.65 0.3 1.33l0 3.85-5.64 0 0-4.01zm13.92 5.4c-1.61 3.22-2.94 5.63-3.98 7.2-0.38 0.14-0.63 0.27-0.75 0.4l-0.27 0.25-0.05-12.4 5.05 4.55zm9.39 26.23c-5.81-1.85-11.6-5.11-17.4-9.76 2.39 0.05 4.8 0.07 7.23 0.07 6.09 0 9.33-0.07 9.75-0.22 0.41-0.15 0.62-0.59 0.62-1.32 0-1.1-0.56-1.64-1.67-1.64l-17.64 0 0-2.78 2.38 0c0.5 0 1.02-0.26 1.55-0.79 0.3-0.3 0.49-0.63 0.62-0.98 0.04 0.27 0.07 0.53 0.22 0.8 0.21 0.4 0.46 0.6 0.72 0.6l0.2-0.05 10.04-1.12c0.94 2.16 1.49 3.3 1.63 3.45 0.14 0.15 0.33 0.23 0.56 0.23 0.4 0 0.78-0.18 1.17-0.54 0.38-0.35 0.57-0.75 0.57-1.2 0-0.25-0.53-1.64-1.58-4.17-1.05-2.54-1.82-4.2-2.3-5.01-0.48-0.8-0.98-1.21-1.49-1.21-0.4 0-0.75 0.15-1.06 0.47-0.3 0.3-0.46 0.65-0.46 1.08 0 0.23 0.05 0.46 0.16 0.69l1.41 3.43c-2.09 0.29-3.68 0.48-4.77 0.55 1.85-3.22 3.51-6.55 4.98-10.02 1.47-3.46 2.19-5.28 2.19-5.46 0-0.38-0.2-0.75-0.62-1.08-0.43-0.34-0.86-0.51-1.31-0.51-0.5 0-0.82 0.21-0.97 0.64-1.16 3.02-2.09 5.26-2.78 6.71l-2.07-1.94c2.19-5.84 3.28-9.03 3.28-9.56 0-0.3-0.18-0.57-0.57-0.81-0.4-0.23-0.83-0.36-1.28-0.36-0.6 0-0.97 0.21-1.1 0.63-1.06 3.47-2.03 6.14-2.91 8.02-0.25-0.1-0.47-0.16-0.67-0.16-0.42 0-0.77 0.22-1.07 0.62l0.05-1.43c0-1.53-1.56-2.22-4.67-2.09 0.16-2.51 0.24-3.92 0.24-4.25 0-0.96-0.47-1.43-1.44-1.43-0.43 0-0.8 0.14-1.11 0.43-0.32 0.29-0.49 0.72-0.51 1.3-0.03 0.58-0.12 1.9-0.29 3.95-0.52-0.05-0.98-0.07-1.37-0.07-2.08 0-3.13 0.94-3.13 2.83l0.06 15.35c0.01 0.51 0.28 1.07 0.79 1.64 0.52 0.58 1.43 0.88 2.75 0.88 0.23 0 0.49-0.02 0.75-0.06l-0.03 2.78c-5.24-0.05-9.13-0.07-11.68-0.07-2.84 0-4.49 0.01-4.93 0.04-0.46 0.02-0.82 0.19-1.1 0.51-0.28 0.3-0.42 0.67-0.42 1.08 0 0.97 0.52 1.48 1.56 1.55l15.73 0c-2.1 2.1-5.43 4.4-9.99 6.9-4.55 2.51-7.09 3.96-7.61 4.37-0.52 0.42-0.79 0.87-0.79 1.38 0 0.88 0.53 1.31 1.59 1.31 0.38 0 1.5-0.44 3.36-1.34 1.85-0.89 4.22-2.19 7.11-3.89 2.88-1.7 5.27-3.46 7.17-5.28l0.03 5.59 0 3.48c0.02 0.73 0.17 1.21 0.46 1.42 0.29 0.23 0.65 0.35 1.06 0.35 1.23 0 1.8-0.78 1.72-2.33-0.07-1.55-0.08-4.74-0.03-9.58 4.56 3.69 8.47 6.31 11.77 7.87 3.29 1.54 5.38 2.32 6.27 2.32 0.53 0 1-0.18 1.39-0.51 0.4-0.34 0.6-0.71 0.6-1.1 0-0.52-0.3-0.92-0.92-1.2zm-41.35-18.16c-0.34 0.17-0.5 0.52-0.5 1.07 0 0.43 0.12 0.81 0.38 1.14 0.26 0.31 0.61 0.47 1.03 0.45l11.09-0.87c0.48 1.49 1.14 2.24 1.96 2.24 0.95 0 1.48-0.54 1.59-1.62l-3.05-7.42c-0.25-0.59-0.65-0.87-1.2-0.87-0.41 0-0.79 0.16-1.14 0.49-0.34 0.34-0.52 0.73-0.52 1.2 0 0.29 0.13 0.73 0.4 1.3 0.26 0.57 0.48 1.15 0.67 1.72-1.63 0.28-2.87 0.45-3.76 0.48 1.09-1.68 2.4-4.18 3.93-7.52 1.55-3.34 2.67-5.66 3.41-6.99 0.11-0.22 0.17-0.43 0.17-0.65 0-0.38-0.19-0.7-0.56-0.97-0.38-0.26-0.8-0.39-1.28-0.39-0.73 0-1.23 0.3-1.52 0.89-0.3 0.6-0.75 1.72-1.39 3.37-0.63 1.66-1.04 2.69-1.24 3.09l-1.94-1.84 3.73-10.48 0.05-0.25c0-0.32-0.2-0.63-0.62-0.93-0.42-0.31-0.84-0.46-1.27-0.46-0.33 0-0.57 0.08-0.73 0.22-0.16 0.15-0.67 1.38-1.53 3.68l-2.32 6.05c-0.22-0.21-0.49-0.42-0.86-0.66-0.38-0.25-0.71-0.48-0.98-0.7-0.28-0.21-0.51-0.32-0.71-0.32-0.38 0-0.71 0.18-1 0.52-0.27 0.35-0.42 0.72-0.42 1.12 0 0.3 0.07 0.51 0.2 0.62 0.13 0.12 1.09 0.93 2.86 2.44 1.77 1.5 3.12 2.72 4.05 3.62-0.91 1.92-2.22 4.2-3.93 6.84-1.71 0.09-2.72 0.23-3.05 0.39zm76.67 9.65c-4.42-3.76-7.73-8.57-9.91-14.43l0.05 0.05 17.22 0.05c0.58 0 0.87 0.28 0.87 0.82 0 1.01-0.66 2.86-1.98 5.53-1.31 2.68-3.4 5.34-6.25 7.98zm-11.71-27.25l13.25 0c0.67 0 1 0.36 1 1.07 0 1.17-0.69 3.87-2.04 8.08-2.62 0.05-5.33 0.08-8.12 0.08-2.41 0-3.85-0.03-4.34-0.08 0.25-4.55 0.34-7.6 0.25-9.15zm26.6 36.72c-5.8-2.82-9.89-5.14-12.25-6.95 2.75-2.75 4.96-5.79 6.64-9.11 1.68-3.32 2.53-5.87 2.53-7.64 0-0.98-0.28-1.86-0.85-2.64-0.56-0.79-1.49-1.18-2.78-1.18l-4.28 0.04c1.57-5.17 2.36-8.29 2.36-9.37 0-1.08-0.26-1.93-0.81-2.54-0.53-0.6-1.19-0.91-1.97-0.91l-27.06-0.05c-1 0-1.49 0.65-1.49 1.94 0 1.1 0.43 1.64 1.29 1.64l8.84-0.05c0.12 5.03-0.19 9.82-0.94 14.38-0.74 4.58-1.88 8.53-3.41 11.86-1.52 3.32-3.62 6.65-6.31 9.98-0.33 0.38-0.49 0.8-0.49 1.25 0 0.41 0.15 0.81 0.44 1.2 0.3 0.39 0.66 0.58 1.07 0.58 1.46 0 3.54-2.48 6.23-7.45 2.69-4.97 4.52-10.52 5.48-16.64 2.37 5.58 5.73 10.48 10.09 14.71-4.18 3.28-9.42 5.56-15.74 6.85-0.77 0.14-1.16 0.66-1.16 1.59 0 1.24 0.42 1.86 1.27 1.86 0.89 0 2.94-0.43 6.13-1.29 3.2-0.86 6.55-2.6 10.07-5.21 0.96-0.72 1.68-1.21 2.16-1.47 2.27 1.84 4.97 3.58 8.09 5.23 3.12 1.64 4.97 2.47 5.55 2.47 0.48 0 0.89-0.23 1.24-0.67 0.33-0.45 0.51-0.94 0.51-1.49 0-0.48-0.16-0.79-0.45-0.92zm29.83-12.02c-4.94-5.7-7.93-12.32-8.96-19.84l17.71 0c-0.93 7.66-3.85 14.28-8.75 19.84zm19.56-23.6l-18.19 0 0-5.81c0-1.04-0.54-1.57-1.62-1.57-0.99 0-1.53 0.46-1.62 1.37l-0.05 6.1-16.62 0c-0.98 0-1.57 0.11-1.75 0.3-0.19 0.19-0.33 0.43-0.43 0.72-0.08 0.29-0.13 0.59-0.13 0.91 0 1.16 0.4 1.74 1.19 1.74l7.31-0.06c0.96 8.12 4.22 15.67 9.79 22.67-4.43 4.07-10.18 7.16-17.27 9.29-0.55 0.22-0.82 0.76-0.82 1.59 0 1.32 0.55 1.98 1.66 1.98 1.2 0 3.83-1 7.92-2.99 4.08-2 7.74-4.51 10.95-7.54 3.36 3.21 7.08 5.82 11.15 7.83 4.08 2 6.56 3 7.43 3 0.49 0 0.89-0.22 1.21-0.65 0.32-0.43 0.49-0.91 0.49-1.44 0-0.75-0.3-1.2-0.87-1.37-6.07-1.44-11.7-4.72-16.9-9.83 5.46-6.23 8.72-13.76 9.76-22.58l5.95 0.07c0.66 0 1.18-0.01 1.55-0.01 0.37-0.02 0.67-0.19 0.88-0.55 0.21-0.35 0.32-0.78 0.32-1.28 0-1.24-0.43-1.87-1.29-1.89zm20.87-7.43c-0.9 0-1.36 0.41-1.41 1.24-1.01 6.21-2.1 10.71-3.27 13.49-1.15 2.78-2.53 5.06-4.12 6.83-0.48 0.55-0.93 1.03-1.35 1.44-0.43 0.41-0.64 0.91-0.64 1.47 0 0.68 0.2 1.17 0.58 1.49 0.37 0.31 0.76 0.46 1.14 0.46 0.51 0 1.17-0.47 1.97-1.43 0.79-0.96 1.65-2.14 2.58-3.55l0 23.35c0 1.31 0.51 1.96 1.54 1.96 0.44 0 0.84-0.14 1.19-0.44 0.35-0.29 0.52-0.63 0.52-1.02l0-30.21 1.17-3.61c0.35-1.16 0.65-2.34 0.91-3.55 0.25-1.21 0.49-2.37 0.68-3.51 0.2-1.12 0.3-1.95 0.3-2.5 0-1.27-0.59-1.91-1.79-1.91zm28.01 30.21c-0.45 0-0.85 0.16-1.2 0.48-0.34 0.32-0.51 0.71-0.51 1.18l0.15 3.15c0 1.93-0.28 3.43-0.83 4.51-0.54 1.09-1.25 1.83-2.11 2.24-0.86 0.41-2.84 0.61-5.94 0.61-2.93 0-4.9-0.65-5.89-1.95-1-1.31-1.46-3.24-1.39-5.82 0.07-2.57 0.08-6.12 0.02-10.64 3.06-2.09 5.85-4.13 8.41-6.13 2.55-2.01 4.89-4.02 7.04-6.06 2.14-2.03 3.29-3.21 3.45-3.57 0.16-0.36 0.24-0.68 0.24-0.98 0-0.48-0.14-0.91-0.44-1.31-0.28-0.38-0.66-0.58-1.1-0.58-0.41 0-0.77 0.19-1.07 0.57-5 5.03-10.52 9.62-16.53 13.74l-0.04 0.05 0.04-18.32c0-1.23-0.5-1.85-1.49-1.85-0.46 0-0.87 0.17-1.23 0.52-0.35 0.34-0.53 0.79-0.53 1.33l0 34.66c0 3.07 0.76 5.49 2.29 7.27 1.52 1.78 4.55 2.67 9.12 2.67 4.47 0 7.46-0.97 8.99-2.92 1.52-1.94 2.29-4.6 2.29-7.96 0-2.24-0.15-3.61-0.45-4.12-0.29-0.52-0.73-0.77-1.29-0.77zm45.92-3.74l0 1.73-12.16 0 0-2.78 11.23 0c0.65 0 0.97 0.35 0.97 1.05l-0.04 0zm0.04 6.77c0 1.02-0.31 1.54-0.91 1.54l-11.24 0.05 0-2.81 12.15 0 0 1.22zm-15.58-16.84l-11.18 0c-0.37 0-0.57-0.36-0.57-1.08 0-0.14 0.02-0.51 0.07-1.07 0.05-0.57 0.34-0.87 0.87-0.87l10.81 0 0 3.02zm3.38-3.02l10.96 0c0.4 0 0.6 0.48 0.6 1.42 0 1.03-0.27 1.54-0.79 1.54l-10.77 0.06 0-3.02zm18.32 14.86l-2.94 0 0.08-2.6c0-1.02-0.33-1.92-1-2.71-0.68-0.8-1.47-1.19-2.4-1.19l-12.1 0-0.04-1.62 10.97 0c2.51 0 3.78-1.77 3.78-5.32 0-1.87-0.37-3.16-1.11-3.88-0.74-0.72-1.48-1.08-2.23-1.08l-11.37 0-0.04-1.84c2.55-0.04 5.59-0.05 9.15-0.05 5.24 0 8.33 0.01 9.25 0.05 0.93 0.03 1.39-0.53 1.39-1.69 0-1.23-0.39-1.88-1.19-1.96l-18.56 0c0.04-0.47 0.04-1.26-0.02-2.36-0.06-1.12-0.63-1.67-1.73-1.67-1.1 0-1.66 0.71-1.66 2.14l0.02 1.94-8.09 0-7.02-0.03-3.13 0.03c-0.38 0-0.68 0.17-0.91 0.5-0.22 0.34-0.33 0.76-0.33 1.26 0 1.16 0.42 1.74 1.24 1.74l18.22 0.05 0.02 1.89-9.17-0.08c-1.92 0-3.16 0.1-3.72 0.31-0.57 0.21-1.04 0.67-1.43 1.36-0.39 0.71-0.59 1.91-0.59 3.59 0 3.47 1.19 5.2 3.56 5.2l11.45-0.05-0.1 1.62-14.39-0.05c-0.41 0-0.77 0.19-1.08 0.59-0.3 0.39-0.46 0.91-0.46 1.52 0 0.39 0.16 0.74 0.46 1.03 0.31 0.29 0.7 0.43 1.16 0.43l14.29 0 0 3.03-17.4 0c-0.56 0-0.97 0.19-1.23 0.59-0.25 0.38-0.39 0.75-0.39 1.1 0 1.26 0.46 1.89 1.38 1.89l17.64-0.05 0 3.15-14.73-0.02c-0.98-0.02-1.48 0.64-1.48 1.97 0 1.13 0.42 1.7 1.25 1.7l14.96-0.04 0.02 2.29c0 1.07-0.59 1.61-1.76 1.61-0.82 0-1.87-0.25-3.12-0.76-1.25-0.5-2.14-0.76-2.68-0.76-0.6 0-1.07 0.25-1.38 0.74-0.31 0.48-0.47 0.98-0.47 1.48 0 0.49 0.12 0.87 0.4 1.16 0.26 0.28 1.25 0.69 2.97 1.22 1.7 0.53 3.18 0.79 4.41 0.79 1.53 0 2.78-0.34 3.72-1.04 0.95-0.69 1.4-1.73 1.37-3.12-0.04-1.38-0.05-2.62-0.03-3.72l-0.04 0 5.58-0.02 5.85-0.02c0.83 0 1.55-0.21 2.16-0.62 0.61-0.42 1.09-0.95 1.43-1.59 0.33-0.63 0.51-1.29 0.51-1.97l-0.05-2.48c0.26 0.03 1.23 0.05 2.91 0.05 1.05 0 1.58-0.55 1.58-1.66 0-0.52-0.14-0.98-0.44-1.38-0.3-0.41-0.69-0.6-1.17-0.59zm35.38-19.37l8.37 0c-0.72 3.32-2.04 5.83-3.95 7.57-1.98-1.9-3.46-4.43-4.42-7.57zm15.44 13.49c-4.1-1.26-6.87-2.46-8.33-3.58 2.23-2.37 3.83-5.67 4.79-9.91 0.91 0 1.8 0.01 2.66 0.02 0.86 0.02 1.29-0.55 1.29-1.71 0-1.33-0.43-2-1.29-2.01l-14.19-0.05c0.24-1.29 0.35-2.31 0.35-3.06 0-1.13-0.62-1.69-1.86-1.69-0.98 0-1.5 0.39-1.57 1.17 0 5.02-1.93 9.16-5.77 12.42-0.35 0.28-0.51 0.64-0.51 1.09 0 0.49 0.16 0.92 0.49 1.3 0.33 0.38 0.72 0.57 1.17 0.57 1.14 0 2.78-1.59 4.89-4.74 1.17 2.66 2.5 4.83 4.03 6.5-1.62 1.1-3.91 2.19-6.86 3.31-0.57 0.24-0.85 0.76-0.85 1.54 0 1.29 0.56 1.94 1.67 1.94 0.63 0 1.87-0.47 3.73-1.39 1.86-0.93 3.56-1.91 5.12-2.93 1.89 1.47 3.96 2.61 6.22 3.42 2.27 0.81 3.65 1.22 4.17 1.22 0.45 0 0.81-0.21 1.12-0.64 0.3-0.42 0.44-0.9 0.44-1.45 0-0.85-0.3-1.31-0.91-1.34zm-24.88 1.14c0 0.8-0.73 2.69-2.16 5.66-0.14 0.34-0.2 0.65-0.2 0.95 0 0.49 0.16 0.92 0.52 1.25 0.34 0.34 0.75 0.52 1.21 0.52 0.65 0 1.23-0.48 1.73-1.43 0.51-0.96 0.98-2.14 1.43-3.55 0.45-1.4 0.67-2.84 0.67-4.32 0-2.63-1.19-3.95-3.58-3.95l-1.96 0.05-1.59-2.68c2.72-1.99 4.63-3.94 5.75-5.88 1.12-1.92 1.68-3.41 1.68-4.43 0-0.73-0.26-1.39-0.78-1.99-0.53-0.59-1.04-0.89-1.54-0.89l-15.84 0.1c-0.36 0.02-0.66 0.2-0.91 0.56-0.26 0.35-0.39 0.75-0.39 1.19 0 0.81 0.39 1.41 1.17 1.82l14.79 0c-1.41 2.74-3.44 4.97-6.1 6.71l-3.89-4.42c-0.25-0.29-0.62-0.45-1.1-0.45-0.45 0-0.85 0.16-1.2 0.49-0.36 0.32-0.54 0.7-0.54 1.16 0 0.47 0.16 0.86 0.46 1.13 0.31 0.29 1.13 1.19 2.46 2.73 1.34 1.53 2.55 3.13 3.64 4.8-1.24 0.05-2.66 0.08-4.25 0.08l-3.28-0.03c-0.97 0-1.58 0.09-1.81 0.26-0.23 0.18-0.41 0.41-0.55 0.71-0.13 0.3-0.2 0.62-0.2 0.97 0 1.11 0.45 1.69 1.34 1.74l7.73-0.05c-1.73 3.89-4.6 7.74-8.57 11.55-0.26 0.28-0.4 0.65-0.4 1.1 0 0.49 0.16 0.93 0.48 1.33 0.31 0.38 0.68 0.57 1.12 0.57 1.41 0 4-2.83 7.72-8.52 0.03 1.48 0.05 5.79 0.05 12.94 0 1.07-0.57 1.6-1.72 1.6-1.28 0-2.96-0.47-5.04-1.39l-0.54-0.13c-0.45 0-0.84 0.22-1.16 0.65-0.32 0.43-0.49 0.92-0.49 1.46 0 0.49 0.13 0.85 0.38 1.11 0.24 0.26 1.12 0.6 2.66 1.06 1.52 0.44 2.72 0.67 3.6 0.67 1.62 0 2.96-0.39 4.01-1.16 1.06-0.77 1.59-1.86 1.59-3.27l0.02-19.57c1.74 0 2.77 0.06 3.09 0.16 0.33 0.11 0.49 0.45 0.49 1.03zm22.29 4.87c-0.55-0.65-1.99-0.94-4.31-0.88-2.33 0.06-3.86 0.06-4.59 0.01l0-2.71c0-1.21-0.51-1.81-1.54-1.81-0.46 0-0.88 0.17-1.24 0.52-0.37 0.35-0.55 0.78-0.55 1.29l0.1 2.76-6.44-0.05c-0.99 0-1.49 0.66-1.49 1.96 0 1.13 0.43 1.7 1.29 1.7l6.41 0c-0.52 6.38-4.44 10.32-11.73 11.79-0.46 0.15-0.69 0.62-0.69 1.4 0 1.39 0.61 2.08 1.82 2.08 0.72 0 2.46-0.56 5.2-1.68 2.74-1.11 4.82-2.75 6.23-4.9 1.4-2.16 2.27-5.05 2.58-8.69l5.99 0c0.55 0 0.82 0.46 0.82 1.41 0 3.47-0.06 5.77-0.17 6.88-0.12 1.11-0.52 1.95-1.19 2.54-0.66 0.58-1.57 0.86-2.72 0.86-0.58 0-1.25-0.19-2.02-0.59-0.77-0.4-1.28-0.6-1.53-0.6-0.43 0-0.79 0.23-1.08 0.67-0.29 0.44-0.43 0.97-0.43 1.57 0 0.68 0.2 1.2 0.62 1.56l0 0.05c1.62 0.68 3.18 1.02 4.67 1.02 2.05 0 3.8-0.72 5.24-2.16 1.44-1.45 2.16-4.54 2.16-9.29 0-2.65-0.09-4.27-0.29-4.86-0.2-0.59-0.57-1.2-1.12-1.85zm34.37-6.48l0-2.73 6.46 0c-2.33 1.87-4.25 2.8-5.74 2.8-0.23 0-0.47-0.02-0.72-0.07zm10.19 8.87c0.22 0.22 0.32 0.69 0.32 1.42 0 0.25-0.03 0.83-0.1 1.74l-20.97 0 0-1.35 4.4-2.08 16.35 0.27zm-0.15 11.08l-20.35-0.14c-0.22-0.41-0.32-1.07-0.32-2l0.07-2.08 0.03-0.05 20.9 0 0.12 2.41c0 0.94-0.15 1.57-0.45 1.86zm-15.16-36.62l7.78 0 0 4.87-7.78 0 0-4.87zm-3.31 4.87l-6.95-0.1c-0.2-0.29-0.3-0.84-0.3-1.64l0.07-2.38c0-0.5 0.11-0.75 0.32-0.75l6.86 0 0 4.87zm14.44-4.87l7.23 0.05c0.25 0.25 0.38 0.83 0.38 1.74 0 2.05-0.15 3.08-0.45 3.08l-7.16 0 0-4.87zm4.82 10.48l-10.96-0.27 0.06-1.76 13.69-0.13-2.66 2.36-0.13-0.2zm0.9 9.62c2.76-0.01 5.07-0.09 6.98-0.23 0.37-0.44 0.55-0.93 0.55-1.46 0-0.6-0.23-1.16-0.7-1.69l-9.86-0.15c4.41-2.95 7.1-5.34 8.07-7.15-0.31-1.11-0.76-1.74-1.36-1.89 0.91-0.62 1.36-2.03 1.36-4.25l-0.11-3.06c-0.04-0.89-0.19-1.54-0.45-1.95-0.25-0.4-0.6-0.8-1.05-1.2-0.45-0.39-0.82-0.6-1.12-0.6l-29.55-0.05c-0.02 0-0.21 0.03-0.56 0.08-0.34 0.05-0.51 0.07-0.51 0.07-1.61 0.88-2.4 2.45-2.4 4.7 0 0.46 0.03 1.16 0.1 2.09 0.08 0.92 0.12 1.59 0.12 2.01 0 0.56 0.32 1.19 0.97 1.9 0.64 0.7 1.19 1.05 1.64 1.05l12.91 0.23-0.04 1.81-13.94 0c-0.55 0-0.99 0.17-1.33 0.52-0.34 0.35-0.51 0.78-0.51 1.27 0 0.76 0.37 1.34 1.11 1.74l14.67-0.05 0 2.78c-12.03 0-18.12 0.07-18.27 0.22-0.36 0.4-0.54 0.87-0.54 1.39 0 0.72 0.29 1.28 0.9 1.69l17.54 0.18c-6.23 3.25-12.3 5.7-18.19 7.38-0.39 0.36-0.58 0.8-0.58 1.31 0 0.71 0.31 1.29 0.93 1.77 1.95-0.25 4.51-0.92 7.68-2.01l0.09 6.75c0.04 0.63 0.06 1.24 0.11 1.83 0.03 0.59 0.33 1.22 0.91 1.89 0.58 0.67 1.19 1.06 1.83 1.15 0.64 0.11 1.57 0.15 2.77 0.15l4.45-0.07 5.76 0.05c5.89 0 8.96-0.08 9.23-0.25 0.8-0.51 1.42-1.12 1.82-1.83 0.4-0.7 0.61-2.65 0.61-5.85 0-1.52-0.04-3.23-0.13-5.11-0.08-1.9-0.2-2.97-0.35-3.21-0.16-0.25-0.37-0.54-0.64-0.87-0.26-0.34-0.55-0.62-0.84-0.85-0.29-0.24-0.55-0.37-0.8-0.37l-10.86-0.14 3.18-1.72 8.4 0z"/>
  <path fill="#bbe2ef" d="M322.72 251.44c-18.65 82.77-141.89-93.38-157.11-18.23 6.3-90.7 150.87 84.91 151.09-15.93l0.2-0.32c8.96 22.81 6.55 26.9 5.82 34.48zm-51.71-32.5c11.27 0 20.4-7.36 20.4-16.44 0-9.09-9.13-16.46-20.4-16.46-11.27 0-20.4 7.37-20.4 16.46 0 9.08 9.13 16.44 20.4 16.44zm10.68 140.54c9.67-4.76 18.46-11.02 26.08-18.51 29.35-138.81-148.93-10.08-212.32 69.17 183.72-136.96 204.48-110.8 186.24-50.66z"/>
  <path fill="#81303f" d="M942.6 258.28l0 0 34.56 20.74 27.14-8.21 0-31.2-61.7 18.67zm126.86 33.41l0-68.5-16.7-22.64 0 96.28 16.7-5.14zm-126.86-14.04l-23.14 6.97 0 10.89 23.14-7 0-10.86zm0 14.02l-23.14 6.99 0 10.87 23.14-7.12 0-10.74zm0 14.02l-23.14 7.02 0 10.67 23.14-7 0-10.69zm-23.15-40.4l0.01 16.12 23.14-7 0-16.13-23.15 7.01zm23.16 109.11l0-54.68-23.14 6.98-0.01 54.8 23.15-7.1zm-51.33 16.39c0.14 0.46 0.56 0.76 1.02 0.76 0.1 0 0.2-0.01 0.31-0.04l84.55-25.45 0-2.23-85.17 25.63c-0.56 0.17-0.88 0.77-0.71 1.33zm524.43-229.76l-8.03 2.41-0.25 25.31c0 0.4-0.21 0.86-0.51 0.95l-5.35 1.61c-0.35 0.1-0.6-0.28-0.6-0.62l0.26-25.31-7.82 2.35c-0.3 0.09-0.65-0.09-0.65-0.38l0.04-3.42c0-0.34 0.31-0.65 0.61-0.75l7.87-2.36 0.19-18.64c0-0.34 0.26-0.82 0.51-0.9l5.4-1.62c0.25-0.08 0.55 0.23 0.54 0.58l-0.19 18.63 7.97-2.39c0.36-0.11 0.71 0.07 0.7 0.42l-0.03 3.13c-0.01 0.51-0.36 0.9-0.66 1zm-30.59 20.39l-6.25 1.88-0.11 10.37 6.26-1.88 0.1-10.37zm5.98-19.08l-17.8 5.36c-0.3 0.08-0.66-0.09-0.65-0.38l0.03-3.3c0-0.35 0.31-0.67 0.61-0.75l17.81-5.36c0.35-0.11 0.7 0.07 0.7 0.42l-0.03 3.02c-0.01 0.51-0.37 0.9-0.67 0.99zm-0.08 8.44l-17.81 5.35c-0.3 0.09-0.65-0.09-0.65-0.37l0.04-3.31c0-0.34 0.31-0.66 0.61-0.75l17.8-5.35c0.36-0.11 0.71 0.07 0.7 0.41l-0.03 3.02c-0.01 0.52-0.36 0.91-0.66 1zm-0.34 22.94c-0.46 0.65-1.06 1.12-1.87 1.37l-14.02 4.21c-0.66 0.2-1.21 0.2-1.61-0.03-0.55-0.34-0.9-0.98-0.89-1.95l0.14-13.45c0.01-0.8 0.32-1.63 0.83-2.35 0.51-0.78 1.22-1.39 2.03-1.64l13.46-4.05c0.81-0.24 1.56-0.07 2.06 0.41 0.5 0.47 0.79 1.24 0.79 2.09l-0.14 12.94c-0.01 0.92-0.32 1.75-0.78 2.45zm1.42-40.2l-19.42 5.84c-0.3 0.09-0.65-0.09-0.65-0.38l0.03-3.3c0-0.34 0.31-0.66 0.61-0.76l6.66-2-1.37-3.22c-0.2-0.51 0.16-1.18 0.56-1.31l5.05-1.52c0.5-0.15 1 0.05 1.2 0.44l1.52 3.52 5.8-1.74c0.36-0.11 0.71 0.07 0.7 0.41l-0.03 3.02c0 0.52-0.36 0.91-0.66 1zm71.14 18.22c-0.56 0.79-1.32 1.48-2.08 1.7l-8.32 2.51c-0.2 0.06-0.45-0.04-0.5-0.19l-1.27-3.15c-0.05-0.15 0.1-0.71 0.35-0.78l6.61-1.99 0.45-44.64c0.01-0.45 0.42-0.97 0.87-1.11l4.64-1.4c0.31-0.09 0.7 0.25 0.7 0.65l-0.46 45.66c-0.01 0.85-0.43 1.89-0.99 2.74zm-8.14-5.51l-4.54 1.36c-0.35 0.11-0.55-0.29-0.54-0.63l0.35-35.11c0-0.29 0.26-0.76 0.51-0.84l4.59-1.38c0.25-0.07 0.55 0.17 0.55 0.52l-0.36 35.11c0 0.4-0.26 0.88-0.56 0.97zm-13.46-31.07l-3.83 1.15-0.03 2.73 3.83-1.15 0.03-2.73zm-0.06 5.75l-3.83 1.15-0.03 2.63 3.83-1.16 0.03-2.62zm-0.12 21.86l-3.94 1.19-0.02 2.56 3.93-1.18 0.03-2.57zm-0.06 5.42l-3.93 1.18-0.03 2.51 3.94-1.18 0.02-2.51zm-10.03-2.38l-3.89 1.17-0.02 2.56 3.89-1.17 0.02-2.56zm-0.05 5.41l-3.89 1.17-0.02 2.51 3.88-1.17 0.03-2.51zm15.13-0.23c-0.51 0.78-1.27 1.41-2.07 1.65l-20.43 6.14c-0.81 0.24-1.51-0.06-2.01-0.59-0.44-0.44-0.69-1.16-0.69-1.84l0.08-7.41c0.01-0.86 0.37-1.7 0.93-2.44 0.61-0.75 1.37-1.32 2.18-1.57l19.77-5.94c0.96-0.29 1.87-0.27 2.46 0.28 0.45 0.44 0.7 1.16 0.68 2.3l-0.07 6.95c-0.01 0.86-0.31 1.75-0.83 2.47zm2.24-32.21l-1.61 0.48-0.02 1.94c-0.01 0.97-0.22 1.88-0.68 2.64-0.51 0.95-1.28 1.64-2.29 1.94l-6.4 1.93-0.02 2.62 9.57-2.88c0.36-0.11 0.66 0.09 0.65 0.43l-0.01 1.71c-0.01 0.34-0.31 0.72-0.61 0.81l-9.64 2.89-0.02 2.57 10.69-3.22c0.35-0.1 0.65 0.09 0.65 0.43l-0.02 1.72c0 0.34-0.26 0.7-0.56 0.79l-27.24 8.19c-0.3 0.09-0.65-0.09-0.65-0.37l0.02-1.83c0-0.34 0.31-0.66 0.61-0.75l10.14-3.05 0.03-2.56-9.28 2.79c-0.3 0.09-0.66-0.09-0.65-0.38l0.02-1.82c0-0.34 0.31-0.66 0.61-0.75l9.33-2.81 0.02-2.62-8.62 2.6c-0.3 0.08-0.65-0.1-0.65-0.38l0.02-1.88c0-0.34 0.31-0.66 0.61-0.75l8.67-2.61 0.03-2.62-10.14 3.05c-0.3 0.09-0.65-0.09-0.65-0.38l0.02-1.88c0.01-0.34 0.31-0.66 0.61-0.75l10.19-3.06 0.03-2.74-8.72 2.62c-0.31 0.1-0.66-0.08-0.66-0.37l0.02-1.82c0.01-0.35 0.31-0.67 0.61-0.76l8.78-2.63 0.02-2.06c0.01-0.34 0.26-0.76 0.51-0.83l5.3-1.6c0.25-0.07 0.55 0.18 0.55 0.52l-0.02 2.05 6.15-1.85c1.06-0.31 1.86-0.27 2.41 0.19 0.5 0.42 0.74 1.14 0.73 2.22l-0.02 2.34 1.51-0.46c0.35-0.1 0.65 0.09 0.65 0.43l-0.02 1.77c0 0.34-0.25 0.7-0.56 0.8zm-0.38 37.45l-27.7 9.41c-0.26 0.07-0.65-0.03-0.65-0.32l0.02-2.11c0-0.34 0.36-0.79 0.66-0.88l27.61-9.38c0.35-0.1 0.7 0.19 0.69 0.53l-0.02 1.71c0 0.4-0.3 0.95-0.61 1.04zm-146.29 146.17c-0.45 0-0.87-0.3-1.02-0.76-0.17-0.56 0.15-1.16 0.71-1.33l101.28-31.15c0.57-0.17 1.16 0.14 1.33 0.7 0.17 0.56-0.14 1.16-0.7 1.33l-101.28 31.16c-0.11 0.03-0.21 0.05-0.32 0.05zm74.36-186.73c-0.45 0-0.88-0.3-1.02-0.75-0.17-0.57 0.14-1.16 0.71-1.33l73.99-22.77c0.56-0.17 1.16 0.15 1.33 0.71 0.17 0.56-0.14 1.16-0.71 1.33l-73.99 22.76c-0.1 0.03-0.21 0.05-0.31 0.05zm-133.94 171.7l0.12-1.97c0.19-3.04-0.59-4.44-2.81-3.76-2.15 0.66-3.23 2.48-3.41 5.25l-0.15 2.39c-0.17 2.74 0.3 4.6 2.85 3.83 2.43-0.75 3.23-3 3.4-5.74zm4.5-1.07c-0.31 4.93-2.87 9.29-7.42 10.68-1.83 0.56-3.05 0.56-3.81 0.09l-0.5 7.97-4.52 1.38 1.64-26.2 4.52-1.38-0.08 1.25c0.91-1.28 2.22-2.24 4.02-2.79 4.09-1.25 6.65 0.99 6.31 6.42l-0.16 2.58zm12.07-9.06c-0.41-0.58-1-1.11-2.13-0.76-1.69 0.52-2.9 2.19-3.07 4.85l-0.7 11.16-4.52 1.38 1.19-18.98 4.41-1.35-0.1 1.59c0.66-1.13 1.89-2.47 3.97-3.11 2.12-0.64 3.64-0.14 4.58 1.51l-3.63 3.71zm14.18 0.73l0.12-1.97c0.19-3.04-0.62-4.43-2.84-3.75-2.23 0.68-3.25 2.63-3.44 5.67l-0.12 1.97c-0.17 2.74 0.33 4.59 2.84 3.83 2.47-0.76 3.27-3.01 3.44-5.75zm4.47-1.22c-0.32 5.21-2.84 9.44-8.17 11.07-5.11 1.56-7.41-1.09-7.07-6.41l0.14-2.27c0.36-5.7 3.33-9.51 8.17-10.99 4.9-1.5 7.43 0.63 7.07 6.33l-0.14 2.27zm12.36-3.51l0.15-2.4c0.19-3.03-0.62-4.42-2.84-3.74-2.23 0.68-3.25 2.63-3.44 5.66l-0.12 1.98c-0.17 2.73 0.4 4.57 2.84 3.82 2.4-0.73 3.26-2.82 3.41-5.32zm0.68-10.86l4.48-1.37-1.16 18.6c-0.4 6.34-3.81 8.84-8.25 10.19-3.29 1.01-5.31 0.81-6.7-1.3l3.18-3.28c0.7 0.9 1.69 1.16 3.35 0.65 2.68-0.82 3.76-1.97 3.94-4.89l0.04-0.61c-1.01 1.17-2.27 2-3.86 2.49-4.62 1.41-6.77-1.4-6.45-6.45l0.16-2.58c0.35-5.54 3.32-9.36 7.52-10.64 1.59-0.48 2.79-0.41 3.69 0.17l0.06-0.98zm16.48 0.14c-0.42-0.58-1.01-1.11-2.14-0.77-1.69 0.52-2.9 2.2-3.07 4.85l-0.7 11.16-4.52 1.39 1.19-18.99 4.42-1.34-0.1 1.59c0.65-1.13 1.88-2.48 3.96-3.11 2.12-0.65 3.65-0.15 4.58 1.5l-3.62 3.72zm13.64 1.6l-2.97 0.9c-1.83 0.57-2.68 1.46-2.78 2.94-0.09 1.44 0.89 1.81 2.45 1.34 2.04-0.63 3.09-1.88 3.25-4.46l0.05-0.72zm-3.27-2.5l3.49-1.07 0.07-1.1c0.13-2.13-0.43-2.63-2.96-1.85-1.73 0.53-2.6 1.05-3.42 2.53l-3.02-1.42c1.45-2.71 3.48-4.16 7.11-5.26 4.55-1.4 7.04-0.74 6.7 4.69l-0.78 12.45-4.42 1.35 0.11-1.67c-0.78 1.51-1.89 2.55-3.93 3.17-3.67 1.12-6.08-0.18-5.84-4.06 0.25-4.02 3.18-6.63 6.89-7.76zm24.37 3.72l-4.49 1.37 0.7-11.13c0.19-3.03-0.84-3.68-2.43-3.2-1.62 0.5-2.87 2.15-3.03 4.84l-0.7 11.16-4.52 1.38 1.19-18.98 4.41-1.35-0.1 1.6c0.73-1.2 2.06-2.53 4.04-3.14 2.11-0.64 3.78-0.3 4.78 1.04 1.22-1.83 3.01-3.42 5.24-4.1 3.84-1.18 5.94 0.64 5.64 5.57l-0.75 11.88-4.52 1.39 0.7-11.13c0.18-2.84-0.66-3.74-2.46-3.19-1.63 0.5-2.84 2.13-3 4.83l-0.7 11.16zm27.2-8.32l-4.49 1.37 0.7-11.12c0.19-3.04-0.84-3.69-2.43-3.2-1.62 0.49-2.87 2.14-3.03 4.83l-0.71 11.16-4.51 1.38 1.19-18.98 4.41-1.35-0.1 1.6c0.73-1.19 2.06-2.53 4.04-3.14 2.11-0.64 3.78-0.3 4.78 1.04 1.22-1.83 3.01-3.42 5.24-4.1 3.84-1.17 5.94 0.64 5.64 5.58l-0.75 11.88-4.52 1.38 0.7-11.12c0.18-2.85-0.66-3.75-2.46-3.2-1.63 0.5-2.84 2.14-3 4.83l-0.7 11.16zm17.36-16.81l5.54-1.7c0.05-2.43-0.81-3.17-2.5-2.66-1.8 0.55-2.73 2.14-3.04 4.36zm9.25 5.84c-1.38 2.69-3.48 4.23-6.66 5.2-5.29 1.62-7.6-1.28-7.29-6.18l0.16-2.58c0.36-5.73 3.21-9.33 7.8-10.73 4.98-1.52 7.08 0.89 6.71 6.66l-0.13 2.17-10.06 3.07c-0.13 2.61 0.53 4.27 3.04 3.51 1.87-0.58 2.5-1.37 3.24-2.6l3.19 1.48zm-34.01-64.34c-0.18-0.59-0.8-0.92-1.39-0.74l-278.24 85.79-18.94 5.82-86 26.41 0 2.34 383.83-118.23c0.59-0.18 0.92-0.8 0.74-1.39z"/>
  <path fill="#e62131" d="M876.32 387.62c-0.46 0-0.88-0.29-1.02-0.75-0.17-0.57 0.15-1.16 0.71-1.34l35.07-10.79c0.57-0.18 1.16 0.15 1.33 0.71 0.17 0.56-0.14 1.16-0.7 1.33l-35.08 10.79c-0.1 0.03-0.2 0.05-0.31 0.05zm176.43-187.07l-110.15 33.34 0 19.74 69.57-21.06-0.16 76.44 40.74-12.55 0-95.91zm-110.15 115.83l34.56 12.13 0-9.63-34.56-13.19 0 10.69zm0-13.97l34.56 13.62 0-9.62-34.56-14.74 0 10.74zm0-13.9l34.56 15.04 0-9.83-34.56-16.07 0 10.86zm34.56-9.49l-34.56-20.74 0 16.13 34.56 16.68 0-12.07zm-34.56 40.69l0 54.69 34.56-10.41 0-32.63-34.56-11.65zm184.19-98.63l-5.86 1.79-0.18 17.19 2.87 3.41 3-5.21 0.17-17.18zm9.45 39.05l-6.97 2.14c-0.34 0.11-0.89-0.1-1.11-0.42l-4.84-5.75-5.15 8.82c-0.23 0.38-0.79 1-1.13 1.1l-6.97 2.14c-0.4 0.12-0.5-0.41-0.28-0.8l9.4-16.24-4.78-5.65c-0.6-0.76-0.7-1.99-0.69-3.25l0.1-9.74-3.96 1.22c-0.34 0.11-0.5-0.29-0.39-0.64l8.02-22.24c0.11-0.28 0.45-0.58 0.73-0.66l6.14-1.89c0.34-0.1 0.67 0.24 0.61 0.51l-3.26 8.94 13.95-4.28c0.39-0.12 0.72 0.09 0.72 0.48l-0.04 3.53c0 0.38-0.28 0.78-0.62 0.89l-1.89 0.58-0.18 17.19c-0.01 1.26-0.08 2.6-0.76 3.76l-5.1 8.68 8.74 10.61c0.22 0.25 0.1 0.85-0.29 0.97zm-23.68-2l-24.71 16.59c-0.28 0.22-0.73-0.03-0.72-0.35l0.04-3.72c0-0.38 0.39-0.76 0.73-0.99l1.17-0.8 0.34-33.11c0.01-0.38 0.24-0.83 0.57-0.93l4.69-1.44c0.28-0.08 0.61 0.19 0.61 0.57l-0.32 30.97 2.58-1.74 0.4-39.24-8.49 2.6c-0.33 0.1-0.67-0.05-0.66-0.43l0.04-3.79c0-0.38 0.28-0.72 0.62-0.82l23.27-7.14c0.39-0.11 0.73 0.1 0.72 0.66l-0.03 3.23c-0.01 0.57-0.4 1.07-0.74 1.17l-7.59 2.33-0.16 15.99 5.02-1.55c0.4-0.12 0.73 0.1 0.72 0.67l-0.03 3.03c-0.01 0.57-0.4 1.07-0.74 1.17l-5.02 1.54-0.16 15.74 7.84-5.24c0.39-0.31 0.78 0.2 0.78 0.52l-0.04 3.16c0.05 0.42-0.4 1.19-0.73 1.35zm64.8-20.43l-5.2 1.59c-0.44 0.14-0.94-0.02-1.05-0.37l-5.31-13.99c-0.11-0.22 0.29-0.85 0.56-0.93l5.48-1.68c0.33-0.1 0.72 0.03 0.83 0.37l5.31 14.06c0.11 0.35-0.29 0.84-0.62 0.95zm12.88-24.49l-2.74 0.84-0.26 26.17c-0.02 1.32-0.59 2.63-1.43 3.71-0.62 0.75-1.41 1.31-2.24 1.57l-10.72 3.28c-0.39 0.12-0.95-0.02-1.11-0.35l-1.31-2.81c-0.11-0.16 0.12-0.8 0.4-0.88l9.26-2.84 0.27-25.66-15.52 4.76c-0.39 0.12-0.67-0.17-0.66-0.55l0.03-3.67c0.01-0.38 0.23-0.7 0.57-0.8l15.63-4.8 0.07-7.01c0.01-0.63 0.29-1.16 0.9-1.35l5.31-1.62c0.5-0.15 0.94 0.09 0.94 0.65l-0.08 7.15 2.74-0.84c0.39-0.12 0.72 0.03 0.72 0.53l-0.03 3.41c-0.01 0.57-0.41 1.01-0.74 1.11zm0.38-15.67l-39.25 12.03-0.19 18.89 6.91-17.24c0.23-0.57 0.68-1.15 1.13-1.29l5.97-1.83c0.39-0.12 0.67 0.37 0.5 0.8l-7.49 18.74 3.36-1.03c0.5-0.16 0.94 0.15 0.93 0.78l-0.24 23.57c0 0.63-0.34 1.18-0.84 1.33l-5.31 1.63c-0.61 0.18-0.94-0.15-0.94-0.72l0.24-23.19-4.25 1.3-0.15 15.04c-0.01 0.95-0.07 1.85-0.36 2.82l-2.12 6.51c-0.12 0.41-0.51 0.78-0.85 0.89l-6.14 1.88c-0.34 0.1-0.55-0.21-0.44-0.56l2.75-8.22 0.4-38.92c0.01-0.95 0.58-2.13 1.37-3.13 0.79-1.06 1.8-1.87 2.86-2.2l15.29-4.69-1.08-3.07c-0.1-0.47 0.18-1 0.63-1.14l7.31-2.24c0.34-0.1 0.72 0.03 0.83 0.31l1.14 3.43 17.91-5.49c0.45-0.14 0.89 0.11 0.89 0.49l-0.04 3.47c0 0.44-0.34 0.93-0.73 1.05zm37.88-7.7l-17.4 5.34-0.11 10.41 8.73 5.48 8.68-10.82 0.1-10.41zm14.73-4.51l-7.72 2.36-0.13 12.08c-0.01 1.12-0.51 2.7-1.29 3.61l-9.22 11.23 18.59 11.6c0.27 0.16-0.06 0.95-0.39 1.05l-8.97 2.75c-0.39 0.12-1.1 0.08-1.37-0.08l-13.39-8.49-14.3 16.98c-0.28 0.34-0.99 0.8-1.37 0.92l-8.54 2.62c-0.33 0.1-0.65-0.49-0.38-0.81l19.45-23.26-8.68-5.44c-1.35-0.88-1.56-1.99-1.54-3.91l0.11-11.22-7.66 2.35c-0.33 0.1-0.65-0.1-0.65-0.41l0.04-3.47c0-0.37 0.33-0.97 0.66-1.08l19.1-5.85-1.63-6.05c-0.1-0.27 0.28-0.83 0.56-0.91l6.56-2.02c0.28-0.08 0.77 0.14 0.87 0.48l1.63 6.05 19.65-6.03c0.38-0.11 0.76 0.08 0.76 0.45l-0.03 3.41c-0.01 0.43-0.4 0.99-0.72 1.09zm47.59-19.66l-2.62 0.8-0.05 4.4 2.63-0.8 0.04-4.4zm-0.08 8.3l-2.63 0.8-0.05 4.71 2.63-0.8 0.05-4.71zm-6.87-6.17l-2.68 0.82-0.04 4.4 2.68-0.83 0.04-4.39zm-0.08 8.3l-2.68 0.82-0.05 4.71 2.68-0.82 0.05-4.71zm3.39 20.64l-10.07 3.09-0.03 2.66 10.07-3.08 0.03-2.67zm-10.31-26.8l-2.69 0.83-0.04 4.4 2.68-0.83 0.05-4.4zm-0.08 8.31l-2.69 0.82-0.05 4.71 2.68-0.82 0.06-4.71zm16.3 22.36c-0.45 0.76-1.22 1.37-2.15 1.65l-17.46 5.36c-0.98 0.3-1.69 0.2-2.17-0.08-0.6-0.31-0.98-0.81-0.97-1.99l0.04-4.52c0.02-0.87 0.3-1.7 0.74-2.39 0.55-0.79 1.38-1.41 2.25-1.68l17.68-5.42c0.82-0.25 1.59-0.11 2.12 0.34 0.49 0.4 0.76 1.06 0.75 1.93l-0.04 4.09c-0.01 0.99-0.29 1.94-0.79 2.71zm0.91-19.92c-0.61 0.87-1.38 1.53-2.2 1.79l-18.72 5.74c-0.93 0.28-1.85 0.01-2.5-0.53-0.6-0.5-0.97-1.25-0.96-2.12l0.13-13.88c0.02-0.93 0.52-1.94 1.24-2.84 0.71-0.97 1.59-1.73 2.47-2l2.35-0.72 0.03-2.42c0-0.37 0.39-0.8 0.77-0.92l4.05-1.24c0.27-0.08 0.6 0.13 0.6 0.5l-0.03 2.42 2.68-0.83 0.03-2.16c0-0.38 0.33-1.04 0.61-1.12l4.22-1.29c0.27-0.08 0.59 0.37 0.59 0.74l-0.03 2.17 2.41-0.74c0.82-0.25 1.64-0.07 2.29 0.35 0.76 0.51 1.24 1.35 1.23 2.47l-0.14 13.44c-0.01 1.18-0.46 2.25-1.12 3.19zm1.07 7.39l-25.78 7.91c-0.33 0.1-0.71-0.09-0.7-0.41l0.03-3.09c0-0.37 0.39-0.74 0.71-0.84l25.78-7.9c0.38-0.12 0.76 0.07 0.76 0.44l-0.03 2.98c0 0.43-0.44 0.81-0.77 0.91zm0.2 23.17l-26.49 8.12c-0.33 0.1-0.71-0.09-0.7-0.4l0.03-3.1c0-0.37 0.39-0.73 0.72-0.83l4.87-1.5-1.28-3.5c-0.1-0.28 0.29-0.89 0.56-0.97l5.8-1.78c0.27-0.09 0.71 0.21 0.81 0.55l1.27 3.5 3.29-1 1.35-4.31c0.11-0.41 0.5-0.96 0.83-1.06l5.8-1.78c0.28-0.08 0.66 0.3 0.54 0.64l-1.35 4.31 4-1.23c0.38-0.12 0.76 0.08 0.75 0.45l-0.03 2.91c0 0.43-0.44 0.88-0.77 0.98zm-33.99-32.02l-2.03 0.62-0.04 4.59 2.02-0.62 0.05-4.59zm-0.55 16.54l-5.42 1.67-0.04 4.4 5.41-1.67 0.05-4.4zm-0.08 8.31l-5.43 1.66-0.04 4.65 5.42-1.67 0.05-4.64zm0.7-32.22l-6.56 2.01-0.12 11.96 1.64-0.5 0.06-5.76c0-0.74 0.06-1.45 0.4-1.98 0.38-0.67 0.99-1.11 1.81-1.36l2.74-0.84 0.03-3.53zm0.83 15.5l-8.43 2.58-0.04 3.97 8.43-2.58 0.04-3.97zm5.96 3.73l-1.97 0.61c0.54 0.45 0.7 0.89 0.69 1.57l-0.23 22.87c-0.01 0.93-0.35 1.96-0.9 2.87-0.61 0.93-1.49 1.76-2.42 2.04l-5.15 1.58c-0.32 0.1-0.59-0.13-0.65-0.42l-0.74-2.24c-0.1-0.34 0.18-0.8 0.5-0.9l3.23-0.99 0.06-5.45-5.42 1.66-0.09 8.43c0 0.43-0.28 0.95-0.61 1.05l-4.98 1.53c-0.38 0.11-0.59-0.32-0.59-0.69l0.26-25.4c0.01-0.81 0.18-1.6 0.51-2.45l-2.07 0.64c-0.39 0.12-0.6-0.25-0.6-0.68l0.06-5.7c0.01-0.62 0.18-1.36 0.51-1.95 0.39-0.74 0.83-1.31 1.49-1.51l0.12-11.89c0.01-1 0.29-1.89 0.74-2.7 0.55-1.04 1.54-1.9 2.64-2.23l10.89-3.35c1.15-0.35 2.13-0.27 2.72 0.28 0.54 0.45 0.86 1.22 0.85 2.4l-0.12 12.02c0.55-0.17 1.03 0.06 1.41 0.49 0.38 0.32 0.48 0.91 0.48 1.4l-0.06 6.08c-0.01 0.43-0.23 0.93-0.56 1.03zm81.44 3.57l-5.47 1.68c-0.49 0.15-0.76 0.11-0.98-0.2l-12.03-24.79c-0.21-0.36 0.07-1.01 0.56-1.16l4.76-1.46c0.5-0.15 1.2-0.18 1.42 0.31l2.24 4.56 2.36-6.78c0.11-0.34 0.56-0.91 1.11-1.08l4.48-1.37c0.5-0.15 0.71 0.34 0.54 0.82l-5.28 15.03 6.63 13.59c0.16 0.32-0.01 0.75-0.34 0.85zm-1.71-35.3c-0.29 1.01-0.9 2-1.62 2.71-0.71 0.78-1.59 1.29-2.52 1.58l-13.14 4.03-0.28 27.88 7.66-2.35c0.22-0.06 0.49 0.29 0.44 0.49l-1.69 4.35c-0.11 0.28-0.6 0.74-0.83 0.81l-8.37 2.56c-1.04 0.32-2.01 0.13-2.77-0.44-0.87-0.67-1.4-1.8-1.39-3.16l0.29-28.32c0.01-1.24 0.46-2.49 1.12-3.5 0.78-1.16 1.82-2.04 3.03-2.41l12.48-3.82 0.79-2.84c0.11-0.34 0.61-0.87 0.88-0.95l6.85-2.1c0.32-0.1 0.59 0.25 0.48 0.53l-1.41 4.95zm0.52-9.06l-17.68 5.42-1.63 5.26c-0.17 0.48-0.55 0.91-0.77 0.98l-6.63 2.03c-0.33 0.1-0.48-0.29-0.37-0.63l4.68-14.84c0.17-0.61 0.72-1.15 1.32-1.33l5.86-1.8c0.44-0.13 0.76 0.2 0.53 0.89l-1.23 3.96 15.98-4.9c0.38-0.12 0.7 0.09 0.7 0.65l-0.03 3.16c-0.01 0.56-0.4 1.05-0.73 1.15zm-27.28 10.58l-10.39 3.19-0.08 7.94 6.73-2.07c1.04-0.32 1.85-0.01 2.5 0.59 0.59 0.56 0.97 1.31 0.96 2.12l-0.27 26.77c-0.01 1.11-0.35 2.33-1.07 3.35-0.61 0.87-1.44 1.56-2.69 1.94l-3.72 1.14c-0.44 0.14-0.72 0.04-0.88-0.29l-1.33-2.86c-0.11-0.28 0.06-1.01 0.45-1.13l2.3-0.7 0.25-24.98-3.28 1.01-0.22 21.69c-0.02 1.05-0.13 1.95-0.58 3.02l-2.07 5.08c-0.28 0.64-0.67 0.95-1.1 1.08l-6.3 1.93c-0.38 0.12-0.59-0.31-0.43-0.73l3.59-8.95 0.34-33.83-2.3 0.7c-0.32 0.1-0.7-0.09-0.7-0.4l0.03-3.71c0.01-0.38 0.39-0.74 0.72-0.85l5.91-1.81-1.69-5.41c-0.05-0.23 0.18-0.85 0.45-0.94l6.89-2.11c0.33-0.1 0.66-0.02 0.71 0.27l1.96 5.64 5.37-1.64c0.38-0.12 0.76 0.08 0.76 0.45l-0.04 3.59c-0.01 0.43-0.45 0.82-0.78 0.91zm-98.21 175.52c-0.46 0-0.88-0.3-1.02-0.76-0.18-0.56 0.14-1.15 0.7-1.33l115.12-35.41c0.57-0.17 1.16 0.14 1.33 0.7 0.17 0.57-0.14 1.17-0.7 1.34l-115.12 35.41c-0.11 0.03-0.21 0.05-0.31 0.05zm197.72-226.62c-0.45 0-0.88-0.3-1.02-0.76-0.17-0.56 0.15-1.15 0.71-1.33l58.33-17.94c0.57-0.18 1.16 0.14 1.33 0.7 0.18 0.57-0.14 1.16-0.7 1.33l-58.33 17.95c-0.11 0.03-0.21 0.05-0.32 0.05zm-416.87 229.18l-0.17 2.64c-0.55 8.86-3.75 13.7-8.45 15.14-4.68 1.43-7.72-1.51-7.16-10.36l0.23-3.7c0.58-9.35 4.11-14.22 8.78-15.65 4.38-1.33 6.79 1.31 7.05 7.03l-4.04 1.23c-0.2-2.53-1.2-3.95-3.32-3.3-2.44 0.74-3.88 3.45-4.22 8.99l-0.26 4.1c-0.35 5.55 0.8 7.46 3.25 6.71 2.38-0.73 3.47-3.08 3.93-6.63l-3.5 1.06 0.31-4.95 7.57-2.31zm10.67 2.25l0.14-2.18c0.2-3.36-0.46-4.96-2.36-4.38-1.9 0.58-2.8 2.67-3.01 6.02l-0.14 2.19c-0.19 3.02 0.21 5.11 2.35 4.46 2.11-0.65 2.83-3.09 3.02-6.11zm3.82-1c-0.36 5.75-2.57 10.25-7.12 11.64-4.37 1.34-6.28-1.78-5.91-7.66l0.16-2.51c0.39-6.3 2.98-10.3 7.11-11.56 4.19-1.28 6.31 1.28 5.91 7.57l-0.15 2.52zm16.05-16.39l-7.04 22.73-3.62 1.11-4.54-19.2 4.23-1.29 2.52 12.57 4.2-14.62 4.25-1.3zm3.48 6.79l4.74-1.44c0.08-2.7-0.63-3.6-2.08-3.16-1.54 0.47-2.36 2.17-2.66 4.6zm7.77 7.22c-1.21 2.88-3.02 4.42-5.74 5.25-4.52 1.39-6.44-2.02-6.1-7.44l0.18-2.85c0.4-6.33 2.88-10.1 6.8-11.3 4.25-1.3 6 1.54 5.6 7.92l-0.15 2.39-8.6 2.63c-0.15 2.89 0.38 4.79 2.53 4.13 1.6-0.49 2.15-1.32 2.79-2.62l2.69 1.89zm11.11-15.13c-0.34-0.67-0.83-1.31-1.8-1.01-1.44 0.44-2.5 2.2-2.68 5.14l-0.77 12.34-3.87 1.18 1.32-20.98 3.77-1.16-0.11 1.77c0.57-1.21 1.64-2.6 3.42-3.15 1.8-0.55 3.1 0.12 3.86 2.03l-3.14 3.84zm4.35-7.05l3.77-1.15-0.11 1.76c0.64-1.22 1.91-2.68 3.6-3.2 3.05-0.93 5.4 0.33 5.01 6.54l-0.82 13.13-3.83 1.17 0.76-12.29c0.21-3.28-0.56-4.19-2.13-3.71-1.77 0.54-2.75 2.44-2.93 5.21l-0.77 12.34-3.86 1.18 1.31-20.98zm26.18 12.57l-3.82 1.18 0.77-12.3c0.2-3.36-0.66-4.16-2.02-3.75-1.38 0.43-2.47 2.16-2.66 5.14l-0.77 12.33-3.86 1.18 1.31-20.97 3.77-1.16-0.11 1.77c0.64-1.27 1.8-2.65 3.49-3.17 1.8-0.55 3.22-0.04 4.04 1.52 1.07-1.93 2.62-3.56 4.52-4.14 3.29-1 5.04 1.18 4.7 6.63l-0.82 13.14-3.86 1.18 0.77-12.3c0.2-3.14-0.51-4.21-2.05-3.74-1.38 0.43-2.44 2.15-2.63 5.13l-0.77 12.33zm15.07-17.32l4.74-1.45c0.08-2.7-0.64-3.59-2.08-3.15-1.54 0.47-2.36 2.16-2.66 4.6zm7.77 7.21c-1.21 2.89-3.03 4.43-5.74 5.26-4.52 1.38-6.44-2.03-6.1-7.44l0.18-2.85c0.39-6.34 2.88-10.1 6.8-11.3 4.25-1.3 6 1.54 5.6 7.92l-0.15 2.39-8.6 2.63c-0.15 2.89 0.38 4.78 2.52 4.13 1.61-0.49 2.16-1.32 2.8-2.63l2.69 1.89zm3.31-18.46l3.77-1.15-0.11 1.76c0.63-1.22 1.91-2.68 3.6-3.2 3.04-0.93 5.39 0.33 5 6.54l-0.82 13.13-3.83 1.17 0.77-12.29c0.21-3.27-0.57-4.19-2.14-3.71-1.77 0.54-2.75 2.45-2.93 5.22l-0.77 12.34-3.86 1.17 1.32-20.98zm14.07-4.3l1.93-0.59 0.29-4.61 3.83-1.18-0.29 4.62 2.95-0.91-0.28 4.54-2.96 0.9-0.54 8.77c-0.13 2.1 0.11 2.89 1.53 2.45l1.24-0.38-0.3 4.71-1.63 0.49c-3.65 1.12-5.07 0.15-4.73-5.26l0.6-9.61-1.92 0.59 0.28-4.53zm28.28 8.8c-1.21 2.8-2.99 4.42-5.71 5.25-4.31 1.32-6.48-1.72-6.13-7.43l0.18-2.85c0.38-6.13 3.03-10.15 7.52-11.52 2.33-0.71 4.15-0.12 5.06 1.86l-3.07 3.71c-0.45-0.86-1.16-1.38-2.36-1.01-2.17 0.66-3.13 2.77-3.34 6.12l-0.14 2.19c-0.19 3.02 0.24 5.1 2.68 4.36 1.15-0.35 2-1.14 2.62-2.57l2.69 1.89zm13.87-1.11l-3.77 1.16 0.11-1.77c-0.72 1.62-1.58 2.59-3.57 3.19-3.05 0.93-5.42-0.4-5.03-6.57l0.82-13.09 3.85-1.18-0.76 12.3c-0.21 3.31 0.56 4.19 2.16 3.7 1.78-0.55 2.72-2.32 2.9-5.21l0.77-12.33 3.83-1.18-1.31 20.98zm4.19-29.68l3.85-1.18-1.31 21.02c-0.14 2.27 0.28 3.17 1.9 2.67l-0.29 4.62c-4.07 1.25-5.87 0.36-5.55-4.89l1.4-22.24zm5.61 6.11l1.93-0.59 0.29-4.62 3.83-1.17-0.29 4.62 2.95-0.91-0.28 4.54-2.96 0.9-0.55 8.77c-0.13 2.1 0.12 2.88 1.54 2.45l1.23-0.38-0.29 4.7-1.63 0.5c-3.65 1.11-5.07 0.15-4.73-5.26l0.6-9.61-1.93 0.59 0.29-4.53zm21.74 13.93l-3.77 1.15 0.11-1.76c-0.72 1.62-1.58 2.58-3.57 3.19-3.04 0.93-5.41-0.4-5.03-6.57l0.82-13.09 3.86-1.18-0.77 12.29c-0.21 3.32 0.57 4.19 2.16 3.7 1.78-0.54 2.72-2.31 2.9-5.21l0.78-12.33 3.82-1.17-1.31 20.98zm11.52-18.38c-0.34-0.68-0.83-1.31-1.8-1.02-1.44 0.45-2.5 2.21-2.69 5.15l-0.77 12.33-3.86 1.18 1.31-20.98 3.77-1.15-0.1 1.77c0.57-1.21 1.63-2.6 3.41-3.15 1.81-0.56 3.1 0.12 3.87 2.03l-3.14 3.84zm6.98 0l4.74-1.45c0.08-2.69-0.64-3.59-2.08-3.15-1.54 0.47-2.36 2.17-2.66 4.6zm7.77 7.22c-1.21 2.88-3.03 4.42-5.74 5.25-4.52 1.38-6.44-2.02-6.1-7.44l0.18-2.85c0.4-6.34 2.88-10.1 6.8-11.3 4.25-1.3 6 1.54 5.6 7.92l-0.15 2.39-8.59 2.63c-0.16 2.89 0.37 4.78 2.52 4.13 1.6-0.49 2.15-1.32 2.79-2.62l2.69 1.89zm6 3.18l-4.4 6.13 0.83-13.35 4.1-1.25-0.53 8.47zm19.3-22.57c-0.59-0.88-1.22-1.27-2.85-0.77-0.99 0.3-1.92 1-2 2.22-0.08 1.25 0.71 1.47 2.29 1.32 3.66-0.34 5.4 1.06 5.14 5.21-0.25 4.03-2.43 7.13-6.32 8.31-3.07 0.95-4.88 0.47-6.02-1.57l3.14-3.84c0.53 0.95 1.24 1.39 3.11 0.82 1.33-0.41 2.18-1.29 2.25-2.38 0.08-1.3-0.55-1.52-2.43-1.36-3.09 0.25-5.27-0.9-5-5.13 0.25-3.99 2.46-7.09 6.22-8.24 2.48-0.76 4.48-0.59 5.49 1.73l-3.02 3.68zm13.69 1.33l0.14-2.18c0.21-3.35-0.43-4.97-2.33-4.39-1.84 0.56-2.79 2.5-2.98 5.56l-0.17 2.65c-0.19 3.02 0.19 5.13 2.36 4.46 2.08-0.63 2.79-3.07 2.98-6.1zm3.84-0.84c-0.34 5.45-2.59 10.09-6.47 11.28-1.57 0.48-2.6 0.38-3.25-0.2l-0.55 8.81-3.86 1.18 1.81-28.95 3.86-1.18-0.08 1.38c0.79-1.35 1.92-2.31 3.45-2.79 3.51-1.07 5.64 1.61 5.27 7.61l-0.18 2.86zm10.63-3.58l0.13-2.18c0.21-3.36-0.45-4.97-2.35-4.39-1.9 0.59-2.8 2.67-3.01 6.03l-0.14 2.18c-0.19 3.02 0.21 5.12 2.35 4.47 2.11-0.65 2.83-3.09 3.02-6.11zm3.81-1c-0.35 5.75-2.56 10.25-7.11 11.64-4.37 1.34-6.28-1.78-5.91-7.66l0.16-2.52c0.39-6.29 2.98-10.29 7.11-11.56 4.19-1.28 6.31 1.29 5.91 7.58l-0.16 2.52zm10.46-8.96c-0.34-0.68-0.83-1.31-1.8-1.01-1.44 0.44-2.5 2.2-2.69 5.14l-0.77 12.34-3.86 1.18 1.31-20.99 3.77-1.15-0.1 1.76c0.57-1.2 1.63-2.59 3.41-3.14 1.82-0.55 3.1 0.13 3.87 2.03l-3.14 3.84zm3.81-6.89l1.93-0.59 0.29-4.61 3.83-1.17-0.29 4.61 2.95-0.9-0.28 4.53-2.95 0.9-0.55 8.78c-0.13 2.09 0.11 2.88 1.53 2.45l1.24-0.38-0.3 4.7-1.63 0.5c-3.64 1.11-5.06 0.15-4.72-5.26l0.6-9.61-1.93 0.58 0.28-4.53zm18.58 0.13c-0.59-0.89-1.22-1.28-2.85-0.78-0.99 0.31-1.92 1-2 2.22-0.08 1.26 0.71 1.47 2.29 1.31 3.66-0.33 5.4 1.07 5.14 5.23-0.25 4.02-2.43 7.12-6.32 8.3-3.07 0.95-4.88 0.47-6.02-1.57l3.14-3.84c0.53 0.95 1.24 1.39 3.11 0.82 1.33-0.41 2.18-1.28 2.25-2.38 0.08-1.3-0.55-1.51-2.43-1.36-3.09 0.25-5.27-0.9-5-5.13 0.25-3.99 2.45-7.09 6.22-8.24 2.48-0.76 4.48-0.59 5.49 1.74l-3.02 3.68zm19.77 0.25l-2.53 0.77c-1.57 0.48-2.31 1.41-2.41 3.04-0.1 1.6 0.73 2.09 2.05 1.68 1.75-0.53 2.66-1.84 2.84-4.7l0.05-0.79zm-2.74-3.03l2.99-0.91 0.07-1.22c0.15-2.35-0.31-2.95-2.49-2.29-1.47 0.46-2.22 0.97-2.93 2.55l-2.55-1.82c1.27-2.9 3.02-4.34 6.12-5.28 3.89-1.2 6-0.27 5.62 5.73l-0.86 13.76-3.77 1.15 0.12-1.85c-0.7 1.62-1.65 2.69-3.4 3.22-3.14 0.96-5.16-0.68-4.9-4.96 0.28-4.45 2.82-7.12 5.98-8.08zm9.64-11.18l3.78-1.15-0.12 1.76c0.64-1.23 1.92-2.69 3.6-3.2 3.05-0.93 5.4 0.32 5.01 6.53l-0.82 13.14-3.83 1.17 0.77-12.29c0.2-3.28-0.57-4.2-2.14-3.72-1.78 0.54-2.75 2.45-2.92 5.22l-0.78 12.34-3.86 1.18 1.31-20.98zm23.11 4.25l0.17-2.64c0.19-3.07-0.58-4.48-2.39-3.92-1.9 0.58-2.8 2.66-3.01 6.02l-0.14 2.18c-0.19 3.02 0.27 5.1 2.36 4.47 2.17-0.67 2.82-3.09 3.01-6.11zm1.22-19.51l3.83-1.17-1.81 28.95-3.83 1.17 0.08-1.21c-0.85 1.24-1.92 2.14-3.33 2.58-3.95 1.2-5.73-2.08-5.38-7.66l0.18-2.86c0.38-6.12 2.97-10.12 6.56-11.22 1.3-0.4 2.35-0.27 3.13 0.48l0.57-9.06zm11.95 4.17l1.93-0.6 0.29-4.61 3.83-1.17-0.29 4.61 2.96-0.9-0.29 4.53-2.95 0.91-0.55 8.76c-0.13 2.1 0.11 2.89 1.53 2.46l1.24-0.38-0.3 4.7-1.63 0.5c-3.64 1.11-5.06 0.15-4.72-5.26l0.6-9.61-1.93 0.59 0.28-4.53zm18.33 5.71l0.14-2.18c0.21-3.36-0.46-4.97-2.36-4.39-1.9 0.59-2.8 2.67-3.01 6.03l-0.14 2.18c-0.19 3.02 0.21 5.12 2.36 4.47 2.11-0.65 2.82-3.09 3.01-6.11zm3.82-1c-0.36 5.75-2.57 10.25-7.12 11.64-4.37 1.34-6.27-1.79-5.91-7.66l0.16-2.52c0.39-6.29 2.98-10.3 7.11-11.56 4.19-1.28 6.31 1.29 5.92 7.58l-0.16 2.52zm14.01 4.81l-3.77 1.15 0.11-1.76c-0.72 1.62-1.58 2.59-3.57 3.19-3.05 0.93-5.42-0.4-5.03-6.57l0.81-13.09 3.86-1.18-0.76 12.29c-0.21 3.32 0.56 4.2 2.16 3.7 1.78-0.54 2.72-2.31 2.9-5.21l0.77-12.33 3.83-1.17-1.31 20.98zm11.52-18.38c-0.34-0.68-0.84-1.31-1.8-1.01-1.45 0.44-2.51 2.2-2.69 5.14l-0.77 12.34-3.86 1.18 1.31-20.99 3.77-1.15-0.11 1.76c0.58-1.2 1.64-2.59 3.42-3.14 1.81-0.55 3.1 0.13 3.87 2.03l-3.14 3.84zm4.91-15.04l4.17-1.28-0.33 5.2-4.16 1.28 0.32-5.2zm-0.34 7.92l3.86-1.18-1.32 20.98-3.86 1.18 1.32-20.98zm14.26 1.44c-0.59-0.88-1.22-1.27-2.85-0.77-0.99 0.3-1.92 1-2 2.21-0.08 1.26 0.71 1.48 2.29 1.32 3.66-0.33 5.4 1.07 5.14 5.22-0.25 4.03-2.43 7.12-6.32 8.31-3.07 0.94-4.88 0.46-6.02-1.57l3.14-3.84c0.53 0.95 1.24 1.39 3.11 0.82 1.33-0.41 2.18-1.29 2.25-2.38 0.08-1.3-0.55-1.52-2.43-1.36-3.09 0.25-5.27-0.9-5-5.14 0.25-3.98 2.46-7.08 6.22-8.23 2.48-0.76 4.48-0.59 5.49 1.73l-3.02 3.68zm16.26 9.81l-3.83 1.17 0.78-12.3c0.2-3.35-0.66-4.16-2.02-3.75-1.38 0.43-2.47 2.16-2.66 5.14l-0.77 12.34-3.86 1.18 1.31-20.99 3.77-1.15-0.11 1.77c0.64-1.27 1.79-2.65 3.49-3.17 1.8-0.55 3.22-0.04 4.04 1.52 1.07-1.93 2.62-3.55 4.52-4.14 3.29-1 5.04 1.18 4.7 6.63l-0.82 13.14-3.86 1.18 0.77-12.3c0.2-3.14-0.51-4.2-2.04-3.73-1.39 0.42-2.45 2.14-2.63 5.12l-0.78 12.34zm-51.3 34.25c-0.45 0-0.88-0.3-1.02-0.75-0.17-0.57 0.15-1.16 0.71-1.33l51.41-15.82c0.57-0.18 1.16 0.14 1.33 0.71 0.17 0.56-0.14 1.15-0.71 1.33l-51.41 15.81c-0.1 0.03-0.2 0.05-0.31 0.05z"/>
  <path fill="#d29f10" d="M1761.77 211.9l-31.19 0c-28.98 0-51.46 19.68-58.67 51.38-4.35 19.88-18.55 32.27-37.07 32.35l-31.23 0c-2.68 0-4.86 2.18-4.86 4.86l0 11.99c0 2.68 2.18 4.86 4.86 4.86l31.19 0c28.98 0 51.47-19.68 58.68-51.37 4.34-19.89 18.54-32.28 37.06-32.36l31.23 0c2.68 0 4.87-2.18 4.87-4.86l0-11.99c0-2.68-2.19-4.86-4.87-4.86zm0 41.87c-0.02-0.01-9.84-0.4-18.46-0.4-5.12 0-8.84 0.14-11.05 0.41-10.18 1.26-17.21 6.52-20.31 15.2-0.53 1.49-0.31 3.14 0.61 4.43 0.91 1.29 2.39 2.06 3.97 2.06l45.24 0c2.68 0 4.87-2.18 4.87-4.86l0-11.99c0-2.68-2.19-4.85-4.87-4.85zm-158.16 21.3c0.03 0 9.91 0.4 18.5 0.4 5.1 0 8.81-0.14 11.01-0.41 10.19-1.26 17.21-6.52 20.31-15.21 0.54-1.48 0.31-3.13-0.6-4.42-0.91-1.29-2.4-2.06-3.98-2.06l-45.24 0c-2.68 0-4.86 2.18-4.86 4.85l0 12c0 2.67 2.18 4.85 4.86 4.85zm0-41.46l34.59 0c13.7 0 24.84-11.13 24.84-24.81l0-23.14c0-2.68-2.18-4.86-4.85-4.86l-12.02 0c-2.68 0-4.86 2.18-4.86 4.86l0 23.14c0 1.71-1.39 3.11-3.11 3.11l-34.59 0c-2.68 0-4.86 2.17-4.86 4.85l0 11.99c0 2.68 2.18 4.86 4.86 4.86zm158.16 62.03l-34.55 0c-13.69 0-24.84 11.12-24.84 24.8l0 23.14c0 2.68 2.18 4.86 4.86 4.86l12.01 0c2.69 0 4.86-2.18 4.86-4.86l0-23.14c0-1.71 1.4-3.1 3.11-3.1l34.55 0c2.68 0 4.87-2.18 4.87-4.86l0-11.99c0-2.68-2.19-4.85-4.87-4.85zm-48.9-88.76c7.2 0 13.06-5.85 13.06-13.04 0-7.19-5.86-13.03-13.06-13.03-7.2 0-13.06 5.84-13.06 13.03 0 7.19 5.86 13.04 13.06 13.04zm-60.86 115.48c-7.2 0-13.06 5.85-13.06 13.04 0 7.19 5.86 13.04 13.06 13.04 7.21 0 13.06-5.85 13.06-13.04 0-7.19-5.85-13.04-13.06-13.04z"/>
  <path fill="#332c2b" d="M1808.47 231.76l0-24.85c0-0.61 0.3-0.92 0.89-0.92l3.36 0c0.61 0 0.92 0.31 0.92 0.92l0 24.85c0 0.64-0.31 0.95-0.92 0.95l-3.36 0c-0.59 0-0.89-0.31-0.89-0.95zm28.38-12.1l0 12.18c0 0.58-0.28 0.87-0.85 0.87l-3.17 0c-0.59 0-0.88-0.29-0.88-0.87l0-11.27c0-1.34-0.28-2.34-0.83-3-0.55-0.66-1.47-0.98-2.75-0.98-1.38 0-2.45 0.41-3.2 1.23-0.75 0.82-1.12 1.94-1.12 3.35l0 10.67c0 0.58-0.28 0.87-0.85 0.87l-3.17 0c-0.57 0-0.85-0.29-0.85-0.87l0-18.25c0-0.59 0.28-0.88 0.85-0.88l2.91 0c0.52 0 0.8 0.26 0.85 0.76l0.18 1.98c1.23-2.13 3.3-3.19 6.2-3.19 2.24 0 3.92 0.64 5.03 1.93 1.1 1.29 1.65 3.12 1.65 5.47zm14.69-2.7l-4.06 0 0 9.23c0 1.08 0.17 1.83 0.51 2.23 0.35 0.41 1.03 0.61 2.04 0.61 0.17 0 0.69-0.06 1.55-0.19 0.24-0.02 0.42 0.03 0.53 0.15 0.11 0.13 0.18 0.34 0.21 0.61l0.22 2.13c0.02 0.42-0.21 0.72-0.7 0.87-0.82 0.28-1.85 0.42-3.11 0.42-2.16 0-3.71-0.48-4.64-1.44-0.94-0.96-1.4-2.59-1.4-4.86l0-9.76-2.04 0c-0.59 0-0.88-0.29-0.88-0.87l0-2.13c0-0.58 0.29-0.87 0.88-0.87l2.11 0 0-4.67c0-0.53 0.28-0.79 0.85-0.79l2.95 0c0.59 0 0.88 0.26 0.88 0.79l0 4.67 4.1 0c0.57 0 0.85 0.29 0.85 0.87l0 2.13c0 0.58-0.28 0.87-0.85 0.87zm16.24 8.2l0-1.63c-1.38 0.05-2.51 0.12-3.4 0.21-0.88 0.08-1.73 0.25-2.53 0.49-0.79 0.24-1.38 0.58-1.75 1.03-0.37 0.44-0.55 1-0.55 1.68 0 0.81 0.28 1.46 0.85 1.94 0.56 0.48 1.36 0.72 2.39 0.72 1.63 0 2.86-0.41 3.72-1.23 0.85-0.83 1.27-1.89 1.27-3.21zm4.76-5.69l0 12.37c0 0.58-0.3 0.87-0.89 0.87l-2.73 0c-0.52 0-0.8-0.24-0.85-0.72l-0.15-2.05c-1.3 2.08-3.54 3.11-6.71 3.11-1.94 0-3.48-0.5-4.62-1.51-1.13-1.02-1.69-2.44-1.69-4.29 0-1.09 0.2-2.03 0.62-2.83 0.42-0.8 0.98-1.43 1.68-1.9 0.7-0.46 1.63-0.85 2.77-1.14 1.15-0.29 2.31-0.49 3.51-0.6 1.19-0.12 2.62-0.19 4.3-0.21l0-0.88c0-1.18-0.34-2.05-1-2.61-0.66-0.56-1.73-0.84-3.21-0.84-1.8 0-3.64 0.38-5.53 1.14-0.52 0.18-0.88 0-1.07-0.53l-0.67-2.09c-0.15-0.45 0.02-0.81 0.52-1.06 2.19-0.96 4.65-1.44 7.38-1.44 5.56 0 8.34 2.4 8.34 7.21zm22.59 0.19l0 12.18c0 0.58-0.29 0.87-0.86 0.87l-3.17 0c-0.59 0-0.88-0.29-0.88-0.87l0-11.27c0-1.34-0.28-2.34-0.83-3-0.55-0.66-1.47-0.98-2.75-0.98-1.38 0-2.44 0.41-3.19 1.23-0.75 0.82-1.13 1.94-1.13 3.35l0 10.67c0 0.58-0.28 0.87-0.85 0.87l-3.17 0c-0.57 0-0.85-0.29-0.85-0.87l0-18.25c0-0.59 0.28-0.88 0.85-0.88l2.91 0c0.52 0 0.8 0.26 0.85 0.76l0.19 1.98c1.22-2.13 3.3-3.19 6.2-3.19 2.23 0 3.91 0.64 5.02 1.93 1.1 1.29 1.66 3.12 1.66 5.47zm17.52 1.59c0-3.49-1.42-5.24-4.28-5.24-2.8 0-4.21 1.81-4.21 5.43 0 3.62 1.41 5.43 4.21 5.43 1.36 0 2.41-0.48 3.16-1.44 0.75-0.96 1.12-2.36 1.12-4.18zm4.8-7.67l0 15.76c0 2.6-0.82 4.59-2.46 5.96-1.63 1.36-3.93 2.05-6.88 2.05-2.93 0-5.19-0.4-6.78-1.18-0.5-0.25-0.67-0.6-0.53-1.02l0.63-2.05c0.15-0.56 0.5-0.75 1.04-0.58 1.74 0.64 3.5 0.95 5.28 0.95 1.67 0 2.94-0.37 3.79-1.14 0.87-0.76 1.3-1.83 1.3-3.22l0-1.63c-0.5 0.93-1.25 1.66-2.27 2.18-1.02 0.52-2.16 0.78-3.42 0.78-2.38 0-4.29-0.74-5.72-2.2-1.43-1.47-2.14-3.74-2.14-6.8 0-3.06 0.7-5.35 2.09-6.87 1.39-1.52 3.25-2.28 5.59-2.28 1.28 0 2.45 0.27 3.51 0.82 1.05 0.55 1.83 1.26 2.32 2.14l0.11-1.78c0.05-0.5 0.35-0.76 0.89-0.76l2.8 0c0.57 0 0.85 0.29 0.85 0.87zm10.11 0l0 18.26c0 0.58-0.28 0.87-0.85 0.87l-3.21 0c-0.57 0-0.85-0.29-0.85-0.87l0-18.26c0-0.58 0.28-0.87 0.85-0.87l3.21 0c0.57 0 0.85 0.29 0.85 0.87zm0-6.64l0 2.66c0 0.58-0.27 0.87-0.81 0.87l-3.28 0c-0.55 0-0.82-0.29-0.82-0.87l0-2.66c0-0.58 0.27-0.87 0.82-0.87l3.28 0c0.54 0 0.81 0.29 0.81 0.87zm10.19 15.75c0 4.25 1.58 6.38 4.76 6.38 1.57 0 2.74-0.5 3.5-1.5 0.76-1 1.15-2.63 1.15-4.88 0-2.25-0.39-3.87-1.15-4.87-0.76-1-1.93-1.5-3.5-1.5-3.18 0-4.76 2.12-4.76 6.37zm-0.15 7.22l-0.11 2.08c-0.05 0.48-0.33 0.72-0.85 0.72l-2.91 0c-0.57 0-0.85-0.29-0.85-0.87l0-25.01c0-0.56 0.28-0.84 0.85-0.84l3.17 0c0.56 0 0.85 0.28 0.85 0.84l0 8.58c0.51-0.99 1.34-1.76 2.47-2.32 1.13-0.56 2.36-0.83 3.69-0.83 2.6 0 4.63 0.87 6.07 2.63 1.44 1.76 2.16 4.36 2.16 7.8 0 3.45-0.72 6.05-2.16 7.8-1.44 1.76-3.47 2.64-6.07 2.64-1.38 0-2.64-0.28-3.78-0.83-1.14-0.56-1.99-1.35-2.53-2.39zm23.77-23.08l0 25.01c0 0.58-0.29 0.87-0.85 0.87l-3.21 0c-0.54 0-0.81-0.29-0.81-0.87l0-25.01c0-0.56 0.27-0.84 0.81-0.84l3.21 0c0.56 0 0.85 0.28 0.85 0.84zm13.76 9.14c-2.93 0-4.52 1.8-4.76 5.4l9.15 0 0-0.23c0-1.62-0.37-2.89-1.12-3.8-0.75-0.91-1.84-1.37-3.27-1.37zm-2.79 12.17c1.05 0.87 2.42 1.31 4.12 1.31 1.7 0 3.31-0.39 4.83-1.18 0.52-0.25 0.89-0.07 1.11 0.54l0.63 1.78c0.12 0.48-0.06 0.84-0.56 1.1-1.91 0.99-4.05 1.48-6.42 1.48-3.27 0-5.82-0.92-7.66-2.75-1.83-1.84-2.75-4.4-2.75-7.69 0-3.31 0.85-5.89 2.53-7.72 1.69-1.84 3.98-2.75 6.89-2.75 2.83 0 5.02 0.86 6.57 2.6 1.54 1.73 2.32 4.04 2.32 6.92l0 1.86c0 0.61-0.3 0.91-0.88 0.91l-12.59 0c0.2 1.52 0.82 2.72 1.86 3.59zm38.95 0.28c1.68 0 3.18-0.36 4.51-1.1 0.56-0.23 0.98-0.05 1.25 0.53l1.03 2.36c0.18 0.43 0 0.81-0.55 1.14-1.77 1.19-4.12 1.78-7.05 1.78-3.81 0-6.77-1.16-8.87-3.49-2.1-2.32-3.16-5.76-3.16-10.28 0-4.54 1.04-7.97 3.12-10.31 2.08-2.34 4.99-3.51 8.73-3.51 2.83 0 5.15 0.57 6.98 1.71 0.51 0.35 0.68 0.74 0.51 1.17l-0.99 2.32c-0.23 0.58-0.65 0.73-1.26 0.45-1.33-0.63-2.8-0.94-4.43-0.94-2.51 0-4.37 0.74-5.59 2.23-1.22 1.5-1.83 3.78-1.83 6.88 0 3.08 0.62 5.36 1.87 6.85 1.24 1.48 3.15 2.21 5.73 2.21zm10.6-2.54l0-12.29c0-0.59 0.29-0.88 0.88-0.88l3.18 0c0.54 0 0.81 0.29 0.81 0.88l0 11.34c0 1.29 0.26 2.28 0.77 2.94 0.52 0.68 1.4 1.01 2.66 1.01 1.33 0 2.39-0.41 3.16-1.21 0.77-0.81 1.16-1.9 1.16-3.27l0-10.81c0-0.59 0.28-0.88 0.85-0.88l3.21 0c0.54 0 0.81 0.29 0.81 0.88l0 18.25c0 0.58-0.27 0.87-0.81 0.87l-2.96 0c-0.53 0-0.83-0.24-0.88-0.72l-0.15-2.04c-1.18 2.12-3.18 3.18-6.01 3.18-4.45 0-6.68-2.42-6.68-7.25zm27.56-19.05l0 25.01c0 0.58-0.28 0.87-0.85 0.87l-3.2 0c-0.55 0-0.82-0.29-0.82-0.87l0-25.01c0-0.56 0.27-0.84 0.82-0.84l3.2 0c0.57 0 0.85 0.28 0.85 0.84zm14.88 10.13l-4.06 0 0 9.23c0 1.08 0.17 1.83 0.51 2.23 0.35 0.41 1.02 0.61 2.04 0.61 0.17 0 0.68-0.06 1.55-0.19 0.24-0.02 0.42 0.03 0.53 0.15 0.11 0.13 0.18 0.34 0.2 0.61l0.23 2.13c0.02 0.42-0.21 0.72-0.7 0.87-0.82 0.28-1.85 0.42-3.11 0.42-2.16 0-3.71-0.48-4.65-1.44-0.93-0.96-1.4-2.59-1.4-4.86l0-9.76-2.03 0c-0.59 0-0.88-0.29-0.88-0.87l0-2.13c0-0.58 0.29-0.87 0.88-0.87l2.11 0 0-4.67c0-0.53 0.27-0.79 0.85-0.79l2.95 0c0.59 0 0.88 0.26 0.88 0.79l0 4.67 4.1 0c0.57 0 0.85 0.29 0.85 0.87l0 2.13c0 0.58-0.28 0.87-0.85 0.87zm4.28 8.92l0-12.29c0-0.59 0.29-0.88 0.88-0.88l3.18 0c0.54 0 0.81 0.29 0.81 0.88l0 11.34c0 1.29 0.26 2.28 0.77 2.94 0.52 0.68 1.4 1.01 2.66 1.01 1.33 0 2.39-0.41 3.16-1.21 0.77-0.81 1.16-1.9 1.16-3.27l0-10.81c0-0.59 0.28-0.88 0.85-0.88l3.21 0c0.54 0 0.81 0.29 0.81 0.88l0 18.25c0 0.58-0.27 0.87-0.81 0.87l-2.96 0c-0.53 0-0.83-0.24-0.88-0.72l-0.15-2.04c-1.18 2.12-3.18 3.18-6.01 3.18-4.45 0-6.68-2.42-6.68-7.25zm23.47-13.17l2.91 0c0.54 0 0.84 0.27 0.89 0.8l0.18 3c0.42-1.01 1.15-1.93 2.18-2.73 1.04-0.81 2.27-1.22 3.69-1.22 0.27 0 0.46 0.05 0.58 0.15 0.11 0.11 0.16 0.31 0.16 0.61l0 3.53c0 0.45-0.23 0.68-0.7 0.68-0.1 0-0.27-0.01-0.52-0.03-0.24-0.03-0.47-0.04-0.66-0.04-1.35 0-2.48 0.56-3.36 1.69-0.89 1.12-1.33 2.44-1.33 3.96l0 8.73c0 0.58-0.28 0.87-0.85 0.87l-3.17 0c-0.6 0-0.89-0.29-0.89-0.87l0-18.26c0-0.58 0.29-0.87 0.89-0.87zm24.46 12.45l0-1.63c-1.37 0.05-2.5 0.12-3.39 0.21-0.89 0.08-1.73 0.25-2.53 0.49-0.8 0.24-1.38 0.58-1.75 1.03-0.37 0.44-0.56 1-0.56 1.68 0 0.81 0.29 1.46 0.85 1.94 0.57 0.48 1.37 0.72 2.4 0.72 1.63 0 2.86-0.41 3.71-1.23 0.85-0.83 1.27-1.89 1.27-3.21zm4.77-5.69l0 12.37c0 0.58-0.3 0.87-0.89 0.87l-2.73 0c-0.52 0-0.8-0.24-0.85-0.72l-0.15-2.05c-1.3 2.08-3.54 3.11-6.71 3.11-1.95 0-3.48-0.5-4.62-1.51-1.13-1.02-1.7-2.44-1.7-4.29 0-1.09 0.21-2.03 0.63-2.83 0.42-0.8 0.98-1.43 1.68-1.9 0.7-0.46 1.62-0.85 2.77-1.14 1.15-0.29 2.31-0.49 3.5-0.6 1.2-0.12 2.63-0.19 4.3-0.21l0-0.88c0-1.18-0.33-2.05-0.99-2.61-0.66-0.56-1.74-0.84-3.21-0.84-1.8 0-3.64 0.38-5.53 1.14-0.52 0.18-0.88 0-1.08-0.53l-0.66-2.09c-0.15-0.45 0.02-0.81 0.51-1.06 2.2-0.96 4.66-1.44 7.39-1.44 5.55 0 8.34 2.4 8.34 7.21zm9.89-12.64l0 25.01c0 0.58-0.29 0.87-0.85 0.87l-3.21 0c-0.54 0-0.81-0.29-0.81-0.87l0-25.01c0-0.56 0.27-0.84 0.81-0.84l3.21 0c0.56 0 0.85 0.28 0.85 0.84zm31.81 24.93l0-10.28-10.26 0 0 10.28c0 0.64-0.31 0.95-0.93 0.95l-3.31 0c-0.62 0-0.93-0.31-0.93-0.95l0-24.85c0-0.61 0.31-0.92 0.93-0.92l3.31 0c0.62 0 0.93 0.31 0.93 0.92l0 9.79 10.26 0 0-9.79c0-0.61 0.3-0.92 0.88-0.92l3.37 0c0.58 0 0.88 0.31 0.88 0.92l0 24.85c0 0.64-0.3 0.95-0.88 0.95l-3.37 0c-0.58 0-0.88-0.31-0.88-0.95zm19.12-15.79c-2.93 0-4.52 1.8-4.77 5.4l9.15 0 0-0.23c0-1.62-0.37-2.89-1.12-3.8-0.75-0.91-1.84-1.37-3.26-1.37zm-2.79 12.17c1.04 0.87 2.42 1.31 4.12 1.31 1.69 0 3.3-0.39 4.83-1.18 0.52-0.25 0.88-0.07 1.11 0.54l0.62 1.78c0.12 0.48-0.06 0.84-0.55 1.1-1.92 0.99-4.06 1.48-6.42 1.48-3.27 0-5.83-0.92-7.66-2.75-1.83-1.84-2.75-4.4-2.75-7.69 0-3.31 0.84-5.89 2.53-7.72 1.68-1.84 3.98-2.75 6.88-2.75 2.83 0 5.02 0.86 6.57 2.6 1.55 1.73 2.32 4.04 2.32 6.92l0 1.86c0 0.61-0.29 0.91-0.88 0.91l-12.58 0c0.19 1.52 0.82 2.72 1.86 3.59zm16.7-15.43l2.91 0c0.54 0 0.84 0.27 0.89 0.8l0.18 3c0.42-1.01 1.14-1.93 2.18-2.73 1.04-0.81 2.26-1.22 3.69-1.22 0.27 0 0.46 0.05 0.57 0.15 0.11 0.11 0.17 0.31 0.17 0.61l0 3.53c0 0.45-0.24 0.68-0.7 0.68-0.1 0-0.27-0.01-0.52-0.03-0.25-0.03-0.47-0.04-0.66-0.04-1.36 0-2.48 0.56-3.37 1.69-0.88 1.12-1.32 2.44-1.32 3.96l0 8.73c0 0.58-0.28 0.87-0.85 0.87l-3.17 0c-0.6 0-0.89-0.29-0.89-0.87l0-18.26c0-0.58 0.29-0.87 0.89-0.87zm19.22 0.87l0 18.26c0 0.58-0.28 0.87-0.85 0.87l-3.21 0c-0.56 0-0.85-0.29-0.85-0.87l0-18.26c0-0.58 0.29-0.87 0.85-0.87l3.21 0c0.57 0 0.85 0.29 0.85 0.87zm0-6.64l0 2.66c0 0.58-0.27 0.87-0.81 0.87l-3.28 0c-0.55 0-0.82-0.29-0.82-0.87l0-2.66c0-0.58 0.27-0.87 0.82-0.87l3.28 0c0.54 0 0.81 0.29 0.81 0.87zm14.91 10.02l-4.06 0 0 9.23c0 1.08 0.18 1.83 0.52 2.23 0.34 0.41 1.02 0.61 2.03 0.61 0.17 0 0.69-0.06 1.55-0.19 0.25-0.02 0.42 0.03 0.53 0.15 0.12 0.13 0.18 0.34 0.21 0.61l0.22 2.13c0.02 0.42-0.21 0.72-0.7 0.87-0.81 0.28-1.85 0.42-3.1 0.42-2.17 0-3.72-0.48-4.65-1.44-0.93-0.96-1.4-2.59-1.4-4.86l0-9.76-2.04 0c-0.58 0-0.88-0.29-0.88-0.87l0-2.13c0-0.58 0.3-0.87 0.88-0.87l2.11 0 0-4.67c0-0.53 0.28-0.79 0.85-0.79l2.95 0c0.59 0 0.89 0.26 0.89 0.79l0 4.67 4.09 0c0.57 0 0.85 0.29 0.85 0.87l0 2.13c0 0.58-0.28 0.87-0.85 0.87zm16.24 8.2l0-1.63c-1.38 0.05-2.51 0.12-3.39 0.21-0.89 0.08-1.73 0.25-2.53 0.49-0.8 0.24-1.39 0.58-1.76 1.03-0.36 0.44-0.55 1-0.55 1.68 0 0.81 0.28 1.46 0.85 1.94 0.57 0.48 1.36 0.72 2.4 0.72 1.62 0 2.86-0.41 3.71-1.23 0.85-0.83 1.27-1.89 1.27-3.21zm4.76-5.69l0 12.37c0 0.58-0.29 0.87-0.89 0.87l-2.73 0c-0.52 0-0.8-0.24-0.84-0.72l-0.15-2.05c-1.31 2.08-3.54 3.11-6.72 3.11-1.94 0-3.48-0.5-4.62-1.51-1.12-1.02-1.69-2.44-1.69-4.29 0-1.09 0.21-2.03 0.63-2.83 0.41-0.8 0.98-1.43 1.68-1.9 0.7-0.46 1.62-0.85 2.76-1.14 1.15-0.29 2.32-0.49 3.51-0.6 1.19-0.12 2.63-0.19 4.3-0.21l0-0.88c0-1.18-0.33-2.05-1-2.61-0.66-0.56-1.73-0.84-3.21-0.84-1.8 0-3.64 0.38-5.53 1.14-0.52 0.18-0.87 0-1.07-0.53l-0.67-2.09c-0.15-0.45 0.02-0.81 0.52-1.06 2.19-0.96 4.65-1.44 7.38-1.44 5.56 0 8.34 2.4 8.34 7.21zm17.49 1.78c0-3.49-1.42-5.24-4.28-5.24-2.8 0-4.2 1.81-4.2 5.43 0 3.62 1.4 5.43 4.2 5.43 1.36 0 2.41-0.48 3.16-1.44 0.75-0.96 1.12-2.36 1.12-4.18zm4.8-7.67l0 15.76c0 2.6-0.82 4.59-2.45 5.96-1.64 1.36-3.93 2.05-6.88 2.05-2.93 0-5.2-0.4-6.79-1.18-0.5-0.25-0.67-0.6-0.52-1.02l0.63-2.05c0.15-0.56 0.49-0.75 1.03-0.58 1.75 0.64 3.5 0.95 5.28 0.95 1.67 0 2.94-0.37 3.8-1.14 0.86-0.76 1.29-1.83 1.29-3.22l0-1.63c-0.49 0.93-1.25 1.66-2.27 2.18-1.02 0.52-2.16 0.78-3.42 0.78-2.38 0-4.28-0.74-5.71-2.2-1.43-1.47-2.15-3.74-2.15-6.8 0-3.06 0.7-5.35 2.09-6.87 1.39-1.52 3.26-2.28 5.59-2.28 1.28 0 2.45 0.27 3.51 0.82 1.06 0.55 1.83 1.26 2.32 2.14l0.11-1.78c0.05-0.5 0.35-0.76 0.89-0.76l2.81 0c0.56 0 0.84 0.29 0.84 0.87zm13.73 2.39c-2.93 0-4.52 1.8-4.76 5.4l9.15 0 0-0.23c0-1.62-0.37-2.89-1.12-3.8-0.75-0.91-1.84-1.37-3.27-1.37zm-2.79 12.17c1.05 0.87 2.42 1.31 4.12 1.31 1.7 0 3.3-0.39 4.83-1.18 0.52-0.25 0.89-0.07 1.11 0.54l0.63 1.78c0.12 0.48-0.07 0.84-0.56 1.1-1.91 0.99-4.06 1.48-6.42 1.48-3.27 0-5.82-0.92-7.66-2.75-1.83-1.84-2.74-4.4-2.74-7.69 0-3.31 0.84-5.89 2.52-7.72 1.69-1.84 3.98-2.75 6.89-2.75 2.83 0 5.02 0.86 6.57 2.6 1.54 1.73 2.32 4.04 2.32 6.92l0 1.86c0 0.61-0.3 0.91-0.89 0.91l-12.58 0c0.2 1.52 0.82 2.72 1.86 3.59zm-461.13 35.21l-9.89 0 0 9.9c0 0.64-0.31 0.96-0.92 0.96l-3.28 0c-0.62 0-0.93-0.32-0.93-0.96l0-24.85c0-0.61 0.31-0.92 0.93-0.92l14.43 0c0.59 0 0.88 0.29 0.88 0.88l0 2.69c0 0.64-0.29 0.95-0.88 0.95l-10.23 0 0 6.91 9.89 0c0.6 0 0.89 0.32 0.89 0.95l0 2.58c0 0.61-0.29 0.91-0.89 0.91zm5.02 4.02l0-12.29c0-0.59 0.3-0.88 0.88-0.88l3.18 0c0.54 0 0.81 0.29 0.81 0.88l0 11.34c0 1.3 0.26 2.28 0.78 2.95 0.51 0.67 1.4 1 2.65 1 1.33 0 2.39-0.4 3.16-1.21 0.77-0.81 1.16-1.9 1.16-3.27l0-10.81c0-0.59 0.29-0.88 0.85-0.88l3.21 0c0.54 0 0.81 0.29 0.81 0.88l0 18.25c0 0.58-0.27 0.87-0.81 0.87l-2.95 0c-0.54 0-0.84-0.24-0.89-0.72l-0.14-2.05c-1.19 2.13-3.19 3.19-6.02 3.19-4.45 0-6.68-2.42-6.68-7.25zm40.26-6.22l0 12.18c0 0.58-0.28 0.87-0.84 0.87l-3.18 0c-0.59 0-0.88-0.29-0.88-0.87l0-11.27c0-1.34-0.28-2.34-0.83-3-0.55-0.66-1.47-0.99-2.75-0.99-1.38 0-2.45 0.42-3.2 1.24-0.75 0.82-1.12 1.94-1.12 3.36l0 10.66c0 0.58-0.28 0.87-0.85 0.87l-3.17 0c-0.57 0-0.85-0.29-0.85-0.87l0-18.25c0-0.59 0.28-0.88 0.85-0.88l2.91 0c0.52 0 0.8 0.26 0.85 0.76l0.18 1.98c1.23-2.13 3.31-3.19 6.2-3.19 2.24 0 3.92 0.64 5.03 1.93 1.1 1.29 1.65 3.12 1.65 5.47zm18.57 3.03c0-4.25-1.6-6.37-4.8-6.37-1.55 0-2.71 0.5-3.49 1.5-0.77 1-1.16 2.62-1.16 4.87 0 2.26 0.39 3.88 1.16 4.88 0.78 1 1.94 1.5 3.49 1.5 3.2 0 4.8-2.12 4.8-6.38zm0.22 9.3l-0.11-2.08c-0.52 1.04-1.36 1.83-2.51 2.39-1.16 0.55-2.42 0.83-3.8 0.83-2.61 0-4.64-0.88-6.07-2.64-1.44-1.76-2.16-4.35-2.16-7.8 0-3.44 0.72-6.04 2.16-7.8 1.43-1.75 3.46-2.63 6.07-2.63 1.33 0 2.56 0.28 3.71 0.83 1.14 0.56 1.95 1.33 2.45 2.32l0-8.58c0-0.56 0.28-0.84 0.85-0.84l3.17 0c0.59 0 0.89 0.28 0.89 0.84l0 25.01c0 0.59-0.3 0.87-0.89 0.87l-2.87 0c-0.55 0-0.84-0.24-0.89-0.72zm14.83-18.4l0 18.25c0 0.58-0.28 0.87-0.85 0.87l-3.21 0c-0.56 0-0.85-0.29-0.85-0.87l0-18.25c0-0.59 0.29-0.88 0.85-0.88l3.21 0c0.57 0 0.85 0.29 0.85 0.88zm0-6.65l0 2.66c0 0.58-0.27 0.87-0.81 0.87l-3.28 0c-0.55 0-0.82-0.29-0.82-0.87l0-2.66c0-0.58 0.27-0.87 0.82-0.87l3.28 0c0.54 0 0.81 0.29 0.81 0.87zm22.84 12.72l0 12.18c0 0.58-0.28 0.87-0.85 0.87l-3.17 0c-0.59 0-0.88-0.29-0.88-0.87l0-11.27c0-1.34-0.28-2.34-0.83-3-0.55-0.66-1.47-0.99-2.75-0.99-1.38 0-2.45 0.42-3.2 1.24-0.75 0.82-1.12 1.94-1.12 3.36l0 10.66c0 0.58-0.28 0.87-0.85 0.87l-3.17 0c-0.57 0-0.85-0.29-0.85-0.87l0-18.25c0-0.59 0.28-0.88 0.85-0.88l2.91 0c0.52 0 0.8 0.26 0.85 0.76l0.18 1.98c1.23-2.13 3.31-3.19 6.21-3.19 2.23 0 3.91 0.64 5.02 1.93 1.1 1.29 1.65 3.12 1.65 5.47zm17.54 1.59c0-3.49-1.43-5.23-4.28-5.23-2.81 0-4.21 1.8-4.21 5.42 0 3.62 1.4 5.43 4.21 5.43 1.35 0 2.4-0.48 3.15-1.44 0.75-0.96 1.13-2.36 1.13-4.18zm4.8-7.66l0 15.75c0 2.61-0.83 4.59-2.46 5.96-1.64 1.36-3.93 2.05-6.88 2.05-2.93 0-5.19-0.4-6.79-1.18-0.5-0.25-0.67-0.59-0.52-1.02l0.63-2.05c0.15-0.56 0.49-0.75 1.03-0.57 1.75 0.63 3.51 0.94 5.28 0.94 1.67 0 2.94-0.37 3.8-1.14 0.86-0.76 1.29-1.83 1.29-3.22l0-1.63c-0.49 0.93-1.25 1.66-2.27 2.18-1.02 0.52-2.16 0.78-3.41 0.78-2.39 0-4.29-0.74-5.72-2.2-1.43-1.47-2.14-3.74-2.14-6.8 0-3.06 0.69-5.35 2.08-6.87 1.39-1.52 3.26-2.28 5.59-2.28 1.29 0 2.45 0.27 3.51 0.82 1.06 0.55 1.83 1.26 2.32 2.14l0.11-1.78c0.05-0.5 0.35-0.76 0.89-0.76l2.81 0c0.56 0 0.85 0.29 0.85 0.88zm33.61 11.87c0 2.54-0.89 4.43-2.69 5.7-1.8 1.26-4.2 1.89-7.2 1.89-3.42 0-6.08-0.49-8-1.48-0.55-0.27-0.73-0.65-0.56-1.13l0.89-2.43c0.19-0.61 0.56-0.8 1.11-0.57 1.77 0.76 3.72 1.13 5.86 1.13 1.68 0 3-0.26 3.97-0.79 0.97-0.53 1.46-1.33 1.46-2.39 0-0.43-0.11-0.83-0.32-1.19-0.21-0.37-0.43-0.66-0.66-0.89-0.24-0.23-0.64-0.49-1.2-0.8-0.57-0.3-1.02-0.52-1.35-0.66-0.33-0.14-0.88-0.36-1.66-0.68-1.01-0.41-1.8-0.74-2.37-0.97-0.57-0.23-1.24-0.6-2.02-1.09-0.78-0.49-1.37-1-1.77-1.52-0.41-0.52-0.76-1.18-1.07-1.99-0.31-0.81-0.46-1.72-0.46-2.74 0-4.85 3.12-7.28 9.37-7.28 2.83 0 5.18 0.44 7.05 1.33 0.54 0.27 0.73 0.65 0.55 1.14l-0.84 2.35c-0.22 0.56-0.62 0.73-1.18 0.53-1.41-0.56-3.11-0.84-5.1-0.84-3.13 0-4.69 0.97-4.69 2.9 0 1.13 0.7 2.07 2.1 2.8 0.44 0.24 1.39 0.66 2.84 1.27 0.79 0.35 1.29 0.58 1.5 0.67 0.22 0.1 0.68 0.31 1.41 0.63 0.72 0.32 1.2 0.57 1.43 0.75 0.24 0.17 0.61 0.45 1.12 0.81 0.52 0.37 0.88 0.72 1.08 1.04 0.2 0.33 0.43 0.73 0.7 1.19 0.27 0.47 0.46 0.97 0.56 1.51 0.09 0.55 0.14 1.15 0.14 1.8zm5.85 4.96c-1.78-1.81-2.68-4.4-2.68-7.76 0-3.37 0.88-5.94 2.64-7.72 1.76-1.79 4.13-2.68 7.11-2.68 2.43 0 4.33 0.43 5.68 1.29 0.52 0.3 0.68 0.7 0.48 1.18l-0.88 2.04c-0.25 0.54-0.66 0.68-1.22 0.42-1.06-0.48-2.22-0.72-3.47-0.72-1.7 0-3.02 0.51-3.95 1.54-0.93 1.02-1.4 2.57-1.4 4.65 0 2.1 0.47 3.68 1.4 4.72 0.93 1.05 2.23 1.58 3.88 1.58 1.4 0 2.66-0.31 3.8-0.91 0.56-0.26 0.94-0.12 1.14 0.42l0.89 2.08c0.17 0.43 0 0.82-0.52 1.18-1.48 0.94-3.36 1.4-5.64 1.4-3.06 0-5.48-0.9-7.26-2.71zm35.23-10.72l0 12.14c0 0.58-0.29 0.87-0.85 0.87l-3.18 0c-0.56 0-0.85-0.29-0.85-0.87l0-11.27c0-1.34-0.28-2.34-0.85-3-0.56-0.66-1.48-0.98-2.76-0.98-1.4 0-2.49 0.42-3.25 1.26-0.76 0.85-1.14 1.96-1.14 3.32l0 10.67c0 0.58-0.29 0.87-0.85 0.87l-3.17 0c-0.57 0-0.86-0.29-0.86-0.87l0-25.01c0-0.56 0.29-0.84 0.86-0.84l3.17 0c0.56 0 0.85 0.28 0.85 0.84l0 8.54c0.46-0.86 1.21-1.6 2.25-2.2 1.03-0.61 2.34-0.91 3.91-0.91 2.26 0 3.95 0.64 5.06 1.93 1.1 1.29 1.66 3.13 1.66 5.51zm13.58-3.72c-2.93 0-4.52 1.8-4.77 5.39l9.15 0 0-0.23c0-1.62-0.37-2.89-1.12-3.8-0.75-0.91-1.84-1.36-3.26-1.36zm-2.79 12.16c1.04 0.87 2.42 1.31 4.12 1.31 1.69 0 3.3-0.39 4.83-1.18 0.52-0.25 0.88-0.07 1.11 0.54l0.62 1.78c0.12 0.48-0.06 0.84-0.55 1.1-1.92 0.99-4.06 1.48-6.42 1.48-3.27 0-5.83-0.92-7.66-2.75-1.83-1.84-2.75-4.4-2.75-7.69 0-3.31 0.84-5.89 2.53-7.72 1.68-1.84 3.98-2.75 6.88-2.75 2.83 0 5.02 0.86 6.57 2.6 1.55 1.73 2.32 4.04 2.32 6.92l0 1.86c0 0.61-0.29 0.92-0.88 0.92l-12.58 0c0.19 1.51 0.82 2.71 1.86 3.58zm32.72-7.38l0 11.08c0 0.58-0.29 0.88-0.85 0.88l-3.14 0c-0.57 0-0.85-0.3-0.85-0.88l0-11.46c0-1.26-0.24-2.22-0.71-2.86-0.49-0.65-1.28-0.98-2.39-0.98-1.28 0-2.28 0.42-3.01 1.24-0.72 0.82-1.08 1.89-1.08 3.21l0 10.85c0 0.58-0.29 0.88-0.85 0.88l-3.14 0c-0.59 0-0.88-0.3-0.88-0.88l0-18.25c0-0.59 0.29-0.88 0.88-0.88l2.92 0c0.54 0 0.83 0.26 0.88 0.76l0.19 1.98c0.44-0.86 1.16-1.61 2.15-2.24 1-0.64 2.24-0.95 3.71-0.95 2.88 0 4.75 1.13 5.61 3.38 1.31-2.25 3.44-3.38 6.42-3.38 2.07 0 3.62 0.63 4.65 1.9 1.04 1.26 1.55 3.06 1.55 5.38l0 12.3c0 0.58-0.28 0.88-0.84 0.88l-3.18 0c-0.56 0-0.85-0.3-0.85-0.88l0-11.42c0-1.29-0.24-2.26-0.73-2.9-0.5-0.65-1.31-0.98-2.44-0.98-1.23 0-2.21 0.4-2.93 1.2-0.73 0.8-1.09 1.8-1.09 3.02zm25.65-4.78c-2.93 0-4.52 1.8-4.77 5.39l9.15 0 0-0.23c0-1.62-0.37-2.89-1.12-3.8-0.75-0.91-1.84-1.36-3.26-1.36zm-2.79 12.16c1.04 0.87 2.41 1.31 4.11 1.31 1.7 0 3.31-0.39 4.84-1.18 0.51-0.25 0.88-0.07 1.11 0.54l0.62 1.78c0.12 0.48-0.06 0.84-0.55 1.1-1.92 0.99-4.06 1.48-6.42 1.48-3.28 0-5.83-0.92-7.66-2.75-1.83-1.84-2.75-4.4-2.75-7.69 0-3.31 0.84-5.89 2.53-7.72 1.68-1.84 3.98-2.75 6.88-2.75 2.83 0 5.02 0.86 6.57 2.6 1.55 1.73 2.32 4.04 2.32 6.92l0 1.86c0 0.61-0.29 0.92-0.88 0.92l-12.59 0c0.2 1.51 0.83 2.71 1.87 3.58zm-247.34 46.25l-10.32 0 0 8.39-4.27 0 0-33.94 4.27 0 0 4.67 9.68 0 0 4.05-9.68 0 0 4.35 8.89 0 0 3.94-8.89 0 0 4.48 10.32 0 0 4.06zm-23.09-25.55l4.23 0 0 17.01c0 5.95-1.75 13.17-10.43 17.41-0.68-1.07-2.05-2.45-3.05-3.29 3.62-1.42 5.87-3.79 7.28-6.31l-7.5 1.31-0.79-4.34c2.55-0.3 6.13-0.73 9.87-1.24 0.28-1.28 0.39-2.48 0.39-3.5l0-0.04-8.54 0 0-3.94 8.54 0 0-4.35-8.93 0 0-4.05 8.93 0 0-4.67zm68.56 5.47c0 0-0.04 1.46-0.07 1.98-0.68 16.27-1.33 22.22-2.69 24.05-0.83 1.24-1.62 1.64-2.8 1.89-1 0.19-2.51 0.19-4.05 0.11-0.11-1.24-0.54-3.02-1.18-4.23 1.32 0.14 2.51 0.14 3.19 0.14 0.54 0 0.89-0.14 1.32-0.69 0.9-1.17 1.54-6.13 2.12-19.23l-0.18 0c-1.76 9.19-5.45 18.69-11.22 23.54-0.83-0.84-2.3-1.9-3.48-2.52 5.73-4.2 9.32-12.48 11.12-21.02l-1.69 0c-1.58 5.95-4.59 12.48-8.22 15.98-0.78-0.84-2.14-1.82-3.26-2.44 3.55-2.85 6.35-8.25 7.93-13.54l-1.83 0c-1.04 2.52-2.29 4.78-3.69 6.53-0.69-0.69-2.37-1.89-3.23-2.45 2.83-3.17 4.8-8.39 5.88-13.75l3.87 0.73c-0.35 1.67-0.82 3.32-1.32 4.92l13.48 0zm-19.29 14.27c-1.3 0.37-2.55 0.81-3.87 1.21l0 12.99-3.91 0 0-11.79c-1.94 0.59-3.73 1.17-5.38 1.61l-1.04-4.12c1.79-0.41 3.98-0.99 6.42-1.69l0-6.96-2.41 0c-0.39 1.78-0.82 3.35-1.32 4.67-0.65-0.55-2.23-1.53-3.02-2.01 1.12-2.88 1.73-7.45 2.05-11.76l3.55 0.63c-0.14 1.46-0.32 2.88-0.54 4.34l1.69 0 0-7.01 3.91 0 0 7.01 2.97 0 0 4.13-2.97 0 0 5.87 3.3-0.95 0.57 3.83zm55.5 3.91l-14.81 0 0 1.64 14.81 0 0-1.64zm0-4.12l-14.81 0 0 1.67 14.81 0 0-1.67zm0-4.06l-14.81 0 0 1.64 14.81 0 0-1.64zm-0.14-3.17l0-3.83-3.08 0c-0.44 1.6-1.15 3.13-2.37 4.41l9.89 0 0 15.04-4.72 0c3.36 1.02 6.77 2.22 9.03 3.14l-1.97 3.03c-2.55-1.17-6.82-2.81-10.8-4.05l1.29-2.12-9.28 0 2.33 1.39c-3.09 1.75-7.92 3.72-11.55 4.81-0.36-0.76-1.4-2.77-2.04-3.64 2.98-0.59 6.6-1.5 9.25-2.56l-4.73 0 0-15.04 12.83 0c-0.75-0.65-2.11-1.57-2.83-1.93 2.3-2.08 2.58-4.75 2.58-6.83l0-2.66c4.02-0.18 8.57-0.73 11.08-1.61l2.66 2.41c-2.73 0.95-6.57 1.5-10.15 1.76l0 0.17c0 0.37 0 0.73-0.04 1.1l11.51 0 0 3.18-5.05 0 0 3.83-3.84 0zm-17.75-3.83c-0.61 1.86-1.61 3.65-3.4 5.1-0.55-0.76-2.01-2.26-2.77-2.77 2.73-2.08 3.12-4.67 3.12-6.78l0-2.45c3.73-0.22 8.03-0.77 10.55-1.64l2.36 2.52c-2.51 0.91-5.95 1.38-9.25 1.67 0 0.37 0 0.77-0.04 1.17l9.76 0 0 3.18-3.45 0 0 3.72-3.76 0 0-3.72-3.12 0zm49.88 1.71c1.55 3.83 3.69 7.23 6.46 10.11 2.47-2.77 4.44-6.09 5.84-10.11l-12.3 0zm17.11 0c-1.83 5.26-4.27 9.53-7.39 13.07 3.69 2.92 8.21 5.03 13.55 6.31-0.96 0.95-2.22 2.85-2.87 4.05-5.63-1.53-10.25-3.94-14.02-7.15-3.94 3.29-8.74 5.69-14.52 7.37-0.46-1.02-1.72-3.06-2.58-4.05 5.59-1.42 10.22-3.5 13.95-6.46-3.23-3.61-5.7-7.99-7.64-13.14l-5.63 0 0-4.23 15.13 0c-0.39-1.5-1.18-3.54-2.01-5.15l4.56-1.35c0.93 1.68 2.01 4.02 2.44 5.51l-3.08 0.99 15.59 0 0 4.23-5.48 0zm44.89 19.05c1.83 0 2.11-1.53 2.43-7.55 0.98 0.77 2.66 1.6 3.77 1.82-0.46 7.05-1.54 9.56-5.88 9.56l-5.99 0c-4.4 0-5.66-1.46-5.66-6.42l0-26.13 4.12 0 0 9.27 12.48 0 0 4.16-12.48 0 0 12.77c0 2.16 0.25 2.52 1.97 2.52l5.24 0zm-14.13-27.92c-0.97 2.34-2.15 4.68-3.48 6.94l0 25.65-4.05 0 0-19.67c-1.15 1.47-2.26 2.74-3.44 3.87-0.4-1.06-1.58-3.43-2.26-4.53 3.65-3.21 7.21-8.38 9.25-13.61l3.98 1.35zm55.33 3.98l3.44 0 0-1.46-3.44 0 0 1.46zm-6.67 16.94l9.57 0 0-1.1-9.57 0 0 1.1zm0-3.18l9.57 0 0-1.13-9.57 0 0 1.13zm0-3.21l9.57 0 0-1.1-9.57 0 0 1.1zm2.62-12.01l-3.44 0 0 1.46 3.44 0 0-1.46zm1.43 21.79c-1.87 1.2-4.52 2.63-6.74 3.54 1.79 0.29 3.84 0.36 6.13 0.36 2.65 0 6.24-0.14 9.54-0.4-1.86-0.8-4.55-1.86-7.07-2.66l1.23-2.01-5.6 0 2.51 1.17zm12.98-14.05l-23.81 0 0-3.07 9.4 0 0-0.98-7.32 0 0-5.95 7.32 0 0-1.75 4.05 0 0 1.75 7.6 0 0 5.95-7.6 0 0 0.98 10.36 0 0 3.07zm-29.04-4.31c-0.44-1.64-1.33-4.27-1.94-6.28l3.34-1.05c0.64 2 1.5 4.49 2.01 6.13l-3.41 1.2zm25.7 21.79c1.58-0.14 3.02-0.29 4.24-0.47-0.47 1.17-1.19 3.28-1.22 4.45-2.98 0.18-9.29 0.44-13.48 0.44-4.78 0-7.78-0.41-10.36-1.94-1.51-0.84-2.8-2.04-3.52-2.04-0.82 0-2.12 2.48-2.98 4.56l-2.86-4.12c1.29-1.57 2.65-2.82 3.87-3.54 0.75-1.79 1.39-4.09 1.86-6.28l-4.41 0c0.87-2.16 1.79-5.08 2.65-7.92l-3.29 0 0-3.87 8.35 0c-0.75 2.55-1.68 5.44-2.51 8.03l1.33 0 0.61-0.11 1.76 0.59c-0.58 3.28-1.48 6.71-2.62 9.45 0.61 0.36 1.32 0.91 2.33 1.53 0.79 0.51 1.72 0.87 2.76 1.13-0.65-0.76-1.55-1.86-2.12-2.4 1.94-0.52 4.13-1.32 5.81-2.09l-4.05 0 0-11.9 18.07 0 0 11.9-4.84 0c2.33 0.73 4.7 1.53 6.27 2.12l-1.65 2.48zm28.19-22.92c2.26 0.51 4.63 1.06 6.99 1.64 1.72-0.47 3.37-1.05 4.7-1.64l-11.69 0zm12.91 6.31c-1.76-0.61-3.91-1.24-6.17-1.85-2.58 0.69-5.2 1.31-7.71 1.85l13.88 0zm-7.32 11.65l0-1.9-5.84 0c-0.39 0.65-0.79 1.28-1.22 1.9l7.06 0zm15.49 5.43l0 3.51-26.35 0 0-3.51 10.86 0 0-2.11-7.6 0 0-2.63c-0.64 0.84-1.36 1.57-2.05 2.23-0.24-0.77-1.07-2.6-1.68-3.62-0.43 3.8-1.47 8-3.83 10.96-0.65-0.81-2.41-2.34-3.3-2.82 2.9-3.65 3.19-8.83 3.19-12.59l0-6.5 4.84 0c-0.57-0.61-1.29-1.27-1.79-1.68 2.57-0.4 5.41-0.9 8.17-1.56-2.26-0.59-4.59-1.1-6.7-1.5l2-1.57-6.16 0 0-3.39 12.47 0c-0.42-0.69-0.92-1.36-1.36-1.9l2.87-1.43c0.83 0.95 1.79 2.23 2.4 3.33l12.41 0 0 3.39-5.2 0 1.72 1.1c-1.29 0.62-2.79 1.24-4.41 1.82 2.12 0.58 4.05 1.17 5.67 1.71l-2.01 1.68 5.27 0 0 3.47-26.03 0 0 3.07c0 1.16-0.04 2.44-0.18 3.83 1.72-1.72 3.19-4.05 4.09-6.57l3.62 1.1c-0.18 0.47-0.36 0.95-0.58 1.46l4.16 0 0-2.23 4.2 0 0 2.23 8.85 0 0 3.39-8.85 0 0 1.9 7.82 0 0 3.32-7.82 0 0 2.11 11.29 0zm21.13-4.3l15.52 0 0-1.64-15.52 0 0 1.64zm0-4.09l15.52 0 0-1.57-15.52 0 0 1.57zm0-4.01l15.52 0 0-1.57-15.52 0 0 1.57zm1.18-12.34l-9.18 0 0-3.17 9.18 0 0 3.17zm13.44 23c3.3 1.23 6.81 2.7 8.93 3.75l-3.84 2.34c-2.04-1.21-5.77-2.99-9.31-4.31l2.18-1.78-10.11 0 3.12 1.46c-2.94 1.89-7.57 3.72-11.19 4.74-0.72-0.84-2.23-2.45-3.16-3.18 3.45-0.66 7.28-1.75 9.8-3.02l-5.17 0 0-14.82 23.99 0 0 14.82-5.24 0zm-0.97-21.46c1.94 1.93 5.74 2.84 10.58 3.1-0.86 0.84-1.86 2.41-2.36 3.46-4.02-0.51-7.14-1.68-9.4-3.68-1.36 1.6-4.34 3.03-10.36 3.72-0.29-0.69-0.86-1.61-1.44-2.37l-9.5 0 0-3.33 10.83 0 0 2.23c6.85-0.73 7.75-2.37 7.75-3.72l0-0.55-2.16 0c-0.75 1.21-1.61 2.3-2.51 3.14-0.68-0.66-2.26-1.72-3.15-2.23 1.9-1.6 3.37-4.01 4.19-6.49l3.73 0.84c-0.18 0.54-0.39 1.09-0.6 1.6l10.18 0 0.64-0.18 2.91 0.91c-0.94 2.01-2.15 4.31-3.3 5.77l-3.3-1.24c0.4-0.58 0.86-1.35 1.25-2.12l-3.98 0 0 0.73 0 0.41zm28.76 18.35c1.51-0.29 3.09-0.66 4.74-0.98l0-3.43-4.74 0 0 4.41zm4.74-11.97l-4.74 0 0 3.76 4.74 0 0-3.76zm-4.74-3.79l4.74 0 0-3.69-4.74 0 0 3.69zm26.29 0.69c-0.32 14.96-0.65 20.33-1.83 22.01-0.82 1.24-1.68 1.64-2.97 1.86-1.15 0.21-3.02 0.18-4.88 0.11-0.07-1.17-0.5-3-1.25-4.13 1.75 0.11 3.36 0.15 4.15 0.15 0.58 0 0.93-0.11 1.26-0.62 0.82-0.99 1.14-5.51 1.36-17.23l-3.8 0c-0.54 9.64-2.47 17.3-9.4 22.16-0.64-1.06-1.97-2.52-2.97-3.29 1.76-1.21 3.15-2.56 4.23-4.12-5.48 1.38-11.36 2.77-15.74 3.83l-0.68-4.46c0.71-0.14 1.58-0.29 2.47-0.47l0-24.08 12.44 0 0 21.49 1.55-0.33 0.39 3.43c2.4-3.8 3.26-8.5 3.59-14.16l-4.56 0 0-4.09 4.7 0c0.04-2.48 0.04-5.07 0.04-7.84l4.19 0c0 2.73 0 5.36-0.07 7.84l7.78 0 0 1.94zm46.4 6.6l-6.64 0 0 17.7-4.44 0 0-17.7-6.28 0 0-4.27 6.28 0 0-11.45 4.44 0 0 11.45 6.64 0 0 4.27zm-27 12.2l4.66 0 0-4.09-4.66 0 0 4.09zm8.35 3.5l-8.35 0 0 1.53-3.59 0 0-12.59 11.94 0 0 11.06zm-0.14-12.81l-11.95 0 0-3.29 11.95 0 0 3.29zm-11.94-8.18l12.01 0 0 3.28-12.01 0 0-3.28zm13.52-1.64l-15.1 0 0-3.43 6.24 0c-0.54-1.39-1.47-3.21-2.29-4.6l3.33-1.57c0.97 1.5 2.08 3.51 2.62 4.85l-2.37 1.32 7.57 0 0 3.43zm61.78-8.72l0 28.32c0 2.3-0.47 3.47-1.76 4.12-1.29 0.7-3.23 0.88-6.06 0.84-0.14-1.17-0.71-3.03-1.29-4.27 1.9 0.08 3.66 0.08 4.27 0.08 0.57 0 0.79-0.19 0.79-0.77l0-28.32 4.05 0zm-6.92 24.23l-3.87 0 0-20.55 3.87 0 0 20.55zm-10.08 0.3l-3.15 0 0 1.16 3.15 0 0-1.16zm0-3.15l-3.15 0 0 1.2 3.15 0 0-1.2zm-0.29-14.01l-3.01 0 0 1.31 3.01 0 0-1.31zm-3.01-2.63l3.01 0 0-1.17-3.01 0 0 1.17zm-6.7 20.95l3.3 0 0-1.16-3.3 0 0 1.16zm0-3.11l3.3 0 0-1.2-3.3 0 0 1.2zm13.48 5.16l-16.78 0 0-8.36 16.78 0 0 8.36zm-18.65 1.42c5.1-0.15 12.95-0.4 20.3-0.73l-0.11 3.25c-7.17 0.32-14.81 0.65-19.9 0.83l-0.29-3.35zm18.47-24.42l1.9 0 0 2.63-1.9 0 0 3.65-6.6 0 0 1.09 6.99 0 0 2.37-6.99 0 0 1.1 8.32 0 0 2.74-19.97 0 0-2.74 7.86 0 0-1.1-6.32 0 0-2.37 6.32 0 0-1.09-6.25 0 0-2.34 6.25 0 0-1.31-8.08 0 0-2.63 8.08 0 0-1.17-6.14 0 0-2.33 6.14 0 0-1.97 3.79 0 0 1.97 6.6 0 0 3.5z"/>
</svg>
