<?xml version="1.0" encoding="UTF-8"?>
<svg xmlns="http://www.w3.org/2000/svg" viewBox="0 0 2419 552">
  <path fill="#ea5d2b" d="M737.32 224.86l0-2.73 6.46 0c-2.34 1.87-4.25 2.8-5.74 2.8-0.23 0-0.47-0.02-0.72-0.07zm10.19 8.88c0.22 0.21 0.32 0.68 0.32 1.41 0 0.25-0.03 0.83-0.1 1.74l-20.97 0 0-1.35 4.4-2.08 16.35 0.28zm-0.15 11.07l-20.36-0.14c-0.21-0.41-0.32-1.07-0.32-2l0.08-2.08 0.02-0.05 20.91 0 0.12 2.41c0 0.95-0.15 1.57-0.45 1.86zm-15.16-36.62l7.78 0 0 4.87-7.78 0 0-4.87zm-3.31 4.87l-6.95-0.1c-0.2-0.29-0.3-0.84-0.3-1.63l0.07-2.39c0-0.5 0.11-0.75 0.32-0.75l6.86 0 0 4.87zm14.44-4.87l7.23 0.05c0.25 0.25 0.38 0.83 0.38 1.74 0 2.05-0.15 3.08-0.45 3.08l-7.16 0 0-4.87zm4.82 10.49l-10.96-0.28 0.05-1.76 13.7-0.13-2.66 2.37-0.13-0.2zm0.9 9.61c2.75-0.01 5.07-0.09 6.98-0.23 0.37-0.44 0.55-0.93 0.55-1.46 0-0.59-0.23-1.16-0.7-1.69l-9.86-0.15c4.4-2.95 7.1-5.33 8.07-7.15-0.31-1.11-0.76-1.74-1.36-1.89 0.91-0.62 1.36-2.03 1.36-4.25l-0.11-3.06c-0.04-0.89-0.19-1.54-0.45-1.94-0.25-0.41-0.6-0.81-1.05-1.2-0.45-0.4-0.82-0.6-1.12-0.6l-29.55-0.06c-0.03 0-0.21 0.03-0.56 0.08-0.34 0.05-0.52 0.08-0.52 0.08-1.6 0.87-2.4 2.44-2.4 4.69 0 0.46 0.04 1.16 0.11 2.09 0.08 0.92 0.12 1.59 0.12 2.01 0 0.57 0.32 1.19 0.96 1.9 0.65 0.7 1.2 1.05 1.65 1.05l12.91 0.23-0.05 1.81-13.93 0c-0.55 0-1 0.18-1.33 0.53-0.34 0.34-0.51 0.77-0.51 1.26 0 0.76 0.37 1.34 1.11 1.74l14.66-0.05 0 2.78c-12.03 0-18.11 0.07-18.26 0.22-0.37 0.4-0.55 0.87-0.55 1.4 0 0.71 0.3 1.27 0.9 1.68l17.55 0.18c-6.23 3.25-12.3 5.7-18.2 7.38-0.38 0.36-0.57 0.8-0.57 1.32 0 0.7 0.31 1.28 0.92 1.76 1.96-0.25 4.52-0.92 7.68-2.01l0.1 6.76c0.04 0.62 0.06 1.23 0.1 1.82 0.03 0.59 0.34 1.22 0.92 1.89 0.58 0.67 1.19 1.06 1.83 1.16 0.64 0.1 1.56 0.15 2.77 0.15l4.45-0.08 5.76 0.06c5.89 0 8.96-0.09 9.23-0.26 0.8-0.51 1.41-1.12 1.81-1.82 0.41-0.71 0.62-2.66 0.62-5.85 0-1.53-0.04-3.24-0.13-5.12-0.08-1.89-0.2-2.96-0.36-3.21-0.16-0.25-0.36-0.54-0.63-0.87-0.26-0.33-0.55-0.62-0.84-0.85-0.29-0.24-0.55-0.37-0.8-0.37l-10.87-0.14 3.19-1.72 8.4 0zm-46.1 3.05c-0.55-0.65-1.99-0.94-4.31-0.88-2.33 0.06-3.86 0.06-4.59 0.01l0-2.71c0-1.2-0.52-1.81-1.54-1.81-0.46 0-0.88 0.17-1.25 0.52-0.36 0.35-0.54 0.78-0.54 1.29l0.1 2.76-6.45-0.05c-0.98 0-1.48 0.66-1.48 1.97 0 1.12 0.43 1.69 1.29 1.69l6.41 0c-0.52 6.39-4.44 10.32-11.73 11.79-0.46 0.15-0.69 0.62-0.69 1.4 0 1.39 0.6 2.08 1.81 2.08 0.73 0 2.47-0.56 5.21-1.68 2.74-1.11 4.82-2.74 6.22-4.9 1.41-2.15 2.27-5.05 2.59-8.69l5.99 0c0.55 0 0.82 0.46 0.82 1.41 0 3.48-0.06 5.77-0.18 6.88-0.12 1.11-0.51 1.95-1.18 2.54-0.67 0.58-1.57 0.86-2.72 0.86-0.58 0-1.25-0.19-2.03-0.59-0.76-0.4-1.27-0.6-1.52-0.6-0.44 0-0.79 0.23-1.08 0.67-0.29 0.45-0.44 0.97-0.44 1.57 0 0.68 0.21 1.2 0.62 1.56l0 0.05c1.63 0.68 3.19 1.03 4.68 1.03 2.05 0 3.8-0.73 5.24-2.17 1.44-1.44 2.16-4.54 2.16-9.29 0-2.65-0.1-4.27-0.29-4.86-0.2-0.59-0.58-1.2-1.12-1.85zm-22.29-4.87c0 0.8-0.73 2.69-2.17 5.66-0.13 0.34-0.2 0.65-0.2 0.95 0 0.5 0.17 0.92 0.53 1.25 0.34 0.35 0.74 0.52 1.21 0.52 0.65 0 1.23-0.48 1.73-1.43 0.51-0.96 0.98-2.14 1.43-3.54 0.45-1.41 0.67-2.85 0.67-4.33 0-2.63-1.19-3.95-3.58-3.95l-1.96 0.05-1.6-2.68c2.72-1.99 4.64-3.94 5.76-5.88 1.12-1.92 1.68-3.41 1.68-4.43 0-0.73-0.26-1.39-0.79-1.99-0.52-0.59-1.03-0.89-1.53-0.89l-15.85 0.1c-0.35 0.02-0.65 0.2-0.91 0.56-0.25 0.35-0.38 0.75-0.38 1.2 0 0.8 0.39 1.4 1.16 1.81l14.8 0c-1.41 2.74-3.44 4.97-6.1 6.71l-3.89-4.42c-0.26-0.29-0.62-0.45-1.1-0.45-0.45 0-0.85 0.16-1.21 0.49-0.35 0.32-0.53 0.7-0.53 1.16 0 0.47 0.16 0.86 0.46 1.13 0.31 0.29 1.12 1.19 2.46 2.73 1.34 1.53 2.55 3.13 3.64 4.8-1.24 0.05-2.66 0.08-4.25 0.08l-3.28-0.03c-0.97 0-1.58 0.09-1.81 0.27-0.24 0.17-0.41 0.4-0.55 0.7-0.14 0.3-0.2 0.62-0.2 0.97 0 1.11 0.45 1.69 1.34 1.74l7.72-0.05c-1.72 3.89-4.59 7.74-8.56 11.55-0.27 0.28-0.4 0.65-0.4 1.1 0 0.49 0.16 0.93 0.48 1.33 0.31 0.38 0.68 0.57 1.11 0.57 1.42 0 4-2.83 7.73-8.52 0.03 1.48 0.05 5.79 0.05 12.94 0 1.07-0.57 1.6-1.72 1.6-1.28 0-2.96-0.46-5.04-1.39l-0.55-0.13c-0.44 0-0.83 0.22-1.15 0.65-0.32 0.43-0.49 0.92-0.49 1.46 0 0.49 0.13 0.85 0.37 1.11 0.25 0.26 1.13 0.61 2.67 1.06 1.52 0.44 2.72 0.67 3.6 0.67 1.62 0 2.96-0.39 4.01-1.16 1.06-0.77 1.58-1.86 1.58-3.26l0.02-19.58c1.75 0 2.77 0.06 3.1 0.16 0.32 0.11 0.49 0.46 0.49 1.03zm9.43-14.63l8.38 0c-0.72 3.32-2.04 5.83-3.95 7.58-1.98-1.91-3.46-4.43-4.43-7.58zm15.44 13.49c-4.09-1.26-6.86-2.46-8.33-3.58 2.24-2.37 3.84-5.67 4.8-9.91 0.91 0 1.8 0.01 2.66 0.03 0.86 0.01 1.29-0.56 1.29-1.72 0-1.33-0.43-1.99-1.29-2.01l-14.19-0.05c0.23-1.29 0.35-2.31 0.35-3.06 0-1.12-0.63-1.69-1.86-1.69-0.98 0-1.5 0.39-1.57 1.17 0 5.02-1.93 9.16-5.77 12.42-0.35 0.29-0.51 0.64-0.51 1.09 0 0.49 0.16 0.92 0.49 1.3 0.33 0.38 0.72 0.57 1.17 0.57 1.14 0 2.77-1.59 4.89-4.74 1.16 2.66 2.5 4.83 4.03 6.5-1.63 1.1-3.91 2.2-6.86 3.31-0.57 0.24-0.85 0.76-0.85 1.54 0 1.29 0.56 1.94 1.66 1.94 0.63 0 1.88-0.47 3.73-1.39 1.87-0.93 3.57-1.91 5.13-2.93 1.89 1.47 3.96 2.61 6.22 3.42 2.26 0.81 3.65 1.22 4.16 1.22 0.45 0 0.82-0.21 1.12-0.64 0.3-0.42 0.45-0.9 0.45-1.45 0-0.85-0.3-1.31-0.92-1.34zm-56.97 4.12l0 1.72-12.16 0 0-2.78 11.23 0c0.65 0 0.97 0.35 0.97 1.06l-0.04 0zm0.04 6.76c0 1.02-0.31 1.54-0.92 1.54l-11.23 0.05 0-2.81 12.15 0 0 1.22zm-15.58-16.84l-11.18 0c-0.38 0-0.57-0.36-0.57-1.08 0-0.14 0.02-0.5 0.07-1.07 0.05-0.57 0.34-0.86 0.87-0.86l10.81 0 0 3.01zm3.38-3.01l10.96 0c0.4 0 0.6 0.47 0.6 1.41 0 1.03-0.27 1.55-0.8 1.55l-10.76 0.05 0-3.01zm18.32 14.85l-2.94 0 0.08-2.6c0-1.01-0.34-1.91-1-2.71-0.68-0.8-1.48-1.19-2.41-1.19l-12.1 0-0.03-1.61 10.97 0c2.51 0 3.77-1.78 3.77-5.33 0-1.87-0.36-3.16-1.1-3.88-0.74-0.72-1.48-1.08-2.23-1.08l-11.38 0-0.03-1.84c2.54-0.04 5.59-0.05 9.15-0.05 5.24 0 8.32 0.01 9.25 0.05 0.92 0.03 1.39-0.53 1.39-1.69 0-1.22-0.4-1.88-1.19-1.96l-18.57 0c0.05-0.47 0.05-1.26-0.01-2.36-0.06-1.12-0.64-1.67-1.73-1.67-1.1 0-1.66 0.72-1.66 2.14l0.02 1.94-8.1 0-7.01-0.03-3.13 0.03c-0.38 0-0.68 0.17-0.91 0.51-0.22 0.33-0.33 0.75-0.33 1.25 0 1.16 0.42 1.74 1.24 1.74l18.22 0.05 0.02 1.89-9.17-0.08c-1.92 0-3.16 0.1-3.72 0.31-0.57 0.21-1.04 0.67-1.44 1.37-0.38 0.7-0.58 1.9-0.58 3.58 0 3.47 1.18 5.2 3.56 5.2l11.45-0.05-0.1 1.62-14.39-0.05c-0.42 0-0.77 0.19-1.08 0.59-0.31 0.4-0.46 0.91-0.46 1.52 0 0.39 0.15 0.74 0.46 1.03 0.31 0.29 0.7 0.43 1.16 0.43l14.29 0 0 3.03-17.4 0c-0.56 0-0.97 0.19-1.23 0.59-0.26 0.38-0.39 0.75-0.39 1.1 0 1.26 0.46 1.89 1.38 1.89l17.64-0.05 0 3.16-14.74-0.03c-0.97-0.01-1.47 0.64-1.47 1.97 0 1.14 0.42 1.71 1.25 1.71l14.96-0.04 0.02 2.28c0 1.07-0.59 1.61-1.76 1.61-0.83 0-1.87-0.25-3.12-0.76-1.25-0.5-2.15-0.76-2.68-0.76-0.6 0-1.07 0.25-1.38 0.74-0.31 0.48-0.47 0.98-0.47 1.48 0 0.49 0.12 0.88 0.4 1.16 0.25 0.28 1.25 0.69 2.96 1.22 1.71 0.53 3.19 0.8 4.42 0.8 1.53 0 2.78-0.35 3.72-1.05 0.94-0.69 1.4-1.73 1.37-3.12-0.04-1.38-0.05-2.62-0.03-3.71l-0.05 0 5.59-0.02 5.84-0.03c0.84 0 1.55-0.21 2.17-0.62 0.61-0.42 1.09-0.95 1.42-1.58 0.34-0.64 0.52-1.29 0.52-1.97l-0.06-2.49c0.27 0.03 1.24 0.05 2.91 0.05 1.06 0 1.59-0.55 1.59-1.66 0-0.52-0.14-0.98-0.45-1.38-0.3-0.41-0.68-0.6-1.16-0.59zm-52.08 1.97c-0.45 0-0.85 0.16-1.2 0.48-0.35 0.33-0.52 0.72-0.52 1.18l0.15 3.15c0 1.93-0.27 3.43-0.83 4.52-0.54 1.08-1.24 1.82-2.1 2.23-0.86 0.41-2.85 0.61-5.94 0.61-2.93 0-4.9-0.65-5.89-1.95-1-1.31-1.46-3.24-1.39-5.81 0.06-2.58 0.07-6.13 0.02-10.65 3.05-2.09 5.85-4.13 8.4-6.13 2.55-2.01 4.9-4.02 7.05-6.06 2.14-2.03 3.29-3.21 3.45-3.57 0.15-0.36 0.24-0.68 0.24-0.98 0-0.48-0.15-0.91-0.44-1.31-0.28-0.38-0.66-0.58-1.1-0.58-0.41 0-0.78 0.19-1.07 0.57-5.01 5.04-10.52 9.62-16.53 13.74l-0.05 0.05 0.05-18.31c0-1.24-0.5-1.86-1.49-1.86-0.46 0-0.87 0.17-1.23 0.52-0.36 0.35-0.53 0.79-0.53 1.34l0 34.65c0 3.07 0.76 5.49 2.29 7.27 1.51 1.78 4.55 2.67 9.11 2.67 4.48 0 7.47-0.97 9-2.92 1.52-1.94 2.28-4.6 2.28-7.96 0-2.24-0.15-3.61-0.45-4.12-0.29-0.52-0.72-0.77-1.28-0.77zm-28.02-30.21c-0.89 0-1.36 0.41-1.41 1.24-1 6.21-2.1 10.71-3.26 13.49-1.15 2.78-2.53 5.06-4.12 6.83-0.48 0.55-0.94 1.03-1.35 1.44-0.43 0.41-0.64 0.91-0.64 1.47 0 0.68 0.19 1.18 0.58 1.49 0.37 0.32 0.76 0.47 1.14 0.47 0.51 0 1.17-0.48 1.96-1.44 0.79-0.96 1.65-2.14 2.59-3.55l0 23.35c0 1.31 0.51 1.96 1.54 1.96 0.44 0 0.84-0.14 1.18-0.43 0.36-0.3 0.53-0.64 0.53-1.03l0-30.21 1.17-3.61c0.35-1.15 0.65-2.34 0.91-3.55 0.25-1.21 0.48-2.37 0.68-3.51 0.19-1.12 0.29-1.95 0.29-2.5 0-1.27-0.59-1.91-1.79-1.91zm-40.42 31.03c-4.95-5.7-7.93-12.32-8.96-19.84l17.71 0c-0.93 7.66-3.85 14.28-8.75 19.84zm19.56-23.59l-18.2 0 0-5.82c0-1.04-0.53-1.56-1.61-1.56-0.99 0-1.53 0.45-1.62 1.36l-0.05 6.11-16.62 0c-0.98 0-1.57 0.1-1.75 0.29-0.19 0.19-0.33 0.43-0.43 0.72-0.09 0.29-0.13 0.59-0.13 0.91 0 1.16 0.4 1.74 1.19 1.74l7.31-0.06c0.95 8.12 4.22 15.67 9.79 22.67-4.43 4.07-10.18 7.16-17.27 9.29-0.55 0.22-0.83 0.76-0.83 1.59 0 1.32 0.56 1.98 1.67 1.98 1.2 0 3.83-1 7.92-2.99 4.08-2 7.73-4.51 10.95-7.54 3.35 3.21 7.08 5.82 11.15 7.83 4.08 2 6.56 3 7.43 3 0.49 0 0.88-0.22 1.21-0.65 0.32-0.43 0.48-0.9 0.48-1.44 0-0.75-0.29-1.2-0.87-1.36-6.06-1.45-11.69-4.73-16.9-9.84 5.47-6.23 8.72-13.75 9.77-22.58l5.94 0.07c0.66 0 1.18 0 1.55-0.01 0.38-0.02 0.68-0.19 0.88-0.55 0.22-0.35 0.33-0.78 0.33-1.28 0-1.24-0.43-1.87-1.29-1.88zm-64.28 26.14c-4.43-3.76-7.73-8.57-9.92-14.43l0.05 0.05 17.22 0.05c0.58 0 0.88 0.28 0.88 0.82 0 1.01-0.67 2.86-1.98 5.53-1.32 2.68-3.4 5.34-6.25 7.98zm-11.71-27.25l13.24 0c0.67 0 1 0.36 1 1.08 0 1.16-0.68 3.86-2.03 8.07-2.63 0.05-5.33 0.08-8.13 0.08-2.4 0-3.85-0.03-4.33-0.08 0.25-4.55 0.33-7.6 0.25-9.15zm26.59 36.72c-5.8-2.82-9.88-5.14-12.25-6.95 2.76-2.75 4.96-5.79 6.65-9.11 1.68-3.32 2.53-5.87 2.53-7.64 0-0.98-0.29-1.86-0.85-2.64-0.56-0.79-1.5-1.18-2.78-1.18l-4.28 0.04c1.57-5.16 2.36-8.28 2.36-9.36 0-1.09-0.27-1.94-0.81-2.55-0.53-0.6-1.19-0.9-1.97-0.9l-27.07-0.05c-0.99 0-1.49 0.65-1.49 1.93 0 1.1 0.43 1.64 1.3 1.64l8.84-0.04c0.11 5.02-0.19 9.81-0.94 14.38-0.74 4.57-1.88 8.52-3.41 11.85-1.53 3.32-3.63 6.66-6.31 9.98-0.33 0.38-0.5 0.8-0.5 1.25 0 0.41 0.15 0.81 0.45 1.2 0.3 0.39 0.66 0.59 1.07 0.59 1.45 0 3.54-2.49 6.23-7.46 2.69-4.97 4.51-10.51 5.47-16.64 2.37 5.58 5.73 10.48 10.1 14.71-4.18 3.28-9.42 5.56-15.74 6.85-0.77 0.14-1.17 0.66-1.17 1.59 0 1.24 0.43 1.87 1.27 1.87 0.9 0 2.95-0.44 6.14-1.3 3.2-0.86 6.55-2.6 10.07-5.21 0.96-0.72 1.68-1.21 2.16-1.47 2.27 1.84 4.97 3.58 8.08 5.23 3.13 1.65 4.98 2.47 5.56 2.47 0.48 0 0.89-0.22 1.24-0.67 0.33-0.45 0.51-0.94 0.51-1.49 0-0.48-0.16-0.79-0.46-0.92zm-91.56-19.12c-0.33 0.17-0.5 0.52-0.5 1.07 0 0.43 0.13 0.81 0.39 1.14 0.26 0.31 0.6 0.47 1.03 0.45l11.08-0.87c0.49 1.5 1.14 2.24 1.97 2.24 0.94 0 1.47-0.54 1.59-1.62l-3.06-7.42c-0.24-0.59-0.64-0.87-1.19-0.87-0.42 0-0.8 0.16-1.14 0.49-0.35 0.34-0.53 0.73-0.53 1.2 0 0.29 0.13 0.73 0.4 1.3 0.26 0.57 0.49 1.15 0.67 1.72-1.62 0.28-2.87 0.45-3.75 0.48 1.08-1.68 2.39-4.18 3.93-7.52 1.54-3.34 2.67-5.66 3.4-6.99 0.12-0.22 0.17-0.43 0.17-0.65 0-0.38-0.18-0.7-0.55-0.97-0.38-0.26-0.8-0.39-1.28-0.39-0.73 0-1.24 0.3-1.53 0.89-0.29 0.6-0.75 1.72-1.38 3.37-0.63 1.66-1.05 2.69-1.24 3.09l-1.94-1.84 3.72-10.48 0.05-0.25c0-0.32-0.2-0.63-0.62-0.93-0.41-0.31-0.83-0.46-1.26-0.46-0.33 0-0.58 0.08-0.74 0.22-0.16 0.15-0.66 1.38-1.53 3.68l-2.31 6.05c-0.22-0.21-0.5-0.42-0.87-0.66-0.38-0.25-0.7-0.48-0.97-0.69-0.28-0.22-0.51-0.33-0.71-0.33-0.39 0-0.72 0.18-1 0.52-0.28 0.35-0.42 0.72-0.42 1.12 0 0.3 0.07 0.51 0.2 0.62 0.13 0.12 1.08 0.93 2.85 2.44 1.78 1.5 3.13 2.72 4.06 3.63-0.91 1.91-2.23 4.19-3.93 6.83-1.71 0.1-2.72 0.23-3.06 0.39zm19.53-0.39c-0.99 0.02-1.49-0.57-1.49-1.74l0-4.23 5.65 0 0 4.18c0 1.16-0.47 1.74-1.39 1.74l-2.77 0.05zm-1.49-13.08c0-0.56 0.1-0.94 0.27-1.16 0.17-0.21 0.57-0.32 1.18-0.32l2.58 0c0.68 0 1.12 0.1 1.32 0.31 0.2 0.21 0.3 0.65 0.3 1.33l0 3.85-5.65 0 0-4.01zm13.92 5.4c-1.61 3.22-2.93 5.63-3.97 7.2-0.39 0.14-0.63 0.27-0.75 0.4l-0.27 0.25-0.05-12.4 5.04 4.55zm9.39 26.23c-5.8-1.85-11.59-5.1-17.39-9.76 2.38 0.05 4.8 0.07 7.23 0.07 6.08 0 9.33-0.07 9.74-0.22 0.42-0.15 0.63-0.59 0.63-1.31 0-1.1-0.56-1.65-1.67-1.65l-17.64 0 0-2.78 2.38 0c0.5 0 1.01-0.26 1.54-0.79 0.3-0.3 0.5-0.63 0.62-0.98 0.05 0.27 0.08 0.53 0.23 0.8 0.21 0.4 0.45 0.6 0.72 0.6l0.2-0.05 10.04-1.11c0.94 2.15 1.48 3.3 1.62 3.44 0.15 0.15 0.33 0.23 0.56 0.23 0.4 0 0.79-0.18 1.17-0.54 0.38-0.35 0.57-0.75 0.57-1.2 0-0.25-0.52-1.64-1.57-4.17-1.05-2.54-1.83-4.2-2.31-5.01-0.47-0.8-0.97-1.2-1.48-1.2-0.4 0-0.76 0.15-1.06 0.46-0.31 0.3-0.46 0.66-0.46 1.08 0 0.23 0.05 0.46 0.15 0.69l1.41 3.43c-2.08 0.29-3.68 0.48-4.76 0.55 1.85-3.21 3.51-6.55 4.97-10.02 1.48-3.46 2.2-5.28 2.2-5.46 0-0.38-0.21-0.74-0.63-1.08-0.42-0.34-0.86-0.51-1.3-0.51-0.5 0-0.82 0.21-0.98 0.65-1.15 3.01-2.08 5.25-2.78 6.71l-2.06-1.95c2.19-5.84 3.28-9.03 3.28-9.56 0-0.3-0.19-0.57-0.58-0.8-0.39-0.24-0.82-0.37-1.28-0.37-0.6 0-0.96 0.21-1.1 0.63-1.06 3.47-2.02 6.14-2.9 8.02-0.25-0.1-0.48-0.16-0.67-0.16-0.42 0-0.77 0.22-1.07 0.63l0.05-1.44c0-1.53-1.56-2.22-4.67-2.09 0.16-2.5 0.24-3.92 0.24-4.25 0-0.95-0.48-1.43-1.44-1.43-0.43 0-0.8 0.14-1.11 0.43-0.32 0.29-0.49 0.72-0.52 1.3-0.02 0.58-0.12 1.9-0.28 3.95-0.53-0.05-0.99-0.07-1.37-0.07-2.09 0-3.14 0.94-3.14 2.83l0.06 15.35c0.02 0.51 0.28 1.07 0.8 1.64 0.51 0.58 1.43 0.88 2.75 0.88 0.23 0 0.49-0.02 0.75-0.06l-0.03 2.78c-5.25-0.05-9.14-0.07-11.68-0.07-2.85 0-4.5 0.02-4.94 0.04-0.45 0.02-0.81 0.19-1.09 0.51-0.29 0.31-0.43 0.67-0.43 1.09 0 0.96 0.52 1.47 1.57 1.54l15.73 0c-2.11 2.1-5.44 4.4-9.99 6.91-4.56 2.5-7.1 3.96-7.62 4.36-0.52 0.43-0.78 0.88-0.78 1.38 0 0.88 0.53 1.31 1.59 1.31 0.38 0 1.5-0.44 3.35-1.34 1.86-0.89 4.23-2.19 7.11-3.89 2.89-1.69 5.28-3.46 7.18-5.27l0.03 5.58 0 3.48c0.02 0.73 0.17 1.21 0.46 1.43 0.29 0.22 0.64 0.34 1.06 0.34 1.22 0 1.79-0.78 1.72-2.32-0.07-1.56-0.08-4.75-0.03-9.58 4.55 3.68 8.47 6.3 11.77 7.86 3.28 1.54 5.37 2.32 6.27 2.32 0.53 0 1-0.18 1.39-0.51 0.39-0.34 0.59-0.71 0.59-1.1 0-0.52-0.29-0.92-0.92-1.2zm-67.69-24.97l0.05-2.96 8.99-0.05c0.62 0 0.89 0.47 0.82 1.42l0-0.05 0.06 1.59-9.92 0.05zm9.92 5.63c0 0.95-0.43 1.34-1.27 1.18l-8.65 0.04 0-3.15 9.92 0.05 0 1.88zm-13.25 11.51c-0.36-0.82-0.85-1.22-1.47-1.22-0.28 0-0.62 0.18-1.03 0.54-0.39 0.34-0.71 0.6-0.94 0.76 0.15-0.31 0.23-0.58 0.23-0.85 0-0.52-0.26-0.97-0.76-1.37l-6-4.37 9.97 0 0 6.51zm-0.05-23.85l-11.68-0.08c-0.43 0-0.79 0.21-1.07 0.62-0.28 0.42-0.42 0.91-0.42 1.47 0 1.12 0.42 1.69 1.29 1.69l11.88 0.05 0 2.96-13.94 0-0.03-7.53c0-0.88 0.41-1.31 1.25-1.31l12.72 0.04 0 2.09zm19.93 6.66l-3.31 0 0-3.11c0-0.99-0.31-1.85-0.95-2.58-0.62-0.73-1.39-1.09-2.3-1.09l-9.87 0.04 0-2.13 15.46 0.08c0.85 0 1.27-0.59 1.27-1.75 0-1.32-0.5-1.98-1.52-1.98l-16.05 0-0.05-3.06c0-1.03-0.51-1.54-1.54-1.54-1.17 0-1.76 0.55-1.76 1.63l0.1 2.97-11.61 0c-3.38-0.04-5.07 1.54-5.07 4.71l0.05 9.82c0 6.94-0.29 11.71-0.87 14.32-0.58 2.61-1.54 5.51-2.89 8.73-0.23 0.47-0.34 0.92-0.34 1.34 0 1.22 0.51 1.82 1.54 1.82 0.43 0 0.83-0.18 1.22-0.52 0.72-0.65 1.63-2.87 2.7-6.64 0.73-2.58 1.25-5.31 1.56-8.17 0.3-2.86 0.46-5.93 0.46-9.19l13.89-0.05 0 3.31c-6.91 0-10.81 0.01-11.7 0.05-0.88 0.02-1.32 0.55-1.32 1.59 0 0.42 0.08 0.8 0.25 1.11-0.52 0.35-0.78 0.85-0.78 1.5 0 0.75 0.3 1.32 0.88 1.7l6.2 4.86c0.66 0.49 1.19 0.69 1.63 0.59-1.78 1.3-4.93 3.23-9.45 5.76-0.61 0.33-0.92 0.87-0.92 1.61 0 0.49 0.14 0.91 0.42 1.28 0.29 0.38 0.62 0.56 1.02 0.56 0.35 0 1.94-0.78 4.76-2.35 2.83-1.57 5.63-3.51 8.42-5.85l0.02 0 0.57-0.91 0 5.49c0 1.1-0.42 1.65-1.24 1.65-0.29 0-0.81-0.13-1.53-0.41-0.72-0.29-1.27-0.56-1.63-0.85-0.36-0.27-0.66-0.42-0.92-0.42-0.48 0-0.94 0.25-1.37 0.76-0.43 0.51-0.64 1.03-0.64 1.6 0 0.83 0.69 1.62 2.07 2.38 1.39 0.77 2.63 1.15 3.74 1.15 1.4 0 2.55-0.49 3.46-1.48 0.91-0.99 1.38-2.09 1.4-3.32 0.03-1.22 0.04-3.87 0.04-7.92 1.64 2.28 4.11 4.79 7.39 7.53 3.29 2.72 5.85 4.09 7.67 4.09 0.96 0 1.44-0.67 1.44-2.01 0-0.93-0.28-1.45-0.82-1.56-3.48-1.19-6.74-3.35-9.79-6.49 0.6-0.04 1.08-0.2 1.45-0.46 0.38-0.25 1.16-0.81 2.35-1.68 1.19-0.87 2.45-1.84 3.76-2.9 1.32-1.06 2.06-1.72 2.22-1.96 0.16-0.25 0.23-0.55 0.23-0.92 0-0.5-0.14-0.95-0.45-1.35-0.29-0.39-0.65-0.59-1.06-0.59-0.3 0-0.57 0.11-0.82 0.32-0.25 0.22-1.22 0.98-2.91 2.3-1.69 1.32-3.06 2.35-4.1 3.11-1.04 0.74-1.64 1.32-1.79 1.71-0.15 0.39-0.23 0.68-0.23 0.86-2.17-2.22-3.68-3.95-4.54-5.2-0.05-0.38-0.02-0.81 0.07-1.31 1.76-0.05 3.22-0.07 4.38-0.07l4.15 0.07c0.89 0 1.68-0.18 2.34-0.54 0.66-0.35 1.17-0.83 1.54-1.42 0.36-0.6 0.56-1.32 0.62-2.18 0.04-0.85 0.08-1.75 0.09-2.69l3.26-0.1c0.85 0 1.27-0.58 1.27-1.74 0-1.27-0.4-1.91-1.22-1.91zm351.19 118.62c-1 0-1.85 0.5-1.99 1.95-0.85 1.25-1.99 2.3-2.79 2.95-2.22 1.64-2.65 1.95-3.36 1.95-0.43 0-0.43-0.86-0.43-1.55l0-12.58 5.68-0.89c0.33 0.15 0.71 0.1 0.86 0.1 1.13 0 1.84-0.89 1.84-2.48 0-0.44-0.71-1.84-2.08-1.84-0.33 0-0.76 0.15-0.99 0.25l-5.31 0.8 0-2.97c0.24-0.36 0.29-0.75 0.29-1.2 0-1.49-1.23-1.75-2.08-1.75-1.28-0.04-2.6 0.31-2.6 1.9 0 0.25 0 0.65 0.14 1l0 3.68-2.64 0.4-0.53-0.1c-1.17 0.05-2.36 0.9-2.36 2.49 0 0.54 0.61 1.93 2.27 1.93 0.37-0.08 0.62-0.18 0.89-0.38l2.37-0.35 0 15.43c0 2.35 1.42 3.1 3.17 3.1 1.37 0 3.31-0.9 5.58-2.55 2.37-1.79 6.43-5.39 6.43-7.09 0-0.6-0.28-2.2-2.36-2.2zm-21.44-8c0-2.19-2.46-3.48-3.73-3.48-2.47 0-5.5 2.78-9.62 5.81l0-2.43c0.15-0.25 0.34-0.65 0.34-1.24 0-0.9-0.43-2.14-2.32-2.14-1.19 0-2.46 0.8-2.46 2.24 0 0.44 0.05 0.79 0.19 1.04l0 5.67c-0.34 0.55-0.48 1.19-0.48 1.69 0 0.45 0.09 0.95 0.48 1.34l0 7.76c-0.19 0.34-0.39 0.75-0.39 1.29 0 1.05 0.76 1.94 2.28 1.94 1.09 0 2.51-0.3 2.51-2.14 0-0.39-0.06-0.7-0.15-0.94l0-9.05c4.12-3.23 7.48-5.87 8.05-5.87 0.33 0 1.04 0.3 1.04 0.94l0 14.02c-0.14 0.36-0.24 0.61-0.24 0.85 0 1.25 0.86 2.19 2.28 2.19 1.41 0 2.36-0.64 2.36-2.28 0-0.4 0-0.7-0.14-1.05l0-16.16zm-28.78 0.88c2.12 0 2.45 1.51 2.45 2.06 0 0.8-0.52 1.09-1.74 1.45-1.65 0.45-4.07 1.05-7.17 1.71l-0.11-0.05c1.89-4.06 4.21-5.17 6.57-5.17zm0.57 7.31c4.58-1.05 6.24-2.55 6.24-4.75 0-3.45-2.89-6.26-6.53-6.26-3.49 0-6.65 1.58-9.06 4.76-2.04 2.7-3.31 6.3-3.31 10.3 0 4.19 2.31 7.7 6.76 7.7 2.83 0 5.28-0.64 7.69-2.48 1.89-1.43 3.97-3.48 3.97-4.77 0-0.95-0.84-2.05-2.41-2.05-1.19 0-2.32 0.75-2.27 2.2-1.7 2.34-4.48 3.39-6.28 3.39-2.08 0-3.11-1.3-3.11-3.49 0-1.2 0.04-1.95 0.24-2.7l8.07-1.85zm-17.86-8.15c0-1.43-0.8-3.47-2.6-3.47-2.03 0-4.02 1.29-9.89 5.61l0-1.1c0-2.13-0.38-4.51-2.74-4.51-0.67 0-1.85 0.2-3.36 1.19-1.28 0.79-2.18 1.39-6.39 4.07l0-1.79c0.33-0.54 0.33-0.84 0.33-1.14 0-1.29-0.71-2.33-2.09-2.33-1.41 0-2.78 0.29-2.78 2.33 0 0.64 0.09 0.94 0.29 1.34l0 15.67c-0.24 0.64-0.24 0.59-0.24 1.19 0 1.09 0.42 2.39 2.46 2.39 1.55 0 2.36-0.84 2.36-2.29 0-0.45-0.05-0.8-0.33-1.2l0-9.65c4.74-2.83 7.38-4.81 7.71-4.81 0.29 0 0.53 0.14 0.53 0.49l0 13.97c-0.29 0.3-0.48 0.75-0.48 1.3 0 1.15 0.57 2.19 2.22 2.19 1.7 0 2.51-0.69 2.51-3.04l0-9.75c7.19-4.96 7.38-5.06 7.76-5.06 0.48 0 0.48 0.44 0.48 1.04l0 13.57c-0.19 0.2-0.29 0.55-0.29 0.95 0 1.5 0.76 2.29 2.22 2.29 1.15 0 2.66-0.55 2.66-2.19 0-0.6-0.09-0.95-0.34-1.29l0-15.97zm-35.57 7.96c-1 0-1.85 0.5-2 1.95-0.84 1.25-1.97 2.3-2.78 2.95-2.22 1.64-2.65 1.95-3.36 1.95-0.43 0-0.43-0.86-0.43-1.55l0-12.58 5.69-0.89c0.32 0.15 0.7 0.1 0.85 0.1 1.12 0 1.84-0.89 1.84-2.48 0-0.44-0.72-1.84-2.08-1.84-0.34 0-0.76 0.15-1 0.25l-5.3 0.8 0-2.97c0.25-0.36 0.29-0.75 0.29-1.2 0-1.49-1.23-1.75-2.08-1.75-1.27-0.04-2.6 0.31-2.6 1.9 0 0.25 0 0.65 0.14 1l0 3.68-2.65 0.4-0.52-0.1c-1.11 0.05-2.18 0.82-2.31 2.22 0.06 0.3 0.11 0.61 0.15 0.93 0.28 0.59 0.91 1.27 2.06 1.27 0.39-0.08 0.62-0.18 0.91-0.38l2.36-0.35 0 15.43c0 2.35 1.42 3.1 3.17 3.1 1.37 0 3.31-0.9 5.58-2.55 2.36-1.79 6.43-5.39 6.43-7.09 0-0.6-0.28-2.2-2.36-2.2zm-21.26-8.16c-0.34-1.55-1.1-2.72-2.79-2.72-0.71 0-1.18 0.25-2.84 1.2-1.13 0.65-2.74 2.04-4.06 3.18l0-1.39c0.14-0.55 0.19-0.8 0.19-1.1 0-1.09-0.76-1.99-2.14-1.99-1.07 0-2.45 0.6-2.45 2.19 0 0.4 0.04 0.7 0.14 1.1l0 15.54c-0.29 0.4-0.47 0.95-0.47 1.4 0 1.25 0.8 2.19 2.36 2.19 1.85 0 2.84-0.6 2.84-2.34 0-0.5-0.24-0.95-0.47-1.25l0-9.47c1.32-1.44 4.3-3.93 5.72-4.78-0.05 0.64-0.05 0.85-0.05 1.15 0 1.29 1.33 1.89 2.23 1.89 0.66 0 2.03-0.1 2.03-1.89 0-0.67-0.03-1.34-0.1-1.98-0.12-0.26-0.2-0.5-0.2-0.66l0.06-0.27zm-26.54 12.69c-1.84 1.85-5.89 3.85-7.68 3.85-0.85 0-1.18-0.4-1.18-1.15 0-1.43 1.93-3.83 4.29-5.17 1.79-1.05 4.57-2.15 7.02-2.55 0 2.52-0.34 2.97-2.45 5.02zm6.7-10.95c0-2.43-1.14-4.91-5.2-4.91-3.48 0-7.43 0.64-10.88 3.12-1 0.15-1.89 0.99-1.89 2.24 0 1.3 0.99 2.2 2.22 2.2 1.23 0 2.32-0.85 2.45-1.85 1.69-1.2 4.71-2 7.11-2 1.84 0 1.94 0.5 1.94 1.7l0 2.1c-3.03 0.3-6.64 1.35-9.85 3.25-3.68 2.2-5.81 5.4-5.81 8.41 0 2.62 1.85 4.25 4.92 4.25 3.34 0 7.76-2.03 10.74-5.51l0 1.71c-0.15 0.2-0.38 0.5-0.38 1.25 0 1.1 0.7 1.95 2.21 1.95 1.19 0 2.75-0.4 2.75-2.05 0-0.44-0.05-0.85-0.33-1.19l0-14.67zm-35.86 14.05c-0.67 0-1.56-0.3-1.85-1.1l0-5.54c0.62-1.36 1.85-3.26 4.21-5.36 1.46-1.3 2.69-2.2 4.63-2.2 1.7 0 2.26 1.5 2.26 2.75 0 4.41-4.62 11.45-9.25 11.45zm7.32-18.36c-3.87 0-6.66 2.33-9.17 5.31l0-2.37c0 0 0.29-0.3 0.29-0.89 0-1.75-1.33-2.3-2.56-2.3-1.13 0-2.21 0.8-2.21 2.4 0 0.44 0 0.84 0.23 1.24l0 30.59c-0.23 0.5-0.23 1.1-0.23 1.39 0 1.05 0.47 2 2.17 2 1.23 0 2.6-0.45 2.6-2.2 0-0.54 0-0.8-0.29-1.14l0-12.11c0.53 0.4 1.09 0.6 2.17 0.6 2.98 0 6.95-2.33 9.55-5.51 2.42-3.05 3.74-7.05 3.74-10.5 0-4.23-2.79-6.51-6.29-6.51zm-24.7 3.61c2.12 0 2.45 1.51 2.45 2.06 0 0.8-0.51 1.09-1.74 1.45-1.65 0.45-4.06 1.05-7.17 1.71l-0.1-0.05c1.89-4.06 4.2-5.17 6.56-5.17zm0.57 7.31c4.59-1.05 6.24-2.55 6.24-4.75 0-3.45-2.89-6.26-6.53-6.26-3.49 0-6.65 1.58-9.06 4.76-2.04 2.7-3.31 6.3-3.31 10.3 0 4.19 2.32 7.7 6.76 7.7 2.83 0 5.28-0.64 7.69-2.48 1.9-1.43 3.98-3.48 3.98-4.77 0-0.95-0.85-2.05-2.42-2.05-1.18 0-2.31 0.75-2.27 2.2-1.7 2.34-4.48 3.39-6.27 3.39-2.08 0-3.12-1.3-3.12-3.49 0-1.2 0.05-1.95 0.23-2.7l8.08-1.85zm-22.55 1.49c-2.61 2.59-6.96 4.73-9.8 5.28l0-21.72c1.8-1.15 4.92-2.38 8.23-2.38 3.83 0 6.38 3.23 6.38 7.31 0 3.49-1.36 8.07-4.81 11.51zm-0.82-23.05c-3.68 0-5.43 0.6-8.79 1.89-0.19-1.03-0.99-1.59-2.08-1.59-1.23 0-2.65 0.65-2.65 2.15 0 0.54 0.19 1.09 0.19 1.19l0 27.78c0 0.95 0.33 1.84 1.89 1.84 1.33 0 5.06-0.94 8.09-2.29 1.89-0.85 4.87-2.44 7.29-4.73 4.21-4.09 6.11-9.67 6.11-15.09 0-5.79-4.74-11.15-10.05-11.15zm-34.67 16.96c-2.03 0-3.97 0.65-6.46 1.58-1.91 0.74-3.23 1.28-3.89 1.28-0.53 0-0.95-0.15-0.95-0.9 0-0.89 0.76-1.89 2.42-3.03 2.02-1.39 5.1-2.04 8.36-2.04 0.8 0.35 1.19 0.55 1.7 0.55 0.85 0 2.04-0.2 2.04-1.99 0-1.43-1.8-2.52-3.79-2.52-3.83 0-7.56 0.94-10.25 2.52-2.89 1.79-4.83 4.33-4.83 7.41 0 2.58 2.22 4.36 4.44 4.36 2.37 0 4.12-0.74 6.35-1.63 1.84-0.73 3.21-1.22 4.25-1.22 0.89 0 1.41 0.44 1.41 1.24 0 1.15-0.52 2.59-2.26 4.09-2.03 1.79-4.91 2.58-6.75 2.58-1.6 0-2.31-0.39-2.83-0.74l0.1-0.79c0-1.4-1.19-1.7-2.42-1.7-0.8 0-1.94 0.9-1.94 2.74 0 1.24 0.99 2.53 2.27 3.27 1.23 0.75 3.31 1.19 4.77 1.19 3.69 0 7.27-1.69 9.68-3.62 1.89-1.49 3.74-4.23 3.74-7.67 0-2.13-1.32-4.96-5.16-4.96zm-25.73-2.71c2.12 0 2.46 1.51 2.46 2.06 0 0.8-0.52 1.09-1.75 1.45-1.65 0.45-4.06 1.05-7.18 1.71l-0.09-0.05c1.89-4.06 4.2-5.17 6.56-5.17zm0.57 7.31c4.58-1.05 6.24-2.55 6.24-4.75 0-3.45-2.89-6.26-6.52-6.26-3.5 0-6.66 1.58-9.07 4.76-2.04 2.7-3.31 6.3-3.31 10.3 0 4.19 2.31 7.7 6.76 7.7 2.83 0 5.28-0.64 7.7-2.48 1.89-1.43 3.97-3.48 3.97-4.77 0-0.95-0.86-2.05-2.42-2.05-1.18 0-2.31 0.75-2.26 2.2-1.71 2.34-4.49 3.39-6.28 3.39-2.08 0-3.12-1.3-3.12-3.49 0-1.2 0.05-1.95 0.23-2.7l8.08-1.85zm-17.91 0.64c-0.8 0-1.12 0.1-1.6 0.6-0.48 0.5-0.48 0.6-0.61 1.4-1.52 2.95-4.16 5.1-6.06 5.1-2.27 0-3.64-1.2-3.64-4.25 0-3.55 0.95-5.85 2.88-8 1.9-2.15 2.47-2.64 4.83-2.64 0.66 0 0.85 0.09 1.32 0.89 0.38 0.75 0.86 1.5 1.89 1.5 1.23 0 2.75-0.6 2.75-2.39 0-2.09-2.46-4.17-5.96-4.17-3.08 0-5.63 1.29-7.05 2.88-3.93 4.33-5.02 6.99-5.02 12.58 0 3.85 2.51 7.77 7.2 7.77 2.03 0 4.21-0.5 6.48-2.24 2.03-1.53 4.82-5.03 4.82-6.83 0-0.8-0.57-2.2-2.23-2.2zm-22.34-21.33c-1.72 0-2.76 1.64-2.76 4.82 0 1.4 0.86 2.58 2.42 2.58 1.57 0 2.9-1.49 2.9-4.77 0-1.64-0.71-2.63-2.56-2.63zm1.8 13.46c0.15-0.15 0.38-0.5 0.38-1.2 0-1.45-1.23-2.59-2.27-2.59-1.56 0-2.64 0.7-2.64 2.89 0 0.45 0.09 0.8 0.27 1.1l0 14.44c-0.42 0.75-0.42 1-0.42 1.35 0 1.1 0.62 2.54 2.31 2.54 1.57 0 2.8-1.04 2.8-2.49 0-0.45-0.14-0.8-0.43-1.2l0-14.84zm-9.41-4.14c-1.23 0-1.84 0.7-2.5 2.54-1 2.55-2.04 4.54-3.46 7.08-1.09 1.94-2.08 3.89-2.6 5.68l-0.1 0c-0.37-1.84-0.89-4.19-1.79-7.18-0.57-1.89-1.04-3.24-1.14-4.28 0.19-0.6 0.29-1 0.29-1.35 0-1.04-0.94-2.09-2.26-2.09-1.18 0-2.41 0.85-2.41 2.24 0 0.65 0 0.9 0.19 1.24 0.05 0.85 0.14 1.5 0.47 2.89 0.52 2.4 0.75 3.3 2.26 7.83 1.42 4.24 1.65 5.08 1.65 5.28 0 1.75 1 2.94 2.41 2.94 1.38 0 2.13-0.89 2.41-2.34 0.15-0.75 0.86-2.74 4.22-8.92 1.93-3.44 1.6-2.89 2.79-4.98 0.52-1.25 1.65-3.34 1.65-4.39 0-1.6-0.95-2.19-2.08-2.19zm-22.44 0.31c-0.7 0-1.18 0.25-2.84 1.19-1.13 0.65-2.74 2.04-4.07 3.18l0-1.39c0.14-0.55 0.19-0.8 0.19-1.09 0-1.1-0.75-2-2.13-2-1.09 0-2.46 0.6-2.46 2.19 0 0.4 0.05 0.7 0.15 1.1l0 15.54c-0.29 0.4-0.48 0.95-0.48 1.4 0 1.25 0.81 2.19 2.37 2.19 1.84 0 2.84-0.6 2.84-2.34 0-0.49-0.24-0.95-0.48-1.25l0-9.47c1.33-1.44 4.31-3.93 5.73-4.78-0.05 0.65-0.05 0.85-0.05 1.15 0 1.29 1.33 1.89 2.23 1.89 0.65 0 2.03-0.1 2.03-1.89 0-2.74-0.38-5.62-3.03-5.62zm-21.3 3.75c2.12 0 2.45 1.51 2.45 2.06 0 0.8-0.52 1.09-1.74 1.45-1.65 0.45-4.06 1.05-7.18 1.71l-0.09-0.05c1.89-4.06 4.2-5.17 6.56-5.17zm0.56 7.31c4.59-1.05 6.25-2.55 6.25-4.75 0-3.45-2.89-6.26-6.53-6.26-3.49 0-6.65 1.58-9.06 4.76-2.04 2.7-3.32 6.3-3.32 10.3 0 4.19 2.32 7.7 6.76 7.7 2.84 0 5.29-0.64 7.7-2.48 1.89-1.43 3.97-3.48 3.97-4.77 0-0.95-0.84-2.05-2.41-2.05-1.18 0-2.32 0.75-2.27 2.2-1.7 2.34-4.48 3.39-6.28 3.39-2.08 0-3.11-1.3-3.11-3.49 0-1.2 0.05-1.95 0.23-2.7l8.07-1.85zm-22.89-9.97c-1.7 0-3.83 0.45-6.91 1.49-2.55 0.82-3.59 1.22-4.44 1.22-1.37 0-1.85-1.14-1.85-2.04 0-1.31 1.04-3.4 2.79-5.09 1.71-1.6 3.79-2.75 6.86-2.75 2.09 0 2.52 0.45 3.27 0.95 0.19 0.9 1.09 1.5 2.46 1.5 1.09 0 2.13-0.5 2.13-2.3 0-2.23-4.12-4.36-7.62-4.36-3.17 0-6.43 0.99-9.46 3.52-2.6 2.19-4.83 5.78-4.83 9.38 0 3.33 1.75 5.75 5.82 5.75 1.23 0 3.03-0.34 6.2-1.43 3.36-1.12 4.92-1.27 6.29-1.27 1.57 0 2.46 1.04 2.46 2.59 0 1.99-0.43 3.78-2.03 5.62-2.27 2.49-6.39 4.74-10.41 4.74-1.89 0-2.74-0.46-3.41-3-0.47-1.74-0.98-2.83-2.41-2.83-1.18 0-2.41 1.19-2.41 2.93 0 1.75 1.04 3.78 2.32 5.02 1.56 1.49 3.36 2.08 5.96 2.08 2.22 0 3.78-0.2 6.58-1.24 2.26-0.89 3.87-1.78 6.52-4.36 2.28-2.25 3.7-5.04 3.7-9.46 0-4.38-2.89-6.66-7.58-6.66zm393.37-56.4c0.33-0.45 0.47-0.95 0.47-1.85 0-1.24-0.94-2.29-2.41-2.29-1.6 0-2.61 0.45-2.61 2.6 0 0.64 0.15 1.05 0.29 1.33l0 25.64c-0.19 0.5-0.19 0.75-0.19 0.95 0 1.39 1 2.49 2.61 2.49 1.13 0 2.31-0.8 2.31-2.24 0-0.45 0-0.9-0.47-1.45l0-25.18zm-17.46 21.96c-1.83 1.85-5.88 3.85-7.67 3.85-0.84 0-1.18-0.4-1.18-1.16 0-1.42 1.94-3.81 4.29-5.15 1.79-1.06 4.56-2.16 7.01-2.56 0 2.52-0.33 2.97-2.45 5.02zm6.71-10.95c0-2.44-1.14-4.91-5.19-4.91-3.49 0-7.44 0.64-10.89 3.11-0.99 0.15-1.89 1-1.89 2.24 0 1.31 0.99 2.21 2.22 2.21 1.23 0 2.31-0.85 2.45-1.85 1.7-1.2 4.71-2 7.11-2 1.84 0 1.93 0.5 1.93 1.7l0 2.1c-3 0.3-6.63 1.35-9.84 3.25-3.68 2.2-5.81 5.4-5.81 8.4 0 2.63 1.84 4.26 4.92 4.26 3.34 0 7.77-2.03 10.73-5.51l0 1.72c-0.13 0.2-0.37 0.49-0.37 1.24 0 1.1 0.71 1.95 2.22 1.95 1.18 0 2.74-0.4 2.74-2.05 0-0.45-0.04-0.85-0.33-1.19l0-14.67zm-23.86-4.46c-0.71 0-1.18 0.25-2.83 1.2-1.14 0.64-2.75 2.03-4.08 3.18l0-1.39c0.15-0.55 0.2-0.8 0.2-1.1 0-1.1-0.76-1.99-2.14-1.99-1.08 0-2.45 0.59-2.45 2.19 0 0.4 0.04 0.7 0.14 1.09l0 15.55c-0.28 0.4-0.48 0.95-0.48 1.39 0 1.25 0.81 2.2 2.37 2.2 1.84 0 2.83-0.6 2.83-2.35 0-0.49-0.23-0.95-0.47-1.24l0-9.48c1.33-1.43 4.31-3.93 5.73-4.77-0.05 0.65-0.05 0.84-0.05 1.15 0 1.29 1.33 1.89 2.22 1.89 0.67 0 2.03-0.1 2.03-1.89 0-2.74-0.37-5.63-3.02-5.63zm-17.63 2.79c0.24-1.44-0.14-2.74-2.26-2.74-1.66 0-2.14 0.75-2.14 1.64 0 0.95 0 0.55 0.15 1.1l0 12.13c-1.85 1.54-4.88 3.98-7.44 3.98-0.52 0-1.65-0.69-1.65-1.64l0-13.97c0.23-0.35 0.33-0.69 0.33-1.2 0-0.94-0.62-2.19-2.27-2.19-1.23 0-2.46 0.69-2.46 2.29 0 0.3 0 0.6 0.14 0.95l0 14.17c0 3.93 3.22 5.61 5.73 5.61 2.6 0 5.73-2.03 7.47-3.47l0 0.55c-0.52 1.07 0.2 2.32 1.99 2.32 1.19 0 2.74-0.4 2.74-2.1 0-0.44-0.04-0.84-0.33-1.19l0-16.24zm-23.24 8.09c-0.99 0-1.85 0.49-1.98 1.95-0.85 1.25-1.99 2.3-2.79 2.95-2.23 1.65-2.65 1.95-3.36 1.95-0.43 0-0.43-0.85-0.43-1.56l0-12.57 5.68-0.89c0.32 0.15 0.71 0.1 0.85 0.1 1.14 0 1.84-0.9 1.84-2.48 0-0.45-0.7-1.84-2.07-1.84-0.33 0-0.76 0.15-1 0.25l-5.3 0.81 0-2.99c0.24-0.35 0.29-0.75 0.29-1.2 0-1.49-1.23-1.73-2.08-1.73-1.28-0.05-2.61 0.3-2.61 1.89 0 0.25 0 0.64 0.15 1l0 3.68-2.65 0.39-0.52-0.1c-1.18 0.06-2.36 0.91-2.36 2.5 0 0.53 0.61 1.92 2.27 1.92 0.37-0.07 0.61-0.17 0.89-0.37l2.37-0.35 0 15.43c0 2.34 1.42 3.1 3.16 3.1 1.38 0 3.32-0.9 5.59-2.54 2.36-1.8 6.43-5.41 6.43-7.1 0-0.6-0.28-2.2-2.37-2.2zm-20.85-19.28c0-1.24-0.94-2.28-2.4-2.28-1.61 0-2.61 0.44-2.61 2.59 0 0.64 0.15 1.04 0.28 1.34l0 25.64c-0.18 0.49-0.18 0.74-0.18 0.94 0 1.39 0.99 2.49 2.6 2.49 1.14 0 2.31-0.8 2.31-2.24 0-0.45 0-0.9-0.47-1.44l0-25.19c0.33-0.45 0.47-0.95 0.47-1.85zm-11.14 11.19c0.24-1.44-0.14-2.74-2.27-2.74-1.65 0-2.13 0.75-2.13 1.64 0 0.95 0 0.55 0.15 1.1l0 12.13c-1.85 1.54-4.88 3.98-7.44 3.98-0.52 0-1.66-0.69-1.66-1.64l0-13.97c0.24-0.35 0.34-0.69 0.34-1.2 0-0.94-0.62-2.19-2.28-2.19-1.22 0-2.45 0.69-2.45 2.29 0 0.3 0 0.6 0.14 0.95l0 14.17c0 3.93 3.22 5.61 5.72 5.61 2.61 0 5.74-2.03 7.48-3.47l0 0.55c-0.51 1.07 0.19 2.32 1.99 2.32 1.18 0 2.75-0.4 2.75-2.1 0-0.44-0.06-0.84-0.34-1.19l0-16.24zm-30.49-9.26c2.5 0 3.97 0.79 4.11 1.4 0.24 1.14 0.85 2.09 2.13 2.09 1.32 0 2.45-1.1 2.45-2.7 0-2.53-4.86-5-8.89-5-3.31 0-6.56 1.38-9.36 5.36-2.17 3.19-4.59 9.52-4.59 14.35 0 7.44 3.22 13.89 10.08 13.89 1.42 0 2.46-0.2 4.49-1.14 2.08-1.04 4.69-2.97 5.96-4.42 1.28-1.4 1.89-2.34 1.89-3.39 0-1.24-0.94-2.44-2.79-2.44-1.37 0-2.03 1.2-2.32 3.04-1.51 1.9-4.25 4.14-6.53 4.14-2.21 0-3.3-0.45-4.48-1.99-0.95-1.25-1.9-3.75-1.9-7.03 0-2.7 0.85-7.54 3.13-11.57 1.7-2.99 3.82-4.59 6.62-4.59zm-39.59 20.75c-2.21 2.39-4.58 4.53-6.79 4.53-0.99 0-1.42-0.7-1.42-1.8 0-2.05 1.66-5.23 3.87-7.72 2.18-2.48 4.91-3.98 7.22-3.98 1.23 0 1.51 0.95 1.51 1.6 0 1.2-0.66 3.34-4.39 7.37zm8.6-21.47c0.05-0.35 0.1-0.6 0.1-0.95 0-1.15-0.66-2.54-2.32-2.54-1.09 0-2.46 0.74-2.46 2.34 0 0.6 0.09 1.15 0.43 1.55l-0.05 8.54c-0.43-0.5-1.42-0.59-2.36-0.59-6.42 0-14.51 8.83-14.51 15.54 0 3.89 1.81 6.27 5.26 6.27 2.13 0 4.02-0.6 6.18-2.13 1.65-1.14 3.83-3.38 5.38-5.47l0.1 0 0 3.57c-0.1 0.3-0.19 0.7-0.19 1.3 0 1.08 0.56 2.13 2.27 2.13 1.51 0 2.6-0.65 2.6-2.19 0-0.3-0.05-0.79-0.43-1.34l0-26.03zm-25.47 10.07c0-2.2-2.46-3.48-3.73-3.48-2.47 0-5.5 2.78-9.62 5.82l0-2.44c0.15-0.25 0.33-0.65 0.33-1.25 0-0.89-0.42-2.13-2.31-2.13-1.19 0-2.46 0.79-2.46 2.23 0 0.45 0.04 0.8 0.19 1.05l0 5.67c-0.34 0.54-0.47 1.19-0.47 1.69 0 0.44 0.09 0.94 0.47 1.34l0 7.76c-0.19 0.35-0.38 0.74-0.38 1.29 0 1.04 0.76 1.94 2.27 1.94 1.08 0 2.51-0.3 2.51-2.14 0-0.4-0.05-0.69-0.15-0.94l0-9.05c4.12-3.23 7.49-5.87 8.04-5.87 0.35 0 1.05 0.3 1.05 0.94l0 14.03c-0.14 0.34-0.23 0.6-0.23 0.84 0 1.24 0.85 2.19 2.26 2.19 1.43 0 2.37-0.65 2.37-2.29 0-0.4 0-0.69-0.14-1.04l0-16.16zm-31 12.53c-1.84 1.85-5.89 3.85-7.67 3.85-0.85 0-1.18-0.4-1.18-1.16 0-1.42 1.93-3.81 4.28-5.15 1.79-1.06 4.57-2.16 7.01-2.56 0 2.52-0.32 2.97-2.44 5.02zm6.7-10.95c0-2.44-1.13-4.91-5.19-4.91-3.49 0-7.44 0.64-10.88 3.11-1 0.15-1.9 1-1.9 2.24 0 1.31 0.99 2.21 2.23 2.21 1.22 0 2.31-0.85 2.45-1.85 1.69-1.2 4.71-2 7.11-2 1.83 0 1.92 0.5 1.92 1.7l0 2.1c-3 0.3-6.63 1.35-9.84 3.25-3.68 2.2-5.81 5.4-5.81 8.4 0 2.63 1.84 4.26 4.92 4.26 3.35 0 7.77-2.03 10.73-5.51l0 1.72c-0.13 0.2-0.37 0.49-0.37 1.24 0 1.1 0.71 1.95 2.22 1.95 1.18 0 2.74-0.4 2.74-2.05 0-0.45-0.04-0.85-0.33-1.19l0-14.67zm-40.75-0.7c2.12 0 2.45 1.51 2.45 2.06 0 0.8-0.52 1.1-1.74 1.45-1.66 0.45-4.06 1.05-7.18 1.71l-0.09-0.06c1.89-4.06 4.2-5.16 6.56-5.16zm0.56 7.32c4.59-1.06 6.25-2.56 6.25-4.76 0-3.45-2.89-6.27-6.52-6.27-3.5 0-6.66 1.58-9.07 4.76-2.04 2.71-3.32 6.31-3.32 10.31 0 4.18 2.32 7.7 6.76 7.7 2.84 0 5.29-0.64 7.69-2.48 1.9-1.43 3.98-3.48 3.98-4.78 0-0.94-0.85-2.04-2.41-2.04-1.18 0-2.32 0.74-2.27 2.19-1.7 2.35-4.48 3.4-6.28 3.4-2.08 0-3.11-1.3-3.11-3.5 0-1.19 0.05-1.94 0.23-2.69l8.07-1.84zm-16.96-11.08c-0.71 0-1.18 0.25-2.84 1.2-1.13 0.64-2.74 2.03-4.06 3.18l0-1.39c0.14-0.55 0.18-0.8 0.18-1.1 0-1.1-0.75-1.99-2.13-1.99-1.08 0-2.45 0.59-2.45 2.19 0 0.4 0.04 0.7 0.14 1.09l0 15.55c-0.28 0.4-0.48 0.95-0.48 1.39 0 1.25 0.81 2.2 2.37 2.2 1.84 0 2.84-0.6 2.84-2.35 0-0.49-0.24-0.95-0.47-1.24l0-9.48c1.32-1.43 4.31-3.93 5.72-4.77-0.04 0.65-0.04 0.84-0.04 1.15 0 1.29 1.32 1.89 2.22 1.89 0.66 0 2.03-0.1 2.03-1.89 0-2.74-0.38-5.63-3.03-5.63zm-17.62 2.79c0.23-1.44-0.15-2.74-2.28-2.74-1.65 0-2.12 0.75-2.12 1.64 0 0.95 0 0.55 0.14 1.1l0 12.13c-1.85 1.54-4.88 3.98-7.43 3.98-0.53 0-1.66-0.69-1.66-1.64l0-13.97c0.23-0.35 0.33-0.69 0.33-1.2 0-0.94-0.61-2.19-2.27-2.19-1.22 0-2.46 0.69-2.46 2.29 0 0.3 0 0.6 0.14 0.95l0 14.17c0 3.93 3.22 5.61 5.72 5.61 2.61 0 5.74-2.03 7.49-3.47l0 0.55c-0.52 1.07 0.19 2.32 1.98 2.32 1.18 0 2.75-0.4 2.75-2.1 0-0.44-0.05-0.84-0.33-1.19l0-16.24zm-27.54 3.68c-2.03 0-3.97 0.65-6.47 1.58-1.9 0.73-3.22 1.27-3.89 1.27-0.52 0-0.95-0.14-0.95-0.89 0-0.9 0.76-1.89 2.41-3.03 2.04-1.4 5.12-2.04 8.38-2.04 0.8 0.35 1.17 0.55 1.7 0.55 0.85 0 2.03-0.2 2.03-1.98 0-1.44-1.79-2.53-3.78-2.53-3.83 0-7.57 0.94-10.26 2.53-2.89 1.78-4.83 4.32-4.83 7.39 0 2.58 2.23 4.37 4.45 4.37 2.36 0 4.12-0.74 6.34-1.64 1.85-0.72 3.22-1.22 4.25-1.22 0.9 0 1.42 0.45 1.42 1.25 0 1.15-0.52 2.59-2.27 4.09-2.02 1.78-4.9 2.59-6.75 2.59-1.6 0-2.31-0.4-2.83-0.75l0.09-0.8c0-1.4-1.18-1.69-2.41-1.69-0.8 0-1.94 0.9-1.94 2.74 0 1.24 1 2.52 2.28 3.27 1.23 0.75 3.3 1.19 4.77 1.19 3.68 0 7.27-1.68 9.68-3.62 1.89-1.49 3.73-4.23 3.73-7.68 0-2.13-1.32-4.95-5.15-4.95zm-20.9-2.64c0.14-0.15 0.38-0.49 0.38-1.19 0-1.44-1.23-2.59-2.27-2.59-1.57 0-2.66 0.7-2.66 2.89 0 0.45 0.1 0.79 0.29 1.1l0 14.44c-0.43 0.75-0.43 1-0.43 1.35 0 1.09 0.62 2.54 2.32 2.54 1.56 0 2.8-1.05 2.8-2.49 0-0.45-0.15-0.8-0.43-1.2l0-14.85zm-1.81-13.46c-1.71 0-2.75 1.64-2.75 4.83 0 1.39 0.85 2.59 2.41 2.59 1.57 0 2.9-1.5 2.9-4.78 0-1.64-0.71-2.64-2.56-2.64zm-13.43 13.39c2.13 0 2.46 1.51 2.46 2.06 0 0.8-0.52 1.1-1.75 1.45-1.65 0.45-4.06 1.05-7.17 1.71l-0.1-0.06c1.89-4.06 4.2-5.16 6.56-5.16zm0.57 7.32c4.59-1.06 6.25-2.56 6.25-4.76 0-3.45-2.9-6.27-6.53-6.27-3.5 0-6.66 1.58-9.07 4.76-2.04 2.71-3.31 6.31-3.31 10.31 0 4.18 2.31 7.7 6.76 7.7 2.84 0 5.29-0.64 7.69-2.48 1.9-1.43 3.98-3.48 3.98-4.78 0-0.94-0.85-2.04-2.42-2.04-1.18 0-2.31 0.74-2.26 2.19-1.7 2.35-4.49 3.4-6.28 3.4-2.08 0-3.12-1.3-3.12-3.5 0-1.19 0.05-1.94 0.24-2.69l8.07-1.84zm-17.5 5.22c-0.57 0-1.23 0.1-1.71 0.54l-8.97 1.3 0-24.74c0.18-0.3 0.37-0.55 0.37-1.04 0-1.05-0.33-2.49-2.51-2.49-1.04 0-2.41 0.45-2.41 2.49 0 0.44 0.05 0.74 0.19 0.94l0 25.54c-0.39 0.49-0.48 1.03-0.48 1.73 0 1.45 1.04 2.25 2.42 2.25 0.52 0 0.84-0.05 1.42-0.2l11.16-1.5c0.15 0.09 0.57 0.2 0.85 0.14 1.04-0.19 1.85-1.04 1.85-2.73 0-1.39-1.14-2.18-2.18-2.23zm-142 74.41c55.39 0 100.29-44.91 100.29-100.29 0-55.4-44.9-100.29-100.29-100.29-55.39 0-100.3 44.89-100.3 100.29 0 55.38 44.91 100.29 100.3 100.29z"/>
  <path fill="#bbe2ef" d="M281.68 359.49c9.68-4.76 18.47-11.03 26.09-18.52 29.35-138.81-148.93-10.08-212.33 69.18 183.73-136.97 204.48-110.8 186.24-50.66zm-10.67-140.55c11.26 0 20.4-7.36 20.4-16.44 0-9.09-9.14-16.46-20.4-16.46-11.28 0-20.4 7.37-20.4 16.46 0 9.08 9.12 16.44 20.4 16.44zm51.7 32.5c-18.65 82.77-141.89-93.38-157.11-18.23 6.3-90.7 150.88 84.91 151.09-15.93l0.21-0.32c8.96 22.81 6.55 26.9 5.81 34.48z"/>
  <path fill="#81303f" d="M1311.81 205.99c-0.17-0.57-0.77-0.89-1.33-0.72l-240.4 72.74 0-67.77-16.71-22.64 0 95.47-75.6 22.87 0 2.23 333.32-100.85c0.57-0.18 0.89-0.77 0.72-1.33zm-368.59 155.3l0-54.51-23.15 6.98-0.01 54.5-27.46 8.27c-0.57 0.17-0.89 0.76-0.71 1.33 0.13 0.46 0.56 0.75 1.02 0.75 0.1 0 0.2-0.01 0.3-0.04l84.56-25.45 0-2.23-34.55 10.4zm-0.01-68.54l-23.15 7.02 0 10.67 23.15-7 0-10.69zm0-14.02l-23.15 6.99 0 10.86 23.15-7.11 0-10.74zm0-14.02l-23.15 6.97 0 10.89 23.15-7 0-10.86zm-23.15-12.37l0 16.13 23.15-7 0-16.13-23.15 7zm23.15-7l0 0 34.56 20.74 27.14-8.22 0-31.2-61.7 18.68zm289.18 86.89c-0.46 0-0.88-0.3-1.02-0.76-0.17-0.57 0.15-1.16 0.71-1.33l105.22-31.85c0.56-0.16 1.16 0.15 1.33 0.72 0.17 0.56-0.15 1.15-0.71 1.33l-105.22 31.84c-0.11 0.03-0.21 0.05-0.31 0.05zm84.91-63.86l5.54-1.7c0.05-2.43-0.81-3.18-2.5-2.66-1.8 0.55-2.73 2.14-3.04 4.36zm9.26 5.84c-1.38 2.69-3.49 4.23-6.66 5.2-5.3 1.62-7.6-1.28-7.3-6.18l0.16-2.58c0.36-5.74 3.22-9.33 7.8-10.73 4.97-1.52 7.07 0.89 6.71 6.66l-0.13 2.17-10.06 3.07c-0.12 2.61 0.53 4.27 3.04 3.5 1.87-0.57 2.51-1.36 3.24-2.59l3.2 1.48zm-26.8 11.03l-4.48 1.37 0.69-11.13c0.2-3.04-0.84-3.69-2.42-3.21-1.63 0.5-2.87 2.14-3.04 4.84l-0.7 11.17-4.51 1.38 1.18-18.99 4.41-1.35-0.1 1.6c0.73-1.19 2.07-2.53 4.04-3.14 2.12-0.64 3.79-0.3 4.78 1.04 1.22-1.82 3.01-3.42 5.24-4.1 3.84-1.17 5.94 0.64 5.63 5.58l-0.74 11.89-4.52 1.38 0.7-11.13c0.18-2.85-0.66-3.75-2.46-3.2-1.62 0.5-2.84 2.14-3 4.83l-0.7 11.17zm-27.38 8.37l-4.48 1.37 0.69-11.13c0.19-3.03-0.84-3.69-2.43-3.2-1.62 0.49-2.86 2.14-3.04 4.83l-0.69 11.17-4.52 1.38 1.19-18.98 4.41-1.35-0.1 1.59c0.73-1.19 2.06-2.53 4.04-3.13 2.11-0.65 3.79-0.31 4.78 1.04 1.22-1.83 3.01-3.43 5.23-4.11 3.85-1.17 5.95 0.65 5.65 5.58l-0.75 11.89-4.52 1.38 0.7-11.13c0.18-2.85-0.66-3.74-2.46-3.19-1.63 0.49-2.84 2.13-3 4.83l-0.7 11.16zm-21.28-1.17l-2.97 0.91c-1.83 0.56-2.68 1.45-2.77 2.93-0.09 1.45 0.89 1.82 2.44 1.35 2.04-0.63 3.1-1.88 3.25-4.47l0.05-0.72zm-3.27-2.5l3.49-1.07 0.07-1.1c0.14-2.13-0.42-2.62-2.96-1.85-1.73 0.53-2.6 1.06-3.41 2.53l-3.03-1.42c1.45-2.71 3.48-4.15 7.11-5.26 4.55-1.39 7.04-0.74 6.7 4.69l-0.78 12.46-4.41 1.34 0.11-1.67c-0.79 1.51-1.9 2.55-3.95 3.18-3.66 1.12-6.07-0.19-5.83-4.06 0.25-4.03 3.18-6.63 6.89-7.77zm-10.53 0.95c-0.41-0.58-1-1.11-2.13-0.77-1.7 0.52-2.91 2.2-3.08 4.86l-0.69 11.16-4.52 1.38 1.19-18.99 4.41-1.34-0.1 1.59c0.66-1.13 1.89-2.48 3.96-3.11 2.12-0.65 3.65-0.15 4.58 1.5l-3.62 3.72zm-17.33 10.77l0.15-2.39c0.19-3.04-0.63-4.42-2.85-3.75-2.22 0.68-3.24 2.63-3.43 5.67l-0.13 1.98c-0.16 2.73 0.41 4.56 2.84 3.82 2.4-0.73 3.26-2.82 3.42-5.33zm0.68-10.86l4.48-1.37-1.17 18.61c-0.4 6.34-3.8 8.83-8.25 10.19-3.28 1.01-5.31 0.81-6.7-1.3l3.18-3.28c0.71 0.9 1.69 1.16 3.35 0.65 2.69-0.82 3.76-1.97 3.94-4.89l0.04-0.61c-1.01 1.17-2.27 2-3.86 2.48-4.62 1.42-6.76-1.4-6.45-6.44l0.16-2.59c0.35-5.54 3.33-9.35 7.52-10.63 1.59-0.49 2.8-0.41 3.69 0.17l0.07-0.99zm-17.7 15.66l0.13-1.98c0.19-3.04-0.63-4.42-2.85-3.74-2.22 0.67-3.24 2.62-3.43 5.66l-0.13 1.97c-0.16 2.74 0.34 4.6 2.85 3.83 2.46-0.76 3.26-3.01 3.43-5.74zm4.47-1.22c-0.32 5.2-2.83 9.43-8.16 11.06-5.12 1.56-7.41-1.09-7.07-6.41l0.14-2.27c0.36-5.7 3.33-9.51 8.16-10.99 4.9-1.5 7.43 0.63 7.08 6.33l-0.15 2.28zm-18.82 0.54c-0.41-0.58-1-1.11-2.13-0.77-1.69 0.52-2.91 2.19-3.07 4.85l-0.7 11.17-4.51 1.38 1.18-18.99 4.41-1.34-0.1 1.59c0.66-1.13 1.89-2.48 3.97-3.12 2.12-0.64 3.64-0.14 4.58 1.51l-3.63 3.72zm-16.75 10.19l0.13-1.98c0.19-3.04-0.59-4.44-2.82-3.76-2.15 0.66-3.23 2.48-3.4 5.25l-0.16 2.39c-0.16 2.74 0.31 4.61 2.85 3.83 2.43-0.75 3.23-3 3.4-5.73zm4.5-1.08c-0.31 4.93-2.87 9.29-7.42 10.68-1.83 0.56-3.05 0.56-3.81 0.09l-0.5 7.97-4.51 1.38 1.64-26.2 4.51-1.38-0.08 1.26c0.92-1.29 2.22-2.25 4.02-2.8 4.09-1.25 6.65 0.98 6.31 6.41l-0.16 2.59zm145.32-156.95c-0.46 0-0.88-0.3-1.02-0.75-0.17-0.57 0.14-1.16 0.7-1.34l73.86-22.72c0.56-0.16 1.16 0.14 1.33 0.71 0.17 0.56-0.14 1.16-0.7 1.33l-73.86 22.72c-0.11 0.03-0.21 0.05-0.31 0.05zm91.73 36.09c-0.57 0.79-1.33 1.48-2.08 1.7l-8.31 2.5c-0.2 0.06-0.45-0.03-0.5-0.19l-1.27-3.13c-0.05-0.16 0.1-0.72 0.35-0.79l6.6-1.99 0.45-44.54c0.01-0.45 0.42-0.97 0.87-1.11l4.63-1.39c0.31-0.09 0.7 0.24 0.7 0.64l-0.47 45.57c0 0.85-0.42 1.88-0.97 2.73zm-8.13-5.5l-4.53 1.37c-0.36 0.1-0.55-0.29-0.55-0.63l0.36-35.04c0-0.29 0.25-0.76 0.51-0.84l4.58-1.38c0.25-0.07 0.55 0.18 0.55 0.52l-0.36 35.04c-0.01 0.4-0.26 0.87-0.56 0.96zm-13.44-31l-3.83 1.15-0.03 2.73 3.83-1.15 0.03-2.73zm-0.06 5.74l-3.83 1.15-0.03 2.62 3.83-1.15 0.03-2.62zm-0.12 21.82l-3.93 1.18-0.03 2.56 3.93-1.18 0.03-2.56zm-0.06 5.4l-3.93 1.18-0.02 2.5 3.93-1.18 0.02-2.5zm-10.01-2.38l-3.88 1.17-0.02 2.56 3.87-1.16 0.03-2.57zm-0.06 5.41l-3.87 1.16-0.03 2.51 3.88-1.17 0.02-2.5zm15.12-0.24c-0.52 0.78-1.28 1.4-2.08 1.65l-20.4 6.13c-0.8 0.24-1.5-0.05-2-0.59-0.44-0.43-0.69-1.15-0.68-1.84l0.07-7.39c0.01-0.85 0.37-1.7 0.93-2.44 0.61-0.75 1.37-1.31 2.17-1.55l19.74-5.94c0.96-0.29 1.87-0.27 2.46 0.28 0.45 0.43 0.69 1.16 0.69 2.29l-0.08 6.94c0 0.86-0.32 1.74-0.82 2.46zm2.23-32.14l-1.61 0.48-0.02 1.94c-0.01 0.96-0.22 1.87-0.68 2.64-0.51 0.95-1.27 1.63-2.28 1.93l-6.4 1.92-0.02 2.62 9.56-2.88c0.36-0.1 0.66 0.09 0.65 0.43l-0.01 1.71c-0.01 0.34-0.31 0.71-0.62 0.81l-9.61 2.89-0.03 2.56 10.68-3.21c0.35-0.11 0.65 0.09 0.65 0.43l-0.02 1.71c0 0.34-0.26 0.7-0.56 0.79l-27.19 8.17c-0.31 0.09-0.66-0.08-0.66-0.37l0.02-1.82c0.01-0.34 0.32-0.66 0.62-0.75l10.12-3.05 0.02-2.55-9.26 2.78c-0.3 0.09-0.65-0.08-0.65-0.37l0.02-1.82c0-0.34 0.31-0.66 0.61-0.75l9.31-2.8 0.03-2.62-8.61 2.59c-0.3 0.09-0.66-0.09-0.65-0.37l0.02-1.88c0-0.34 0.31-0.66 0.61-0.75l8.66-2.6 0.02-2.62-10.12 3.04c-0.3 0.1-0.65-0.08-0.64-0.37l0.02-1.88c0-0.34 0.3-0.66 0.61-0.75l10.17-3.06 0.02-2.72-8.7 2.62c-0.3 0.09-0.66-0.09-0.65-0.38l0.01-1.82c0.01-0.34 0.31-0.65 0.61-0.75l8.76-2.63 0.02-2.05c0.01-0.34 0.27-0.76 0.52-0.83l5.29-1.59c0.25-0.08 0.55 0.17 0.54 0.52l-0.02 2.04 6.15-1.85c1.06-0.31 1.85-0.27 2.4 0.19 0.5 0.42 0.74 1.14 0.73 2.22l-0.02 2.32 1.51-0.45c0.35-0.1 0.65 0.09 0.65 0.43l-0.02 1.76c0 0.35-0.26 0.71-0.56 0.8zm-0.38 37.37l-27.66 9.4c-0.25 0.07-0.65-0.04-0.65-0.32l0.02-2.1c0.01-0.35 0.36-0.8 0.67-0.88l27.55-9.37c0.36-0.11 0.7 0.19 0.7 0.53l-0.02 1.71c0 0.4-0.31 0.94-0.61 1.03zm-32.97-15.04l-8 2.41-0.26 25.25c-0.01 0.4-0.21 0.86-0.51 0.95l-5.34 1.61c-0.35 0.1-0.6-0.28-0.6-0.62l0.26-25.25-7.81 2.34c-0.3 0.09-0.65-0.08-0.64-0.37l0.03-3.41c0-0.34 0.31-0.66 0.61-0.75l7.86-2.37 0.19-18.6c0-0.33 0.26-0.81 0.51-0.88l5.38-1.63c0.25-0.07 0.55 0.24 0.55 0.58l-0.19 18.6 7.96-2.39c0.35-0.11 0.7 0.07 0.7 0.41l-0.04 3.13c0 0.51-0.36 0.9-0.66 0.99zm-30.53 20.35l-6.24 1.88-0.11 10.36 6.25-1.88 0.1-10.36zm5.97-19.03l-17.78 5.34c-0.3 0.09-0.65-0.09-0.64-0.37l0.03-3.3c0-0.34 0.31-0.66 0.61-0.75l17.78-5.35c0.35-0.1 0.7 0.08 0.69 0.42l-0.03 3.01c0 0.52-0.36 0.91-0.66 1zm-0.08 8.42l-17.78 5.34c-0.3 0.09-0.65-0.09-0.65-0.37l0.03-3.3c0.01-0.34 0.31-0.66 0.61-0.75l17.78-5.34c0.35-0.11 0.7 0.07 0.7 0.41l-0.03 3.01c-0.01 0.51-0.36 0.91-0.66 1zm-0.34 22.9c-0.46 0.65-1.06 1.11-1.87 1.35l-14 4.21c-0.66 0.2-1.21 0.19-1.61-0.03-0.54-0.34-0.89-0.98-0.88-1.94l0.14-13.43c0.01-0.8 0.31-1.62 0.82-2.34 0.52-0.78 1.22-1.39 2.03-1.63l13.44-4.05c0.81-0.24 1.56-0.07 2.06 0.41 0.49 0.47 0.79 1.23 0.78 2.09l-0.13 12.91c-0.01 0.91-0.32 1.74-0.78 2.45zm1.41-40.13l-19.38 5.83c-0.31 0.09-0.66-0.09-0.65-0.37l0.03-3.3c0-0.34 0.31-0.66 0.61-0.75l6.65-2-1.37-3.21c-0.2-0.51 0.16-1.19 0.56-1.31l5.04-1.51c0.5-0.15 1 0.04 1.19 0.43l1.53 3.52 5.79-1.75c0.35-0.1 0.7 0.07 0.7 0.42l-0.03 3.01c-0.01 0.51-0.36 0.9-0.67 0.99z"/>
  <path fill="#e62131" d="M1365.83 133.3c-0.45 0-0.88-0.3-1.02-0.76-0.17-0.55 0.14-1.15 0.71-1.32l58.22-17.91c0.56-0.18 1.16 0.14 1.33 0.7 0.17 0.56-0.14 1.16-0.71 1.33l-58.22 17.91c-0.1 0.03-0.21 0.05-0.31 0.05zm-237.08 75.19l-5.86 1.8-0.18 17.2 2.87 3.4 3-5.2 0.17-17.2zm9.46 39.07l-6.98 2.14c-0.34 0.11-0.89-0.1-1.11-0.41l-4.84-5.77-5.16 8.83c-0.22 0.39-0.79 1-1.12 1.1l-6.98 2.14c-0.39 0.12-0.49-0.41-0.27-0.8l9.4-16.24-4.78-5.65c-0.61-0.76-0.7-1.99-0.69-3.25l0.1-9.74-3.97 1.21c-0.33 0.1-0.5-0.28-0.38-0.63l8.02-22.25c0.11-0.28 0.45-0.58 0.73-0.66l6.14-1.89c0.34-0.1 0.67 0.24 0.61 0.51l-3.26 8.93 13.96-4.27c0.39-0.13 0.71 0.09 0.71 0.47l-0.03 3.54c-0.01 0.38-0.29 0.78-0.62 0.88l-1.9 0.58-0.17 17.2c-0.02 1.27-0.09 2.61-0.77 3.76l-5.09 8.69 8.73 10.61c0.23 0.25 0.11 0.85-0.28 0.97zm-23.69-2l-24.72 16.59c-0.28 0.22-0.73-0.03-0.72-0.34l0.03-3.73c0.01-0.38 0.4-0.75 0.74-0.98l1.18-0.8 0.33-33.13c0.01-0.38 0.23-0.82 0.57-0.93l4.69-1.44c0.28-0.08 0.61 0.2 0.61 0.57l-0.32 30.98 2.58-1.74 0.4-39.25-8.49 2.6c-0.33 0.1-0.66-0.05-0.66-0.42l0.04-3.8c0-0.38 0.28-0.72 0.62-0.82l23.28-7.14c0.39-0.12 0.72 0.1 0.72 0.66l-0.03 3.23c-0.01 0.56-0.41 1.07-0.74 1.17l-7.6 2.33-0.16 15.99 5.03-1.54c0.39-0.12 0.72 0.09 0.72 0.66l-0.04 3.04c0 0.56-0.4 1.06-0.73 1.16l-5.03 1.55-0.15 15.74 7.84-5.24c0.39-0.32 0.78 0.2 0.78 0.52l-0.04 3.16c0.05 0.42-0.4 1.19-0.73 1.35zm65.28-20.58l-5.19 1.59c-0.45 0.14-0.94-0.02-1.06-0.37l-5.31-14c-0.11-0.21 0.29-0.84 0.57-0.93l5.47-1.68c0.33-0.1 0.73 0.04 0.83 0.38l5.31 14.06c0.11 0.34-0.28 0.85-0.62 0.95zm12.89-24.5l-2.74 0.84-0.27 26.18c-0.01 1.32-0.58 2.63-1.43 3.71-0.62 0.76-1.4 1.31-2.24 1.57l-10.72 3.28c-0.39 0.12-0.95-0.02-1.11-0.35l-1.31-2.81c-0.11-0.15 0.12-0.79 0.4-0.88l9.27-2.84 0.26-25.67-15.52 4.76c-0.39 0.12-0.67-0.17-0.67-0.55l0.04-3.66c0.01-0.38 0.23-0.71 0.57-0.81l15.63-4.8 0.07-7.01c0.01-0.63 0.3-1.16 0.91-1.35l5.3-1.62c0.51-0.16 0.95 0.08 0.94 0.66l-0.07 7.14 2.74-0.84c0.39-0.13 0.72 0.03 0.72 0.53l-0.04 3.42c0 0.57-0.4 1-0.73 1.1zm0.38-15.68l-39.26 12.04-0.19 18.9 6.91-17.24c0.23-0.58 0.68-1.16 1.13-1.29l5.97-1.83c0.4-0.13 0.67 0.36 0.49 0.79l-7.48 18.74 3.35-1.03c0.51-0.15 0.95 0.15 0.94 0.79l-0.24 23.57c-0.01 0.64-0.34 1.18-0.85 1.33l-5.3 1.63c-0.61 0.19-0.94-0.15-0.94-0.72l0.24-23.2-4.25 1.31-0.15 15.04c-0.01 0.95-0.08 1.85-0.36 2.82l-2.13 6.51c-0.12 0.41-0.51 0.79-0.85 0.89l-6.14 1.89c-0.33 0.1-0.55-0.21-0.44-0.57l2.76-8.21 0.39-38.94c0.01-0.95 0.58-2.13 1.38-3.13 0.78-1.06 1.8-1.87 2.85-2.2l15.31-4.69-1.09-3.07c-0.11-0.47 0.18-1 0.63-1.14l7.31-2.24c0.34-0.1 0.73 0.03 0.83 0.31l1.14 3.43 17.92-5.49c0.45-0.14 0.89 0.1 0.89 0.48l-0.04 3.48c0 0.44-0.34 0.92-0.73 1.04zm51.89-11.62l-5.31 1.63c-0.6 0.19-0.98 0-0.97-0.69l0.05-4.77-17.46 5.36-2.4 5.12c-0.22 0.5-0.61 0.74-1.05 0.87l-5.91 1.82c-0.44 0.13-0.82-0.31-0.59-0.81l5.74-12.08c0.17-0.42 0.66-0.76 1.04-0.87l5.98-1.83c0.43-0.14 0.75 0.25 0.53 0.69l-1.17 2.53 18.34-5.62c1.09-0.34 2.13-0.17 2.88 0.41 0.71 0.46 1.19 1.3 1.18 2.23l-0.05 4.89c0 0.44-0.44 1.01-0.83 1.12zm1.72 8.06l-9.25 2.84c-0.44 0.14-0.66 0.14-0.98 0.06l-10.24-2.36-7.55 7.69c-0.39 0.43-0.94 0.84-1.37 0.97l-7.67 2.36c-0.66 0.2-0.92-0.46-0.53-0.83l15.98-16.27c0.28-0.27 0.67-0.76 1.05-0.88l8.16-2.5c0.38-0.12 0.86 0.35 0.53 0.7l-5.29 5.4 3.61-1.11c0.5-0.15 0.99-0.06 1.47 0.04l12.58 2.88c0.39 0.06-0.12 0.9-0.5 1.01zm-9.97 8.87l-28.13 8.63-0.03 3.22 28.13-8.63 0.03-3.22zm-0.07 7.07l-28.13 8.63-0.03 2.91 28.13-8.63 0.03-2.91zm-0.07 6.75l-28.13 8.63-0.03 3.28 28.13-8.62 0.03-3.29zm-25.78-23.79l-5.97 1.83c-0.43 0.13-0.87 0.02-1.08-0.22l-4.48-5.55c-0.27-0.35 0.12-1.03 0.56-1.16l5.91-1.81c0.43-0.14 0.82-0.13 1.09 0.22l4.47 5.67c0.27 0.23-0.12 0.9-0.5 1.02zm-4.93 13.01c-0.28 0.58-0.67 0.82-1.1 0.95l-5.91 1.81c-0.44 0.14-0.82-0.3-0.54-0.88l4.85-10.14c0.17-0.36 0.6-0.74 1.04-0.87l5.97-1.83c0.38-0.12 0.76 0.25 0.54 0.7l-4.85 10.26zm40.76 21.05l-9.09 2.79c-0.38 0.11-1.09 0.27-1.47 0.14l-9.9-2.83-6.84 2.09-10.41 9c-0.22 0.19-0.99 0.68-1.37 0.79l-8.98 2.76c-0.38 0.11-0.54-0.58-0.21-0.81l10.13-8.41-4.22 1.29c-0.82 0.25-1.52 0.16-2.07-0.11-0.6-0.37-0.97-1.12-0.96-2.11l0.18-18.23c0.01-0.99 0.57-2.02 1.29-2.92 0.72-0.84 1.65-1.56 2.47-1.81l34.92-10.71c0.94-0.28 1.97 0.02 2.72 0.65 0.65 0.54 1.14 1.38 1.13 2.31l-0.18 17.23c0 0.93-0.4 1.67-0.9 2.5-0.61 1-1.54 1.84-2.42 2.11l-2.96 0.9 9.37 2.32c0.27 0.04 0.1 0.96-0.23 1.06zm51.88-17.08c-0.61 0.86-1.44 1.61-2.26 1.86l-6.95 2.13c-0.27 0.09-0.49-0.03-0.54-0.2l-1.39-3.4c-0.11-0.15 0.12-0.78 0.34-0.85l4.92-1.51 0.36-35.33-4.92 1.51-0.26 25.29c-0.01 1.24-0.25 2.92-0.64 3.96l-4.38 11.79c-0.16 0.48-0.6 0.93-0.93 1.03l-6.68 2.04c-0.27 0.09-0.43-0.36-0.27-0.78l5.9-15.89 0.25-25.29-3.33 1.02c-0.33 0.1-0.66-0.11-0.66-0.42l0.04-3.72c0-0.37 0.28-0.7 0.61-0.8l3.39-1.04 0.09-8.37c0-0.37 0.28-0.82 0.55-0.91l5.86-1.79c0.27-0.09 0.6 0.18 0.59 0.55l-0.08 8.37 7.71-2.36c1.32-0.41 2.41-0.13 3.11 0.59 0.7 0.71 1.02 1.85 1 3.21l-0.37 36.32c0 0.93-0.45 2.06-1.06 2.99zm-30.17-38.27l-6.79 2.08-0.1 10.23 6.79-2.08 0.1-10.23zm-0.15 15.06l-6.79 2.08-0.11 10.66 6.79-2.08 0.11-10.66zm-0.16 15.5l-6.78 2.08-0.12 11.16 6.8-4 0.1-9.24zm8.53 9.19l-24.48 14.24c-0.28 0.14-0.71-0.03-0.71-0.34l0.04-3.66c0-0.37 0.39-0.8 0.72-0.96l2.08-1.19 0.46-45.13c0.02-0.87 0.35-1.77 0.9-2.56 0.56-0.85 1.38-1.54 2.2-1.79l14.4-4.41c0.88-0.27 1.69-0.09 2.23 0.43 0.54 0.51 0.86 1.28 0.85 2.27l-0.4 39.11 1.71-1.02c0.38-0.24 0.75 0.2 0.75 0.57l-0.03 3.1c0.05 0.36-0.39 1.11-0.72 1.34zm-123.3 147.12c-0.46 0-0.88-0.3-1.02-0.75-0.18-0.57 0.15-1.16 0.71-1.33l115.14-34.85c0.56-0.17 1.15 0.15 1.32 0.71 0.18 0.57-0.15 1.16-0.71 1.33l-115.14 34.85c-0.1 0.03-0.2 0.04-0.3 0.04zm-276.33 28.96c-0.45 0-0.88-0.29-1.01-0.75-0.18-0.56 0.14-1.16 0.7-1.34l35.07-10.78c0.56-0.17 1.16 0.14 1.33 0.7 0.18 0.57-0.14 1.16-0.7 1.34l-35.07 10.79c-0.11 0.03-0.21 0.04-0.32 0.04zm446.58-129.98c-0.46 0-0.88-0.29-1.02-0.75-0.17-0.57 0.15-1.16 0.71-1.33l51.85-15.69c0.56-0.17 1.16 0.15 1.33 0.71 0.17 0.56-0.15 1.16-0.72 1.33l-51.84 15.69c-0.11 0.03-0.21 0.04-0.31 0.04zm-270.13-57.09l-110.16 33.33 0 19.74 69.57-21.05-0.16 75.77 40.75-12.33 0-95.46zm-110.16 115.82l34.56 12.14 0-9.64-34.56-13.18 0 10.68zm0-13.96l34.56 13.61 0-9.62-34.56-14.73 0 10.74zm0-13.91l34.56 15.06 0-9.84-34.56-16.08 0 10.86zm34.56-9.48l-34.56-20.74 0 16.12 34.56 16.69 0-12.07zm-34.56 40.69l0 54.69 34.56-10.41 0-32.64-34.56-11.64zm66.02 17.62l-0.16 2.65c-0.56 8.86-4.63 13.97-10.72 15.84-6.04 1.84-10.05-0.81-9.49-9.66l0.22-3.7c0.59-9.36 5.09-14.51 11.14-16.36 5.65-1.73 8.83 0.67 9.28 6.34l-5.23 1.6c-0.3-2.51-1.63-3.83-4.37-2.99-3.16 0.96-4.98 3.78-5.32 9.33l-0.26 4.11c-0.35 5.54 1.18 7.34 4.34 6.37 3.09-0.94 4.46-3.38 4.99-6.96l-4.52 1.38 0.31-4.95 9.79-3zm14.03 1.23l0.13-2.18c0.21-3.36-0.68-4.89-3.14-4.14-2.46 0.75-3.59 2.91-3.8 6.27l-0.13 2.18c-0.2 3.02 0.37 5.07 3.14 4.22 2.73-0.83 3.61-3.32 3.8-6.35zm4.94-1.34c-0.36 5.75-3.14 10.43-9.03 12.23-5.65 1.72-8.19-1.2-7.82-7.08l0.16-2.52c0.39-6.3 3.68-10.51 9.02-12.14 5.42-1.66 8.22 0.69 7.83 6.99l-0.16 2.52zm20.68-17.81l-8.74 23.25-4.68 1.44-6.25-18.68 5.46-1.67 3.52 12.27 5.18-14.93 5.51-1.68zm4.76 6.41l6.13-1.88c0.05-2.69-0.89-3.51-2.76-2.94-1.99 0.61-3.02 2.36-3.37 4.82zm10.24 6.46c-1.53 2.97-3.85 4.68-7.37 5.75-5.85 1.79-8.4-1.42-8.06-6.84l0.18-2.85c0.4-6.34 3.55-10.31 8.62-11.86 5.5-1.68 7.82 0.98 7.42 7.36l-0.15 2.4-11.11 3.4c-0.15 2.88 0.58 4.71 3.35 3.87 2.07-0.64 2.77-1.51 3.59-2.86l3.53 1.63zm14.27-16.1c-0.45-0.64-1.11-1.23-2.35-0.85-1.87 0.58-3.22 2.43-3.4 5.37l-0.77 12.34-5 1.53 1.32-20.99 4.87-1.49-0.11 1.76c0.73-1.25 2.09-2.74 4.39-3.44 2.34-0.72 4.03-0.16 5.06 1.66l-4.01 4.11zm5.63-7.44l4.88-1.5-0.11 1.77c0.8-1.28 2.43-2.85 4.62-3.51 3.94-1.21 7.01-0.17 6.62 6.04l-0.82 13.14-4.96 1.52 0.78-12.31c0.2-3.27-0.82-4.11-2.85-3.49-2.3 0.7-3.53 2.69-3.71 5.45l-0.77 12.35-4.99 1.53 1.31-20.99zm34.38 10.07l-4.96 1.52 0.77-12.3c0.21-3.36-0.94-4.08-2.69-3.54-1.79 0.54-3.17 2.36-3.35 5.34l-0.78 12.35-4.99 1.52 1.32-20.99 4.87-1.49-0.11 1.77c0.81-1.32 2.28-2.8 4.46-3.46 2.35-0.72 4.19-0.34 5.29 1.13 1.35-2.01 3.33-3.77 5.79-4.52 4.26-1.3 6.58 0.7 6.24 6.16l-0.83 13.14-4.99 1.52 0.77-12.29c0.19-3.15-0.73-4.15-2.72-3.54-1.8 0.55-3.14 2.36-3.32 5.34l-0.77 12.34zm19.36-18.64l6.13-1.87c0.05-2.7-0.89-3.52-2.76-2.95-1.99 0.61-3.02 2.37-3.37 4.82zm10.24 6.46c-1.53 2.98-3.85 4.68-7.37 5.75-5.85 1.79-8.4-1.42-8.06-6.84l0.17-2.85c0.4-6.34 3.56-10.3 8.63-11.86 5.5-1.68 7.82 0.99 7.42 7.36l-0.15 2.4-11.12 3.4c-0.14 2.88 0.59 4.72 3.36 3.87 2.07-0.63 2.77-1.5 3.58-2.86l3.54 1.63zm4.07-18.7l4.87-1.49-0.11 1.77c0.81-1.28 2.44-2.85 4.62-3.52 3.94-1.2 7.01-0.17 6.63 6.04l-0.83 13.14-4.95 1.52 0.77-12.3c0.21-3.28-0.82-4.12-2.84-3.5-2.31 0.71-3.54 2.69-3.71 5.46l-0.78 12.34-4.99 1.53 1.32-20.99zm18.32-5.6l2.5-0.77 0.29-4.61 4.95-1.52-0.29 4.62 3.83-1.17-0.29 4.54-3.82 1.17-0.55 8.77c-0.14 2.09 0.2 2.86 2.03 2.3l1.61-0.49-0.3 4.7-2.11 0.65c-4.72 1.44-6.58 0.6-6.24-4.81l0.6-9.61-2.49 0.76 0.28-4.53zm12.93 2.43l10.1-3.09-0.29 4.7-10.1 3.09 0.29-4.7zm13.77-10.59l0.07-1.14c0.33-5.41 2.38-7.44 7.1-8.88l1.44-0.44-0.29 4.7-0.94 0.29c-1.83 0.56-2.28 1.56-2.41 3.66l-0.02 0.29 3.16-0.96-0.28 4.53-3.16 0.97-1.04 16.45-4.95 1.51 1.03-16.45-2.5 0.77 0.29-4.54 2.5-0.76zm25.22 12.87l-4.88 1.49 0.11-1.76c-0.91 1.68-2 2.71-4.58 3.5-3.94 1.21-7.04 0.1-6.66-6.07l0.82-13.1 5-1.53-0.77 12.3c-0.21 3.32 0.81 4.12 2.88 3.48 2.3-0.7 3.49-2.55 3.67-5.44l0.77-12.35 4.95-1.51-1.31 20.99zm4.54-21.97l4.87-1.5-0.11 1.77c0.81-1.28 2.44-2.85 4.62-3.51 3.94-1.21 7.02-0.17 6.63 6.04l-0.83 13.14-4.95 1.51 0.77-12.29c0.21-3.28-0.82-4.12-2.84-3.5-2.31 0.7-3.54 2.69-3.71 5.46l-0.78 12.34-4.99 1.52 1.32-20.98zm30.22 2.08l0.17-2.65c0.19-3.06-0.84-4.39-3.18-3.68-2.45 0.75-3.58 2.91-3.8 6.27l-0.13 2.18c-0.19 3.03 0.45 5.05 3.14 4.23 2.81-0.86 3.61-3.33 3.8-6.35zm1.22-19.52l4.96-1.52-1.81 28.97-4.96 1.52 0.07-1.22c-1.07 1.31-2.44 2.31-4.27 2.87-5.11 1.56-7.48-1.54-7.13-7.13l0.18-2.85c0.38-6.13 3.67-10.35 8.31-11.76 1.68-0.52 3.06-0.49 4.08 0.19l0.57-9.07zm11.5 12.17l6.13-1.87c0.05-2.69-0.89-3.52-2.77-2.95-1.99 0.61-3.01 2.37-3.36 4.82zm10.24 6.47c-1.53 2.97-3.86 4.67-7.37 5.75-5.85 1.78-8.41-1.43-8.06-6.84l0.17-2.86c0.4-6.33 3.56-10.3 8.63-11.86 5.5-1.68 7.82 0.99 7.42 7.37l-0.15 2.39-11.12 3.4c-0.14 2.89 0.59 4.72 3.36 3.87 2.07-0.63 2.77-1.5 3.58-2.86l3.54 1.64zm14.65-10.62l0.17-2.65c0.19-3.06-0.84-4.39-3.17-3.68-2.46 0.75-3.59 2.91-3.8 6.27l-0.14 2.18c-0.19 3.03 0.45 5.05 3.14 4.23 2.81-0.86 3.61-3.33 3.8-6.35zm1.23-19.52l4.95-1.52-1.81 28.97-4.96 1.52 0.08-1.22c-1.08 1.32-2.44 2.31-4.28 2.87-5.11 1.56-7.47-1.54-7.12-7.13l0.18-2.85c0.38-6.13 3.66-10.35 8.31-11.76 1.67-0.52 3.05-0.49 4.08 0.19l0.57-9.07z"/>
  <path fill="#d29f10" d="M1596 322.37c-7.2 0-13.06 5.85-13.06 13.03 0 7.19 5.86 13.04 13.06 13.04 7.2 0 13.06-5.85 13.06-13.04 0-7.18-5.86-13.03-13.06-13.03zm60.86-115.49c7.2 0 13.06-5.85 13.06-13.04 0-7.19-5.86-13.03-13.06-13.03-7.2 0-13.06 5.84-13.06 13.03 0 7.19 5.86 13.04 13.06 13.04zm48.9 88.76l-34.55 0c-13.69 0-24.84 11.12-24.84 24.8l0 23.14c0 2.68 2.18 4.86 4.86 4.86l12.01 0c2.68 0 4.86-2.18 4.86-4.86l0-23.14c0-1.71 1.4-3.1 3.11-3.1l34.55 0c2.68 0 4.87-2.18 4.87-4.86l0-11.99c0-2.67-2.19-4.85-4.87-4.85zm-158.16-62.03l34.59 0c13.7 0 24.84-11.13 24.84-24.81l0-23.14c0-2.68-2.18-4.86-4.86-4.86l-12.01 0c-2.68 0-4.86 2.18-4.86 4.86l0 23.14c0 1.71-1.4 3.11-3.11 3.11l-34.59 0c-2.68 0-4.86 2.17-4.86 4.85l0 11.99c0 2.68 2.18 4.86 4.86 4.86zm0 41.46c0.03 0 9.91 0.4 18.49 0.4 5.1 0 8.81-0.14 11.02-0.41 10.19-1.26 17.21-6.52 20.31-15.2 0.54-1.49 0.31-3.14-0.6-4.43-0.91-1.29-2.4-2.06-3.98-2.06l-45.24 0c-2.68 0-4.86 2.18-4.86 4.86l0 11.99c0 2.67 2.18 4.85 4.86 4.85zm158.16-21.3c-0.02-0.01-9.84-0.4-18.46-0.4-5.12 0-8.84 0.14-11.05 0.41-10.18 1.26-17.21 6.52-20.31 15.21-0.53 1.48-0.31 3.13 0.6 4.42 0.92 1.29 2.4 2.06 3.98 2.06l45.24 0c2.68 0 4.87-2.18 4.87-4.86l0-11.99c0-2.67-2.19-4.85-4.87-4.85zm0-41.87l-31.19 0c-28.98 0-51.46 19.68-58.68 51.38-4.34 19.88-18.54 32.27-37.06 32.35l-31.23 0c-2.68 0-4.86 2.18-4.86 4.86l0 11.99c0 2.68 2.18 4.86 4.86 4.86l31.19 0c28.98 0 51.46-19.68 58.68-51.37 4.34-19.89 18.54-32.28 37.06-32.36l31.23 0c2.68 0 4.87-2.18 4.87-4.86l0-11.99c0-2.68-2.19-4.86-4.87-4.86z"/>
  <path fill="#332c2b" d="M2239.02 290.88l0 28.32c0 2.3-0.46 3.47-1.76 4.12-1.29 0.7-3.23 0.88-6.06 0.84-0.14-1.16-0.71-3.03-1.29-4.27 1.9 0.08 3.66 0.08 4.27 0.08 0.57 0 0.79-0.19 0.79-0.77l0-28.32 4.05 0zm-6.92 24.23l-3.87 0 0-20.55 3.87 0 0 20.55zm-10.08 0.3l-3.15 0 0 1.16 3.15 0 0-1.16zm0-3.14l-3.15 0 0 1.2 3.15 0 0-1.2zm-0.28-14.02l-3.02 0 0 1.31 3.02 0 0-1.31zm-3.02-2.63l3.02 0 0-1.16-3.02 0 0 1.16zm-6.7 20.95l3.3 0 0-1.16-3.3 0 0 1.16zm0-3.1l3.3 0 0-1.2-3.3 0 0 1.2zm13.48 5.15l-16.78 0 0-8.36 16.78 0 0 8.36zm-18.64 1.42c5.09-0.15 12.94-0.4 20.29-0.73l-0.1 3.25c-7.18 0.32-14.81 0.65-19.91 0.84l-0.28-3.36zm18.46-24.42l1.91 0 0 2.63-1.91 0 0 3.65-6.6 0 0 1.09 7 0 0 2.38-7 0 0 1.09 8.33 0 0 2.74-19.98 0 0-2.74 7.86 0 0-1.09-6.32 0 0-2.38 6.32 0 0-1.09-6.24 0 0-2.34 6.24 0 0-1.31-8.07 0 0-2.63 8.07 0 0-1.17-6.14 0 0-2.33 6.14 0 0-1.97 3.79 0 0 1.97 6.6 0 0 3.5zm-30.87 10.91l-6.63 0 0 17.71-4.45 0 0-17.71-6.28 0 0-4.27 6.28 0 0-11.45 4.45 0 0 11.45 6.63 0 0 4.27zm-27 12.2l4.66 0 0-4.09-4.66 0 0 4.09zm8.36 3.5l-8.36 0 0 1.53-3.59 0 0-12.59 11.95 0 0 11.06zm-0.15-12.81l-11.94 0 0-3.29 11.94 0 0 3.29zm-11.94-8.18l12.02 0 0 3.29-12.02 0 0-3.29zm13.52-1.64l-15.1 0 0-3.43 6.24 0c-0.54-1.39-1.47-3.21-2.29-4.6l3.33-1.57c0.97 1.5 2.08 3.51 2.62 4.85l-2.37 1.32 7.57 0 0 3.43zm-55.47 15.41c1.5-0.3 3.08-0.66 4.73-0.99l0-3.43-4.73 0 0 4.42zm4.73-11.98l-4.73 0 0 3.77 4.73 0 0-3.77zm-4.73-3.79l4.73 0 0-3.69-4.73 0 0 3.69zm26.28 0.69c-0.32 14.96-0.64 20.33-1.83 22.01-0.82 1.24-1.68 1.64-2.97 1.86-1.15 0.21-3.02 0.19-4.88 0.11-0.07-1.17-0.5-3-1.25-4.13 1.75 0.11 3.36 0.15 4.15 0.15 0.58 0 0.94-0.11 1.26-0.62 0.82-0.98 1.15-5.51 1.36-17.23l-3.8 0c-0.54 9.64-2.47 17.3-9.39 22.16-0.65-1.06-1.97-2.52-2.98-3.29 1.76-1.2 3.16-2.55 4.24-4.12-5.49 1.38-11.37 2.77-15.75 3.83l-0.68-4.45c0.71-0.15 1.58-0.3 2.47-0.48l0-24.08 12.45 0 0 21.49 1.54-0.33 0.39 3.43c2.4-3.79 3.27-8.5 3.59-14.16l-4.56 0 0-4.09 4.7 0c0.04-2.47 0.04-5.07 0.04-7.84l4.19 0c0 2.74 0 5.37-0.07 7.84l7.78 0 0 1.94zm-68.7 15.62l15.52 0 0-1.64-15.52 0 0 1.64zm0-4.09l15.52 0 0-1.57-15.52 0 0 1.57zm0-4.01l15.52 0 0-1.57-15.52 0 0 1.57zm1.18-12.34l-9.18 0 0-3.17 9.18 0 0 3.17zm13.44 23c3.3 1.23 6.82 2.7 8.93 3.75l-3.83 2.34c-2.05-1.21-5.78-2.99-9.32-4.31l2.18-1.78-10.11 0 3.12 1.46c-2.94 1.89-7.56 3.72-11.19 4.74-0.72-0.84-2.22-2.45-3.15-3.18 3.44-0.66 7.28-1.75 9.79-3.02l-5.17 0 0-14.82 23.99 0 0 14.82-5.24 0zm-0.96-21.46c1.93 1.93 5.74 2.84 10.57 3.1-0.86 0.84-1.86 2.4-2.36 3.46-4.02-0.51-7.14-1.68-9.4-3.68-1.36 1.6-4.33 3.03-10.36 3.72-0.29-0.69-0.86-1.61-1.43-2.37l-9.5 0 0-3.33 10.83 0 0 2.23c6.84-0.73 7.74-2.37 7.74-3.72l0-0.55-2.15 0c-0.76 1.21-1.62 2.3-2.51 3.14-0.68-0.66-2.26-1.72-3.16-2.23 1.9-1.6 3.37-4.01 4.2-6.49l3.73 0.84c-0.19 0.54-0.4 1.09-0.61 1.6l10.18 0 0.64-0.18 2.91 0.91c-0.93 2.01-2.15 4.31-3.3 5.77l-3.3-1.24c0.4-0.58 0.87-1.35 1.26-2.12l-3.98 0 0 0.73 0 0.41zm-55.87-0.19c2.26 0.51 4.63 1.06 6.99 1.64 1.72-0.47 3.37-1.05 4.7-1.64l-11.69 0zm12.91 6.31c-1.76-0.61-3.91-1.24-6.17-1.85-2.58 0.69-5.2 1.31-7.71 1.85l13.88 0zm-7.32 11.65l0-1.9-5.84 0c-0.39 0.66-0.79 1.28-1.22 1.9l7.06 0zm15.5 5.44l0 3.5-26.36 0 0-3.5 10.86 0 0-2.12-7.6 0 0-2.63c-0.64 0.84-1.36 1.57-2.04 2.23-0.25-0.77-1.07-2.59-1.69-3.61-0.43 3.79-1.47 7.99-3.83 10.95-0.65-0.81-2.4-2.34-3.3-2.82 2.9-3.65 3.19-8.83 3.19-12.59l0-6.5 4.84 0c-0.57-0.61-1.29-1.27-1.79-1.67 2.58-0.41 5.41-0.91 8.17-1.57-2.26-0.59-4.59-1.1-6.7-1.5l2.01-1.57-6.17 0 0-3.39 12.48 0c-0.43-0.69-0.93-1.35-1.37-1.9l2.87-1.43c0.83 0.95 1.8 2.23 2.4 3.33l12.41 0 0 3.39-5.2 0 1.72 1.1c-1.29 0.62-2.79 1.24-4.41 1.82 2.12 0.59 4.06 1.17 5.67 1.72l-2.01 1.67 5.27 0 0 3.47-26.03 0 0 3.07c0 1.17-0.03 2.44-0.18 3.83 1.72-1.71 3.19-4.05 4.09-6.57l3.62 1.1c-0.18 0.47-0.36 0.95-0.58 1.46l4.16 0 0-2.23 4.2 0 0 2.23 8.85 0 0 3.39-8.85 0 0 1.9 7.82 0 0 3.32-7.82 0 0 2.12 11.3 0zm-56.3-24.24l3.44 0 0-1.46-3.44 0 0 1.46zm-6.67 16.94l9.57 0 0-1.1-9.57 0 0 1.1zm0-3.18l9.57 0 0-1.13-9.57 0 0 1.13zm0-3.21l9.57 0 0-1.1-9.57 0 0 1.1zm2.62-12.01l-3.44 0 0 1.46 3.44 0 0-1.46zm1.43 21.79c-1.86 1.2-4.51 2.63-6.74 3.54 1.79 0.29 3.84 0.36 6.14 0.36 2.65 0 6.23-0.14 9.53-0.4-1.86-0.8-4.55-1.86-7.06-2.66l1.22-2.01-5.6 0 2.51 1.17zm12.98-14.05l-23.81 0 0-3.07 9.4 0 0-0.98-7.32 0 0-5.95 7.32 0 0-1.75 4.05 0 0 1.75 7.6 0 0 5.95-7.6 0 0 0.98 10.36 0 0 3.07zm-29.04-4.31c-0.43-1.64-1.33-4.27-1.94-6.28l3.34-1.05c0.64 2 1.5 4.49 2.01 6.13l-3.41 1.2zm25.71 21.79c1.58-0.14 3.01-0.29 4.23-0.47-0.47 1.17-1.18 3.28-1.22 4.45-2.98 0.18-9.28 0.44-13.48 0.44-4.77 0-7.78-0.41-10.36-1.94-1.51-0.84-2.8-2.04-3.52-2.04-0.82 0-2.11 2.48-2.97 4.56l-2.87-4.12c1.29-1.57 2.65-2.82 3.87-3.55 0.75-1.78 1.4-4.08 1.86-6.27l-4.4 0c0.86-2.16 1.79-5.08 2.65-7.92l-3.3 0 0-3.87 8.35 0c-0.75 2.56-1.68 5.44-2.51 8.03l1.33 0 0.61-0.11 1.76 0.59c-0.58 3.28-1.47 6.71-2.62 9.45 0.61 0.36 1.32 0.91 2.33 1.53 0.79 0.51 1.72 0.87 2.76 1.13-0.64-0.76-1.54-1.86-2.11-2.41 1.93-0.51 4.12-1.31 5.8-2.08l-4.05 0 0-11.9 18.07 0 0 11.9-4.84 0c2.33 0.73 4.7 1.53 6.28 2.12l-1.65 2.48zm-48.23 0.19c1.83 0 2.11-1.54 2.44-7.56 0.97 0.77 2.65 1.6 3.76 1.82-0.46 7.05-1.54 9.56-5.88 9.56l-5.99 0c-4.4 0-5.66-1.45-5.66-6.42l0-26.13 4.12 0 0 9.27 12.48 0 0 4.16-12.48 0 0 12.77c0 2.16 0.25 2.53 1.97 2.53l5.24 0zm-14.13-27.92c-0.97 2.33-2.15 4.67-3.48 6.93l0 25.66-4.05 0 0-19.68c-1.15 1.47-2.26 2.74-3.44 3.87-0.4-1.06-1.58-3.43-2.26-4.52 3.66-3.22 7.21-8.39 9.25-13.61l3.98 1.35zm-47.87 8.86c1.55 3.83 3.69 7.23 6.46 10.11 2.47-2.77 4.44-6.09 5.84-10.11l-12.3 0zm17.11 0c-1.83 5.26-4.27 9.53-7.39 13.07 3.69 2.92 8.21 5.04 13.55 6.31-0.96 0.96-2.22 2.85-2.87 4.06-5.63-1.54-10.25-3.95-14.01-7.16-3.95 3.29-8.75 5.69-14.53 7.37-0.46-1.02-1.72-3.06-2.58-4.05 5.6-1.42 10.22-3.5 13.95-6.46-3.23-3.61-5.7-7.99-7.64-13.14l-5.63 0 0-4.23 15.13 0c-0.39-1.5-1.18-3.54-2-5.15l4.55-1.35c0.93 1.68 2.01 4.02 2.44 5.51l-3.08 0.99 15.59 0 0 4.23-5.48 0zm-49.09 13.47l-14.81 0 0 1.64 14.81 0 0-1.64zm0-4.12l-14.81 0 0 1.67 14.81 0 0-1.67zm0-4.06l-14.81 0 0 1.64 14.81 0 0-1.64zm-0.15-3.17l0-3.83-3.08 0c-0.43 1.6-1.15 3.13-2.37 4.41l9.9 0 0 15.04-4.73 0c3.36 1.02 6.77 2.22 9.03 3.14l-1.97 3.03c-2.55-1.17-6.81-2.81-10.79-4.06l1.28-2.11-9.28 0 2.33 1.39c-3.08 1.75-7.92 3.72-11.55 4.81-0.36-0.76-1.39-2.77-2.04-3.64 2.98-0.59 6.6-1.5 9.25-2.56l-4.73 0 0-15.04 12.83 0c-0.75-0.65-2.11-1.57-2.83-1.93 2.3-2.08 2.58-4.75 2.58-6.83l0-2.66c4.02-0.18 8.57-0.73 11.08-1.61l2.66 2.41c-2.73 0.95-6.57 1.5-10.15 1.76l0 0.18c0 0.36 0 0.72-0.04 1.09l11.51 0 0 3.18-5.05 0 0 3.83-3.84 0zm-17.75-3.83c-0.61 1.85-1.61 3.65-3.4 5.11-0.54-0.77-2.01-2.27-2.77-2.78 2.73-2.08 3.13-4.67 3.13-6.78l0-2.45c3.73-0.22 8.03-0.77 10.54-1.64l2.36 2.51c-2.51 0.92-5.95 1.39-9.25 1.68 0 0.37 0 0.77-0.03 1.17l9.75 0 0 3.18-3.44 0 0 3.72-3.77 0 0-3.72-3.12 0zm-18.32-2.99c0 0-0.04 1.45-0.07 1.97-0.68 16.27-1.33 22.22-2.69 24.05-0.83 1.24-1.61 1.64-2.8 1.9-1 0.18-2.51 0.18-4.05 0.1-0.11-1.24-0.54-3.02-1.18-4.23 1.32 0.15 2.51 0.15 3.19 0.15 0.54 0 0.89-0.15 1.32-0.7 0.9-1.17 1.54-6.13 2.12-19.23l-0.18 0c-1.76 9.2-5.45 18.69-11.22 23.54-0.83-0.84-2.3-1.9-3.48-2.52 5.73-4.2 9.32-12.48 11.11-21.02l-1.68 0c-1.58 5.95-4.59 12.48-8.22 15.98-0.78-0.83-2.14-1.82-3.26-2.44 3.55-2.85 6.35-8.25 7.93-13.54l-1.83 0c-1.04 2.52-2.29 4.78-3.69 6.53-0.69-0.69-2.37-1.89-3.23-2.44 2.83-3.18 4.8-8.4 5.88-13.76l3.87 0.73c-0.35 1.68-0.82 3.32-1.32 4.93l13.48 0zm-19.29 14.26c-1.29 0.37-2.55 0.81-3.87 1.21l0 13-3.91 0 0-11.8c-1.94 0.59-3.73 1.17-5.38 1.61l-1.04-4.12c1.79-0.4 3.98-0.99 6.42-1.68l0-6.97-2.41 0c-0.39 1.78-0.82 3.35-1.32 4.67-0.65-0.55-2.23-1.53-3.02-2.01 1.12-2.88 1.73-7.45 2.05-11.75l3.55 0.62c-0.14 1.46-0.32 2.88-0.54 4.34l1.69 0 0-7.01 3.91 0 0 7.01 2.97 0 0 4.13-2.97 0 0 5.87 3.3-0.95 0.57 3.83zm-26.18 5.81l-10.33 0 0 8.39-4.26 0 0-33.94 4.26 0 0 4.67 9.68 0 0 4.05-9.68 0 0 4.35 8.9 0 0 3.94-8.9 0 0 4.49 10.33 0 0 4.05zm-23.09-25.55l4.23 0 0 17.01c0 5.95-1.75 13.17-10.43 17.41-0.68-1.06-2.05-2.45-3.05-3.29 3.62-1.42 5.87-3.79 7.28-6.31l-7.5 1.31-0.79-4.34c2.55-0.29 6.13-0.73 9.86-1.24 0.29-1.28 0.4-2.48 0.4-3.5l0-0.04-8.54 0 0-3.94 8.54 0 0-4.35-8.93 0 0-4.05 8.93 0 0-4.67zm273.22-32.86c-2.93 0-4.52 1.8-4.77 5.39l9.15 0 0-0.23c0-1.62-0.37-2.88-1.12-3.8-0.75-0.9-1.84-1.36-3.26-1.36zm-2.79 12.16c1.04 0.88 2.42 1.31 4.12 1.31 1.69 0 3.3-0.39 4.83-1.18 0.52-0.25 0.88-0.07 1.11 0.54l0.62 1.78c0.12 0.48-0.06 0.85-0.55 1.1-1.92 0.99-4.06 1.48-6.42 1.48-3.27 0-5.83-0.92-7.66-2.75-1.83-1.83-2.75-4.4-2.75-7.68 0-3.32 0.84-5.9 2.53-7.73 1.68-1.83 3.98-2.75 6.88-2.75 2.83 0 5.02 0.87 6.57 2.6 1.55 1.73 2.32 4.04 2.32 6.92l0 1.86c0 0.61-0.29 0.92-0.88 0.92l-12.58 0c0.19 1.51 0.82 2.71 1.86 3.58zm-22.86-7.38l0 11.08c0 0.59-0.29 0.88-0.85 0.88l-3.14 0c-0.57 0-0.85-0.29-0.85-0.88l0-11.46c0-1.26-0.23-2.22-0.71-2.86-0.49-0.65-1.28-0.97-2.39-0.97-1.28 0-2.28 0.41-3.01 1.23-0.72 0.82-1.08 1.89-1.08 3.21l0 10.85c0 0.59-0.29 0.88-0.85 0.88l-3.14 0c-0.59 0-0.88-0.29-0.88-0.88l0-18.25c0-0.59 0.29-0.87 0.88-0.87l2.92 0c0.54 0 0.83 0.25 0.88 0.75l0.19 1.98c0.44-0.86 1.16-1.61 2.16-2.24 0.99-0.64 2.23-0.95 3.7-0.95 2.88 0 4.75 1.13 5.61 3.38 1.31-2.25 3.45-3.38 6.42-3.38 2.07 0 3.63 0.63 4.66 1.9 1.03 1.27 1.55 3.06 1.55 5.39l0 12.29c0 0.59-0.29 0.88-0.85 0.88l-3.18 0c-0.56 0-0.85-0.29-0.85-0.88l0-11.42c0-1.29-0.24-2.26-0.73-2.9-0.5-0.65-1.31-0.97-2.44-0.97-1.23 0-2.21 0.4-2.93 1.19-0.73 0.8-1.09 1.81-1.09 3.02zm-29.93-4.78c-2.93 0-4.52 1.8-4.77 5.39l9.16 0 0-0.23c0-1.62-0.38-2.88-1.13-3.8-0.75-0.9-1.84-1.36-3.26-1.36zm-2.79 12.16c1.05 0.88 2.42 1.31 4.12 1.31 1.69 0 3.3-0.39 4.83-1.18 0.52-0.25 0.88-0.07 1.11 0.54l0.62 1.78c0.12 0.48-0.06 0.85-0.55 1.1-1.92 0.99-4.06 1.48-6.42 1.48-3.27 0-5.83-0.92-7.66-2.75-1.83-1.83-2.75-4.4-2.75-7.68 0-3.32 0.84-5.9 2.53-7.73 1.68-1.83 3.98-2.75 6.88-2.75 2.83 0 5.02 0.87 6.57 2.6 1.55 1.73 2.33 4.04 2.33 6.92l0 1.86c0 0.61-0.3 0.92-0.89 0.92l-12.58 0c0.19 1.51 0.82 2.71 1.86 3.58zm-10.79-8.44l0 12.14c0 0.58-0.29 0.88-0.85 0.88l-3.18 0c-0.56 0-0.84-0.3-0.84-0.88l0-11.27c0-1.34-0.29-2.34-0.86-3-0.56-0.66-1.48-0.98-2.76-0.98-1.4 0-2.49 0.42-3.25 1.27-0.76 0.85-1.14 1.95-1.14 3.32l0 10.66c0 0.58-0.29 0.88-0.85 0.88l-3.17 0c-0.57 0-0.86-0.3-0.86-0.88l0-25.01c0-0.56 0.29-0.83 0.86-0.83l3.17 0c0.56 0 0.85 0.27 0.85 0.83l0 8.54c0.46-0.86 1.21-1.59 2.25-2.2 1.03-0.61 2.34-0.91 3.91-0.91 2.26 0 3.95 0.65 5.06 1.93 1.1 1.29 1.66 3.13 1.66 5.51zm-35.23 10.72c-1.78-1.81-2.67-4.39-2.67-7.76 0-3.37 0.88-5.94 2.63-7.72 1.76-1.79 4.13-2.68 7.11-2.68 2.43 0 4.33 0.43 5.68 1.29 0.52 0.3 0.68 0.7 0.48 1.18l-0.88 2.04c-0.25 0.54-0.66 0.68-1.22 0.43-1.06-0.48-2.22-0.73-3.47-0.73-1.7 0-3.02 0.52-3.95 1.54-0.93 1.02-1.4 2.57-1.4 4.65 0 2.1 0.47 3.68 1.4 4.72 0.93 1.05 2.23 1.58 3.88 1.58 1.4 0 2.66-0.31 3.8-0.91 0.56-0.25 0.95-0.12 1.14 0.42l0.89 2.08c0.17 0.43 0 0.83-0.52 1.18-1.48 0.94-3.36 1.4-5.64 1.4-3.06 0-5.48-0.9-7.26-2.71zm-5.85-4.95c0 2.53-0.89 4.43-2.69 5.69-1.8 1.27-4.19 1.89-7.2 1.89-3.42 0-6.08-0.49-8-1.47-0.55-0.28-0.73-0.66-0.56-1.14l0.88-2.43c0.2-0.61 0.57-0.8 1.12-0.57 1.77 0.76 3.72 1.14 5.86 1.14 1.68 0 3-0.27 3.97-0.8 0.97-0.53 1.46-1.33 1.46-2.39 0-0.43-0.11-0.82-0.32-1.19-0.2-0.37-0.43-0.66-0.66-0.89-0.24-0.23-0.64-0.49-1.2-0.8-0.57-0.3-1.02-0.52-1.35-0.66-0.33-0.13-0.88-0.36-1.66-0.68-1.01-0.41-1.8-0.74-2.37-0.97-0.57-0.23-1.24-0.6-2.02-1.09-0.77-0.49-1.37-1-1.77-1.52-0.4-0.52-0.76-1.18-1.07-1.99-0.31-0.81-0.46-1.72-0.46-2.73 0-4.86 3.12-7.29 9.37-7.29 2.83 0 5.18 0.44 7.05 1.33 0.54 0.27 0.73 0.66 0.55 1.14l-0.84 2.35c-0.22 0.56-0.62 0.73-1.18 0.53-1.41-0.56-3.11-0.84-5.1-0.84-3.12 0-4.69 0.97-4.69 2.9 0 1.13 0.7 2.07 2.1 2.8 0.44 0.24 1.39 0.66 2.84 1.27 0.79 0.36 1.29 0.58 1.51 0.67 0.21 0.1 0.67 0.31 1.4 0.63 0.72 0.32 1.2 0.57 1.43 0.75 0.24 0.17 0.61 0.45 1.12 0.81 0.52 0.37 0.88 0.72 1.08 1.04 0.19 0.33 0.43 0.73 0.7 1.19 0.27 0.47 0.46 0.97 0.56 1.52 0.09 0.54 0.14 1.14 0.14 1.8zm-38.41-4.22c0-3.49-1.43-5.23-4.28-5.23-2.81 0-4.21 1.81-4.21 5.42 0 3.62 1.4 5.43 4.21 5.43 1.35 0 2.4-0.48 3.15-1.44 0.75-0.96 1.13-2.35 1.13-4.18zm4.8-7.66l0 15.75c0 2.61-0.82 4.59-2.46 5.96-1.64 1.36-3.93 2.05-6.88 2.05-2.93 0-5.19-0.4-6.79-1.18-0.5-0.25-0.67-0.59-0.52-1.02l0.63-2.05c0.15-0.56 0.49-0.75 1.03-0.57 1.75 0.63 3.51 0.94 5.28 0.94 1.67 0 2.94-0.37 3.8-1.14 0.86-0.75 1.29-1.82 1.29-3.22l0-1.63c-0.49 0.93-1.25 1.66-2.27 2.18-1.02 0.52-2.16 0.78-3.41 0.78-2.39 0-4.29-0.74-5.72-2.2-1.43-1.47-2.14-3.73-2.14-6.8 0-3.06 0.69-5.35 2.08-6.87 1.39-1.52 3.26-2.28 5.59-2.28 1.29 0 2.45 0.28 3.51 0.82 1.06 0.55 1.83 1.26 2.32 2.14l0.11-1.78c0.05-0.5 0.35-0.75 0.89-0.75l2.81 0c0.56 0 0.85 0.28 0.85 0.87zm-22.33 6.07l0 12.19c0 0.57-0.29 0.87-0.86 0.87l-3.17 0c-0.59 0-0.88-0.3-0.88-0.87l0-11.28c0-1.34-0.28-2.34-0.83-3-0.55-0.66-1.47-0.98-2.75-0.98-1.38 0-2.44 0.41-3.19 1.23-0.75 0.82-1.13 1.94-1.13 3.36l0 10.67c0 0.57-0.28 0.87-0.85 0.87l-3.17 0c-0.57 0-0.85-0.3-0.85-0.87l0-18.26c0-0.58 0.28-0.88 0.85-0.88l2.91 0c0.52 0 0.8 0.26 0.85 0.76l0.19 1.98c1.22-2.13 3.3-3.19 6.2-3.19 2.23 0 3.91 0.64 5.02 1.93 1.1 1.3 1.66 3.12 1.66 5.47zm-22.85-6.07l0 18.25c0 0.59-0.28 0.87-0.85 0.87l-3.2 0c-0.57 0-0.86-0.28-0.86-0.87l0-18.25c0-0.59 0.29-0.87 0.86-0.87l3.2 0c0.57 0 0.85 0.28 0.85 0.87zm0-6.64l0 2.65c0 0.58-0.27 0.87-0.81 0.87l-3.28 0c-0.54 0-0.82-0.29-0.82-0.87l0-2.65c0-0.59 0.28-0.88 0.82-0.88l3.28 0c0.54 0 0.81 0.29 0.81 0.88zm-15.05 15.75c0-4.26-1.6-6.38-4.8-6.38-1.55 0-2.71 0.5-3.49 1.5-0.77 1-1.16 2.62-1.16 4.88 0 2.25 0.39 3.87 1.16 4.87 0.78 1 1.94 1.5 3.49 1.5 3.2 0 4.8-2.12 4.8-6.37zm0.22 9.29l-0.11-2.08c-0.52 1.04-1.36 1.83-2.51 2.39-1.16 0.56-2.42 0.84-3.8 0.84-2.61 0-4.64-0.89-6.07-2.65-1.44-1.75-2.16-4.35-2.16-7.79 0-3.45 0.72-6.05 2.16-7.8 1.43-1.76 3.46-2.64 6.07-2.64 1.33 0 2.56 0.28 3.71 0.83 1.14 0.56 1.96 1.34 2.45 2.32l0-8.58c0-0.56 0.28-0.83 0.85-0.83l3.17 0c0.59 0 0.89 0.27 0.89 0.83l0 25.01c0 0.59-0.3 0.87-0.89 0.87l-2.87 0c-0.55 0-0.84-0.24-0.89-0.72zm-18.79-12.33l0 12.19c0 0.57-0.28 0.87-0.85 0.87l-3.17 0c-0.59 0-0.88-0.3-0.88-0.87l0-11.28c0-1.34-0.28-2.34-0.83-3-0.55-0.66-1.47-0.98-2.75-0.98-1.38 0-2.45 0.41-3.2 1.23-0.75 0.82-1.12 1.94-1.12 3.36l0 10.67c0 0.57-0.28 0.87-0.85 0.87l-3.17 0c-0.57 0-0.85-0.3-0.85-0.87l0-18.26c0-0.58 0.28-0.88 0.85-0.88l2.91 0c0.52 0 0.8 0.26 0.85 0.76l0.18 1.98c1.23-2.13 3.31-3.19 6.21-3.19 2.23 0 3.91 0.64 5.02 1.93 1.1 1.3 1.65 3.12 1.65 5.47zm-40.26 6.22l0-12.29c0-0.59 0.3-0.88 0.88-0.88l3.18 0c0.54 0 0.81 0.29 0.81 0.88l0 11.35c0 1.29 0.26 2.27 0.78 2.94 0.51 0.67 1.4 1.01 2.65 1.01 1.33 0 2.39-0.41 3.16-1.22 0.77-0.81 1.16-1.9 1.16-3.26l0-10.82c0-0.59 0.29-0.88 0.85-0.88l3.21 0c0.54 0 0.81 0.29 0.81 0.88l0 18.25c0 0.58-0.27 0.87-0.81 0.87l-2.95 0c-0.54 0-0.84-0.24-0.89-0.72l-0.14-2.05c-1.19 2.13-3.19 3.2-6.02 3.2-4.45 0-6.68-2.43-6.68-7.26zm-5.02-4.02l-9.89 0 0 9.91c0 0.63-0.31 0.95-0.92 0.95l-3.28 0c-0.62 0-0.93-0.32-0.93-0.95l0-24.86c0-0.61 0.31-0.92 0.93-0.92l14.43 0c0.58 0 0.88 0.29 0.88 0.88l0 2.69c0 0.64-0.3 0.95-0.88 0.95l-10.23 0 0 6.91 9.89 0c0.6 0 0.89 0.32 0.89 0.95l0 2.58c0 0.61-0.29 0.91-0.89 0.91zm463.92-47.38c-2.93 0-4.51 1.81-4.76 5.4l9.15 0 0-0.23c0-1.62-0.37-2.89-1.12-3.8-0.75-0.91-1.84-1.37-3.27-1.37zm-2.78 12.17c1.04 0.87 2.41 1.31 4.11 1.31 1.7 0 3.31-0.39 4.84-1.18 0.51-0.25 0.88-0.07 1.1 0.54l0.63 1.78c0.12 0.48-0.06 0.84-0.55 1.1-1.92 0.99-4.06 1.48-6.43 1.48-3.27 0-5.82-0.92-7.65-2.75-1.83-1.84-2.75-4.4-2.75-7.69 0-3.31 0.84-5.89 2.52-7.72 1.69-1.83 3.98-2.75 6.89-2.75 2.83 0 5.02 0.86 6.57 2.6 1.55 1.73 2.32 4.04 2.32 6.92l0 1.86c0 0.61-0.3 0.92-0.88 0.92l-12.59 0c0.2 1.51 0.82 2.71 1.87 3.58zm-15.74-6.89c0-3.49-1.43-5.23-4.28-5.23-2.81 0-4.21 1.8-4.21 5.42 0 3.62 1.4 5.43 4.21 5.43 1.35 0 2.4-0.48 3.16-1.44 0.75-0.96 1.12-2.36 1.12-4.18zm4.8-7.66l0 15.75c0 2.61-0.82 4.59-2.46 5.96-1.63 1.36-3.93 2.05-6.88 2.05-2.93 0-5.19-0.4-6.79-1.18-0.49-0.25-0.67-0.59-0.52-1.02l0.63-2.05c0.15-0.56 0.49-0.75 1.03-0.57 1.75 0.63 3.51 0.94 5.28 0.94 1.67 0 2.94-0.37 3.8-1.14 0.86-0.75 1.29-1.83 1.29-3.22l0-1.63c-0.49 0.93-1.25 1.66-2.27 2.18-1.02 0.52-2.15 0.78-3.41 0.78-2.39 0-4.29-0.74-5.72-2.2-1.43-1.47-2.14-3.74-2.14-6.8 0-3.06 0.69-5.35 2.09-6.87 1.38-1.52 3.25-2.28 5.58-2.28 1.29 0 2.45 0.27 3.51 0.82 1.06 0.55 1.83 1.26 2.32 2.14l0.12-1.78c0.05-0.5 0.34-0.76 0.88-0.76l2.81 0c0.56 0 0.85 0.29 0.85 0.88zm-27.06 11.57l0-1.63c-1.37 0.05-2.51 0.12-3.39 0.21-0.89 0.09-1.73 0.25-2.53 0.49-0.8 0.24-1.38 0.58-1.75 1.03-0.37 0.44-0.56 1-0.56 1.69 0 0.8 0.29 1.45 0.85 1.93 0.57 0.48 1.36 0.73 2.4 0.73 1.63 0 2.86-0.42 3.71-1.24 0.85-0.82 1.27-1.89 1.27-3.21zm4.76-5.69l0 12.37c0 0.59-0.29 0.87-0.88 0.87l-2.74 0c-0.51 0-0.79-0.24-0.84-0.72l-0.15-2.04c-1.3 2.07-3.54 3.11-6.72 3.11-1.94 0-3.48-0.51-4.61-1.52-1.13-1.01-1.7-2.44-1.7-4.29 0-1.09 0.21-2.03 0.63-2.83 0.42-0.8 0.98-1.43 1.68-1.9 0.7-0.46 1.62-0.85 2.77-1.14 1.14-0.29 2.31-0.49 3.5-0.6 1.2-0.12 2.63-0.18 4.3-0.21l0-0.87c0-1.19-0.33-2.06-0.99-2.62-0.67-0.56-1.74-0.84-3.21-0.84-1.8 0-3.65 0.38-5.54 1.14-0.51 0.18-0.87 0-1.07-0.53l-0.66-2.09c-0.15-0.45 0.02-0.81 0.51-1.06 2.19-0.96 4.65-1.44 7.39-1.44 5.55 0 8.33 2.4 8.33 7.21zm-20.99-2.51l-4.06 0 0 9.23c0 1.08 0.17 1.83 0.51 2.23 0.35 0.41 1.02 0.61 2.03 0.61 0.17 0 0.69-0.06 1.55-0.19 0.25-0.02 0.42 0.03 0.54 0.15 0.11 0.13 0.18 0.34 0.2 0.62l0.22 2.12c0.03 0.43-0.21 0.72-0.7 0.87-0.81 0.28-1.84 0.42-3.1 0.42-2.17 0-3.72-0.48-4.65-1.44-0.93-0.96-1.4-2.59-1.4-4.86l0-9.76-2.03 0c-0.59 0-0.89-0.29-0.89-0.87l0-2.13c0-0.58 0.3-0.87 0.89-0.87l2.11 0 0-4.67c0-0.52 0.27-0.79 0.84-0.79l2.95 0c0.59 0 0.89 0.27 0.89 0.79l0 4.67 4.1 0c0.56 0 0.85 0.29 0.85 0.87l0 2.13c0 0.58-0.29 0.87-0.85 0.87zm-14.92-3.37l0 18.25c0 0.59-0.28 0.87-0.85 0.87l-3.21 0c-0.56 0-0.85-0.28-0.85-0.87l0-18.25c0-0.59 0.29-0.87 0.85-0.87l3.21 0c0.57 0 0.85 0.28 0.85 0.87zm0-6.65l0 2.66c0 0.58-0.27 0.87-0.81 0.87l-3.28 0c-0.54 0-0.82-0.29-0.82-0.87l0-2.66c0-0.58 0.28-0.87 0.82-0.87l3.28 0c0.54 0 0.81 0.29 0.81 0.87zm-19.22 5.77l2.91 0c0.55 0 0.84 0.27 0.89 0.8l0.18 3c0.42-1.01 1.15-1.93 2.18-2.73 1.04-0.81 2.27-1.22 3.69-1.22 0.27 0 0.46 0.05 0.58 0.15 0.1 0.11 0.16 0.31 0.16 0.61l0 3.53c0 0.46-0.23 0.68-0.7 0.68-0.1 0-0.27-0.01-0.52-0.03-0.24-0.03-0.46-0.04-0.66-0.04-1.35 0-2.48 0.56-3.36 1.69-0.89 1.12-1.33 2.44-1.33 3.96l0 8.73c0 0.58-0.28 0.88-0.85 0.88l-3.17 0c-0.6 0-0.89-0.3-0.89-0.88l0-18.26c0-0.57 0.29-0.87 0.89-0.87zm-13.91 3.26c-2.93 0-4.52 1.81-4.77 5.4l9.16 0 0-0.23c0-1.62-0.37-2.89-1.13-3.8-0.75-0.91-1.84-1.37-3.26-1.37zm-2.79 12.17c1.05 0.87 2.42 1.31 4.12 1.31 1.69 0 3.3-0.39 4.83-1.18 0.52-0.25 0.88-0.07 1.11 0.54l0.63 1.78c0.12 0.48-0.07 0.84-0.56 1.1-1.92 0.99-4.06 1.48-6.42 1.48-3.27 0-5.83-0.92-7.66-2.75-1.83-1.84-2.75-4.4-2.75-7.69 0-3.31 0.85-5.89 2.53-7.72 1.68-1.83 3.98-2.75 6.88-2.75 2.83 0 5.02 0.86 6.57 2.6 1.55 1.73 2.33 4.04 2.33 6.92l0 1.86c0 0.61-0.3 0.92-0.89 0.92l-12.58 0c0.19 1.51 0.82 2.71 1.86 3.58zm-16.33 3.62l0-10.28-10.26 0 0 10.28c0 0.64-0.31 0.95-0.92 0.95l-3.32 0c-0.62 0-0.93-0.31-0.93-0.95l0-24.85c0-0.61 0.31-0.92 0.93-0.92l3.32 0c0.61 0 0.92 0.31 0.92 0.92l0 9.79 10.26 0 0-9.79c0-0.61 0.3-0.92 0.89-0.92l3.36 0c0.59 0 0.88 0.31 0.88 0.92l0 24.85c0 0.64-0.29 0.95-0.88 0.95l-3.36 0c-0.59 0-0.89-0.31-0.89-0.95zm-31.81-24.93l0 25.01c0 0.58-0.28 0.88-0.85 0.88l-3.21 0c-0.54 0-0.81-0.3-0.81-0.88l0-25.01c0-0.56 0.27-0.84 0.81-0.84l3.21 0c0.57 0 0.85 0.28 0.85 0.84zm-14.65 18.33l0-1.63c-1.38 0.05-2.51 0.12-3.4 0.21-0.88 0.09-1.73 0.25-2.53 0.49-0.8 0.24-1.38 0.58-1.75 1.03-0.37 0.44-0.55 1-0.55 1.69 0 0.8 0.28 1.45 0.85 1.93 0.56 0.48 1.36 0.73 2.39 0.73 1.63 0 2.86-0.42 3.71-1.24 0.86-0.82 1.28-1.89 1.28-3.21zm4.76-5.69l0 12.37c0 0.59-0.3 0.87-0.89 0.87l-2.73 0c-0.52 0-0.8-0.24-0.85-0.72l-0.15-2.04c-1.3 2.07-3.54 3.11-6.71 3.11-1.94 0-3.48-0.51-4.62-1.52-1.13-1.01-1.69-2.44-1.69-4.29 0-1.09 0.2-2.03 0.62-2.83 0.42-0.8 0.98-1.43 1.68-1.9 0.7-0.46 1.62-0.85 2.77-1.14 1.15-0.29 2.31-0.49 3.5-0.6 1.2-0.12 2.63-0.18 4.31-0.21l0-0.87c0-1.19-0.34-2.06-1-2.62-0.66-0.56-1.73-0.84-3.21-0.84-1.8 0-3.64 0.38-5.53 1.14-0.52 0.18-0.88 0-1.07-0.53l-0.67-2.09c-0.15-0.45 0.02-0.81 0.52-1.06 2.19-0.96 4.65-1.44 7.38-1.44 5.56 0 8.34 2.4 8.34 7.21zm-29.23-6.76l2.91 0c0.55 0 0.84 0.27 0.89 0.8l0.19 3c0.41-1.01 1.14-1.93 2.17-2.73 1.04-0.81 2.27-1.22 3.69-1.22 0.27 0 0.46 0.05 0.58 0.15 0.11 0.11 0.16 0.31 0.16 0.61l0 3.53c0 0.46-0.23 0.68-0.7 0.68-0.1 0-0.27-0.01-0.52-0.03-0.24-0.03-0.46-0.04-0.66-0.04-1.35 0-2.47 0.56-3.36 1.69-0.89 1.12-1.33 2.44-1.33 3.96l0 8.73c0 0.58-0.28 0.88-0.85 0.88l-3.17 0c-0.59 0-0.89-0.3-0.89-0.88l0-18.26c0-0.57 0.3-0.87 0.89-0.87zm-23.47 13.17l0-12.29c0-0.59 0.29-0.88 0.88-0.88l3.18 0c0.54 0 0.81 0.29 0.81 0.88l0 11.34c0 1.3 0.26 2.28 0.78 2.95 0.51 0.67 1.4 1 2.65 1 1.33 0 2.39-0.4 3.16-1.21 0.77-0.81 1.16-1.9 1.16-3.27l0-10.81c0-0.59 0.28-0.88 0.85-0.88l3.21 0c0.54 0 0.81 0.29 0.81 0.88l0 18.25c0 0.58-0.27 0.87-0.81 0.87l-2.95 0c-0.54 0-0.84-0.24-0.89-0.72l-0.14-2.04c-1.19 2.12-3.19 3.18-6.02 3.18-4.45 0-6.68-2.42-6.68-7.25zm-4.28-8.92l-4.06 0 0 9.23c0 1.08 0.17 1.83 0.51 2.23 0.35 0.41 1.03 0.61 2.04 0.61 0.17 0 0.69-0.06 1.55-0.19 0.24-0.02 0.42 0.03 0.53 0.15 0.11 0.13 0.18 0.34 0.21 0.62l0.22 2.12c0.02 0.43-0.21 0.72-0.7 0.87-0.82 0.28-1.85 0.42-3.11 0.42-2.16 0-3.71-0.48-4.64-1.44-0.94-0.96-1.4-2.59-1.4-4.86l0-9.76-2.04 0c-0.59 0-0.88-0.29-0.88-0.87l0-2.13c0-0.58 0.29-0.87 0.88-0.87l2.11 0 0-4.67c0-0.52 0.28-0.79 0.85-0.79l2.95 0c0.59 0 0.88 0.27 0.88 0.79l0 4.67 4.1 0c0.57 0 0.85 0.29 0.85 0.87l0 2.13c0 0.58-0.28 0.87-0.85 0.87zm-14.87-10.13l0 25.01c0 0.58-0.29 0.88-0.85 0.88l-3.21 0c-0.55 0-0.82-0.3-0.82-0.88l0-25.01c0-0.56 0.27-0.84 0.82-0.84l3.21 0c0.56 0 0.85 0.28 0.85 0.84zm-27.57 19.05l0-12.29c0-0.59 0.29-0.88 0.88-0.88l3.18 0c0.54 0 0.81 0.29 0.81 0.88l0 11.34c0 1.3 0.26 2.28 0.78 2.95 0.51 0.67 1.4 1 2.65 1 1.33 0 2.39-0.4 3.16-1.21 0.77-0.81 1.16-1.9 1.16-3.27l0-10.81c0-0.59 0.28-0.88 0.85-0.88l3.21 0c0.54 0 0.81 0.29 0.81 0.88l0 18.25c0 0.58-0.27 0.87-0.81 0.87l-2.95 0c-0.54 0-0.84-0.24-0.89-0.72l-0.14-2.04c-1.19 2.12-3.19 3.18-6.02 3.18-4.45 0-6.68-2.42-6.68-7.25zm-10.59 2.55c1.67 0 3.17-0.37 4.5-1.11 0.56-0.23 0.98-0.05 1.26 0.53l1.02 2.36c0.18 0.43 0 0.81-0.55 1.14-1.77 1.19-4.12 1.78-7.05 1.78-3.81 0-6.76-1.16-8.87-3.49-2.1-2.32-3.16-5.76-3.16-10.28 0-4.54 1.05-7.97 3.12-10.31 2.08-2.34 4.99-3.51 8.73-3.51 2.83 0 5.15 0.57 6.98 1.71 0.51 0.35 0.68 0.74 0.51 1.17l-0.99 2.32c-0.22 0.58-0.64 0.73-1.26 0.45-1.33-0.63-2.8-0.94-4.43-0.94-2.51 0-4.37 0.74-5.59 2.24-1.22 1.49-1.82 3.77-1.82 6.87 0 3.08 0.62 5.36 1.86 6.85 1.24 1.48 3.15 2.22 5.74 2.22zm-36.17-12.46c-2.93 0-4.51 1.81-4.76 5.4l9.15 0 0-0.23c0-1.62-0.37-2.89-1.12-3.8-0.75-0.91-1.84-1.37-3.27-1.37zm-2.79 12.17c1.05 0.87 2.42 1.31 4.12 1.31 1.7 0 3.31-0.39 4.83-1.18 0.52-0.25 0.89-0.07 1.11 0.54l0.63 1.78c0.12 0.48-0.06 0.84-0.55 1.1-1.92 0.99-4.06 1.48-6.43 1.48-3.27 0-5.82-0.92-7.66-2.75-1.82-1.84-2.75-4.4-2.75-7.69 0-3.31 0.85-5.89 2.53-7.72 1.69-1.83 3.98-2.75 6.89-2.75 2.83 0 5.02 0.86 6.57 2.6 1.54 1.73 2.32 4.04 2.32 6.92l0 1.86c0 0.61-0.3 0.92-0.88 0.92l-12.59 0c0.2 1.51 0.82 2.71 1.86 3.58zm-10.97-21.31l0 25.01c0 0.58-0.29 0.88-0.85 0.88l-3.21 0c-0.54 0-0.81-0.3-0.81-0.88l0-25.01c0-0.56 0.27-0.84 0.81-0.84l3.21 0c0.56 0 0.85 0.28 0.85 0.84zm-23.62 15.87c0 4.25 1.59 6.37 4.76 6.37 1.57 0 2.74-0.5 3.5-1.5 0.76-1 1.15-2.62 1.15-4.87 0-2.26-0.39-3.88-1.15-4.88-0.76-1-1.93-1.5-3.5-1.5-3.17 0-4.76 2.12-4.76 6.38zm-0.15 7.21l-0.11 2.08c-0.05 0.48-0.33 0.72-0.85 0.72l-2.91 0c-0.57 0-0.85-0.28-0.85-0.87l0-25.01c0-0.56 0.28-0.84 0.85-0.84l3.17 0c0.56 0 0.85 0.28 0.85 0.84l0 8.58c0.51-0.99 1.34-1.76 2.47-2.32 1.13-0.55 2.36-0.83 3.69-0.83 2.6 0 4.63 0.88 6.07 2.64 1.44 1.75 2.16 4.35 2.16 7.8 0 3.44-0.72 6.04-2.16 7.79-1.44 1.76-3.47 2.64-6.07 2.64-1.37 0-2.64-0.27-3.78-0.83-1.15-0.56-1.99-1.35-2.53-2.39zm-10.04-16.32l0 18.25c0 0.59-0.28 0.87-0.85 0.87l-3.21 0c-0.57 0-0.85-0.28-0.85-0.87l0-18.25c0-0.59 0.28-0.87 0.85-0.87l3.21 0c0.57 0 0.85 0.28 0.85 0.87zm0-6.65l0 2.66c0 0.58-0.27 0.87-0.81 0.87l-3.28 0c-0.55 0-0.82-0.29-0.82-0.87l0-2.66c0-0.58 0.27-0.87 0.82-0.87l3.28 0c0.54 0 0.81 0.29 0.81 0.87zm-14.91 14.31c0-3.49-1.42-5.23-4.28-5.23-2.8 0-4.21 1.8-4.21 5.42 0 3.62 1.41 5.43 4.21 5.43 1.36 0 2.41-0.48 3.16-1.44 0.75-0.96 1.12-2.36 1.12-4.18zm4.8-7.66l0 15.75c0 2.61-0.82 4.59-2.46 5.96-1.63 1.36-3.93 2.05-6.88 2.05-2.93 0-5.19-0.4-6.78-1.18-0.5-0.25-0.67-0.59-0.53-1.02l0.63-2.05c0.15-0.56 0.5-0.75 1.04-0.57 1.74 0.63 3.5 0.94 5.28 0.94 1.67 0 2.94-0.37 3.79-1.14 0.87-0.75 1.3-1.83 1.3-3.22l0-1.63c-0.5 0.93-1.25 1.66-2.27 2.18-1.02 0.52-2.16 0.78-3.42 0.78-2.38 0-4.29-0.74-5.72-2.2-1.42-1.47-2.14-3.74-2.14-6.8 0-3.06 0.7-5.35 2.09-6.87 1.39-1.52 3.25-2.28 5.59-2.28 1.28 0 2.45 0.27 3.51 0.82 1.06 0.55 1.83 1.26 2.32 2.14l0.11-1.78c0.05-0.5 0.35-0.76 0.89-0.76l2.8 0c0.57 0 0.85 0.29 0.85 0.88zm-22.32 6.07l0 12.18c0 0.58-0.29 0.88-0.86 0.88l-3.17 0c-0.59 0-0.88-0.3-0.88-0.88l0-11.27c0-1.34-0.28-2.34-0.83-3-0.55-0.66-1.47-0.98-2.75-0.98-1.38 0-2.45 0.41-3.2 1.23-0.75 0.82-1.12 1.94-1.12 3.36l0 10.66c0 0.58-0.28 0.88-0.85 0.88l-3.17 0c-0.57 0-0.85-0.3-0.85-0.88l0-18.25c0-0.59 0.28-0.88 0.85-0.88l2.91 0c0.52 0 0.8 0.26 0.85 0.76l0.18 1.98c1.23-2.13 3.3-3.19 6.21-3.19 2.23 0 3.91 0.64 5.02 1.93 1.1 1.29 1.66 3.12 1.66 5.47zm-27.35 5.5l0-1.63c-1.38 0.05-2.51 0.12-3.4 0.21-0.88 0.09-1.73 0.25-2.53 0.49-0.8 0.24-1.38 0.58-1.75 1.03-0.37 0.44-0.55 1-0.55 1.69 0 0.8 0.28 1.45 0.85 1.93 0.56 0.48 1.36 0.73 2.39 0.73 1.63 0 2.86-0.42 3.72-1.24 0.84-0.82 1.27-1.89 1.27-3.21zm4.76-5.69l0 12.37c0 0.59-0.3 0.87-0.89 0.87l-2.73 0c-0.52 0-0.8-0.24-0.85-0.72l-0.15-2.04c-1.3 2.07-3.54 3.11-6.71 3.11-1.94 0-3.48-0.51-4.62-1.52-1.13-1.01-1.69-2.44-1.69-4.29 0-1.09 0.2-2.03 0.62-2.83 0.42-0.8 0.98-1.43 1.68-1.9 0.7-0.46 1.63-0.85 2.77-1.14 1.15-0.29 2.31-0.49 3.51-0.6 1.19-0.12 2.63-0.18 4.3-0.21l0-0.87c0-1.19-0.34-2.06-1-2.62-0.66-0.56-1.73-0.84-3.21-0.84-1.8 0-3.64 0.38-5.53 1.14-0.52 0.18-0.88 0-1.07-0.53l-0.67-2.09c-0.15-0.45 0.02-0.81 0.52-1.06 2.19-0.96 4.65-1.44 7.38-1.44 5.56 0 8.34 2.4 8.34 7.21zm-21-2.51l-4.06 0 0 9.23c0 1.08 0.17 1.83 0.51 2.23 0.35 0.41 1.02 0.61 2.04 0.61 0.17 0 0.69-0.06 1.55-0.19 0.24-0.02 0.42 0.03 0.53 0.15 0.11 0.13 0.18 0.34 0.21 0.62l0.22 2.12c0.02 0.43-0.21 0.72-0.7 0.87-0.82 0.28-1.85 0.42-3.11 0.42-2.16 0-3.71-0.48-4.64-1.44-0.94-0.96-1.4-2.59-1.4-4.86l0-9.76-2.04 0c-0.59 0-0.88-0.29-0.88-0.87l0-2.13c0-0.58 0.29-0.87 0.88-0.87l2.11 0 0-4.67c0-0.52 0.28-0.79 0.85-0.79l2.95 0c0.59 0 0.88 0.27 0.88 0.79l0 4.67 4.1 0c0.57 0 0.85 0.29 0.85 0.87l0 2.13c0 0.58-0.28 0.87-0.85 0.87zm-14.69 2.7l0 12.18c0 0.58-0.28 0.88-0.85 0.88l-3.17 0c-0.59 0-0.88-0.3-0.88-0.88l0-11.27c0-1.34-0.28-2.34-0.83-3-0.55-0.66-1.48-0.98-2.76-0.98-1.37 0-2.44 0.41-3.19 1.23-0.75 0.82-1.12 1.94-1.12 3.36l0 10.66c0 0.58-0.28 0.88-0.85 0.88l-3.17 0c-0.57 0-0.85-0.3-0.85-0.88l0-18.25c0-0.59 0.28-0.88 0.85-0.88l2.91 0c0.52 0 0.8 0.26 0.85 0.76l0.18 1.98c1.23-2.13 3.3-3.19 6.2-3.19 2.24 0 3.92 0.64 5.02 1.93 1.11 1.29 1.66 3.12 1.66 5.47zm-28.38 12.1l0-24.85c0-0.61 0.3-0.92 0.89-0.92l3.36 0c0.61 0 0.92 0.31 0.92 0.92l0 24.85c0 0.64-0.31 0.95-0.92 0.95l-3.36 0c-0.59 0-0.89-0.31-0.89-0.95z"/>
</svg>
