<?xml version="1.0" encoding="UTF-8"?>
<svg xmlns="http://www.w3.org/2000/svg" viewBox="0 0 2097 552">
  <path fill="#ea5d2b" d="M236.87 369.02c55 0 99.59-44.59 99.59-99.59 0-55.01-44.59-99.59-99.59-99.59-55 0-99.6 44.58-99.6 99.59 0 55 44.6 99.59 99.6 99.59zm141-73.89c-0.56 0-1.22 0.1-1.69 0.54l-8.92 1.29 0-24.57c0.19-0.3 0.38-0.54 0.38-1.04 0-1.03-0.33-2.47-2.5-2.47-1.03 0-2.39 0.45-2.39 2.47 0 0.44 0.05 0.74 0.19 0.95l0 25.35c-0.38 0.49-0.48 1.03-0.48 1.72 0 1.43 1.04 2.23 2.41 2.23 0.51 0 0.84-0.05 1.4-0.2l11.09-1.49c0.14 0.1 0.56 0.2 0.84 0.15 1.03-0.19 1.84-1.03 1.84-2.71 0-1.38-1.14-2.17-2.17-2.22zm16.82-12.45c2.11 0 2.44 1.49 2.44 2.04 0 0.8-0.52 1.1-1.74 1.45-1.64 0.44-4.03 1.04-7.12 1.69l-0.1-0.05c1.88-4.04 4.17-5.13 6.52-5.13zm0.57 7.26c4.55-1.05 6.19-2.53 6.19-4.72 0-3.42-2.87-6.22-6.48-6.22-3.47 0-6.61 1.56-9 4.73-2.03 2.68-3.29 6.26-3.29 10.23 0 4.16 2.3 7.65 6.71 7.65 2.82 0 5.25-0.64 7.64-2.46 1.88-1.43 3.95-3.46 3.95-4.75 0-0.94-0.85-2.03-2.4-2.03-1.17 0-2.29 0.74-2.25 2.18-1.69 2.33-4.45 3.37-6.23 3.37-2.07 0-3.09-1.29-3.09-3.47 0-1.19 0.04-1.93 0.23-2.68l8.02-1.83zm12.76-20.56c-1.7 0-2.73 1.63-2.73 4.8 0 1.38 0.85 2.57 2.4 2.57 1.55 0 2.87-1.49 2.87-4.74 0-1.63-0.7-2.63-2.54-2.63zm1.8 13.37c0.14-0.15 0.37-0.49 0.37-1.19 0-1.43-1.22-2.56-2.25-2.56-1.55 0-2.63 0.69-2.63 2.87 0 0.44 0.09 0.78 0.28 1.08l0 14.35c-0.42 0.74-0.42 0.99-0.42 1.34 0 1.08 0.61 2.52 2.29 2.52 1.55 0 2.78-1.05 2.78-2.48 0-0.44-0.14-0.79-0.42-1.18l0-14.75zm20.75 2.62c-2.01 0-3.94 0.64-6.42 1.57-1.89 0.73-3.2 1.26-3.86 1.26-0.52 0-0.94-0.14-0.94-0.89 0-0.88 0.75-1.87 2.39-3 2.02-1.39 5.07-2.03 8.31-2.03 0.8 0.35 1.17 0.54 1.69 0.54 0.85 0 2.02-0.19 2.02-1.96 0-1.43-1.78-2.52-3.75-2.52-3.81 0-7.52 0.94-10.19 2.52-2.87 1.77-4.8 4.28-4.8 7.34 0 2.56 2.21 4.34 4.42 4.34 2.35 0 4.09-0.74 6.29-1.63 1.84-0.71 3.2-1.21 4.23-1.21 0.89 0 1.4 0.44 1.4 1.24 0 1.14-0.51 2.58-2.25 4.06-2 1.77-4.87 2.57-6.7 2.57-1.59 0-2.29-0.4-2.81-0.75l0.09-0.78c0-1.39-1.17-1.68-2.39-1.68-0.8 0-1.93 0.89-1.93 2.72 0 1.23 0.99 2.51 2.26 3.24 1.22 0.75 3.28 1.19 4.74 1.19 3.65 0 7.22-1.67 9.61-3.59 1.88-1.49 3.7-4.21 3.7-7.63 0-2.12-1.3-4.92-5.11-4.92zm27.35-3.65c0.23-1.43-0.15-2.72-2.26-2.72-1.64 0-2.11 0.73-2.11 1.62 0 0.95 0 0.56 0.14 1.1l0 12.04c-1.84 1.54-4.85 3.96-7.38 3.96-0.52 0-1.65-0.69-1.65-1.63l0-13.88c0.23-0.35 0.33-0.69 0.33-1.18 0-0.95-0.61-2.18-2.25-2.18-1.22 0-2.45 0.68-2.45 2.27 0 0.3 0 0.59 0.15 0.94l0 14.08c0 3.89 3.19 5.56 5.68 5.56 2.58 0 5.69-2.02 7.43-3.44l0 0.55c-0.52 1.06 0.19 2.3 1.97 2.3 1.17 0 2.73-0.4 2.73-2.08 0-0.45-0.05-0.84-0.33-1.19l0-16.12zm17.5-2.78c-0.71 0-1.18 0.26-2.82 1.19-1.12 0.65-2.72 2.03-4.04 3.16l0-1.38c0.14-0.55 0.19-0.79 0.19-1.09 0-1.08-0.75-1.97-2.12-1.97-1.07 0-2.44 0.59-2.44 2.17 0 0.39 0.05 0.69 0.14 1.09l0 15.44c-0.28 0.39-0.47 0.94-0.47 1.38 0 1.24 0.8 2.18 2.35 2.18 1.83 0 2.82-0.6 2.82-2.33 0-0.49-0.24-0.94-0.47-1.23l0-9.41c1.32-1.43 4.28-3.91 5.68-4.75-0.04 0.64-0.04 0.84-0.04 1.14 0 1.29 1.31 1.88 2.21 1.88 0.65 0 2.02-0.1 2.02-1.88 0-2.72-0.38-5.59-3.01-5.59zm16.28 3.74c2.1 0 2.44 1.49 2.44 2.04 0 0.8-0.52 1.1-1.73 1.45-1.65 0.44-4.04 1.04-7.13 1.69l-0.1-0.05c1.88-4.04 4.18-5.13 6.52-5.13zm0.56 7.26c4.56-1.05 6.2-2.53 6.2-4.72 0-3.42-2.86-6.22-6.48-6.22-3.47 0-6.61 1.56-9 4.73-2.03 2.68-3.29 6.26-3.29 10.23 0 4.16 2.3 7.65 6.71 7.65 2.82 0 5.25-0.64 7.64-2.46 1.89-1.43 3.95-3.46 3.95-4.75 0-0.94-0.84-2.03-2.39-2.03-1.18 0-2.3 0.74-2.26 2.18-1.69 2.33-4.46 3.37-6.23 3.37-2.07 0-3.1-1.29-3.1-3.47 0-1.19 0.05-1.93 0.24-2.68l8.01-1.83zm33.25 4.31c-1.82 1.84-5.85 3.82-7.62 3.82-0.84 0-1.17-0.4-1.17-1.15 0-1.41 1.92-3.79 4.26-5.12 1.77-1.05 4.53-2.14 6.96-2.54 0 2.51-0.32 2.96-2.43 4.99zm6.66-10.87c0-2.42-1.13-4.88-5.16-4.88-3.47 0-7.39 0.64-10.81 3.09-0.98 0.15-1.88 0.99-1.88 2.23 0 1.29 0.99 2.18 2.21 2.18 1.22 0 2.3-0.83 2.43-1.83 1.69-1.19 4.68-1.99 7.06-1.99 1.82 0 1.92 0.5 1.92 1.68l0 2.09c-2.99 0.3-6.59 1.34-9.77 3.23-3.66 2.18-5.78 5.36-5.78 8.34 0 2.61 1.84 4.23 4.89 4.23 3.32 0 7.71-2.01 10.66-5.47l0 1.71c-0.14 0.2-0.37 0.49-0.37 1.23 0 1.1 0.7 1.94 2.2 1.94 1.18 0 2.73-0.4 2.73-2.03 0-0.45-0.05-0.85-0.33-1.19l0-14.56zm24.12-1.57c0-2.18-2.43-3.46-3.7-3.46-2.45 0-5.46 2.76-9.55 5.78l0-2.42c0.15-0.25 0.33-0.65 0.33-1.25 0-0.88-0.42-2.11-2.3-2.11-1.17 0-2.44 0.78-2.44 2.22 0 0.45 0.04 0.79 0.18 1.04l0 5.62c-0.32 0.54-0.46 1.19-0.46 1.68 0 0.45 0.09 0.94 0.46 1.33l0 7.71c-0.18 0.34-0.37 0.74-0.37 1.28 0 1.04 0.75 1.93 2.25 1.93 1.08 0 2.5-0.3 2.5-2.12 0-0.41-0.05-0.69-0.15-0.94l0-8.99c4.09-3.21 7.43-5.83 7.99-5.83 0.33 0 1.03 0.3 1.03 0.94l0 13.93c-0.14 0.34-0.23 0.59-0.23 0.84 0 1.23 0.85 2.17 2.26 2.17 1.41 0 2.35-0.64 2.35-2.27 0-0.4 0-0.69-0.15-1.04l0-16.04zm16.76 11.31c-2.2 2.38-4.54 4.51-6.75 4.51-0.98 0-1.4-0.7-1.4-1.79 0-2.04 1.64-5.2 3.84-7.67 2.16-2.47 4.88-3.95 7.17-3.95 1.22 0 1.5 0.94 1.5 1.59 0 1.18-0.66 3.31-4.36 7.31zm8.54-21.32c0.05-0.35 0.09-0.59 0.09-0.93 0-1.14-0.65-2.54-2.3-2.54-1.08 0-2.44 0.75-2.44 2.33 0 0.6 0.09 1.14 0.42 1.54l-0.05 8.48c-0.41-0.49-1.4-0.59-2.33-0.59-6.38 0-14.41 8.77-14.41 15.44 0 3.86 1.79 6.23 5.22 6.23 2.11 0 3.99-0.6 6.14-2.13 1.64-1.12 3.8-3.35 5.34-5.42l0.09 0 0 3.54c-0.09 0.3-0.18 0.69-0.18 1.29 0 1.07 0.56 2.12 2.25 2.12 1.5 0 2.58-0.65 2.58-2.18 0-0.29-0.05-0.78-0.42-1.33l0-25.85zm30.77 0.72c2.48 0 3.94 0.79 4.08 1.39 0.23 1.13 0.85 2.08 2.11 2.08 1.32 0 2.44-1.09 2.44-2.68 0-2.51-4.83-4.97-8.82-4.97-3.29 0-6.53 1.37-9.3 5.32-2.16 3.17-4.56 9.45-4.56 14.26 0 7.38 3.2 13.78 10.01 13.78 1.4 0 2.44-0.19 4.46-1.12 2.06-1.04 4.65-2.96 5.91-4.39 1.28-1.4 1.88-2.33 1.88-3.37 0-1.24-0.93-2.43-2.77-2.43-1.36 0-2.02 1.19-2.3 3.02-1.51 1.89-4.22 4.11-6.48 4.11-2.21 0-3.28-0.44-4.46-1.98-0.94-1.24-1.88-3.71-1.88-6.98 0-2.67 0.85-7.48 3.1-11.48 1.69-2.97 3.81-4.56 6.58-4.56zm30.28 9.2c0.23-1.43-0.15-2.72-2.26-2.72-1.63 0-2.11 0.73-2.11 1.62 0 0.95 0 0.56 0.15 1.1l0 12.04c-1.84 1.54-4.85 3.96-7.39 3.96-0.51 0-1.64-0.69-1.64-1.63l0-13.88c0.23-0.35 0.32-0.69 0.32-1.18 0-0.95-0.61-2.18-2.25-2.18-1.22 0-2.44 0.68-2.44 2.27 0 0.3 0 0.59 0.14 0.94l0 14.08c0 3.89 3.19 5.56 5.68 5.56 2.59 0 5.7-2.02 7.43-3.44l0 0.55c-0.51 1.06 0.19 2.3 1.97 2.3 1.18 0 2.73-0.4 2.73-2.08 0-0.45-0.05-0.84-0.33-1.19l0-16.12zm11.06-11.11c0-1.24-0.94-2.28-2.39-2.28-1.59 0-2.59 0.45-2.59 2.58 0 0.64 0.15 1.04 0.28 1.33l0 25.46c-0.18 0.49-0.18 0.74-0.18 0.94 0 1.38 0.98 2.47 2.58 2.47 1.13 0 2.3-0.79 2.3-2.23 0-0.44 0-0.89-0.46-1.43l0-25.01c0.32-0.44 0.46-0.95 0.46-1.83zm20.71 19.14c-0.99 0-1.84 0.49-1.98 1.94-0.84 1.24-1.97 2.28-2.77 2.92-2.2 1.64-2.63 1.93-3.33 1.93-0.42 0-0.42-0.84-0.42-1.53l0-12.49 5.63-0.89c0.33 0.15 0.71 0.1 0.85 0.1 1.12 0 1.82-0.88 1.82-2.46 0-0.44-0.7-1.82-2.05-1.82-0.33 0-0.76 0.15-1 0.25l-5.25 0.8 0-2.97c0.23-0.35 0.28-0.74 0.28-1.19 0-1.48-1.22-1.72-2.07-1.72-1.26-0.05-2.58 0.3-2.58 1.88 0 0.25 0 0.64 0.14 0.99l0 3.65-2.63 0.39-0.51-0.1c-1.18 0.06-2.35 0.9-2.35 2.48 0 0.54 0.6 1.91 2.25 1.91 0.37-0.07 0.61-0.17 0.89-0.37l2.35-0.35 0 15.33c0 2.33 1.41 3.08 3.14 3.08 1.37 0 3.3-0.9 5.55-2.53 2.34-1.79 6.39-5.36 6.39-7.05 0-0.59-0.28-2.18-2.35-2.18zm23.07-8.03c0.24-1.43-0.14-2.72-2.25-2.72-1.65 0-2.12 0.73-2.12 1.62 0 0.95 0 0.56 0.14 1.1l0 12.04c-1.82 1.54-4.83 3.96-7.37 3.96-0.52 0-1.65-0.69-1.65-1.63l0-13.88c0.24-0.35 0.33-0.69 0.33-1.18 0-0.95-0.61-2.18-2.26-2.18-1.22 0-2.44 0.68-2.44 2.27 0 0.3 0 0.59 0.14 0.94l0 14.08c0 3.89 3.2 5.56 5.69 5.56 2.59 0 5.69-2.02 7.42-3.44l0 0.55c-0.51 1.06 0.19 2.3 1.98 2.3 1.17 0 2.72-0.4 2.72-2.08 0-0.45-0.05-0.84-0.33-1.19l0-16.12zm17.51-2.78c-0.71 0-1.17 0.26-2.82 1.19-1.13 0.65-2.73 2.03-4.05 3.16l0-1.38c0.15-0.55 0.2-0.79 0.2-1.09 0-1.08-0.76-1.97-2.12-1.97-1.07 0-2.44 0.59-2.44 2.17 0 0.39 0.05 0.69 0.14 1.09l0 15.44c-0.28 0.39-0.47 0.94-0.47 1.38 0 1.24 0.8 2.18 2.35 2.18 1.83 0 2.82-0.6 2.82-2.33 0-0.49-0.24-0.94-0.48-1.23l0-9.41c1.32-1.43 4.28-3.91 5.7-4.75-0.05 0.64-0.05 0.84-0.05 1.14 0 1.29 1.31 1.88 2.2 1.88 0.66 0 2.02-0.1 2.02-1.88 0-2.72-0.37-5.59-3-5.59zm17.03 15.31c-1.82 1.84-5.84 3.82-7.62 3.82-0.84 0-1.17-0.4-1.17-1.15 0-1.41 1.92-3.79 4.26-5.12 1.77-1.05 4.53-2.14 6.96-2.54 0 2.51-0.32 2.96-2.43 4.99zm6.66-10.87c0-2.42-1.13-4.88-5.16-4.88-3.46 0-7.38 0.64-10.8 3.09-0.99 0.15-1.88 0.99-1.88 2.23 0 1.29 0.98 2.18 2.2 2.18 1.22 0 2.3-0.83 2.43-1.83 1.69-1.19 4.68-1.99 7.07-1.99 1.82 0 1.91 0.5 1.91 1.68l0 2.09c-2.98 0.3-6.59 1.34-9.77 3.23-3.66 2.18-5.77 5.36-5.77 8.34 0 2.61 1.83 4.23 4.88 4.23 3.32 0 7.72-2.01 10.66-5.47l0 1.71c-0.13 0.2-0.37 0.49-0.37 1.23 0 1.1 0.7 1.94 2.21 1.94 1.17 0 2.72-0.4 2.72-2.03 0-0.45-0.04-0.85-0.33-1.19l0-14.56zm10.67-10.94c0.33-0.45 0.47-0.94 0.47-1.83 0-1.24-0.94-2.28-2.39-2.28-1.6 0-2.59 0.45-2.59 2.58 0 0.64 0.15 1.04 0.29 1.33l0 25.46c-0.19 0.49-0.19 0.74-0.19 0.93 0 1.39 0.98 2.48 2.58 2.48 1.13 0 2.3-0.8 2.3-2.23 0-0.44 0-0.89-0.47-1.43l0-25.01zm-390.61 56.01c-1.69 0-3.81 0.45-6.86 1.48-2.53 0.81-3.57 1.21-4.41 1.21-1.36 0-1.84-1.13-1.84-2.03 0-1.3 1.04-3.37 2.78-5.05 1.69-1.59 3.76-2.73 6.81-2.73 2.07 0 2.49 0.44 3.24 0.94 0.19 0.89 1.08 1.49 2.44 1.49 1.08 0 2.12-0.5 2.12-2.29 0-2.21-4.09-4.33-7.57-4.33-3.14 0-6.39 0.99-9.4 3.5-2.58 2.17-4.79 5.74-4.79 9.31 0 3.31 1.74 5.72 5.78 5.72 1.22 0 3-0.34 6.16-1.43 3.34-1.11 4.88-1.25 6.25-1.25 1.55 0 2.44 1.03 2.44 2.56 0 1.98-0.43 3.76-2.02 5.59-2.26 2.47-6.35 4.7-10.34 4.7-1.88 0-2.72-0.45-3.38-2.97-0.47-1.73-0.98-2.82-2.4-2.82-1.17 0-2.39 1.19-2.39 2.91 0 1.74 1.03 3.76 2.3 4.99 1.55 1.48 3.33 2.07 5.92 2.07 2.21 0 3.76-0.2 6.53-1.23 2.26-0.89 3.85-1.78 6.48-4.34 2.26-2.23 3.68-5 3.68-9.39 0-4.35-2.87-6.61-7.53-6.61zm22.17 2.64c2.11 0 2.44 1.5 2.44 2.04 0 0.8-0.52 1.09-1.74 1.44-1.63 0.45-4.02 1.05-7.12 1.7l-0.1-0.05c1.88-4.03 4.18-5.13 6.52-5.13zm0.56 7.26c4.56-1.04 6.2-2.53 6.2-4.72 0-3.43-2.86-6.22-6.48-6.22-3.46 0-6.6 1.57-9 4.73-2.02 2.68-3.29 6.26-3.29 10.22 0 4.17 2.3 7.66 6.71 7.66 2.82 0 5.25-0.64 7.65-2.46 1.88-1.43 3.94-3.46 3.94-4.75 0-0.94-0.84-2.03-2.39-2.03-1.18 0-2.3 0.74-2.26 2.18-1.69 2.33-4.45 3.37-6.23 3.37-2.07 0-3.1-1.29-3.1-3.47 0-1.19 0.06-1.93 0.24-2.68l8.01-1.83zm20.59-10.99c-0.7 0-1.17 0.25-2.81 1.19-1.13 0.64-2.73 2.02-4.05 3.15l0-1.37c0.15-0.55 0.19-0.8 0.19-1.1 0-1.08-0.75-1.98-2.12-1.98-1.07 0-2.44 0.6-2.44 2.18 0 0.4 0.05 0.7 0.15 1.09l0 15.44c-0.29 0.39-0.47 0.93-0.47 1.38 0 1.24 0.8 2.18 2.34 2.18 1.84 0 2.82-0.6 2.82-2.33 0-0.49-0.23-0.94-0.47-1.23l0-9.41c1.32-1.43 4.28-3.9 5.69-4.74-0.04 0.63-0.04 0.84-0.04 1.14 0 1.27 1.31 1.87 2.2 1.87 0.65 0 2.02-0.1 2.02-1.87 0-2.72-0.38-5.59-3.01-5.59zm22.28-0.31c-1.22 0-1.82 0.7-2.48 2.53-0.99 2.53-2.02 4.5-3.43 7.03-1.09 1.92-2.07 3.86-2.59 5.63l-0.09 0c-0.37-1.82-0.89-4.15-1.79-7.12-0.56-1.88-1.03-3.22-1.12-4.25 0.19-0.59 0.28-0.99 0.28-1.34 0-1.03-0.93-2.07-2.24-2.07-1.18 0-2.39 0.84-2.39 2.22 0 0.65 0 0.89 0.19 1.23 0.04 0.84 0.14 1.49 0.46 2.87 0.52 2.38 0.75 3.27 2.25 7.78 1.4 4.2 1.64 5.04 1.64 5.24 0 1.73 0.99 2.92 2.39 2.92 1.37 0 2.12-0.89 2.4-2.33 0.14-0.74 0.85-2.72 4.18-8.85 1.92-3.42 1.6-2.87 2.77-4.95 0.52-1.24 1.64-3.32 1.64-4.36 0-1.58-0.94-2.18-2.07-2.18zm9.35 4.11c0.15-0.14 0.38-0.49 0.38-1.18 0-1.44-1.22-2.57-2.25-2.57-1.56 0-2.63 0.69-2.63 2.87 0 0.43 0.09 0.79 0.27 1.08l0 14.35c-0.41 0.74-0.41 0.99-0.41 1.33 0 1.09 0.61 2.53 2.29 2.53 1.56 0 2.77-1.04 2.77-2.48 0-0.44-0.14-0.79-0.42-1.18l0-14.75zm-1.79-13.36c-1.7 0-2.73 1.63-2.73 4.79 0 1.38 0.85 2.57 2.4 2.57 1.55 0 2.87-1.48 2.87-4.74 0-1.64-0.7-2.62-2.54-2.62zm22.19 21.18c-0.8 0-1.12 0.1-1.6 0.59-0.47 0.51-0.47 0.6-0.6 1.4-1.51 2.93-4.13 5.06-6.01 5.06-2.26 0-3.62-1.19-3.62-4.22 0-3.52 0.94-5.81 2.86-7.94 1.89-2.13 2.45-2.63 4.79-2.63 0.66 0 0.85 0.1 1.32 0.89 0.37 0.75 0.85 1.49 1.87 1.49 1.23 0 2.73-0.59 2.73-2.38 0-2.07-2.44-4.13-5.92-4.13-3.05 0-5.59 1.28-7 2.85-3.9 4.3-4.98 6.94-4.98 12.5 0 3.82 2.49 7.71 7.15 7.71 2.02 0 4.18-0.49 6.43-2.22 2.02-1.52 4.79-5 4.79-6.78 0-0.8-0.56-2.19-2.21-2.19zm17.22-7.89c2.11 0 2.44 1.5 2.44 2.04 0 0.8-0.53 1.09-1.74 1.44-1.64 0.45-4.03 1.05-7.13 1.7l-0.09-0.05c1.88-4.03 4.17-5.13 6.52-5.13zm0.56 7.26c4.55-1.04 6.2-2.53 6.2-4.72 0-3.43-2.87-6.22-6.48-6.22-3.47 0-6.61 1.57-9 4.73-2.03 2.68-3.29 6.26-3.29 10.22 0 4.17 2.29 7.66 6.71 7.66 2.81 0 5.25-0.64 7.64-2.46 1.88-1.43 3.95-3.46 3.95-4.75 0-0.94-0.85-2.03-2.4-2.03-1.17 0-2.3 0.74-2.25 2.18-1.69 2.33-4.46 3.37-6.23 3.37-2.07 0-3.1-1.29-3.1-3.47 0-1.19 0.05-1.93 0.23-2.68l8.02-1.83zm24.98-4.57c-2.01 0-3.93 0.64-6.42 1.57-1.88 0.73-3.2 1.27-3.86 1.27-0.51 0-0.93-0.15-0.93-0.89 0-0.89 0.75-1.88 2.39-3.01 2.02-1.39 5.07-2.03 8.31-2.03 0.79 0.35 1.18 0.54 1.69 0.54 0.85 0 2.02-0.19 2.02-1.97 0-1.42-1.79-2.5-3.76-2.5-3.8 0-7.51 0.93-10.18 2.5-2.87 1.78-4.8 4.3-4.8 7.36 0 2.56 2.21 4.33 4.42 4.33 2.35 0 4.09-0.74 6.3-1.62 1.82-0.73 3.19-1.22 4.22-1.22 0.88 0 1.41 0.44 1.41 1.24 0 1.13-0.53 2.57-2.25 4.06-2.02 1.78-4.88 2.57-6.71 2.57-1.59 0-2.29-0.39-2.81-0.74l0.1-0.79c0-1.39-1.18-1.69-2.41-1.69-0.79 0-1.92 0.9-1.92 2.73 0 1.23 0.99 2.51 2.26 3.25 1.21 0.74 3.28 1.18 4.73 1.18 3.66 0 7.23-1.68 9.61-3.59 1.88-1.49 3.72-4.21 3.72-7.63 0-2.11-1.31-4.92-5.13-4.92zm35.24 6.05c-2.59 2.57-6.9 4.69-9.72 5.24l0-21.57c1.78-1.14 4.88-2.37 8.16-2.37 3.82 0 6.35 3.22 6.35 7.27 0 3.47-1.36 8.01-4.79 11.43zm-0.8-22.88c-3.66 0-5.4 0.58-8.73 1.86-0.19-1.02-0.99-1.57-2.07-1.57-1.22 0-2.63 0.65-2.63 2.13 0 0.54 0.19 1.09 0.19 1.18l0 27.59c0 0.94 0.32 1.83 1.87 1.83 1.33 0 5.03-0.94 8.04-2.28 1.88-0.84 4.83-2.42 7.23-4.7 4.18-4.05 6.07-9.59 6.07-14.98 0-5.75-4.7-11.06-9.97-11.06zm22.64 14.14c2.1 0 2.42 1.5 2.42 2.04 0 0.8-0.5 1.09-1.72 1.44-1.65 0.45-4.03 1.05-7.13 1.7l-0.09-0.05c1.88-4.03 4.17-5.13 6.52-5.13zm0.55 7.26c4.56-1.04 6.21-2.53 6.21-4.72 0-3.43-2.87-6.22-6.49-6.22-3.46 0-6.6 1.57-8.99 4.73-2.03 2.68-3.3 6.26-3.3 10.22 0 4.17 2.31 7.66 6.72 7.66 2.81 0 5.25-0.64 7.64-2.46 1.88-1.43 3.95-3.46 3.95-4.75 0-0.94-0.85-2.03-2.4-2.03-1.18 0-2.3 0.74-2.26 2.18-1.68 2.33-4.45 3.37-6.23 3.37-2.06 0-3.09-1.29-3.09-3.47 0-1.19 0.05-1.93 0.23-2.68l8.01-1.83zm16.7 7.38c-0.66 0-1.55-0.29-1.83-1.09l0-5.5c0.61-1.35 1.83-3.24 4.17-5.32 1.46-1.29 2.68-2.18 4.6-2.18 1.69 0 2.25 1.49 2.25 2.72 0 4.38-4.59 11.37-9.19 11.37zm7.27-18.23c-3.85 0-6.62 2.32-9.1 5.28l0-2.35c0 0 0.28-0.3 0.28-0.89 0-1.74-1.32-2.29-2.54-2.29-1.12 0-2.2 0.8-2.2 2.38 0 0.45 0 0.85 0.23 1.24l0 30.38c-0.23 0.49-0.23 1.09-0.23 1.38 0 1.04 0.47 1.98 2.16 1.98 1.22 0 2.58-0.45 2.58-2.18 0-0.54 0-0.79-0.28-1.13l0-12.03c0.52 0.4 1.08 0.6 2.15 0.6 2.96 0 6.9-2.32 9.48-5.48 2.4-3.03 3.71-6.99 3.71-10.42 0-4.2-2.76-6.47-6.24-6.47zm21.68 15.15c-1.82 1.84-5.84 3.83-7.62 3.83-0.84 0-1.17-0.4-1.17-1.14 0-1.42 1.92-3.8 4.26-5.14 1.77-1.04 4.53-2.13 6.96-2.53 0 2.5-0.32 2.95-2.43 4.98zm6.66-10.87c0-2.42-1.13-4.88-5.16-4.88-3.46 0-7.39 0.64-10.8 3.1-1 0.15-1.88 0.99-1.88 2.23 0 1.29 0.98 2.19 2.2 2.19 1.22 0 2.3-0.85 2.43-1.84 1.69-1.19 4.68-1.99 7.06-1.99 1.83 0 1.92 0.5 1.92 1.69l0 2.09c-3 0.29-6.59 1.33-9.77 3.22-3.65 2.19-5.77 5.36-5.77 8.35 0 2.61 1.83 4.23 4.88 4.23 3.32 0 7.72-2.02 10.66-5.48l0 1.7c-0.14 0.2-0.37 0.5-0.37 1.24 0 1.1 0.7 1.94 2.2 1.94 1.18 0 2.73-0.4 2.73-2.03 0-0.45-0.05-0.85-0.33-1.19l0-14.57zm19.7-1.73c-0.34-1.53-1.1-2.69-2.77-2.69-0.7 0-1.17 0.25-2.81 1.19-1.14 0.63-2.73 2.02-4.05 3.15l0-1.38c0.14-0.54 0.2-0.79 0.2-1.09 0-1.08-0.76-1.97-2.12-1.97-1.08 0-2.45 0.59-2.45 2.17 0 0.4 0.05 0.7 0.15 1.09l0 15.44c-0.28 0.39-0.47 0.93-0.47 1.38 0 1.24 0.8 2.17 2.34 2.17 1.84 0 2.82-0.59 2.82-2.32 0-0.49-0.23-0.94-0.47-1.23l0-9.41c1.32-1.43 4.28-3.91 5.69-4.74-0.05 0.63-0.05 0.83-0.05 1.13 0 1.28 1.32 1.88 2.21 1.88 0.66 0 2.02-0.1 2.02-1.88 0-0.66-0.03-1.33-0.1-1.97-0.12-0.25-0.2-0.49-0.2-0.65l0.06-0.27zm21.11 8.11c-0.99 0-1.83 0.49-1.98 1.94-0.84 1.24-1.96 2.28-2.77 2.92-2.2 1.63-2.63 1.93-3.33 1.93-0.42 0-0.42-0.84-0.42-1.53l0-12.49 5.64-0.88c0.32 0.14 0.7 0.09 0.84 0.09 1.12 0 1.83-0.88 1.83-2.46 0-0.44-0.71-1.82-2.07-1.82-0.33 0-0.75 0.15-0.99 0.24l-5.25 0.8 0-2.96c0.23-0.34 0.28-0.74 0.28-1.19 0-1.48-1.22-1.73-2.06-1.73-1.27-0.04-2.59 0.31-2.59 1.89 0 0.24 0 0.64 0.15 0.99l0 3.65-2.64 0.4-0.51-0.1c-1.11 0.05-2.17 0.82-2.3 2.2 0.06 0.3 0.11 0.61 0.14 0.92 0.29 0.6 0.91 1.27 2.06 1.27 0.38-0.08 0.61-0.18 0.89-0.37l2.36-0.36 0 15.33c0 2.33 1.4 3.08 3.14 3.08 1.36 0 3.28-0.9 5.54-2.53 2.35-1.79 6.39-5.36 6.39-7.05 0-0.6-0.28-2.18-2.35-2.18zm35.33-7.9c0-1.43-0.81-3.45-2.59-3.45-2.02 0-3.99 1.28-9.82 5.57l0-1.09c0-2.12-0.38-4.48-2.72-4.48-0.66 0-1.83 0.19-3.34 1.18-1.27 0.79-2.17 1.38-6.34 4.04l0-1.77c0.33-0.54 0.33-0.84 0.33-1.14 0-1.28-0.71-2.31-2.07-2.31-1.42 0-2.78 0.29-2.78 2.31 0 0.64 0.1 0.94 0.29 1.33l0 15.56c-0.24 0.64-0.24 0.59-0.24 1.18 0 1.09 0.43 2.38 2.45 2.38 1.54 0 2.35-0.84 2.35-2.28 0-0.44-0.05-0.79-0.33-1.19l0-9.58c4.7-2.82 7.33-4.78 7.66-4.78 0.28 0 0.52 0.15 0.52 0.49l0 13.87c-0.29 0.3-0.47 0.75-0.47 1.29 0 1.14 0.56 2.18 2.2 2.18 1.69 0 2.49-0.69 2.49-3.02l0-9.68c7.14-4.93 7.33-5.03 7.71-5.03 0.48 0 0.48 0.44 0.48 1.03l0 13.48c-0.2 0.2-0.3 0.55-0.3 0.94 0 1.49 0.76 2.28 2.21 2.28 1.14 0 2.64-0.55 2.64-2.18 0-0.59-0.09-0.94-0.33-1.28l0-15.85zm17.16 0.83c2.1 0 2.44 1.5 2.44 2.04 0 0.8-0.52 1.09-1.74 1.44-1.64 0.45-4.03 1.05-7.12 1.7l-0.1-0.05c1.88-4.03 4.17-5.13 6.52-5.13zm0.57 7.26c4.54-1.04 6.2-2.53 6.2-4.72 0-3.43-2.87-6.22-6.49-6.22-3.47 0-6.6 1.57-9 4.73-2.02 2.68-3.29 6.26-3.29 10.22 0 4.17 2.31 7.66 6.71 7.66 2.82 0 5.25-0.64 7.64-2.46 1.89-1.43 3.95-3.46 3.95-4.75 0-0.94-0.84-2.03-2.39-2.03-1.18 0-2.31 0.74-2.26 2.18-1.69 2.33-4.45 3.37-6.24 3.37-2.06 0-3.09-1.29-3.09-3.47 0-1.19 0.04-1.93 0.24-2.68l8.02-1.83zm28.01-8.14c0-2.17-2.44-3.45-3.71-3.45-2.45 0-5.45 2.76-9.55 5.77l0-2.41c0.15-0.25 0.34-0.65 0.34-1.24 0-0.89-0.43-2.12-2.3-2.12-1.18 0-2.45 0.79-2.45 2.22 0 0.44 0.05 0.79 0.19 1.04l0 5.63c-0.33 0.54-0.47 1.18-0.47 1.67 0 0.45 0.09 0.94 0.47 1.33l0 7.71c-0.19 0.34-0.38 0.74-0.38 1.28 0 1.04 0.75 1.93 2.26 1.93 1.08 0 2.49-0.3 2.49-2.13 0-0.39-0.05-0.69-0.15-0.94l0-8.98c4.1-3.21 7.43-5.82 8-5.82 0.33 0 1.03 0.29 1.03 0.92l0 13.94c-0.14 0.34-0.23 0.59-0.23 0.83 0 1.24 0.85 2.18 2.25 2.18 1.41 0 2.35-0.64 2.35-2.27 0-0.4 0-0.69-0.14-1.04l0-16.05zm21.28 7.95c-0.98 0-1.82 0.49-1.97 1.94-0.84 1.24-1.97 2.28-2.77 2.92-2.2 1.63-2.63 1.93-3.33 1.93-0.43 0-0.43-0.84-0.43-1.53l0-12.49 5.64-0.88c0.33 0.14 0.71 0.09 0.85 0.09 1.13 0 1.83-0.88 1.83-2.46 0-0.44-0.7-1.82-2.07-1.82-0.32 0-0.75 0.15-0.98 0.24l-5.27 0.8 0-2.96c0.24-0.34 0.29-0.74 0.29-1.19 0-1.48-1.22-1.73-2.07-1.73-1.26-0.04-2.58 0.31-2.58 1.89 0 0.24 0 0.64 0.14 0.99l0 3.65-2.63 0.4-0.51-0.1c-1.17 0.05-2.35 0.89-2.35 2.47 0 0.54 0.61 1.92 2.26 1.92 0.36-0.08 0.6-0.18 0.88-0.37l2.35-0.36 0 15.33c0 2.33 1.41 3.08 3.15 3.08 1.36 0 3.29-0.9 5.54-2.53 2.34-1.79 6.39-5.36 6.39-7.05 0-0.6-0.29-2.18-2.36-2.18zm-365.16-117.74l0.05-2.94 8.94-0.05c0.6 0 0.88 0.47 0.81 1.41l0-0.05 0.05 1.58-9.85 0.05zm9.85 5.59c0 0.94-0.42 1.33-1.26 1.17l-8.59 0.05 0-3.14 9.85 0.05 0 1.87zm-13.15 11.43c-0.36-0.81-0.85-1.21-1.46-1.21-0.27 0-0.62 0.18-1.02 0.53-0.4 0.34-0.71 0.6-0.93 0.76 0.14-0.3 0.22-0.58 0.22-0.85 0-0.51-0.25-0.96-0.76-1.36l-5.95-4.34 9.9 0 0 6.47zm-0.05-23.68l-11.6-0.08c-0.43 0-0.78 0.21-1.06 0.61-0.28 0.42-0.42 0.9-0.42 1.46 0 1.12 0.42 1.68 1.29 1.68l11.79 0.05 0 2.94-13.84 0-0.03-7.48c0-0.88 0.41-1.3 1.23-1.3l12.64 0.04 0 2.08zm19.79 6.61l-3.28 0 0-3.08c0-1-0.32-1.85-0.94-2.57-0.63-0.73-1.39-1.09-2.3-1.09l-9.79 0.05 0-2.12 15.35 0.08c0.84 0 1.26-0.58 1.26-1.73 0-1.32-0.5-1.98-1.51-1.98l-15.94 0-0.05-3.03c0-1.02-0.51-1.53-1.53-1.53-1.17 0-1.75 0.54-1.75 1.62l0.1 2.94-11.53 0c-3.35-0.03-5.04 1.53-5.04 4.68l0.05 9.75c0 6.89-0.28 11.63-0.85 14.22-0.58 2.6-1.53 5.48-2.87 8.67-0.24 0.47-0.35 0.91-0.35 1.33 0 1.21 0.52 1.81 1.54 1.81 0.42 0 0.82-0.18 1.2-0.52 0.73-0.64 1.62-2.84 2.69-6.59 0.73-2.56 1.24-5.27 1.55-8.12 0.3-2.83 0.46-5.88 0.46-9.12l13.79-0.05 0 3.28c-6.86 0-10.73 0.02-11.62 0.05-0.87 0.03-1.32 0.56-1.32 1.58 0 0.43 0.09 0.8 0.25 1.11-0.5 0.35-0.77 0.84-0.77 1.48 0 0.75 0.3 1.33 0.87 1.7l6.17 4.82c0.64 0.49 1.18 0.68 1.61 0.59-1.76 1.29-4.89 3.21-9.38 5.72-0.61 0.33-0.92 0.86-0.92 1.6 0 0.48 0.15 0.91 0.42 1.27 0.28 0.38 0.62 0.56 1.02 0.56 0.34 0 1.92-0.78 4.73-2.33 2.8-1.56 5.58-3.49 8.35-5.81l0.02 0 0.57-0.92 0 5.46c0 1.1-0.41 1.65-1.23 1.65-0.3 0-0.8-0.14-1.52-0.42-0.72-0.28-1.26-0.56-1.62-0.84-0.36-0.27-0.66-0.42-0.92-0.42-0.47 0-0.92 0.25-1.35 0.75-0.43 0.51-0.64 1.03-0.64 1.6 0 0.82 0.69 1.6 2.06 2.36 1.37 0.76 2.61 1.14 3.71 1.14 1.39 0 2.53-0.49 3.43-1.47 0.91-0.98 1.37-2.07 1.4-3.29 0.02-1.22 0.03-3.84 0.03-7.87 1.63 2.27 4.09 4.76 7.34 7.48 3.27 2.7 5.81 4.06 7.62 4.06 0.96 0 1.43-0.67 1.43-1.99 0-0.93-0.27-1.45-0.81-1.56-3.46-1.18-6.7-3.32-9.72-6.44 0.58-0.05 1.06-0.2 1.43-0.45 0.38-0.26 1.15-0.82 2.34-1.68 1.18-0.87 2.43-1.82 3.74-2.88 1.31-1.05 2.04-1.7 2.2-1.95 0.15-0.24 0.23-0.54 0.23-0.91 0-0.49-0.15-0.93-0.45-1.33-0.29-0.4-0.65-0.59-1.06-0.59-0.29 0-0.57 0.1-0.81 0.32-0.25 0.22-1.21 0.97-2.89 2.28-1.68 1.31-3.04 2.34-4.07 3.09-1.04 0.74-1.63 1.31-1.78 1.7-0.15 0.38-0.22 0.67-0.22 0.85-2.16-2.21-3.66-3.92-4.52-5.16-0.05-0.38-0.02-0.82 0.08-1.31 1.74-0.05 3.19-0.07 4.34-0.07l4.12 0.07c0.89 0 1.67-0.17 2.32-0.53 0.66-0.35 1.17-0.82 1.54-1.42 0.35-0.59 0.56-1.31 0.61-2.15 0.05-0.85 0.08-1.74 0.1-2.68l3.23-0.1c0.84 0 1.26-0.57 1.26-1.73 0-1.26-0.4-1.89-1.21-1.89zm29.12 6.42c-0.98 0.02-1.48-0.56-1.48-1.73l0-4.19 5.6 0 0 4.14c0 1.16-0.46 1.73-1.38 1.73l-2.74 0.05zm-1.48-12.98c0-0.56 0.09-0.94 0.26-1.16 0.16-0.21 0.56-0.32 1.17-0.32l2.57 0c0.67 0 1.11 0.1 1.31 0.31 0.19 0.21 0.29 0.65 0.29 1.32l0 3.83-5.6 0 0-3.98zm13.82 5.36c-1.6 3.2-2.92 5.59-3.95 7.15-0.38 0.13-0.62 0.26-0.74 0.4l-0.28 0.25-0.04-12.32 5.01 4.52zm9.33 26.04c-5.77-1.83-11.52-5.07-17.28-9.69 2.37 0.05 4.77 0.07 7.18 0.07 6.04 0 9.26-0.07 9.68-0.22 0.41-0.15 0.62-0.58 0.62-1.3 0-1.09-0.56-1.64-1.66-1.64l-17.52 0 0-2.75 2.37 0c0.49 0 1-0.27 1.53-0.79 0.3-0.3 0.49-0.63 0.61-0.98 0.05 0.27 0.08 0.53 0.23 0.8 0.21 0.4 0.45 0.59 0.71 0.59l0.2-0.05 9.97-1.1c0.94 2.14 1.48 3.28 1.62 3.42 0.14 0.15 0.32 0.23 0.55 0.23 0.4 0 0.78-0.18 1.16-0.54 0.38-0.34 0.57-0.75 0.57-1.19 0-0.24-0.52-1.63-1.56-4.14-1.05-2.52-1.82-4.17-2.29-4.98-0.48-0.79-0.97-1.19-1.48-1.19-0.39 0-0.75 0.15-1.05 0.46-0.3 0.3-0.45 0.65-0.45 1.07 0 0.23 0.04 0.46 0.15 0.68l1.4 3.41c-2.08 0.3-3.66 0.48-4.73 0.55 1.83-3.2 3.48-6.51 4.94-9.95 1.46-3.43 2.18-5.24 2.18-5.43 0-0.37-0.21-0.73-0.63-1.07-0.42-0.33-0.85-0.5-1.29-0.5-0.5 0-0.82 0.21-0.97 0.64-1.14 2.99-2.07 5.21-2.76 6.66l-2.05-1.93c2.18-5.8 3.25-8.97 3.25-9.49 0-0.3-0.18-0.56-0.57-0.8-0.39-0.24-0.81-0.36-1.27-0.36-0.59 0-0.95 0.2-1.09 0.62-1.05 3.45-2.01 6.1-2.88 7.96-0.25-0.1-0.47-0.15-0.67-0.15-0.41 0-0.77 0.21-1.06 0.62l0.04-1.43c0-1.52-1.54-2.2-4.63-2.07 0.16-2.49 0.24-3.89 0.24-4.22 0-0.95-0.47-1.42-1.43-1.42-0.43 0-0.79 0.13-1.1 0.42-0.32 0.29-0.49 0.72-0.51 1.29-0.03 0.58-0.12 1.89-0.29 3.93-0.52-0.05-0.98-0.08-1.36-0.08-2.07 0-3.11 0.94-3.11 2.82l0.06 15.24c0.02 0.51 0.28 1.06 0.79 1.63 0.51 0.58 1.42 0.87 2.73 0.87 0.23 0 0.48-0.02 0.74-0.05l-0.02 2.75c-5.21-0.05-9.08-0.07-11.6-0.07-2.83 0-4.46 0.02-4.9 0.04-0.46 0.03-0.81 0.19-1.09 0.51-0.28 0.31-0.42 0.67-0.42 1.08 0 0.96 0.52 1.46 1.55 1.53l15.62 0c-2.09 2.08-5.4 4.37-9.92 6.86-4.52 2.48-7.04 3.93-7.56 4.34-0.52 0.41-0.78 0.86-0.78 1.36 0 0.88 0.53 1.3 1.58 1.3 0.38 0 1.49-0.43 3.33-1.32 1.84-0.9 4.2-2.18 7.06-3.87 2.86-1.68 5.24-3.43 7.13-5.24l0.02 5.55 0 3.46c0.02 0.72 0.17 1.2 0.46 1.41 0.28 0.23 0.64 0.34 1.05 0.34 1.22 0 1.79-0.77 1.71-2.31-0.06-1.54-0.08-4.71-0.03-9.51 4.53 3.67 8.42 6.27 11.69 7.81 3.26 1.53 5.34 2.31 6.23 2.31 0.52 0 0.99-0.18 1.38-0.51 0.39-0.34 0.59-0.71 0.59-1.1 0-0.51-0.3-0.9-0.91-1.19zm-41.07-18.03c-0.33 0.17-0.49 0.52-0.49 1.06 0 0.43 0.12 0.8 0.38 1.13 0.26 0.32 0.6 0.47 1.02 0.46l11.01-0.87c0.48 1.48 1.13 2.22 1.95 2.22 0.94 0 1.46-0.53 1.58-1.61l-3.04-7.36c-0.24-0.59-0.63-0.87-1.18-0.87-0.41 0-0.79 0.17-1.13 0.49-0.35 0.33-0.52 0.72-0.52 1.19 0 0.29 0.12 0.72 0.39 1.29 0.26 0.57 0.49 1.14 0.67 1.71-1.61 0.28-2.85 0.44-3.73 0.47 1.08-1.66 2.37-4.15 3.9-7.46 1.53-3.32 2.66-5.62 3.38-6.95 0.12-0.21 0.17-0.42 0.17-0.64 0-0.37-0.18-0.7-0.56-0.96-0.36-0.26-0.79-0.39-1.26-0.39-0.72 0-1.23 0.3-1.51 0.89-0.3 0.59-0.75 1.71-1.38 3.35-0.62 1.64-1.04 2.66-1.23 3.06l-1.93-1.83 3.7-10.4 0.05-0.25c0-0.32-0.2-0.63-0.61-0.93-0.42-0.3-0.83-0.45-1.26-0.45-0.33 0-0.57 0.08-0.73 0.21-0.16 0.15-0.66 1.37-1.52 3.66l-2.3 6.01c-0.22-0.2-0.49-0.42-0.86-0.66-0.38-0.24-0.7-0.47-0.97-0.69-0.27-0.21-0.51-0.32-0.7-0.32-0.39 0-0.71 0.17-0.99 0.52-0.28 0.35-0.42 0.71-0.42 1.11 0 0.29 0.07 0.5 0.19 0.62 0.14 0.11 1.08 0.92 2.84 2.41 1.76 1.5 3.11 2.7 4.03 3.61-0.91 1.9-2.21 4.16-3.9 6.78-1.7 0.1-2.71 0.23-3.04 0.39zm76.14 9.59c-4.39-3.74-7.67-8.51-9.85-14.34l0.05 0.06 17.1 0.04c0.58 0 0.87 0.28 0.87 0.82 0 1-0.65 2.84-1.96 5.49-1.31 2.66-3.38 5.3-6.21 7.93zm-11.62-27.06l13.14 0c0.67 0 1 0.35 1 1.06 0 1.16-0.68 3.84-2.03 8.02-2.6 0.05-5.29 0.08-8.06 0.08-2.39 0-3.82-0.03-4.3-0.08 0.24-4.52 0.33-7.55 0.25-9.08zm26.4 36.46c-5.76-2.8-9.81-5.11-12.16-6.91 2.73-2.73 4.93-5.74 6.6-9.04 1.67-3.3 2.5-5.83 2.5-7.58 0-0.97-0.27-1.85-0.83-2.63-0.57-0.78-1.49-1.17-2.77-1.17l-4.25 0.04c1.57-5.13 2.35-8.23 2.35-9.3 0-1.08-0.27-1.92-0.8-2.53-0.54-0.59-1.19-0.89-1.96-0.89l-26.88-0.05c-0.99 0-1.48 0.64-1.48 1.91 0 1.1 0.43 1.64 1.29 1.64l8.77-0.05c0.12 4.98-0.19 9.74-0.93 14.28-0.74 4.54-1.87 8.46-3.38 11.76-1.51 3.31-3.6 6.62-6.27 9.93-0.32 0.37-0.49 0.79-0.49 1.23 0 0.41 0.15 0.81 0.44 1.19 0.3 0.39 0.66 0.58 1.06 0.58 1.45 0 3.52-2.46 6.19-7.4 2.67-4.93 4.49-10.44 5.44-16.53 2.35 5.55 5.69 10.42 10.02 14.61-4.15 3.26-9.35 5.53-15.63 6.81-0.77 0.13-1.15 0.65-1.15 1.58 0 1.23 0.42 1.85 1.26 1.85 0.88 0 2.92-0.43 6.09-1.29 3.18-0.85 6.5-2.58 9.99-5.18 0.96-0.7 1.67-1.19 2.15-1.45 2.26 1.83 4.93 3.56 8.03 5.2 3.1 1.62 4.94 2.45 5.52 2.45 0.47 0 0.88-0.23 1.22-0.67 0.34-0.45 0.51-0.94 0.51-1.48 0-0.48-0.16-0.78-0.45-0.91zm29.63-11.94c-4.91-5.66-7.88-12.23-8.9-19.7l17.59 0c-0.93 7.61-3.82 14.18-8.69 19.7zm19.42-23.43l-18.07 0 0-5.78c0-1.02-0.53-1.55-1.6-1.55-0.98 0-1.52 0.46-1.61 1.36l-0.05 6.07-16.5 0c-0.98 0-1.56 0.09-1.74 0.28-0.19 0.19-0.33 0.43-0.42 0.72-0.09 0.28-0.13 0.59-0.13 0.9 0 1.15 0.39 1.73 1.18 1.73l7.25-0.05c0.95 8.05 4.2 15.55 9.73 22.5-4.4 4.04-10.11 7.12-17.16 9.22-0.54 0.23-0.81 0.76-0.81 1.58 0 1.31 0.55 1.97 1.65 1.97 1.19 0 3.81-0.99 7.86-2.97 4.06-1.98 7.69-4.48 10.88-7.48 3.33 3.18 7.03 5.78 11.08 7.77 4.04 1.98 6.5 2.98 7.37 2.98 0.48 0 0.88-0.22 1.2-0.65 0.32-0.42 0.48-0.9 0.48-1.43 0-0.74-0.29-1.19-0.86-1.35-6.02-1.44-11.62-4.69-16.78-9.77 5.43-6.19 8.66-13.66 9.69-22.42l5.91 0.07c0.65 0 1.17 0 1.54-0.01 0.37-0.01 0.66-0.19 0.87-0.54 0.22-0.36 0.32-0.78 0.32-1.28 0-1.23-0.42-1.85-1.28-1.87zm20.72-7.38c-0.88 0-1.35 0.41-1.4 1.23-1 6.17-2.08 10.63-3.24 13.4-1.14 2.76-2.51 5.02-4.09 6.78-0.48 0.54-0.93 1.02-1.34 1.43-0.43 0.41-0.64 0.9-0.64 1.46 0 0.67 0.2 1.16 0.58 1.48 0.37 0.31 0.75 0.46 1.13 0.46 0.51 0 1.16-0.47 1.95-1.43 0.78-0.95 1.64-2.13 2.56-3.53l0 23.19c0 1.31 0.51 1.95 1.53 1.95 0.44 0 0.84-0.14 1.18-0.43 0.35-0.29 0.53-0.63 0.53-1.02l0-30 1.15-3.58c0.35-1.15 0.65-2.32 0.91-3.53 0.25-1.19 0.48-2.35 0.68-3.48 0.19-1.11 0.29-1.94 0.29-2.48 0-1.27-0.59-1.9-1.78-1.9zm27.82 30c-0.44 0-0.85 0.15-1.19 0.47-0.34 0.33-0.51 0.71-0.51 1.18l0.15 3.13c0 1.91-0.28 3.4-0.83 4.48-0.54 1.07-1.24 1.81-2.09 2.22-0.85 0.4-2.83 0.6-5.9 0.6-2.91 0-4.86-0.65-5.85-1.93-0.99-1.3-1.44-3.22-1.38-5.78 0.07-2.55 0.08-6.08 0.03-10.57 3.03-2.08 5.8-4.1 8.34-6.09 2.53-1.99 4.86-3.99 7-6.01 2.12-2.02 3.26-3.2 3.42-3.55 0.16-0.35 0.24-0.68 0.24-0.98 0-0.47-0.15-0.9-0.43-1.3-0.29-0.38-0.66-0.57-1.1-0.57-0.41 0-0.77 0.19-1.06 0.57-4.97 5-10.44 9.55-16.41 13.63l-0.05 0.05 0.05-18.18c0-1.22-0.5-1.84-1.48-1.84-0.47 0-0.88 0.17-1.23 0.52-0.35 0.34-0.52 0.78-0.52 1.32l0 34.42c0 3.04 0.75 5.44 2.27 7.22 1.5 1.76 4.52 2.65 9.05 2.65 4.44 0 7.42-0.97 8.93-2.9 1.51-1.93 2.27-4.57 2.27-7.91 0-2.22-0.14-3.58-0.44-4.09-0.3-0.51-0.73-0.76-1.28-0.76zm45.59-3.71l0 1.71-12.07 0 0-2.77 11.16 0c0.64 0 0.96 0.35 0.96 1.06l-0.05 0zm0.05 6.72c0 1.01-0.3 1.52-0.91 1.52l-11.15 0.06 0-2.8 12.06 0 0 1.22zm-15.47-16.73l-11.11 0c-0.37 0-0.56-0.36-0.56-1.06 0-0.15 0.02-0.51 0.07-1.07 0.04-0.57 0.34-0.86 0.87-0.86l10.73 0 0 2.99zm3.35-2.99l10.89 0c0.39 0 0.59 0.47 0.59 1.41 0 1.02-0.26 1.53-0.79 1.53l-10.69 0.05 0-2.99zm18.19 14.75l-2.91 0 0.07-2.58c0-1.01-0.32-1.9-0.99-2.69-0.67-0.79-1.46-1.19-2.39-1.19l-12.01 0-0.03-1.6 10.89 0c2.49 0 3.75-1.76 3.75-5.28 0-1.86-0.37-3.14-1.1-3.86-0.74-0.72-1.47-1.08-2.22-1.08l-11.29 0-0.03-1.82c2.52-0.04 5.55-0.05 9.08-0.05 5.2 0 8.27 0.01 9.18 0.05 0.92 0.03 1.38-0.52 1.38-1.68 0-1.22-0.39-1.86-1.18-1.95l-18.43 0c0.04-0.46 0.04-1.24-0.01-2.34-0.06-1.1-0.64-1.65-1.72-1.65-1.1 0-1.66 0.7-1.66 2.12l0.03 1.93-8.04 0-6.97-0.03-3.1 0.03c-0.38 0-0.68 0.16-0.91 0.5-0.22 0.33-0.32 0.75-0.32 1.24 0 1.16 0.41 1.73 1.23 1.73l18.08 0.05 0.03 1.87-9.11-0.07c-1.9 0-3.14 0.1-3.7 0.31-0.56 0.21-1.02 0.66-1.42 1.35-0.38 0.7-0.58 1.9-0.58 3.57 0 3.44 1.18 5.15 3.53 5.15l11.37-0.04-0.09 1.6-14.29-0.05c-0.41 0-0.77 0.19-1.07 0.59-0.31 0.4-0.46 0.91-0.46 1.51 0 0.39 0.15 0.74 0.46 1.02 0.3 0.29 0.69 0.43 1.15 0.43l14.18 0 0 3.01-17.27 0c-0.56 0-0.96 0.19-1.22 0.59-0.26 0.38-0.39 0.75-0.39 1.09 0 1.25 0.46 1.87 1.37 1.87l17.51-0.04 0 3.13-14.62-0.03c-0.98-0.01-1.47 0.64-1.47 1.96 0 1.13 0.41 1.7 1.24 1.7l14.85-0.05 0.03 2.27c0 1.06-0.58 1.6-1.75 1.6-0.82 0-1.86-0.25-3.1-0.75-1.24-0.5-2.13-0.75-2.66-0.75-0.6 0-1.06 0.24-1.37 0.72-0.31 0.48-0.47 0.98-0.47 1.47 0 0.49 0.13 0.87 0.4 1.16 0.25 0.28 1.24 0.68 2.94 1.21 1.7 0.53 3.17 0.79 4.39 0.79 1.52 0 2.76-0.35 3.69-1.04 0.94-0.69 1.39-1.72 1.36-3.1-0.03-1.37-0.04-2.6-0.03-3.68l-0.04 0 5.55-0.03 5.8-0.02c0.83 0 1.54-0.21 2.15-0.61 0.61-0.42 1.08-0.95 1.42-1.58 0.33-0.63 0.5-1.28 0.5-1.96l-0.05-2.47c0.27 0.04 1.22 0.06 2.89 0.06 1.05 0 1.58-0.56 1.58-1.65 0-0.52-0.15-0.97-0.45-1.37-0.3-0.41-0.68-0.6-1.16-0.59zm35.13-19.23l8.32 0c-0.72 3.29-2.03 5.79-3.92 7.52-1.97-1.9-3.44-4.4-4.4-7.52zm15.33 13.39c-4.06-1.25-6.82-2.44-8.27-3.55 2.22-2.35 3.81-5.64 4.76-9.84 0.91 0 1.79 0 2.65 0.02 0.85 0.02 1.28-0.55 1.28-1.7 0-1.32-0.43-1.98-1.28-2l-14.1-0.05c0.24-1.28 0.35-2.29 0.35-3.03 0-1.12-0.62-1.69-1.85-1.69-0.97 0-1.49 0.4-1.56 1.17 0 4.98-1.91 9.09-5.72 12.33-0.35 0.28-0.51 0.64-0.51 1.09 0 0.48 0.16 0.91 0.48 1.28 0.33 0.38 0.72 0.57 1.17 0.57 1.13 0 2.75-1.57 4.86-4.71 1.15 2.64 2.48 4.8 3.99 6.46-1.61 1.09-3.87 2.18-6.81 3.28-0.56 0.25-0.84 0.76-0.84 1.53 0 1.28 0.56 1.93 1.65 1.93 0.63 0 1.86-0.46 3.71-1.39 1.85-0.92 3.54-1.89 5.09-2.91 1.87 1.47 3.93 2.6 6.18 3.4 2.24 0.81 3.62 1.22 4.13 1.22 0.44 0 0.81-0.22 1.11-0.63 0.3-0.42 0.44-0.9 0.44-1.45 0-0.85-0.3-1.3-0.91-1.33zm-24.7 1.14c0 0.79-0.72 2.66-2.14 5.61-0.14 0.34-0.2 0.65-0.2 0.95 0 0.49 0.16 0.9 0.52 1.24 0.34 0.34 0.74 0.51 1.2 0.51 0.64 0 1.22-0.47 1.71-1.42 0.51-0.95 0.98-2.12 1.42-3.52 0.45-1.39 0.67-2.82 0.67-4.29 0-2.62-1.18-3.92-3.55-3.92l-1.95 0.05-1.58-2.67c2.7-1.97 4.6-3.91 5.71-5.83 1.11-1.91 1.67-3.38 1.67-4.4 0-0.73-0.27-1.38-0.78-1.98-0.51-0.58-1.03-0.89-1.52-0.89l-15.74 0.11c-0.35 0.01-0.65 0.2-0.9 0.56-0.26 0.34-0.38 0.74-0.38 1.18 0 0.8 0.38 1.4 1.15 1.81l14.69 0c-1.4 2.71-3.42 4.93-6.05 6.66l-3.87-4.4c-0.25-0.28-0.61-0.44-1.09-0.44-0.44 0-0.84 0.16-1.19 0.49-0.36 0.32-0.54 0.7-0.54 1.15 0 0.46 0.16 0.85 0.46 1.12 0.31 0.28 1.12 1.19 2.45 2.71 1.32 1.52 2.53 3.11 3.61 4.77-1.23 0.05-2.65 0.07-4.22 0.07l-3.26-0.02c-0.97 0-1.57 0.08-1.8 0.26-0.23 0.17-0.41 0.41-0.54 0.7-0.14 0.29-0.2 0.62-0.2 0.97 0 1.1 0.44 1.67 1.33 1.72l7.67-0.05c-1.72 3.87-4.56 7.69-8.51 11.47-0.26 0.28-0.39 0.64-0.39 1.09 0 0.49 0.15 0.93 0.47 1.32 0.31 0.38 0.68 0.58 1.11 0.58 1.41 0 3.97-2.83 7.67-8.47 0.04 1.47 0.06 5.75 0.06 12.85 0 1.06-0.58 1.59-1.71 1.59-1.27 0-2.95-0.46-5.01-1.38l-0.54-0.13c-0.44 0-0.83 0.21-1.15 0.64-0.32 0.43-0.49 0.91-0.49 1.46 0 0.48 0.13 0.84 0.38 1.1 0.24 0.25 1.12 0.6 2.64 1.05 1.52 0.44 2.7 0.66 3.58 0.66 1.61 0 2.94-0.38 3.98-1.15 1.05-0.76 1.57-1.84 1.57-3.24l0.02-19.44c1.74 0 2.75 0.06 3.07 0.16 0.33 0.11 0.49 0.45 0.49 1.03zm22.14 4.83c-0.54-0.64-1.98-0.93-4.28-0.88-2.32 0.06-3.84 0.06-4.56 0.01l0-2.68c0-1.2-0.51-1.8-1.53-1.8-0.46 0-0.87 0.17-1.23 0.52-0.37 0.34-0.55 0.77-0.55 1.28l0.1 2.73-6.4-0.05c-0.98 0-1.47 0.66-1.47 1.96 0 1.11 0.42 1.68 1.28 1.68l6.37 0c-0.53 6.34-4.41 10.25-11.65 11.71-0.46 0.15-0.69 0.61-0.69 1.38 0 1.39 0.6 2.08 1.8 2.08 0.73 0 2.45-0.56 5.17-1.67 2.72-1.11 4.79-2.73 6.19-4.87 1.39-2.14 2.25-5.02 2.56-8.63l5.95 0c0.54 0 0.81 0.46 0.81 1.4 0 3.45-0.06 5.73-0.17 6.83-0.12 1.1-0.51 1.94-1.17 2.52-0.67 0.58-1.57 0.86-2.7 0.86-0.58 0-1.25-0.19-2.02-0.59-0.76-0.39-1.26-0.59-1.51-0.59-0.44 0-0.79 0.22-1.07 0.66-0.3 0.44-0.44 0.97-0.44 1.56 0 0.67 0.21 1.19 0.62 1.55l0 0.06c1.61 0.67 3.16 1.01 4.63 1.01 2.05 0 3.78-0.72 5.21-2.15 1.43-1.44 2.15-4.51 2.15-9.23 0-2.63-0.1-4.24-0.29-4.82-0.2-0.59-0.57-1.19-1.11-1.84zm34.13-6.44l0-2.7 6.41 0c-2.32 1.85-4.22 2.78-5.7 2.78-0.23 0-0.47-0.03-0.71-0.08zm10.11 8.82c0.22 0.21 0.32 0.68 0.32 1.4 0 0.25-0.03 0.82-0.09 1.73l-20.84 0 0-1.34 4.38-2.07 16.23 0.28zm-0.15 10.99l-20.21-0.14c-0.21-0.4-0.31-1.05-0.31-1.98l0.06-2.07 0.04-0.04 20.75 0 0.12 2.39c0 0.94-0.15 1.55-0.45 1.84zm-15.05-36.36l7.73 0 0 4.84-7.73 0 0-4.84zm-3.29 4.84l-6.9-0.1c-0.19-0.29-0.3-0.84-0.3-1.63l0.08-2.36c0-0.5 0.11-0.75 0.32-0.75l6.8 0 0 4.84zm14.35-4.84l7.17 0.05c0.26 0.25 0.38 0.83 0.38 1.73 0 2.04-0.15 3.06-0.44 3.06l-7.11 0 0-4.84zm4.78 10.41l-10.88-0.26 0.05-1.76 13.6-0.12-2.64 2.34-0.13-0.2zm0.9 9.55c2.73-0.01 5.03-0.09 6.93-0.22 0.36-0.44 0.54-0.93 0.54-1.46 0-0.59-0.22-1.15-0.69-1.68l-9.8-0.15c4.38-2.92 7.06-5.29 8.02-7.1-0.3-1.1-0.76-1.73-1.35-1.88 0.9-0.6 1.35-2.01 1.35-4.21l-0.11-3.04c-0.04-0.89-0.19-1.52-0.44-1.93-0.25-0.4-0.6-0.8-1.05-1.2-0.44-0.39-0.81-0.59-1.11-0.59l-29.35-0.05c-0.02 0-0.21 0.02-0.55 0.08-0.34 0.04-0.51 0.07-0.51 0.07-1.6 0.87-2.39 2.43-2.39 4.66 0 0.46 0.04 1.15 0.11 2.07 0.08 0.92 0.12 1.59 0.12 2.01 0 0.56 0.32 1.18 0.96 1.88 0.64 0.7 1.19 1.05 1.63 1.05l12.82 0.22-0.04 1.8-13.85 0c-0.54 0-0.98 0.17-1.32 0.52-0.33 0.34-0.5 0.76-0.5 1.26 0 0.75 0.37 1.33 1.1 1.72l14.57-0.04 0 2.75c-11.95 0-17.99 0.08-18.14 0.23-0.37 0.39-0.54 0.85-0.54 1.38 0 0.71 0.29 1.26 0.89 1.68l17.42 0.17c-6.19 3.23-12.21 5.67-18.07 7.33-0.38 0.36-0.56 0.79-0.56 1.31 0 0.69 0.3 1.27 0.91 1.75 1.94-0.25 4.49-0.91 7.63-2l0.09 6.71c0.04 0.62 0.07 1.23 0.1 1.81 0.04 0.58 0.34 1.21 0.92 1.88 0.58 0.66 1.18 1.05 1.81 1.15 0.64 0.1 1.55 0.14 2.75 0.14l4.42-0.07 5.72 0.05c5.85 0 8.89-0.08 9.16-0.25 0.81-0.51 1.41-1.11 1.81-1.81 0.41-0.7 0.61-2.63 0.61-5.81 0-1.51-0.04-3.21-0.13-5.08-0.08-1.88-0.19-2.94-0.35-3.18-0.16-0.25-0.36-0.54-0.63-0.87-0.26-0.33-0.55-0.62-0.83-0.85-0.29-0.24-0.55-0.36-0.81-0.36l-10.78-0.14 3.16-1.71 8.35 0z"/>
  <path fill="#bbe2ef" d="M280.75 358.84c9.61-4.73 18.33-10.95 25.9-18.39 29.15-137.84-147.88-10.01-210.84 68.69 182.44-136 203.05-110.02 184.94-50.3zm-10.6-139.56c11.19 0 20.26-7.31 20.26-16.33 0-9.03-9.07-16.34-20.26-16.34-11.19 0-20.26 7.31-20.26 16.34 0 9.02 9.07 16.33 20.26 16.33zm51.34 32.27c-18.52 82.19-140.89-92.73-156.01-18.11 6.26-90.06 149.82 84.32 150.03-15.81l0.21-0.32c8.9 22.65 6.5 26.71 5.77 34.24z"/>
  <path fill="#663945" d="M903.49 221.97l0 0 0 0 30.94 17.04 35.35-10.88-0.08-25.61-66.21 19.45zm134.72-31.49l-18.65-25.46-0.3 104.94 18.98-5.83-0.03-73.65zm-160.65 158.38l25.93-8.04 0-53.57-25.93 7 0 54.61zm25.93-108.7l-25.93 7.15 0 13.55 25.93-7.32 0-13.38zm0 15.69l-25.93 7.11 0 13.54 25.93-7.26 0-13.39zm0 15.7l-25.93 7.05 0 13.55 25.93-7.2 0-13.4zm-25.93-41.42l0 15.09 25.93-7.39 0-15.86-25.93 8.16zm223.64 15.81c-0.18-0.59-0.8-0.92-1.38-0.74l-165.39 50.83 0 0.03 0 2.29 166.04-51.03c0.58-0.18 0.91-0.8 0.73-1.38zm-167.86 158.39c-0.45 0-0.87-0.29-1.01-0.74-0.17-0.55 0.14-1.14 0.69-1.31l146.97-45.63c0.55-0.18 1.15 0.14 1.32 0.69 0.17 0.56-0.14 1.15-0.7 1.32l-146.96 45.63c-0.1 0.03-0.21 0.04-0.31 0.04zm1.01-73.07l-76.44 23.69c-0.58 0.18-0.91 0.8-0.72 1.39 0.14 0.47 0.58 0.78 1.05 0.78 0.11 0 0.22-0.02 0.33-0.05l75.78-23.49 0-2.32zm-35.45 62.6c-0.65 1.6-1.6 2.5-3.04 2.94-2.28 0.7-3.42-1.08-3.22-4.37l0.11-1.64c0.21-3.53 1.63-5.81 4.01-6.54 1.23-0.37 2.19 0 2.67 1.15l-1.64 2.09c-0.23-0.49-0.6-0.81-1.24-0.61-1.15 0.35-1.67 1.55-1.79 3.48l-0.07 1.26c-0.12 1.73 0.11 2.95 1.4 2.55 0.61-0.18 1.06-0.63 1.39-1.44l1.42 1.13zm7.42-0.47l-1.99 0.61 0.06-1.01c-0.39 0.92-0.84 1.46-1.9 1.78-1.61 0.5-2.86-0.3-2.64-3.86l0.47-7.53 2.05-0.63-0.45 7.08c-0.12 1.91 0.29 2.42 1.14 2.16 0.94-0.28 1.44-1.29 1.55-2.95l0.44-7.11 2.03-0.62-0.76 12.08zm2.39-17.08l2.05-0.63-0.76 12.11c-0.08 1.3 0.14 1.83 1 1.57l-0.16 2.65c-2.16 0.66-3.12 0.12-2.93-2.9l0.8-12.8zm3.04 3.57l1.03-0.31 0.16-2.66 2.03-0.62-0.17 2.66 1.57-0.48-0.16 2.61-1.57 0.48-0.32 5.05c-0.07 1.21 0.06 1.66 0.81 1.43l0.65-0.2-0.17 2.71-0.86 0.26c-1.93 0.59-2.68 0.02-2.48-3.1l0.34-5.53-1.02 0.31 0.16-2.61zm11.55 8.32l-2 0.61 0.07-1.02c-0.39 0.93-0.85 1.47-1.9 1.79-1.62 0.5-2.87-0.31-2.64-3.86l0.47-7.53 2.04-0.63-0.44 7.08c-0.12 1.91 0.29 2.42 1.13 2.16 0.95-0.29 1.45-1.29 1.55-2.96l0.45-7.1 2.02-0.62-0.75 12.08zm6.24-10.46c-0.18-0.4-0.44-0.77-0.96-0.61-0.76 0.23-1.32 1.23-1.43 2.93l-0.44 7.1-2.05 0.62 0.76-12.08 1.99-0.61-0.06 1.02c0.31-0.69 0.88-1.48 1.82-1.77 0.96-0.29 1.64 0.12 2.04 1.23l-1.67 2.17zm3.78 0.07l2.5-0.76c0.05-1.56-0.32-2.08-1.09-1.85-0.81 0.25-1.25 1.21-1.41 2.61zm4.08 4.28c-0.65 1.64-1.61 2.5-3.05 2.94-2.39 0.73-3.4-1.26-3.2-4.37l0.1-1.65c0.23-3.64 1.55-5.78 3.63-6.41 2.25-0.69 3.16 0.97 2.94 4.64l-0.09 1.38-4.55 1.39c-0.09 1.67 0.19 2.77 1.32 2.42 0.84-0.26 1.14-0.73 1.49-1.47l1.41 1.13zm3.26 1.89l-2.35 3.47 0.48-7.69 2.17-0.66-0.3 4.88zm9.47-12.49c-0.31-0.52-0.64-0.75-1.5-0.49-0.53 0.16-1.02 0.55-1.07 1.25-0.04 0.73 0.37 0.86 1.21 0.79 1.93-0.14 2.85 0.69 2.7 3.09-0.14 2.31-1.3 4.07-3.36 4.7-1.63 0.5-2.59 0.19-3.19-1l1.68-2.17c0.27 0.56 0.65 0.82 1.64 0.52 0.7-0.22 1.16-0.71 1.2-1.34 0.04-0.75-0.29-0.88-1.28-0.81-1.64 0.09-2.79-0.6-2.63-3.04 0.14-2.29 1.31-4.05 3.31-4.66 1.31-0.4 2.37-0.28 2.9 1.08l-1.61 2.08zm7.32 0.93l0.08-1.25c0.13-1.93-0.21-2.88-1.21-2.57-0.98 0.3-1.49 1.4-1.6 3.17l-0.09 1.52c-0.11 1.74 0.08 2.96 1.23 2.61 1.1-0.34 1.49-1.74 1.59-3.48zm2.04-0.43c-0.2 3.14-1.4 5.78-3.46 6.41-0.83 0.26-1.37 0.19-1.71-0.16l-0.32 5.07-2.04 0.63 1.04-16.67 2.04-0.63-0.05 0.81c0.43-0.78 1.03-1.31 1.84-1.56 1.85-0.57 2.98 1 2.76 4.46l-0.1 1.64zm5.72-1.94l0.08-1.25c0.12-1.93-0.23-2.87-1.24-2.56-1 0.31-1.48 1.49-1.6 3.43l-0.08 1.25c-0.11 1.74 0.09 2.96 1.23 2.61 1.11-0.34 1.5-1.74 1.61-3.48zm2.02-0.52c-0.21 3.31-1.38 5.87-3.8 6.61-2.31 0.71-3.31-1.12-3.1-4.5l0.09-1.45c0.23-3.62 1.61-5.89 3.8-6.56 2.22-0.68 3.33 0.83 3.1 4.45l-0.09 1.45zm5.64-5.04c-0.18-0.4-0.43-0.77-0.95-0.61-0.76 0.23-1.33 1.23-1.43 2.93l-0.45 7.09-2.04 0.63 0.76-12.08 1.99-0.61-0.06 1.02c0.31-0.69 0.87-1.48 1.82-1.77 0.96-0.29 1.63 0.12 2.03 1.23l-1.67 2.17zm2.13-3.94l1.02-0.32 0.16-2.65 2.03-0.63-0.16 2.66 1.56-0.48-0.16 2.61-1.57 0.48-0.31 5.05c-0.08 1.21 0.05 1.67 0.8 1.44l0.65-0.2-0.17 2.7-0.86 0.27c-1.93 0.59-2.68 0.01-2.48-3.1l0.34-5.54-1.02 0.31 0.17-2.6zm9.91 0.31c-0.31-0.53-0.64-0.75-1.51-0.49-0.52 0.16-1.02 0.55-1.06 1.25-0.05 0.72 0.37 0.86 1.2 0.79 1.94-0.14 2.86 0.69 2.71 3.08-0.15 2.32-1.31 4.07-3.37 4.7-1.63 0.5-2.58 0.2-3.18-0.99l1.68-2.17c0.27 0.56 0.64 0.82 1.64 0.52 0.7-0.22 1.15-0.71 1.19-1.34 0.05-0.75-0.28-0.88-1.28-0.82-1.63 0.1-2.78-0.59-2.63-3.03 0.15-2.3 1.32-4.05 3.32-4.66 1.31-0.4 2.36-0.28 2.89 1.08l-1.6 2.08zm9.65 0.67l-1.34 0.41c-0.83 0.25-1.22 0.78-1.28 1.72-0.06 0.92 0.38 1.21 1.08 0.99 0.93-0.28 1.41-1.02 1.51-2.66l0.03-0.46zm-1.43-1.79l1.57-0.48 0.05-0.7c0.08-1.36-0.16-1.71-1.31-1.36-0.78 0.25-1.18 0.53-1.56 1.43l-1.34-1.09c0.68-1.65 1.61-2.45 3.25-2.96 2.06-0.63 3.17-0.06 2.95 3.39l-0.49 7.93-2 0.6 0.07-1.06c-0.37 0.92-0.88 1.53-1.81 1.81-1.66 0.51-2.73-0.47-2.57-2.93 0.16-2.56 1.51-4.07 3.19-4.58zm5.22-6.33l1.99-0.62-0.06 1.02c0.34-0.7 1.02-1.52 1.91-1.8 1.61-0.49 2.85 0.28 2.63 3.85l-0.47 7.56-2.03 0.62 0.44-7.08c0.12-1.88-0.28-2.42-1.12-2.17-0.94 0.29-1.46 1.38-1.56 2.97l-0.45 7.1-2.04 0.63 0.76-12.08zm12.29 2.75l0.1-1.52c0.1-1.76-0.3-2.59-1.25-2.29-1.01 0.3-1.5 1.49-1.62 3.43l-0.07 1.25c-0.11 1.74 0.13 2.95 1.23 2.61 1.15-0.35 1.5-1.74 1.61-3.48zm0.7-11.23l2.03-0.62-1.04 16.67-2.03 0.62 0.04-0.7c-0.45 0.7-1.01 1.21-1.76 1.44-2.09 0.64-3.02-1.28-2.82-4.49l0.1-1.65c0.22-3.53 1.6-5.79 3.5-6.38 0.69-0.2 1.25-0.12 1.66 0.33l0.32-5.22zm5.51 2.82l1.03-0.31 0.16-2.66 2.03-0.62-0.17 2.65 1.57-0.47-0.16 2.6-1.57 0.48-0.32 5.05c-0.07 1.21 0.06 1.67 0.81 1.44l0.65-0.2-0.17 2.71-0.86 0.26c-1.93 0.59-2.68 0.01-2.48-3.1l0.34-5.54-1.02 0.32 0.16-2.61zm9.77 3.53l0.08-1.26c0.12-1.93-0.23-2.87-1.24-2.56-1 0.31-1.48 1.5-1.6 3.43l-0.08 1.26c-0.11 1.74 0.09 2.95 1.23 2.61 1.11-0.35 1.5-1.74 1.61-3.48zm2.02-0.52c-0.21 3.31-1.38 5.87-3.8 6.61-2.31 0.7-3.31-1.13-3.1-4.5l0.09-1.46c0.23-3.62 1.61-5.89 3.8-6.56 2.22-0.68 3.33 0.83 3.1 4.46l-0.09 1.45zm7.48 2.94l-1.99 0.61 0.06-1.01c-0.39 0.92-0.84 1.46-1.9 1.79-1.61 0.49-2.86-0.31-2.64-3.86l0.47-7.54 2.05-0.63-0.45 7.08c-0.11 1.91 0.29 2.43 1.14 2.17 0.94-0.29 1.44-1.3 1.55-2.96l0.44-7.11 2.03-0.62-0.76 12.08zm6.24-10.46c-0.18-0.39-0.44-0.76-0.95-0.61-0.77 0.24-1.33 1.24-1.43 2.93l-0.45 7.1-2.05 0.62 0.76-12.07 2-0.61-0.06 1.01c0.3-0.68 0.87-1.48 1.81-1.76 0.96-0.3 1.64 0.11 2.04 1.22l-1.67 2.17zm2.73-8.63l2.21-0.67-0.19 2.99-2.2 0.68 0.18-3zm-0.21 4.57l2.05-0.63-0.76 12.08-2.04 0.62 0.75-12.07zm7.63 1.01c-0.31-0.53-0.64-0.75-1.5-0.49-0.53 0.16-1.02 0.55-1.07 1.25-0.04 0.72 0.37 0.86 1.21 0.79 1.94-0.14 2.85 0.69 2.7 3.08-0.14 2.32-1.3 4.07-3.36 4.7-1.63 0.5-2.58 0.2-3.18-0.99l1.67-2.17c0.28 0.55 0.65 0.82 1.64 0.52 0.71-0.22 1.16-0.71 1.2-1.34 0.05-0.75-0.29-0.88-1.28-0.82-1.64 0.1-2.78-0.59-2.63-3.03 0.14-2.3 1.32-4.05 3.31-4.66 1.32-0.4 2.37-0.28 2.9 1.08l-1.61 2.08zm8.66 5.85l-2.02 0.62 0.44-7.08c0.12-1.92-0.34-2.4-1.05-2.18-0.74 0.22-1.32 1.2-1.42 2.92l-0.45 7.1-2.05 0.62 0.76-12.07 2-0.61-0.06 1.01c0.34-0.72 0.95-1.5 1.85-1.77 0.95-0.29 1.7 0.02 2.13 0.93 0.57-1.1 1.4-2.01 2.4-2.32 1.74-0.53 2.67 0.75 2.47 3.89l-0.47 7.56-2.05 0.62 0.44-7.07c0.12-1.81-0.25-2.43-1.07-2.18-0.73 0.22-1.29 1.2-1.4 2.91l-0.45 7.1zm14.08-9.63l0.08-1.26c0.12-1.93-0.21-2.87-1.22-2.56-0.97 0.3-1.48 1.4-1.59 3.16l-0.09 1.52c-0.12 1.74 0.07 2.96 1.22 2.61 1.1-0.33 1.49-1.73 1.6-3.47zm2.03-0.43c-0.2 3.14-1.39 5.78-3.45 6.41-0.83 0.25-1.38 0.18-1.72-0.16l-0.31 5.07-2.05 0.62 1.05-16.67 2.04-0.62-0.05 0.8c0.42-0.77 1.02-1.31 1.84-1.56 1.85-0.57 2.97 1.01 2.75 4.46l-0.1 1.65zm5.64-5.14c-0.17-0.4-0.43-0.77-0.95-0.61-0.76 0.23-1.32 1.24-1.43 2.93l-0.45 7.1-2.04 0.62 0.76-12.07 1.99-0.62-0.06 1.02c0.31-0.69 0.88-1.48 1.82-1.77 0.96-0.29 1.63 0.12 2.03 1.23l-1.67 2.17zm6.47 1.24l0.08-1.25c0.12-1.93-0.23-2.87-1.23-2.56-1.01 0.3-1.49 1.49-1.61 3.43l-0.08 1.25c-0.11 1.74 0.1 2.96 1.23 2.61 1.12-0.34 1.51-1.74 1.61-3.48zm2.03-0.52c-0.21 3.31-1.39 5.87-3.8 6.61-2.32 0.71-3.31-1.12-3.1-4.5l0.09-1.45c0.23-3.62 1.61-5.9 3.79-6.56 2.22-0.68 3.33 0.83 3.11 4.45l-0.09 1.45zm5.7-1.58l0.1-1.52c0.12-1.93-0.23-2.87-1.23-2.56-1.01 0.31-1.49 1.5-1.62 3.43l-0.07 1.26c-0.11 1.73 0.13 2.94 1.23 2.61 1.08-0.34 1.49-1.62 1.59-3.22zm0.44-6.91l2.02-0.62-0.74 11.84c-0.25 4.03-1.81 5.43-3.82 6.05-1.49 0.45-2.4 0.21-3-1.22l1.47-1.91c0.31 0.61 0.75 0.84 1.5 0.61 1.21-0.37 1.71-1.05 1.82-2.91l0.03-0.39c-0.47 0.69-1.05 1.15-1.76 1.37-2.09 0.64-3.02-1.28-2.82-4.49l0.1-1.64c0.22-3.53 1.6-5.8 3.5-6.38 0.72-0.22 1.26-0.1 1.65 0.32l0.05-0.63zm7.5 1c-0.18-0.39-0.43-0.77-0.95-0.61-0.76 0.24-1.33 1.24-1.43 2.93l-0.45 7.1-2.04 0.62 0.76-12.07 1.99-0.61-0.06 1.01c0.31-0.69 0.88-1.48 1.82-1.76 0.96-0.3 1.64 0.11 2.03 1.22l-1.67 2.17zm6.22 1.77l-1.34 0.41c-0.83 0.26-1.23 0.78-1.28 1.72-0.06 0.92 0.38 1.21 1.08 1 0.92-0.29 1.41-1.03 1.51-2.67l0.03-0.46zm-1.44-1.79l1.58-0.48 0.05-0.7c0.08-1.35-0.16-1.7-1.31-1.35-0.79 0.24-1.18 0.52-1.57 1.42l-1.34-1.08c0.68-1.65 1.61-2.46 3.26-2.96 2.06-0.63 3.17-0.07 2.95 3.38l-0.5 7.93-1.99 0.61 0.06-1.07c-0.37 0.93-0.87 1.53-1.8 1.81-1.66 0.51-2.73-0.46-2.57-2.93 0.16-2.56 1.5-4.06 3.18-4.58zm11.02 3.75l-2.03 0.62 0.44-7.08c0.12-1.93-0.34-2.41-1.06-2.19-0.73 0.22-1.31 1.2-1.41 2.92l-0.45 7.1-2.04 0.63 0.75-12.08 2-0.61-0.06 1.01c0.34-0.72 0.95-1.5 1.85-1.77 0.96-0.29 1.7 0.02 2.13 0.94 0.57-1.1 1.4-2.02 2.4-2.33 1.74-0.53 2.66 0.75 2.47 3.89l-0.47 7.56-2.05 0.63 0.44-7.08c0.12-1.81-0.25-2.43-1.06-2.18-0.74 0.22-1.3 1.2-1.41 2.92l-0.44 7.1zm12.42-3.8l-2.03 0.62 0.44-7.08c0.12-1.93-0.33-2.41-1.05-2.19-0.73 0.23-1.31 1.21-1.42 2.92l-0.44 7.1-2.05 0.63 0.76-12.08 2-0.61-0.07 1.02c0.34-0.73 0.96-1.5 1.85-1.78 0.96-0.29 1.71 0.02 2.14 0.94 0.57-1.1 1.39-2.02 2.4-2.33 1.74-0.53 2.66 0.75 2.46 3.89l-0.47 7.56-2.04 0.63 0.44-7.08c0.11-1.81-0.26-2.43-1.07-2.18-0.74 0.22-1.3 1.2-1.4 2.92l-0.45 7.1zm8.11-9.8l2.5-0.77c0.06-1.55-0.32-2.08-1.09-1.85-0.81 0.25-1.25 1.22-1.41 2.62zm4.08 4.27c-0.65 1.64-1.61 2.51-3.05 2.94-2.39 0.74-3.4-1.25-3.2-4.37l0.1-1.64c0.23-3.65 1.55-5.79 3.63-6.42 2.25-0.69 3.17 0.98 2.94 4.65l-0.09 1.37-4.55 1.39c-0.09 1.67 0.19 2.77 1.32 2.42 0.85-0.26 1.14-0.73 1.49-1.47l1.41 1.13zm-135.1-17.52l-7.78 2.34-0.05 5.43 3.89 3.08 3.89-5.42 0.05-5.43zm6.58-1.97l-3.45 1.03-0.06 6.3c-0.01 0.58-0.24 1.39-0.58 1.85l-4.13 5.62 8.29 6.52c0.13 0.1-0.02 0.49-0.17 0.54l-4.01 1.2c-0.17 0.06-0.49 0.02-0.61-0.07l-5.98-4.77-6.4 8.49c-0.12 0.17-0.44 0.39-0.61 0.44l-3.82 1.15c-0.14 0.05-0.28-0.27-0.16-0.43l8.7-11.64-3.87-3.05c-0.6-0.49-0.7-1.08-0.69-2.08l0.06-5.85-3.42 1.03c-0.15 0.05-0.29-0.07-0.29-0.23l0.02-1.81c0-0.19 0.15-0.49 0.3-0.54l8.53-2.57-0.72-3.19c-0.05-0.15 0.12-0.42 0.24-0.46l2.94-0.88c0.12-0.04 0.34 0.09 0.39 0.27l0.72 3.19 8.78-2.64c0.17-0.05 0.34 0.06 0.34 0.25l-0.02 1.78c0 0.23-0.17 0.5-0.32 0.55zm21.61-9.14l-1.18 0.35-0.02 2.3 1.17-0.36 0.03-2.29zm-0.05 4.33l-1.17 0.35-0.03 2.45 1.18-0.35 0.02-2.45zm-3.06-3.4l-1.2 0.37-0.02 2.29 1.2-0.36 0.02-2.3zm-0.04 4.33l-1.2 0.36-0.02 2.46 1.19-0.36 0.03-2.46zm1.5 10.85l-4.5 1.35-0.02 1.4 4.5-1.36 0.02-1.39zm-4.59-14.23l-1.2 0.35-0.02 2.3 1.2-0.36 0.02-2.29zm-0.04 4.32l-1.2 0.36-0.03 2.46 1.2-0.36 0.03-2.46zm7.26 12.08c-0.2 0.38-0.54 0.68-0.96 0.81l-7.8 2.34c-0.44 0.13-0.76 0.07-0.97-0.09-0.27-0.18-0.44-0.45-0.43-1.06l0.02-2.36c0.01-0.46 0.13-0.88 0.33-1.23 0.25-0.39 0.62-0.7 1.01-0.82l7.9-2.37c0.37-0.11 0.7-0.02 0.95 0.23 0.21 0.23 0.33 0.58 0.33 1.03l-0.02 2.13c-0.01 0.52-0.14 1-0.36 1.39zm0.43-10.36c-0.28 0.43-0.63 0.76-0.99 0.87l-8.37 2.51c-0.41 0.13-0.83-0.03-1.11-0.33-0.27-0.28-0.44-0.68-0.43-1.13l0.07-7.24c0.01-0.48 0.23-1 0.55-1.45 0.33-0.48 0.72-0.86 1.11-0.97l1.05-0.32 0.01-1.26c0.01-0.2 0.18-0.41 0.35-0.46l1.81-0.54c0.12-0.04 0.27 0.08 0.26 0.27l-0.01 1.26 1.2-0.36 0.01-1.13c0-0.19 0.15-0.53 0.28-0.56l1.88-0.57c0.12-0.04 0.27 0.21 0.27 0.4l-0.02 1.13 1.08-0.32c0.37-0.11 0.73 0.01 1.02 0.24 0.34 0.28 0.55 0.73 0.55 1.32l-0.07 7c-0.01 0.62-0.21 1.16-0.5 1.64zm0.47 3.88l-11.52 3.46c-0.15 0.05-0.32-0.06-0.32-0.23l0.02-1.61c0-0.19 0.17-0.37 0.32-0.42l11.52-3.46c0.17-0.05 0.34 0.06 0.34 0.25l-0.02 1.55c0 0.23-0.2 0.41-0.34 0.46zm0.07 12.09l-11.84 3.55c-0.15 0.05-0.31-0.06-0.31-0.22l0.01-1.62c0.01-0.19 0.18-0.37 0.32-0.42l2.18-0.65-0.56-1.86c-0.05-0.15 0.12-0.46 0.24-0.49l2.59-0.78c0.13-0.04 0.32 0.13 0.37 0.31l0.56 1.85 1.47-0.44 0.61-2.21c0.05-0.2 0.22-0.48 0.37-0.53l2.59-0.78c0.13-0.04 0.29 0.17 0.24 0.35l-0.61 2.21 1.79-0.54c0.17-0.05 0.34 0.06 0.34 0.26l-0.02 1.51c0 0.23-0.19 0.45-0.34 0.5zm-15.16-17.57l-0.9 0.27-0.03 2.39 0.91-0.27 0.02-2.39zm-0.26 8.61l-2.42 0.73-0.02 2.29 2.42-0.72 0.02-2.3zm-0.04 4.33l-2.42 0.73-0.03 2.42 2.42-0.73 0.03-2.42zm0.34-16.78l-2.93 0.88-0.07 6.23 0.74-0.22 0.03-3c0-0.39 0.03-0.75 0.18-1.02 0.17-0.35 0.44-0.55 0.81-0.67l1.22-0.36 0.02-1.84zm0.36 8.1l-3.77 1.13-0.02 2.07 3.77-1.13 0.02-2.07zm2.66 2.1l-0.88 0.26c0.24 0.25 0.31 0.49 0.3 0.84l-0.12 11.92c0 0.49-0.15 1.01-0.4 1.48-0.28 0.47-0.67 0.88-1.08 1l-2.3 0.69c-0.15 0.04-0.27-0.08-0.3-0.24l-0.32-1.18c-0.05-0.18 0.08-0.41 0.22-0.46l1.44-0.43 0.03-2.84-2.42 0.72-0.04 4.4c-0.01 0.22-0.13 0.49-0.28 0.53l-2.22 0.67c-0.17 0.05-0.27-0.18-0.27-0.37l0.14-13.24c0-0.42 0.08-0.83 0.23-1.27l-0.93 0.28c-0.17 0.06-0.27-0.14-0.26-0.37l0.03-2.97c0-0.32 0.08-0.7 0.23-1 0.17-0.38 0.37-0.66 0.66-0.75l0.07-6.2c0-0.52 0.13-0.97 0.33-1.39 0.25-0.52 0.69-0.95 1.18-1.09l4.86-1.47c0.52-0.15 0.96-0.09 1.22 0.22 0.24 0.25 0.38 0.66 0.38 1.27l-0.07 6.27c0.25-0.08 0.47 0.05 0.64 0.29 0.16 0.17 0.21 0.48 0.21 0.74l-0.03 3.16c0 0.23-0.11 0.48-0.25 0.53zm36.69 3.84l-2.44 0.74c-0.22 0.06-0.34 0.04-0.44-0.13l-5.35-13.23c-0.1-0.2 0.03-0.53 0.25-0.6l2.12-0.63c0.23-0.07 0.54-0.07 0.64 0.19l1 2.44 1.06-3.48c0.05-0.17 0.25-0.46 0.49-0.53l2.01-0.6c0.22-0.07 0.31 0.19 0.23 0.44l-2.37 7.7 2.95 7.26c0.07 0.17 0 0.39-0.15 0.43zm-0.73-18.45c-0.13 0.52-0.4 1.02-0.73 1.38-0.32 0.38-0.71 0.63-1.12 0.75l-5.87 1.77-0.15 14.53 3.42-1.03c0.1-0.03 0.22 0.16 0.2 0.26l-0.76 2.23c-0.05 0.14-0.27 0.37-0.37 0.4l-3.74 1.12c-0.47 0.15-0.91 0.02-1.24-0.3-0.39-0.37-0.63-0.97-0.62-1.68l0.15-14.76c0.01-0.65 0.21-1.29 0.51-1.79 0.35-0.59 0.81-1.02 1.35-1.18l5.57-1.68 0.36-1.46c0.05-0.18 0.27-0.44 0.4-0.48l3.05-0.91c0.15-0.05 0.27 0.14 0.22 0.28l-0.63 2.55zm0.24-4.71l-7.9 2.37-0.74 2.7c-0.07 0.25-0.25 0.47-0.34 0.5l-2.96 0.88c-0.15 0.05-0.22-0.16-0.17-0.33l2.1-7.62c0.08-0.31 0.32-0.58 0.59-0.66l2.62-0.79c0.2-0.06 0.34 0.12 0.24 0.48l-0.56 2.03 7.14-2.14c0.17-0.06 0.32 0.06 0.32 0.35l-0.02 1.65c0 0.29-0.18 0.53-0.32 0.58zm-12.19 4.82l-4.65 1.4-0.04 4.13 3.01-0.9c0.46-0.14 0.83 0.04 1.11 0.37 0.27 0.31 0.44 0.71 0.43 1.13l-0.14 13.95c-0.01 0.58-0.16 1.21-0.48 1.72-0.27 0.44-0.64 0.78-1.21 0.95l-1.66 0.5c-0.2 0.05-0.32 0-0.39-0.18l-0.59-1.52c-0.05-0.15 0.03-0.53 0.2-0.58l1.03-0.31 0.13-13.01-1.47 0.44-0.11 11.3c-0.01 0.55-0.06 1.01-0.26 1.56l-0.93 2.6c-0.13 0.33-0.3 0.48-0.49 0.53l-2.82 0.85c-0.17 0.05-0.26-0.18-0.19-0.4l1.61-4.57 0.18-17.63-1.03 0.31c-0.14 0.04-0.32-0.07-0.31-0.23l0.02-1.94c0-0.19 0.17-0.37 0.32-0.42l2.64-0.79-0.75-2.87c-0.02-0.12 0.08-0.44 0.2-0.48l3.08-0.92c0.15-0.05 0.29 0.01 0.31 0.16l0.88 2.99 2.4-0.72c0.17-0.05 0.33 0.06 0.33 0.25l-0.02 1.88c0 0.22-0.19 0.41-0.34 0.45zm36.13-3.49l-3.89 1.17-0.14 14.34c-0.01 0.23-0.1 0.48-0.25 0.53l-2.59 0.77c-0.17 0.06-0.29-0.16-0.29-0.36l0.15-14.34-3.8 1.14c-0.14 0.05-0.31-0.06-0.31-0.23l0.02-1.93c0-0.2 0.15-0.37 0.29-0.41l3.82-1.15 0.11-10.56c0-0.2 0.12-0.46 0.24-0.5l2.62-0.79c0.13-0.03 0.27 0.15 0.27 0.35l-0.11 10.55 3.87-1.15c0.17-0.06 0.33 0.05 0.33 0.25l-0.02 1.77c0 0.29-0.17 0.51-0.32 0.55zm-14.83 10.81l-3.03 0.91-0.06 5.87 3.03-0.91 0.06-5.87zm2.91-10.67l-8.63 2.6c-0.15 0.04-0.32-0.07-0.32-0.23l0.02-1.87c0-0.2 0.15-0.37 0.3-0.42l8.63-2.59c0.17-0.05 0.34 0.06 0.34 0.25l-0.02 1.71c0 0.3-0.17 0.51-0.32 0.55zm-0.05 4.78l-8.63 2.6c-0.15 0.04-0.32-0.07-0.32-0.23l0.02-1.88c0-0.19 0.15-0.36 0.3-0.4l8.63-2.6c0.17-0.05 0.34 0.06 0.34 0.25l-0.02 1.71c0 0.29-0.17 0.51-0.32 0.55zm-0.18 13c-0.22 0.36-0.52 0.61-0.91 0.72l-6.8 2.05c-0.32 0.1-0.58 0.08-0.78-0.06-0.26-0.21-0.43-0.58-0.43-1.12l0.08-7.63c0.01-0.45 0.16-0.91 0.4-1.31 0.25-0.43 0.6-0.76 0.99-0.88l6.53-1.96c0.39-0.12 0.76 0 1 0.28 0.24 0.28 0.38 0.72 0.37 1.21l-0.07 7.33c-0.01 0.51-0.16 0.98-0.38 1.37zm0.72-22.76l-9.42 2.83c-0.14 0.05-0.31-0.06-0.31-0.22l0.02-1.88c0-0.19 0.15-0.36 0.3-0.4l3.22-0.98-0.66-1.86c-0.1-0.29 0.08-0.67 0.27-0.72l2.45-0.74c0.25-0.08 0.49 0.04 0.58 0.27l0.74 2.04 2.81-0.85c0.17-0.05 0.34 0.06 0.34 0.26l-0.02 1.7c0 0.3-0.18 0.51-0.32 0.55zm34.52 12.07c-0.27 0.43-0.64 0.8-1.01 0.91l-4.04 1.22c-0.09 0.03-0.21-0.04-0.24-0.12l-0.62-1.82c-0.02-0.08 0.06-0.4 0.18-0.43l3.2-0.97 0.26-25.29c0.01-0.26 0.2-0.54 0.42-0.61l2.25-0.67c0.15-0.05 0.34 0.15 0.34 0.38l-0.26 25.87c-0.01 0.48-0.21 1.06-0.48 1.53zm-3.94-3.33l-2.2 0.67c-0.17 0.05-0.27-0.18-0.27-0.37l0.2-19.9c0.01-0.16 0.13-0.43 0.25-0.46l2.23-0.67c0.12-0.04 0.27 0.11 0.27 0.3l-0.21 19.9c0 0.23-0.12 0.49-0.27 0.53zm-6.5-17.94l-1.86 0.56-0.02 1.55 1.86-0.56 0.02-1.55zm-0.03 3.26l-1.86 0.56-0.02 1.49 1.86-0.56 0.02-1.49zm-0.08 12.39l-1.91 0.57-0.01 1.46 1.9-0.58 0.02-1.45zm-0.03 3.07l-1.91 0.57-0.01 1.42 1.9-0.57 0.02-1.42zm-4.86-1.6l-1.88 0.56-0.02 1.46 1.88-0.57 0.02-1.45zm-0.03 3.07l-1.89 0.57-0.01 1.42 1.88-0.57 0.02-1.42zm7.33 0.24c-0.25 0.43-0.61 0.76-1 0.88l-9.91 2.98c-0.39 0.12-0.73-0.07-0.97-0.38-0.22-0.26-0.34-0.68-0.33-1.06l0.04-4.2c0.01-0.49 0.18-0.96 0.45-1.36 0.3-0.41 0.67-0.72 1.06-0.83l9.58-2.89c0.47-0.14 0.91-0.11 1.2 0.22 0.22 0.26 0.33 0.67 0.33 1.32l-0.04 3.94c-0.01 0.49-0.16 0.98-0.41 1.38zm1.12-18.2l-0.79 0.23-0.01 1.1c0 0.54-0.11 1.06-0.33 1.48-0.25 0.53-0.62 0.89-1.11 1.04l-3.11 0.94-0.01 1.49 4.65-1.4c0.17-0.05 0.31 0.06 0.31 0.26l-0.01 0.96c0 0.2-0.15 0.41-0.3 0.45l-4.67 1.4-0.01 1.45 5.18-1.55c0.17-0.05 0.32 0.06 0.32 0.26l-0.01 0.97c0 0.19-0.13 0.39-0.27 0.43l-13.21 3.97c-0.15 0.05-0.32-0.06-0.32-0.22l0.01-1.04c0.01-0.19 0.15-0.37 0.3-0.41l4.92-1.48 0.01-1.45-4.5 1.35c-0.14 0.05-0.31-0.06-0.31-0.23l0.01-1.03c0-0.19 0.15-0.36 0.29-0.41l4.53-1.36 0.01-1.49-4.18 1.26c-0.14 0.05-0.32-0.07-0.32-0.22l0.02-1.07c0-0.2 0.15-0.37 0.29-0.41l4.21-1.27 0.01-1.48-4.91 1.47c-0.15 0.05-0.31-0.06-0.31-0.22l0.01-1.07c0-0.19 0.15-0.37 0.29-0.41l4.95-1.49 0.01-1.55-4.23 1.27c-0.15 0.05-0.32-0.06-0.32-0.22l0.01-1.03c0-0.2 0.15-0.37 0.3-0.42l4.25-1.27 0.02-1.17c0-0.19 0.13-0.42 0.25-0.46l2.56-0.77c0.12-0.04 0.27 0.11 0.27 0.31l-0.01 1.16 2.98-0.9c0.51-0.15 0.91-0.11 1.17 0.17 0.24 0.24 0.36 0.66 0.35 1.27l-0.01 1.33 0.73-0.22c0.17-0.05 0.32 0.06 0.32 0.26l-0.01 1c-0.01 0.19-0.13 0.39-0.27 0.44zm-0.22 21.21l-13.43 4.65c-0.12 0.04-0.32-0.03-0.32-0.19l0.01-1.19c0.01-0.2 0.18-0.45 0.33-0.49l13.38-4.64c0.17-0.04 0.34 0.13 0.34 0.32l-0.01 0.97c0 0.23-0.15 0.53-0.3 0.57z"/>
  <path fill="#a9313e" d="M846.17 354.25c-0.45 0-0.87-0.29-1.01-0.74-0.17-0.56 0.14-1.15 0.69-1.33l23.88-7.38c0.56-0.16 1.15 0.15 1.32 0.7 0.17 0.56-0.14 1.15-0.7 1.32l-23.87 7.38c-0.11 0.03-0.21 0.05-0.31 0.05zm43.01 56.92c-0.48 0-0.91-0.3-1.06-0.78-0.18-0.58 0.14-1.2 0.73-1.38l176.85-54.86c0.58-0.17 1.21 0.15 1.39 0.74 0.18 0.58-0.15 1.2-0.73 1.38l-176.85 54.85c-0.11 0.04-0.23 0.05-0.33 0.05zm159.61-87.85c-0.46 0-0.88-0.29-1.01-0.75-0.17-0.56 0.15-1.14 0.71-1.31l56.92-16.93c0.56-0.17 1.15 0.16 1.31 0.71 0.17 0.56-0.15 1.14-0.71 1.31l-56.92 16.93c-0.1 0.03-0.2 0.04-0.3 0.04zm14.96-71.75c-0.45 0-0.86-0.29-1-0.74-0.18-0.55 0.14-1.15 0.69-1.32l46.67-14.49c0.56-0.17 1.15 0.14 1.32 0.7 0.17 0.55-0.14 1.14-0.69 1.31l-46.68 14.49c-0.1 0.03-0.2 0.05-0.31 0.05zm-87 84.28l1.67-0.51 0.2-3.08 3.3-1.02-0.19 3.09 2.55-0.79-0.18 3.03-2.56 0.78-0.37 5.86c-0.08 1.4 0.14 1.91 1.36 1.54l1.07-0.33-0.19 3.14-1.41 0.43c-3.15 0.97-4.4 0.41-4.17-3.21l0.4-6.42-1.66 0.52 0.18-3.03zm-12.44 3.8l3.26-0.99-0.08 1.17c0.54-0.85 1.63-1.9 3.09-2.34 2.63-0.81 4.68-0.12 4.42 4.03l-0.55 8.78-3.31 1.01 0.52-8.21c0.13-2.19-0.55-2.75-1.9-2.34-1.54 0.47-2.36 1.8-2.47 3.65l-0.52 8.24-3.34 1.02 0.88-14.02zm-9.75 8.23l4.09-1.25c0.03-1.8-0.6-2.35-1.85-1.96-1.32 0.41-2.01 1.58-2.24 3.21zm6.83 4.32c-1.01 1.99-2.57 3.13-4.91 3.84-3.91 1.2-5.62-0.95-5.39-4.56l0.12-1.91c0.26-4.24 2.37-6.89 5.76-7.92 3.67-1.12 5.22 0.66 4.96 4.92l-0.1 1.6-7.43 2.26c-0.1 1.93 0.39 3.16 2.24 2.59 1.38-0.42 1.85-1 2.39-1.91l2.36 1.09zm-19.97 8.2l-3.31 1.01 0.51-8.22c0.14-2.24-0.62-2.72-1.79-2.36-1.2 0.37-2.12 1.58-2.24 3.57l-0.52 8.25-3.34 1.02 0.88-14.02 3.26-1-0.07 1.18c0.54-0.88 1.52-1.87 2.98-2.31 1.56-0.48 2.79-0.23 3.53 0.76 0.9-1.35 2.22-2.52 3.86-3.03 2.85-0.86 4.4 0.48 4.17 4.12l-0.55 8.77-3.34 1.03 0.52-8.22c0.13-2.1-0.49-2.76-1.82-2.35-1.2 0.36-2.09 1.57-2.22 3.56l-0.51 8.24zm-23.17-6.67l3.26-0.99-0.07 1.18c0.54-0.86 1.62-1.9 3.08-2.35 2.63-0.8 4.69-0.12 4.43 4.03l-0.55 8.78-3.31 1.01 0.51-8.21c0.14-2.19-0.54-2.75-1.9-2.33-1.53 0.46-2.36 1.79-2.47 3.64l-0.52 8.24-3.34 1.02 0.88-14.02zm-3.98 5.04c-0.3-0.43-0.74-0.81-1.57-0.56-1.25 0.38-2.15 1.62-2.27 3.58l-0.51 8.24-3.34 1.02 0.88-14.02 3.26-0.99-0.08 1.18c0.49-0.84 1.39-1.83 2.93-2.3 1.56-0.48 2.69-0.11 3.38 1.11l-2.68 2.74zm-16.57 6.5l4.1-1.25c0.03-1.8-0.6-2.35-1.85-1.97-1.33 0.41-2.02 1.58-2.25 3.22zm6.84 4.31c-1.02 2-2.57 3.13-4.92 3.85-3.91 1.19-5.61-0.95-5.39-4.57l0.13-1.91c0.26-4.23 2.37-6.88 5.75-7.92 3.68-1.12 5.23 0.66 4.96 4.92l-0.1 1.6-7.42 2.27c-0.1 1.93 0.38 3.15 2.23 2.59 1.39-0.43 1.86-1.01 2.4-1.92l2.36 1.09zm-10.22-8.53l-5.83 15.53-3.12 0.96-4.18-12.47 3.65-1.12 2.35 8.19 3.45-9.96 3.68-1.13zm-17.31 12.85l0.1-1.45c0.14-2.25-0.47-3.27-2.1-2.77-1.65 0.5-2.4 1.94-2.54 4.19l-0.09 1.45c-0.13 2.02 0.24 3.39 2.09 2.83 1.83-0.56 2.42-2.23 2.54-4.25zm3.3-0.9c-0.23 3.85-2.09 6.97-6.02 8.17-3.78 1.16-5.48-0.8-5.23-4.72l0.1-1.69c0.27-4.2 2.46-7.02 6.03-8.11 3.62-1.11 5.49 0.47 5.23 4.67l-0.11 1.68zm-12.86 0.14l-0.11 1.77c-0.37 5.91-3.09 9.33-7.15 10.58-4.04 1.23-6.72-0.54-6.35-6.45l0.16-2.47c0.39-6.25 3.39-9.7 7.43-10.94 3.78-1.15 5.9 0.45 6.2 4.24l-3.49 1.07c-0.2-1.67-1.09-2.55-2.92-2-2.11 0.65-3.33 2.53-3.56 6.23l-0.17 2.75c-0.23 3.7 0.79 4.9 2.9 4.26 2.06-0.63 2.98-2.26 3.33-4.65l-3.02 0.92 0.21-3.31 6.54-2zm117.53-59.56l-2.51 0.77c-0.22 0.06-0.46-0.04-0.51-0.24l-2.57-8.07c-0.05-0.12 0.14-0.47 0.28-0.51l2.65-0.81c0.16-0.05 0.35 0.03 0.4 0.23l2.56 8.11c0.06 0.19-0.13 0.47-0.3 0.52zm6.26-13.56l-1.32 0.41-0.15 14.82c-0.01 0.75-0.29 1.48-0.7 2.07-0.3 0.41-0.68 0.71-1.08 0.83l-5.2 1.6c-0.19 0.06-0.46-0.04-0.54-0.23l-0.63-1.63c-0.05-0.09 0.06-0.45 0.2-0.49l4.49-1.37 0.14-14.54-7.52 2.3c-0.19 0.06-0.32-0.11-0.32-0.33l0.02-2.07c0-0.22 0.11-0.39 0.27-0.44l7.58-2.33 0.04-3.97c0.01-0.36 0.15-0.65 0.44-0.75l2.57-0.78c0.25-0.08 0.46 0.07 0.46 0.39l-0.04 4.05 1.32-0.41c0.19-0.06 0.35 0.04 0.35 0.33l-0.02 1.93c0 0.32-0.19 0.56-0.36 0.61zm0.21-8.88l-19.03 5.84-0.11 10.7 3.36-9.6c0.11-0.32 0.33-0.63 0.55-0.7l2.89-0.89c0.19-0.06 0.32 0.22 0.24 0.46l-3.64 10.44 1.62-0.5c0.25-0.08 0.46 0.11 0.46 0.47l-0.14 13.35c0 0.36-0.17 0.66-0.41 0.74l-2.57 0.78c-0.3 0.1-0.46-0.1-0.45-0.43l0.13-13.14-2.06 0.63-0.09 8.52c0 0.54-0.03 1.05-0.17 1.6l-1.04 3.63c-0.05 0.23-0.25 0.44-0.41 0.48l-2.98 0.92c-0.16 0.04-0.26-0.13-0.21-0.33l1.34-4.59 0.23-22.06c0-0.53 0.28-1.19 0.66-1.73 0.39-0.59 0.87-1.03 1.39-1.18l7.42-2.27-0.53-1.77c-0.05-0.27 0.09-0.56 0.31-0.63l3.54-1.09c0.17-0.05 0.35 0.04 0.41 0.2l0.54 1.97 8.69-2.66c0.22-0.07 0.43 0.08 0.43 0.3l-0.02 1.97c0 0.25-0.17 0.51-0.35 0.57zm-31.02 11.76l-2.84 0.87-0.1 9.74 1.38 2 1.46-2.87 0.1-9.74zm4.55 22.38l-3.38 1.04c-0.16 0.04-0.44-0.08-0.54-0.27l-2.34-3.39-2.51 4.88c-0.1 0.21-0.38 0.54-0.54 0.59l-3.39 1.04c-0.18 0.06-0.24-0.25-0.12-0.46l4.57-8.97-2.32-3.32c-0.29-0.45-0.34-1.15-0.33-1.86l0.05-5.52-1.92 0.59c-0.16 0.05-0.24-0.17-0.18-0.37l3.9-12.41c0.06-0.16 0.22-0.32 0.36-0.36l2.97-0.91c0.17-0.05 0.33 0.15 0.3 0.3l-1.59 4.99 6.77-2.08c0.19-0.06 0.34 0.07 0.34 0.29l-0.02 2c0 0.22-0.14 0.44-0.3 0.49l-0.92 0.28-0.1 9.74c-0.01 0.72-0.04 1.48-0.37 2.12l-2.48 4.79 4.23 6.24c0.11 0.14 0.05 0.48-0.14 0.54zm-11.48-1.73l-11.99 8.78c-0.13 0.11-0.35-0.04-0.34-0.22l0.02-2.11c0-0.21 0.19-0.41 0.35-0.53l0.57-0.43 0.2-18.76c0-0.22 0.11-0.47 0.27-0.52l2.28-0.69c0.13-0.04 0.29 0.12 0.29 0.34l-0.18 17.54 1.25-0.92 0.23-22.24-4.12 1.27c-0.16 0.05-0.32-0.05-0.32-0.26l0.02-2.15c0-0.22 0.14-0.4 0.3-0.45l11.29-3.46c0.19-0.06 0.35 0.07 0.35 0.39l-0.02 1.83c-0.01 0.32-0.2 0.59-0.36 0.64l-3.68 1.13-0.09 9.06 2.44-0.75c0.18-0.05 0.34 0.08 0.34 0.4l-0.02 1.72c0 0.32-0.19 0.59-0.35 0.64l-2.44 0.75-0.09 8.92 3.81-2.78c0.18-0.16 0.37 0.14 0.37 0.32l-0.02 1.79c0.03 0.24-0.2 0.67-0.36 0.75zm-19.07-27.52l0 0-30.94-8.77 0 53.56 30.86-9.56 0.08-35.2 0-0.02 0-0.01zm-30.94-11.08l30.94 9.25 0-12.14-30.94-10.5 0 13.39zm0-15.7l30.94 10.98 0-12.14-30.94-12.23 0 13.39zm0-15.71l30.94 12.72 0-12.12-30.94-13.98 0 13.38zm30.94-14.53l-30.94-17.04 0 15.87 30.94 14.46 0-13.29zm85.13-73.99l-121.74 36.61-0.2 19.08 80.8-23.87 0 85.66 40.84-12.54 0.3-104.94z"/>
  <path fill="#d29f10" d="M1388.07 224.91l-30.97 0c-28.78 0-51.1 19.55-58.27 51.02-4.31 19.74-18.41 32.05-36.8 32.13l-31.01 0c-2.67 0-4.83 2.16-4.83 4.82l0 11.91c0 2.66 2.16 4.82 4.83 4.82l30.96 0c28.78 0 51.11-19.54 58.27-51.01 4.31-19.75 18.41-32.05 36.81-32.13l31.01 0c2.66 0 4.83-2.16 4.83-4.82l0-11.92c0-2.66-2.17-4.82-4.83-4.82zm0 41.57c-0.02 0-9.78-0.39-18.33-0.39-5.09 0-8.78 0.14-10.98 0.41-10.11 1.25-17.08 6.47-20.17 15.1-0.52 1.47-0.3 3.11 0.61 4.39 0.9 1.28 2.38 2.05 3.94 2.05l44.93 0c2.66 0 4.83-2.17 4.83-4.82l0-11.91c0-2.66-2.17-4.83-4.83-4.83zm-157.06 21.16c0.03 0 9.84 0.39 18.37 0.39 5.07 0 8.75-0.13 10.94-0.4 10.11-1.25 17.09-6.47 20.17-15.1 0.53-1.47 0.3-3.11-0.6-4.4-0.91-1.28-2.38-2.04-3.95-2.04l-44.93 0c-2.66 0-4.82 2.16-4.82 4.82l0 11.91c0 2.66 2.16 4.82 4.82 4.82zm0-41.17l34.35 0c13.61 0 24.67-11.05 24.67-24.64l0-22.97c0-2.67-2.16-4.83-4.83-4.83l-11.92 0c-2.66 0-4.83 2.16-4.83 4.83l0 22.97c0 1.7-1.38 3.09-3.09 3.09l-34.35 0c-2.66 0-4.82 2.16-4.82 4.82l0 11.91c0 2.65 2.16 4.82 4.82 4.82zm157.06 61.59l-34.31 0c-13.6 0-24.67 11.05-24.67 24.64l0 22.97c0 2.66 2.16 4.83 4.83 4.83l11.93 0c2.66 0 4.82-2.17 4.82-4.83l0-22.97c0-1.7 1.39-3.09 3.09-3.09l34.31 0c2.66 0 4.83-2.16 4.83-4.82l0-11.91c0-2.66-2.17-4.82-4.83-4.82zm-48.56-88.13c7.15 0 12.97-5.81 12.97-12.95 0-7.14-5.82-12.95-12.97-12.95-7.15 0-12.97 5.81-12.97 12.95 0 7.14 5.82 12.95 12.97 12.95zm-60.43 114.67c-7.15 0-12.97 5.81-12.97 12.95 0 7.14 5.82 12.95 12.97 12.95 7.15 0 12.97-5.81 12.97-12.95 0-7.14-5.82-12.95-12.97-12.95z"/>
  <path fill="#332c2b" d="M1434.44 244.64l0-24.69c0-0.6 0.3-0.91 0.88-0.91l3.34 0c0.61 0 0.91 0.31 0.91 0.91l0 24.69c0 0.63-0.3 0.94-0.91 0.94l-3.34 0c-0.58 0-0.88-0.31-0.88-0.94zm28.18-12.02l0 12.09c0 0.58-0.27 0.87-0.84 0.87l-3.15 0c-0.59 0-0.88-0.29-0.88-0.87l0-11.19c0-1.33-0.27-2.33-0.82-2.98-0.55-0.65-1.46-0.97-2.73-0.97-1.37 0-2.43 0.4-3.17 1.22-0.75 0.81-1.12 1.93-1.12 3.33l0 10.59c0 0.58-0.28 0.87-0.84 0.87l-3.15 0c-0.57 0-0.85-0.29-0.85-0.87l0-18.12c0-0.58 0.28-0.87 0.85-0.87l2.89 0c0.51 0 0.79 0.25 0.84 0.75l0.19 1.96c1.22-2.11 3.27-3.16 6.15-3.16 2.22 0 3.89 0.64 4.98 1.92 1.11 1.28 1.65 3.09 1.65 5.43zm14.59-2.68l-4.03 0 0 9.16c0 1.08 0.17 1.82 0.51 2.22 0.34 0.4 1.01 0.61 2.02 0.61 0.17 0 0.68-0.07 1.54-0.19 0.24-0.03 0.41 0.02 0.52 0.15 0.12 0.12 0.18 0.32 0.21 0.6l0.22 2.11c0.02 0.43-0.21 0.71-0.7 0.87-0.8 0.27-1.83 0.41-3.08 0.41-2.15 0-3.69-0.47-4.61-1.43-0.93-0.95-1.39-2.56-1.39-4.82l0-9.69-2.02 0c-0.59 0-0.88-0.29-0.88-0.87l0-2.11c0-0.58 0.29-0.87 0.88-0.87l2.09 0 0-4.63c0-0.53 0.28-0.79 0.84-0.79l2.93 0c0.59 0 0.88 0.26 0.88 0.79l0 4.63 4.07 0c0.56 0 0.84 0.29 0.84 0.87l0 2.11c0 0.58-0.28 0.87-0.84 0.87zm16.12 8.14l0-1.62c-1.37 0.05-2.49 0.12-3.37 0.2-0.88 0.1-1.72 0.26-2.51 0.5-0.8 0.24-1.37 0.57-1.74 1.01-0.37 0.44-0.55 1-0.55 1.68 0 0.81 0.28 1.44 0.84 1.93 0.56 0.47 1.36 0.71 2.39 0.71 1.61 0 2.83-0.41 3.68-1.23 0.84-0.81 1.26-1.88 1.26-3.18zm4.73-5.65l0 12.28c0 0.58-0.3 0.87-0.88 0.87l-2.72 0c-0.51 0-0.79-0.24-0.84-0.72l-0.14-2.03c-1.3 2.06-3.52 3.09-6.67 3.09-1.93 0-3.46-0.5-4.58-1.51-1.13-1-1.69-2.42-1.69-4.26 0-1.08 0.21-2.01 0.62-2.81 0.42-0.78 0.97-1.42 1.67-1.88 0.7-0.46 1.61-0.84 2.75-1.13 1.14-0.29 2.3-0.49 3.48-0.6 1.19-0.12 2.61-0.19 4.27-0.21l0-0.87c0-1.18-0.33-2.04-0.99-2.6-0.66-0.55-1.72-0.83-3.18-0.83-1.79 0-3.62 0.38-5.5 1.14-0.51 0.17-0.87 0-1.06-0.53l-0.67-2.08c-0.15-0.45 0.03-0.8 0.52-1.05 2.17-0.96 4.61-1.43 7.33-1.43 5.52 0 8.28 2.38 8.28 7.16zm22.43 0.19l0 12.09c0 0.58-0.28 0.87-0.84 0.87l-3.15 0c-0.6 0-0.89-0.29-0.89-0.87l0-11.19c0-1.33-0.27-2.33-0.82-2.98-0.55-0.65-1.46-0.97-2.73-0.97-1.37 0-2.42 0.4-3.17 1.22-0.74 0.81-1.12 1.93-1.12 3.33l0 10.59c0 0.58-0.28 0.87-0.84 0.87l-3.15 0c-0.57 0-0.85-0.29-0.85-0.87l0-18.12c0-0.58 0.28-0.87 0.85-0.87l2.9 0c0.51 0 0.79 0.25 0.84 0.75l0.18 1.96c1.22-2.11 3.28-3.16 6.15-3.16 2.23 0 3.89 0.64 4.99 1.92 1.1 1.28 1.65 3.09 1.65 5.43zm17.4 1.58c0-3.47-1.41-5.2-4.25-5.2-2.78 0-4.17 1.79-4.17 5.39 0 3.59 1.39 5.39 4.17 5.39 1.35 0 2.39-0.48 3.14-1.43 0.74-0.96 1.11-2.34 1.11-4.15zm4.77-7.61l0 15.64c0 2.59-0.82 4.56-2.44 5.92-1.62 1.35-3.9 2.03-6.83 2.03-2.91 0-5.16-0.39-6.74-1.17-0.5-0.25-0.67-0.59-0.52-1.01l0.62-2.04c0.15-0.56 0.49-0.74 1.03-0.56 1.73 0.62 3.48 0.93 5.24 0.93 1.66 0 2.92-0.37 3.77-1.13 0.86-0.75 1.28-1.82 1.28-3.2l0-1.62c-0.48 0.93-1.23 1.65-2.25 2.17-1.01 0.51-2.14 0.77-3.39 0.77-2.37 0-4.26-0.73-5.68-2.19-1.42-1.46-2.12-3.71-2.12-6.74 0-3.05 0.69-5.32 2.07-6.82 1.38-1.51 3.23-2.27 5.55-2.27 1.27 0 2.43 0.27 3.48 0.82 1.05 0.53 1.82 1.24 2.31 2.12l0.11-1.77c0.05-0.5 0.34-0.75 0.88-0.75l2.78 0c0.57 0 0.85 0.29 0.85 0.87zm10.04 0l0 18.13c0 0.57-0.28 0.86-0.85 0.86l-3.18 0c-0.57 0-0.85-0.29-0.85-0.86l0-18.13c0-0.58 0.28-0.87 0.85-0.87l3.18 0c0.57 0 0.85 0.29 0.85 0.87zm0-6.6l0 2.64c0 0.57-0.27 0.86-0.81 0.86l-3.26 0c-0.54 0-0.81-0.29-0.81-0.86l0-2.64c0-0.58 0.27-0.87 0.81-0.87l3.26 0c0.54 0 0.81 0.29 0.81 0.87zm10.11 15.64c0 4.22 1.58 6.33 4.73 6.33 1.56 0 2.72-0.5 3.48-1.49 0.75-0.99 1.14-2.61 1.14-4.84 0-2.24-0.39-3.85-1.14-4.84-0.76-0.99-1.92-1.49-3.48-1.49-3.15 0-4.73 2.11-4.73 6.33zm-0.14 7.16l-0.12 2.08c-0.04 0.47-0.33 0.71-0.84 0.71l-2.89 0c-0.57 0-0.85-0.29-0.85-0.86l0-24.84c0-0.56 0.28-0.83 0.85-0.83l3.15 0c0.56 0 0.84 0.27 0.84 0.83l0 8.51c0.51-0.98 1.33-1.74 2.46-2.3 1.12-0.55 2.34-0.82 3.66-0.82 2.59 0 4.6 0.87 6.03 2.62 1.43 1.75 2.14 4.32 2.14 7.74 0 3.42-0.71 6-2.14 7.74-1.43 1.75-3.44 2.62-6.03 2.62-1.36 0-2.62-0.27-3.76-0.82-1.13-0.56-1.97-1.35-2.5-2.38zm23.6-22.91l0 24.83c0 0.58-0.28 0.87-0.85 0.87l-3.18 0c-0.54 0-0.81-0.29-0.81-0.87l0-24.83c0-0.56 0.27-0.83 0.81-0.83l3.18 0c0.57 0 0.85 0.27 0.85 0.83zm13.67 9.08c-2.91 0-4.49 1.78-4.73 5.35l9.08 0 0-0.23c0-1.6-0.37-2.86-1.11-3.76-0.75-0.91-1.83-1.36-3.24-1.36zm-2.77 12.08c1.04 0.86 2.4 1.3 4.08 1.3 1.69 0 3.28-0.39 4.81-1.17 0.51-0.25 0.87-0.07 1.09 0.53l0.63 1.77c0.12 0.48-0.07 0.84-0.55 1.09-1.91 0.98-4.04 1.47-6.38 1.47-3.25 0-5.79-0.91-7.6-2.73-1.82-1.82-2.74-4.36-2.74-7.63 0-3.3 0.84-5.85 2.52-7.67 1.67-1.82 3.95-2.73 6.83-2.73 2.81 0 4.99 0.85 6.53 2.58 1.53 1.72 2.3 4.01 2.3 6.87l0 1.85c0 0.61-0.29 0.91-0.88 0.91l-12.49 0c0.19 1.5 0.81 2.69 1.85 3.56zm38.68 0.28c1.66 0 3.15-0.36 4.47-1.09 0.56-0.23 0.98-0.05 1.24 0.52l1.03 2.34c0.17 0.43-0.02 0.8-0.55 1.13-1.76 1.18-4.09 1.77-7 1.77-3.79 0-6.72-1.15-8.82-3.46-2.08-2.31-3.13-5.72-3.13-10.21 0-4.5 1.03-7.92 3.1-10.24 2.07-2.32 4.95-3.49 8.67-3.49 2.81 0 5.12 0.57 6.92 1.7 0.52 0.35 0.69 0.74 0.52 1.17l-0.99 2.3c-0.22 0.58-0.64 0.73-1.25 0.45-1.32-0.63-2.78-0.94-4.4-0.94-2.49 0-4.34 0.74-5.55 2.22-1.21 1.49-1.82 3.76-1.82 6.83 0 3.06 0.63 5.33 1.86 6.8 1.23 1.47 3.13 2.2 5.7 2.2zm10.51-2.52l0-12.22c0-0.57 0.3-0.86 0.88-0.86l3.16 0c0.54 0 0.8 0.29 0.8 0.86l0 11.27c0 1.28 0.26 2.26 0.77 2.93 0.52 0.66 1.39 1 2.64 1 1.32 0 2.37-0.41 3.13-1.21 0.77-0.81 1.16-1.89 1.16-3.24l0-10.75c0-0.57 0.28-0.86 0.84-0.86l3.19 0c0.53 0 0.81 0.29 0.81 0.86l0 18.13c0 0.58-0.28 0.87-0.81 0.87l-2.94 0c-0.53 0-0.82-0.24-0.87-0.72l-0.15-2.03c-1.17 2.11-3.16 3.17-5.97 3.17-4.42 0-6.64-2.41-6.64-7.2zm27.38-18.92l0 24.83c0 0.58-0.28 0.87-0.84 0.87l-3.19 0c-0.54 0-0.81-0.29-0.81-0.87l0-24.83c0-0.56 0.27-0.83 0.81-0.83l3.19 0c0.56 0 0.84 0.27 0.84 0.83zm14.77 10.06l-4.03 0 0 9.16c0 1.08 0.17 1.82 0.51 2.22 0.34 0.4 1.01 0.61 2.02 0.61 0.17 0 0.68-0.07 1.54-0.19 0.24-0.03 0.41 0.02 0.53 0.15 0.11 0.12 0.17 0.32 0.2 0.6l0.22 2.11c0.02 0.43-0.21 0.71-0.7 0.87-0.8 0.27-1.83 0.41-3.08 0.41-2.15 0-3.69-0.47-4.61-1.43-0.93-0.95-1.39-2.56-1.39-4.82l0-9.69-2.02 0c-0.59 0-0.88-0.29-0.88-0.87l0-2.11c0-0.58 0.29-0.87 0.88-0.87l2.09 0 0-4.63c0-0.53 0.28-0.79 0.84-0.79l2.93 0c0.59 0 0.88 0.26 0.88 0.79l0 4.63 4.07 0c0.56 0 0.84 0.29 0.84 0.87l0 2.11c0 0.58-0.28 0.87-0.84 0.87zm4.25 8.86l0-12.22c0-0.57 0.29-0.86 0.88-0.86l3.15 0c0.54 0 0.81 0.29 0.81 0.86l0 11.27c0 1.28 0.25 2.26 0.77 2.93 0.51 0.66 1.39 1 2.63 1 1.32 0 2.37-0.41 3.14-1.21 0.77-0.81 1.15-1.89 1.15-3.24l0-10.75c0-0.57 0.28-0.86 0.84-0.86l3.19 0c0.54 0 0.81 0.29 0.81 0.86l0 18.13c0 0.58-0.27 0.87-0.81 0.87l-2.93 0c-0.54 0-0.83-0.24-0.88-0.72l-0.15-2.03c-1.17 2.11-3.16 3.17-5.97 3.17-4.42 0-6.63-2.41-6.63-7.2zm23.3-13.08l2.9 0c0.53 0 0.83 0.26 0.88 0.79l0.18 2.98c0.42-1.01 1.14-1.91 2.16-2.72 1.03-0.8 2.25-1.2 3.67-1.2 0.27 0 0.46 0.05 0.57 0.15 0.11 0.1 0.16 0.3 0.16 0.6l0 3.5c0 0.46-0.23 0.68-0.7 0.68-0.09 0-0.26-0.01-0.51-0.03-0.24-0.03-0.46-0.04-0.66-0.04-1.34 0-2.46 0.56-3.34 1.68-0.88 1.12-1.31 2.43-1.31 3.94l0 8.67c0 0.57-0.28 0.86-0.85 0.86l-3.15 0c-0.59 0-0.88-0.29-0.88-0.86l0-18.13c0-0.58 0.29-0.87 0.88-0.87zm24.3 12.36l0-1.62c-1.37 0.05-2.49 0.12-3.37 0.2-0.88 0.1-1.72 0.26-2.51 0.5-0.8 0.24-1.38 0.57-1.74 1.01-0.37 0.44-0.55 1-0.55 1.68 0 0.81 0.28 1.44 0.84 1.93 0.56 0.47 1.35 0.71 2.38 0.71 1.61 0 2.84-0.41 3.69-1.23 0.84-0.81 1.26-1.88 1.26-3.18zm4.73-5.65l0 12.28c0 0.58-0.3 0.87-0.88 0.87l-2.72 0c-0.51 0-0.79-0.24-0.84-0.72l-0.15-2.03c-1.29 2.06-3.51 3.09-6.66 3.09-1.93 0-3.46-0.5-4.59-1.51-1.12-1-1.68-2.42-1.68-4.26 0-1.08 0.2-2.01 0.62-2.81 0.42-0.78 0.97-1.42 1.67-1.88 0.69-0.46 1.61-0.84 2.75-1.13 1.14-0.29 2.29-0.49 3.48-0.6 1.18-0.12 2.61-0.19 4.27-0.21l0-0.87c0-1.18-0.33-2.04-0.99-2.6-0.66-0.55-1.72-0.83-3.19-0.83-1.78 0-3.61 0.38-5.49 1.14-0.52 0.17-0.87 0-1.07-0.53l-0.66-2.08c-0.15-0.45 0.03-0.8 0.52-1.05 2.17-0.96 4.61-1.43 7.32-1.43 5.53 0 8.29 2.38 8.29 7.16zm9.82-12.55l0 24.83c0 0.58-0.28 0.87-0.84 0.87l-3.19 0c-0.54 0-0.81-0.29-0.81-0.87l0-24.83c0-0.56 0.27-0.83 0.81-0.83l3.19 0c0.56 0 0.84 0.27 0.84 0.83zm31.59 24.76l0-10.22-10.19 0 0 10.22c0 0.63-0.31 0.94-0.92 0.94l-3.29 0c-0.62 0-0.92-0.31-0.92-0.94l0-24.69c0-0.6 0.3-0.91 0.92-0.91l3.29 0c0.61 0 0.92 0.31 0.92 0.91l0 9.72 10.19 0 0-9.72c0-0.6 0.29-0.91 0.88-0.91l3.33 0c0.59 0 0.88 0.31 0.88 0.91l0 24.69c0 0.63-0.29 0.94-0.88 0.94l-3.33 0c-0.59 0-0.88-0.31-0.88-0.94zm18.98-15.68c-2.91 0-4.48 1.78-4.73 5.35l9.09 0 0-0.23c0-1.6-0.37-2.86-1.12-3.76-0.74-0.91-1.82-1.36-3.24-1.36zm-2.77 12.08c1.04 0.86 2.4 1.3 4.09 1.3 1.69 0 3.28-0.39 4.8-1.17 0.51-0.25 0.88-0.07 1.1 0.53l0.62 1.77c0.12 0.48-0.06 0.84-0.55 1.09-1.9 0.98-4.03 1.47-6.37 1.47-3.26 0-5.79-0.91-7.61-2.73-1.82-1.82-2.73-4.36-2.73-7.63 0-3.3 0.84-5.85 2.51-7.67 1.67-1.82 3.95-2.73 6.84-2.73 2.8 0 4.98 0.85 6.52 2.58 1.54 1.72 2.31 4.01 2.31 6.87l0 1.85c0 0.61-0.3 0.91-0.88 0.91l-12.5 0c0.2 1.5 0.82 2.69 1.85 3.56zm16.59-15.32l2.89 0c0.54 0 0.83 0.26 0.88 0.79l0.18 2.98c0.42-1.01 1.14-1.91 2.16-2.72 1.03-0.8 2.25-1.2 3.67-1.2 0.27 0 0.46 0.05 0.57 0.15 0.11 0.1 0.16 0.3 0.16 0.6l0 3.5c0 0.46-0.23 0.68-0.7 0.68-0.09 0-0.26-0.01-0.51-0.03-0.24-0.03-0.46-0.04-0.66-0.04-1.34 0-2.46 0.56-3.34 1.68-0.87 1.12-1.31 2.43-1.31 3.94l0 8.67c0 0.57-0.28 0.86-0.84 0.86l-3.15 0c-0.6 0-0.89-0.29-0.89-0.86l0-18.13c0-0.58 0.29-0.87 0.89-0.87zm19.08 0.87l0 18.13c0 0.57-0.28 0.86-0.84 0.86l-3.19 0c-0.56 0-0.84-0.29-0.84-0.86l0-18.13c0-0.58 0.28-0.87 0.84-0.87l3.19 0c0.56 0 0.84 0.29 0.84 0.87zm0-6.6l0 2.64c0 0.57-0.26 0.86-0.8 0.86l-3.26 0c-0.54 0-0.81-0.29-0.81-0.86l0-2.64c0-0.58 0.27-0.87 0.81-0.87l3.26 0c0.54 0 0.8 0.29 0.8 0.87zm14.81 9.95l-4.03 0 0 9.16c0 1.08 0.17 1.82 0.51 2.22 0.34 0.4 1.01 0.61 2.02 0.61 0.17 0 0.69-0.07 1.54-0.19 0.24-0.03 0.42 0.02 0.53 0.15 0.11 0.12 0.18 0.32 0.2 0.6l0.22 2.11c0.03 0.43-0.21 0.71-0.7 0.87-0.8 0.27-1.82 0.41-3.08 0.41-2.15 0-3.68-0.47-4.61-1.43-0.93-0.95-1.39-2.56-1.39-4.82l0-9.69-2.02 0c-0.58 0-0.88-0.29-0.88-0.87l0-2.11c0-0.58 0.3-0.87 0.88-0.87l2.09 0 0-4.63c0-0.53 0.28-0.79 0.84-0.79l2.94 0c0.58 0 0.87 0.26 0.87 0.79l0 4.63 4.07 0c0.57 0 0.84 0.29 0.84 0.87l0 2.11c0 0.58-0.27 0.87-0.84 0.87zm16.12 8.14l0-1.62c-1.36 0.05-2.49 0.12-3.37 0.2-0.88 0.1-1.71 0.26-2.51 0.5-0.79 0.24-1.37 0.57-1.74 1.01-0.36 0.44-0.55 1-0.55 1.68 0 0.81 0.28 1.44 0.84 1.93 0.57 0.47 1.36 0.71 2.39 0.71 1.61 0 2.84-0.41 3.68-1.23 0.84-0.81 1.26-1.88 1.26-3.18zm4.73-5.65l0 12.28c0 0.58-0.29 0.87-0.88 0.87l-2.71 0c-0.52 0-0.79-0.24-0.84-0.72l-0.15-2.03c-1.29 2.06-3.52 3.09-6.67 3.09-1.93 0-3.46-0.5-4.58-1.51-1.13-1-1.68-2.42-1.68-4.26 0-1.08 0.2-2.01 0.62-2.81 0.41-0.78 0.97-1.42 1.66-1.88 0.7-0.46 1.62-0.84 2.75-1.13 1.14-0.29 2.3-0.49 3.49-0.6 1.18-0.12 2.61-0.19 4.26-0.21l0-0.87c0-1.18-0.33-2.04-0.98-2.6-0.67-0.55-1.72-0.83-3.19-0.83-1.79 0-3.62 0.38-5.5 1.14-0.51 0.17-0.86 0-1.06-0.53l-0.66-2.08c-0.15-0.45 0.02-0.8 0.51-1.05 2.18-0.96 4.62-1.43 7.33-1.43 5.52 0 8.28 2.38 8.28 7.16zm17.37 1.77c0-3.47-1.41-5.2-4.25-5.2-2.78 0-4.17 1.79-4.17 5.39 0 3.59 1.39 5.39 4.17 5.39 1.35 0 2.39-0.48 3.14-1.43 0.74-0.96 1.11-2.34 1.11-4.15zm4.77-7.61l0 15.64c0 2.59-0.82 4.56-2.44 5.92-1.62 1.35-3.9 2.03-6.83 2.03-2.91 0-5.15-0.39-6.74-1.17-0.49-0.25-0.66-0.59-0.52-1.01l0.63-2.04c0.14-0.56 0.48-0.74 1.02-0.56 1.73 0.62 3.48 0.93 5.24 0.93 1.66 0 2.92-0.37 3.77-1.13 0.86-0.75 1.29-1.82 1.29-3.2l0-1.62c-0.49 0.93-1.24 1.65-2.25 2.17-1.02 0.51-2.15 0.77-3.4 0.77-2.37 0-4.26-0.73-5.67-2.19-1.43-1.46-2.13-3.71-2.13-6.74 0-3.05 0.69-5.32 2.07-6.82 1.38-1.51 3.23-2.27 5.55-2.27 1.27 0 2.43 0.27 3.48 0.82 1.05 0.53 1.82 1.24 2.31 2.12l0.11-1.77c0.05-0.5 0.34-0.75 0.88-0.75l2.79 0c0.56 0 0.84 0.29 0.84 0.87zm13.63 2.37c-2.91 0-4.48 1.78-4.73 5.35l9.09 0 0-0.23c0-1.6-0.37-2.86-1.12-3.76-0.74-0.91-1.82-1.36-3.24-1.36zm-2.77 12.08c1.04 0.86 2.4 1.3 4.09 1.3 1.68 0 3.28-0.39 4.8-1.17 0.51-0.25 0.88-0.07 1.1 0.53l0.62 1.77c0.12 0.48-0.06 0.84-0.55 1.09-1.9 0.98-4.03 1.47-6.37 1.47-3.26 0-5.79-0.91-7.61-2.73-1.82-1.82-2.73-4.36-2.73-7.63 0-3.3 0.84-5.85 2.51-7.67 1.67-1.82 3.95-2.73 6.84-2.73 2.8 0 4.98 0.85 6.52 2.58 1.54 1.72 2.31 4.01 2.31 6.87l0 1.85c0 0.61-0.3 0.91-0.88 0.91l-12.5 0c0.2 1.5 0.82 2.69 1.85 3.56zm-457.9 34.96l-9.82 0 0 9.83c0 0.64-0.31 0.95-0.92 0.95l-3.26 0c-0.61 0-0.92-0.31-0.92-0.95l0-24.68c0-0.6 0.31-0.9 0.92-0.9l14.33 0c0.59 0 0.88 0.28 0.88 0.86l0 2.68c0 0.63-0.29 0.94-0.88 0.94l-10.15 0 0 6.86 9.82 0c0.59 0 0.88 0.32 0.88 0.95l0 2.56c0 0.6-0.29 0.9-0.88 0.9zm4.98 4l0-12.22c0-0.57 0.29-0.86 0.88-0.86l3.15 0c0.54 0 0.81 0.29 0.81 0.86l0 11.27c0 1.29 0.26 2.26 0.77 2.93 0.51 0.66 1.39 1 2.64 1 1.32 0 2.36-0.41 3.13-1.21 0.77-0.81 1.15-1.88 1.15-3.24l0-10.75c0-0.57 0.28-0.86 0.85-0.86l3.19 0c0.53 0 0.8 0.29 0.8 0.86l0 18.14c0 0.57-0.27 0.86-0.8 0.86l-2.94 0c-0.53 0-0.83-0.24-0.87-0.71l-0.15-2.04c-1.18 2.11-3.16 3.17-5.98 3.17-4.42 0-6.63-2.41-6.63-7.2zm39.98-6.18l0 12.09c0 0.58-0.28 0.87-0.84 0.87l-3.15 0c-0.59 0-0.88-0.29-0.88-0.87l0-11.19c0-1.33-0.27-2.32-0.82-2.98-0.55-0.65-1.46-0.97-2.73-0.97-1.37 0-2.43 0.4-3.17 1.22-0.75 0.81-1.12 1.93-1.12 3.33l0 10.59c0 0.58-0.28 0.87-0.85 0.87l-3.15 0c-0.56 0-0.84-0.29-0.84-0.87l0-18.12c0-0.58 0.28-0.87 0.84-0.87l2.9 0c0.51 0 0.79 0.25 0.84 0.75l0.19 1.96c1.22-2.11 3.27-3.16 6.15-3.16 2.22 0 3.89 0.64 4.98 1.92 1.1 1.28 1.65 3.09 1.65 5.43zm18.44 3.01c0-4.22-1.59-6.33-4.77-6.33-1.54 0-2.69 0.5-3.46 1.49-0.77 0.99-1.16 2.6-1.16 4.84 0 2.24 0.39 3.85 1.16 4.84 0.77 1 1.92 1.5 3.46 1.5 3.18 0 4.77-2.12 4.77-6.34zm0.22 9.24l-0.11-2.08c-0.52 1.03-1.35 1.82-2.5 2.38-1.15 0.55-2.4 0.82-3.77 0.82-2.59 0-4.6-0.87-6.03-2.62-1.43-1.74-2.14-4.32-2.14-7.74 0-3.41 0.71-5.99 2.14-7.74 1.43-1.75 3.44-2.62 6.03-2.62 1.32 0 2.54 0.27 3.68 0.82 1.14 0.56 1.95 1.32 2.44 2.3l0-8.51c0-0.56 0.28-0.83 0.84-0.83l3.15 0c0.59 0 0.88 0.27 0.88 0.83l0 24.84c0 0.57-0.29 0.86-0.88 0.86l-2.85 0c-0.54 0-0.84-0.24-0.88-0.71zm14.73-18.28l0 18.13c0 0.57-0.28 0.86-0.84 0.86l-3.19 0c-0.57 0-0.85-0.29-0.85-0.86l0-18.13c0-0.58 0.28-0.87 0.85-0.87l3.19 0c0.56 0 0.84 0.29 0.84 0.87zm0-6.6l0 2.64c0 0.57-0.27 0.86-0.81 0.86l-3.26 0c-0.54 0-0.81-0.29-0.81-0.86l0-2.64c0-0.58 0.27-0.87 0.81-0.87l3.26 0c0.54 0 0.81 0.29 0.81 0.87zm22.68 12.63l0 12.09c0 0.58-0.28 0.87-0.84 0.87l-3.15 0c-0.6 0-0.89-0.29-0.89-0.87l0-11.19c0-1.33-0.27-2.32-0.82-2.98-0.55-0.65-1.46-0.97-2.73-0.97-1.37 0-2.42 0.4-3.17 1.22-0.74 0.81-1.12 1.93-1.12 3.33l0 10.59c0 0.58-0.28 0.87-0.84 0.87l-3.15 0c-0.57 0-0.85-0.29-0.85-0.87l0-18.12c0-0.58 0.28-0.87 0.85-0.87l2.9 0c0.51 0 0.79 0.25 0.84 0.75l0.18 1.96c1.22-2.11 3.28-3.16 6.16-3.16 2.22 0 3.88 0.64 4.98 1.92 1.1 1.28 1.65 3.09 1.65 5.43zm17.41 1.58c0-3.47-1.42-5.2-4.25-5.2-2.79 0-4.18 1.8-4.18 5.39 0 3.59 1.39 5.39 4.18 5.39 1.34 0 2.38-0.48 3.13-1.43 0.75-0.96 1.12-2.34 1.12-4.15zm4.76-7.61l0 15.64c0 2.59-0.81 4.56-2.43 5.92-1.63 1.35-3.91 2.03-6.84 2.03-2.91 0-5.15-0.39-6.74-1.17-0.49-0.25-0.66-0.59-0.52-1.01l0.63-2.04c0.14-0.56 0.49-0.74 1.02-0.56 1.74 0.62 3.48 0.93 5.25 0.93 1.65 0 2.91-0.37 3.77-1.13 0.85-0.75 1.28-1.82 1.28-3.2l0-1.62c-0.49 0.93-1.24 1.65-2.25 2.17-1.02 0.51-2.15 0.77-3.4 0.77-2.36 0-4.25-0.73-5.67-2.19-1.42-1.46-2.13-3.71-2.13-6.74 0-3.05 0.69-5.32 2.07-6.82 1.38-1.51 3.23-2.27 5.56-2.27 1.27 0 2.42 0.27 3.47 0.82 1.05 0.53 1.83 1.24 2.31 2.12l0.12-1.77c0.04-0.5 0.34-0.75 0.87-0.75l2.79 0c0.56 0 0.84 0.29 0.84 0.87zm33.39 11.79c0 2.52-0.9 4.4-2.68 5.65-1.78 1.26-4.17 1.89-7.14 1.89-3.4 0-6.05-0.49-7.96-1.47-0.54-0.28-0.72-0.65-0.55-1.13l0.88-2.42c0.19-0.6 0.56-0.78 1.1-0.56 1.76 0.75 3.7 1.13 5.83 1.13 1.66 0 2.97-0.26 3.94-0.79 0.96-0.52 1.45-1.32 1.45-2.37 0-0.43-0.11-0.82-0.32-1.19-0.2-0.36-0.42-0.65-0.66-0.88-0.23-0.23-0.62-0.49-1.19-0.79-0.56-0.3-1-0.52-1.33-0.66-0.33-0.13-0.88-0.36-1.66-0.67-1-0.41-1.78-0.73-2.35-0.97-0.57-0.23-1.24-0.59-2.01-1.08-0.76-0.49-1.35-0.99-1.75-1.51-0.41-0.51-0.76-1.17-1.06-1.98-0.31-0.8-0.47-1.71-0.47-2.71 0-4.83 3.11-7.23 9.32-7.23 2.8 0 5.14 0.43 6.99 1.31 0.54 0.28 0.72 0.65 0.55 1.14l-0.84 2.33c-0.22 0.55-0.61 0.73-1.17 0.53-1.4-0.56-3.08-0.83-5.06-0.83-3.1 0-4.65 0.95-4.65 2.87 0 1.13 0.69 2.06 2.08 2.79 0.44 0.23 1.38 0.65 2.82 1.26 0.78 0.35 1.28 0.57 1.49 0.66 0.22 0.1 0.68 0.3 1.4 0.63 0.71 0.31 1.18 0.56 1.42 0.74 0.23 0.17 0.6 0.45 1.11 0.81 0.52 0.36 0.87 0.71 1.07 1.03 0.2 0.33 0.43 0.72 0.7 1.18 0.27 0.47 0.45 0.97 0.55 1.5 0.1 0.55 0.15 1.14 0.15 1.79zm5.8 4.92c-1.77-1.8-2.66-4.37-2.66-7.71 0-3.34 0.88-5.9 2.62-7.66 1.75-1.78 4.11-2.66 7.06-2.66 2.42 0 4.3 0.42 5.64 1.28 0.52 0.3 0.68 0.69 0.48 1.17l-0.88 2.03c-0.24 0.53-0.65 0.67-1.21 0.42-1.05-0.48-2.2-0.72-3.44-0.72-1.69 0-3 0.51-3.92 1.53-0.93 1.01-1.4 2.55-1.4 4.61 0 2.09 0.47 3.65 1.4 4.69 0.92 1.05 2.21 1.57 3.85 1.57 1.39 0 2.64-0.3 3.77-0.9 0.56-0.26 0.94-0.12 1.13 0.41l0.88 2.07c0.17 0.43 0 0.82-0.51 1.17-1.47 0.93-3.34 1.39-5.6 1.39-3.04 0-5.44-0.89-7.21-2.69zm34.98-10.65l0 12.07c0 0.57-0.28 0.86-0.84 0.86l-3.15 0c-0.57 0-0.85-0.29-0.85-0.86l0-11.2c0-1.33-0.28-2.33-0.84-2.98-0.56-0.65-1.48-0.97-2.74-0.97-1.4 0-2.48 0.41-3.23 1.26-0.76 0.84-1.14 1.94-1.14 3.29l0 10.6c0 0.57-0.28 0.86-0.84 0.86l-3.15 0c-0.57 0-0.84-0.29-0.84-0.86l0-24.84c0-0.56 0.27-0.84 0.84-0.84l3.15 0c0.56 0 0.84 0.28 0.84 0.84l0 8.48c0.47-0.86 1.21-1.59 2.24-2.19 1.03-0.6 2.32-0.9 3.88-0.9 2.25 0 3.92 0.64 5.02 1.92 1.1 1.28 1.65 3.1 1.65 5.46zm13.49-3.69c-2.91 0-4.49 1.79-4.73 5.35l9.08 0 0-0.23c0-1.6-0.37-2.86-1.11-3.76-0.74-0.91-1.83-1.36-3.24-1.36zm-2.77 12.08c1.04 0.86 2.4 1.3 4.08 1.3 1.69 0 3.29-0.39 4.81-1.17 0.51-0.25 0.88-0.07 1.09 0.53l0.63 1.77c0.12 0.48-0.06 0.84-0.55 1.09-1.91 0.98-4.04 1.47-6.38 1.47-3.25 0-5.79-0.91-7.6-2.73-1.82-1.82-2.74-4.36-2.74-7.63 0-3.3 0.84-5.85 2.52-7.67 1.67-1.82 3.95-2.73 6.83-2.73 2.81 0 4.99 0.86 6.53 2.58 1.53 1.72 2.31 4.01 2.31 6.87l0 1.85c0 0.61-0.3 0.91-0.88 0.91l-12.5 0c0.19 1.5 0.81 2.69 1.85 3.56zm32.49-7.33l0 11.01c0 0.57-0.28 0.86-0.84 0.86l-3.12 0c-0.56 0-0.84-0.29-0.84-0.86l0-11.39c0-1.26-0.24-2.2-0.72-2.84-0.47-0.65-1.26-0.97-2.36-0.97-1.27 0-2.27 0.42-2.99 1.23-0.72 0.82-1.08 1.88-1.08 3.19l0 10.78c0 0.57-0.28 0.86-0.84 0.86l-3.11 0c-0.6 0-0.89-0.29-0.89-0.86l0-18.13c0-0.58 0.29-0.87 0.89-0.87l2.89 0c0.54 0 0.83 0.25 0.88 0.75l0.18 1.96c0.44-0.85 1.15-1.59 2.14-2.22 0.99-0.63 2.22-0.94 3.69-0.94 2.86 0 4.71 1.12 5.57 3.35 1.29-2.23 3.41-3.35 6.37-3.35 2.06 0 3.6 0.62 4.62 1.88 1.03 1.26 1.54 3.04 1.54 5.35l0 12.22c0 0.57-0.28 0.86-0.84 0.86l-3.15 0c-0.57 0-0.85-0.29-0.85-0.86l0-11.35c0-1.28-0.24-2.24-0.73-2.88-0.49-0.65-1.29-0.97-2.42-0.97-1.22 0-2.19 0.4-2.91 1.19-0.72 0.8-1.08 1.79-1.08 3zm25.47-4.75c-2.91 0-4.49 1.79-4.73 5.35l9.08 0 0-0.23c0-1.6-0.37-2.86-1.11-3.76-0.74-0.91-1.83-1.36-3.24-1.36zm-2.77 12.08c1.04 0.86 2.4 1.3 4.08 1.3 1.69 0 3.29-0.39 4.81-1.17 0.51-0.25 0.88-0.07 1.09 0.53l0.63 1.77c0.12 0.48-0.06 0.84-0.55 1.09-1.91 0.98-4.04 1.47-6.38 1.47-3.25 0-5.78-0.91-7.6-2.73-1.82-1.82-2.73-4.36-2.73-7.63 0-3.3 0.83-5.85 2.51-7.67 1.67-1.82 3.95-2.73 6.83-2.73 2.81 0 4.99 0.86 6.53 2.58 1.53 1.72 2.31 4.01 2.31 6.87l0 1.85c0 0.61-0.3 0.91-0.88 0.91l-12.5 0c0.19 1.5 0.81 2.69 1.85 3.56zm-245.61 45.92l-10.25 0 0 8.34-4.24 0 0-33.71 4.24 0 0 4.64 9.61 0 0 4.03-9.61 0 0 4.3 8.83 0 0 3.92-8.83 0 0 4.46 10.25 0 0 4.02zm-22.93-25.37l4.21 0 0 16.89c0 5.91-1.75 13.08-10.37 17.29-0.68-1.06-2.03-2.43-3.02-3.26 3.59-1.42 5.83-3.77 7.22-6.28l-7.44 1.31-0.78-4.31c2.53-0.29 6.09-0.72 9.79-1.23 0.29-1.27 0.39-2.46 0.39-3.48l0-0.04-8.47 0 0-3.92 8.47 0 0-4.3-8.87 0 0-4.03 8.87 0 0-4.64zm68.08 5.44c0 0-0.04 1.45-0.07 1.96-0.68 16.16-1.32 22.07-2.67 23.88-0.82 1.23-1.6 1.63-2.78 1.88-0.99 0.19-2.49 0.19-4.02 0.11-0.11-1.23-0.54-3-1.17-4.2 1.31 0.14 2.48 0.14 3.16 0.14 0.54 0 0.89-0.14 1.32-0.69 0.89-1.15 1.53-6.08 2.1-19.09l-0.18 0c-1.74 9.13-5.41 18.55-11.14 23.37-0.82-0.83-2.28-1.88-3.46-2.5 5.7-4.17 9.26-12.39 11.04-20.87l-1.67 0c-1.57 5.9-4.56 12.39-8.16 15.87-0.78-0.83-2.13-1.81-3.23-2.43 3.52-2.83 6.3-8.19 7.86-13.44l-1.81 0c-1.03 2.5-2.28 4.74-3.67 6.49-0.68-0.69-2.35-1.89-3.21-2.43 2.82-3.16 4.78-8.34 5.85-13.67l3.84 0.73c-0.35 1.66-0.82 3.29-1.32 4.89l13.39 0zm-19.16 14.17c-1.28 0.36-2.52 0.8-3.84 1.2l0 12.9-3.88 0 0-11.71c-1.93 0.58-3.7 1.16-5.34 1.59l-1.03-4.09c1.77-0.4 3.95-0.98 6.37-1.66l0-6.93-2.38 0c-0.4 1.78-0.83 3.33-1.32 4.64-0.64-0.54-2.21-1.52-3-1.99 1.11-2.87 1.72-7.4 2.04-11.67l3.52 0.61c-0.14 1.46-0.32 2.87-0.54 4.31l1.68 0 0-6.95 3.88 0 0 6.95 2.95 0 0 4.1-2.95 0 0 5.84 3.28-0.95 0.56 3.81zm55.12 3.88l-14.7 0 0 1.63 14.7 0 0-1.63zm0-4.1l-14.7 0 0 1.67 14.7 0 0-1.67zm0-4.02l-14.7 0 0 1.63 14.7 0 0-1.63zm-0.14-3.16l0-3.8-3.06 0c-0.43 1.59-1.14 3.12-2.35 4.39l9.83 0 0 14.93-4.7 0c3.34 1.01 6.73 2.21 8.97 3.11l-1.96 3.01c-2.53-1.16-6.77-2.79-10.72-4.02l1.29-2.1-9.23 0 2.32 1.38c-3.07 1.73-7.87 3.69-11.47 4.78-0.36-0.76-1.38-2.76-2.03-3.63 2.96-0.58 6.55-1.48 9.19-2.53l-4.7 0 0-14.93 12.74 0c-0.75-0.65-2.1-1.56-2.81-1.92 2.28-2.07 2.56-4.72 2.56-6.78l0-2.65c4-0.18 8.51-0.72 11.01-1.59l2.63 2.39c-2.7 0.94-6.51 1.48-10.07 1.74l0 0.18c0 0.36 0 0.72-0.04 1.09l11.43 0 0 3.15-5.02 0 0 3.8-3.81 0zm-17.62-3.8c-0.61 1.85-1.61 3.62-3.39 5.07-0.53-0.76-1.99-2.24-2.74-2.75 2.71-2.06 3.1-4.64 3.1-6.74l0-2.43c3.7-0.22 7.97-0.76 10.47-1.63l2.35 2.5c-2.5 0.9-5.92 1.38-9.19 1.67 0 0.36 0 0.76-0.04 1.16l9.69 0 0 3.15-3.42 0 0 3.7-3.74 0 0-3.7-3.09 0zm49.53 1.7c1.53 3.81 3.66 7.18 6.4 10.04 2.46-2.75 4.42-6.05 5.81-10.04l-12.21 0zm16.98 0c-1.81 5.22-4.23 9.46-7.34 12.98 3.67 2.9 8.16 5 13.47 6.27-0.97 0.94-2.21 2.83-2.85 4.02-5.59-1.52-10.18-3.91-13.93-7.1-3.91 3.26-8.68 5.65-14.41 7.32-0.47-1.01-1.72-3.05-2.57-4.03 5.55-1.41 10.15-3.48 13.85-6.41-3.2-3.59-5.66-7.93-7.58-13.05l-5.59 0 0-4.2 15.02 0c-0.39-1.49-1.17-3.52-1.99-5.11l4.52-1.34c0.92 1.67 2 3.98 2.42 5.47l-3.06 0.98 15.49 0 0 4.2-5.45 0zm44.58 18.92c1.82 0 2.1-1.52 2.42-7.5 0.96 0.76 2.64 1.59 3.74 1.81-0.46 6.99-1.53 9.5-5.84 9.5l-5.95 0c-4.37 0-5.62-1.45-5.62-6.38l0-25.95 4.09 0 0 9.21 12.39 0 0 4.12-12.39 0 0 12.69c0 2.14 0.25 2.5 1.96 2.5l5.2 0zm-14.03-27.72c-0.96 2.32-2.13 4.64-3.45 6.88l0 25.48-4.03 0 0-19.53c-1.14 1.45-2.24 2.71-3.41 3.84-0.39-1.05-1.57-3.41-2.25-4.49 3.64-3.2 7.16-8.34 9.19-13.53l3.95 1.35zm54.94 3.95l3.42 0 0-1.46-3.42 0 0 1.46zm-6.62 16.82l9.5 0 0-1.09-9.5 0 0 1.09zm0-3.16l9.5 0 0-1.12-9.5 0 0 1.12zm0-3.19l9.5 0 0-1.09-9.5 0 0 1.09zm2.6-11.92l-3.42 0 0 1.45 3.42 0 0-1.45zm1.42 21.63c-1.85 1.2-4.48 2.61-6.69 3.52 1.78 0.29 3.81 0.36 6.09 0.36 2.63 0 6.19-0.14 9.47-0.4-1.85-0.79-4.52-1.84-7.02-2.64l1.22-2-5.56 0 2.49 1.16zm12.89-13.95l-23.64 0 0-3.04 9.33 0 0-0.98-7.27 0 0-5.91 7.27 0 0-1.74 4.02 0 0 1.74 7.55 0 0 5.91-7.55 0 0 0.98 10.29 0 0 3.04zm-28.84-4.28c-0.43-1.62-1.31-4.23-1.92-6.23l3.31-1.05c0.64 2 1.49 4.46 2 6.09l-3.39 1.19zm25.53 21.64c1.57-0.14 2.99-0.29 4.2-0.47-0.46 1.16-1.17 3.26-1.21 4.42-2.95 0.19-9.22 0.44-13.39 0.44-4.73 0-7.72-0.4-10.28-1.93-1.5-0.83-2.78-2.03-3.5-2.03-0.81 0-2.1 2.47-2.95 4.53l-2.85-4.09c1.28-1.56 2.64-2.79 3.85-3.51 0.74-1.78 1.39-4.06 1.85-6.24l-4.38 0c0.85-2.14 1.78-5.04 2.63-7.86l-3.27 0 0-3.84 8.29 0c-0.75 2.53-1.67 5.4-2.49 7.97l1.32 0 0.6-0.11 1.75 0.58c-0.57 3.26-1.46 6.67-2.6 9.38 0.61 0.37 1.32 0.91 2.32 1.53 0.78 0.51 1.7 0.87 2.73 1.12-0.63-0.75-1.52-1.85-2.1-2.39 1.93-0.51 4.1-1.31 5.77-2.07l-4.02 0 0-11.81 17.95 0 0 11.81-4.82 0c2.32 0.73 4.67 1.53 6.24 2.11l-1.64 2.46zm27.99-22.76c2.24 0.51 4.59 1.05 6.94 1.63 1.71-0.47 3.35-1.05 4.67-1.63l-11.61 0zm12.81 6.27c-1.74-0.62-3.88-1.23-6.12-1.84-2.56 0.68-5.16 1.3-7.65 1.84l13.77 0zm-7.26 11.56l0-1.88-5.8 0c-0.39 0.65-0.79 1.27-1.22 1.88l7.02 0zm15.38 5.4l0 3.48-26.17 0 0-3.48 10.79 0 0-2.1-7.55 0 0-2.61c-0.64 0.84-1.35 1.56-2.03 2.21-0.24-0.76-1.07-2.57-1.67-3.59-0.43 3.77-1.46 7.94-3.81 10.88-0.64-0.8-2.39-2.32-3.27-2.79 2.88-3.63 3.16-8.78 3.16-12.51l0-6.45 4.81 0c-0.57-0.62-1.28-1.27-1.78-1.67 2.56-0.39 5.38-0.9 8.12-1.56-2.25-0.57-4.56-1.08-6.66-1.48l1.99-1.56-6.12 0 0-3.37 12.39 0c-0.43-0.69-0.92-1.34-1.35-1.88l2.84-1.42c0.83 0.95 1.79 2.22 2.39 3.3l12.32 0 0 3.37-5.16 0 1.71 1.09c-1.29 0.61-2.78 1.23-4.38 1.81 2.1 0.58 4.02 1.16 5.62 1.7l-1.99 1.67 5.23 0 0 3.44-25.84 0 0 3.05c0 1.16-0.04 2.43-0.18 3.8 1.71-1.7 3.16-4.02 4.05-6.52l3.6 1.09c-0.18 0.47-0.35 0.94-0.57 1.45l4.13 0 0-2.22 4.17 0 0 2.22 8.79 0 0 3.37-8.79 0 0 1.88 7.76 0 0 3.3-7.76 0 0 2.1 11.21 0zm20.97-4.28l15.42 0 0-1.63-15.42 0 0 1.63zm0-4.05l15.42 0 0-1.56-15.42 0 0 1.56zm0-3.99l15.42 0 0-1.56-15.42 0 0 1.56zm1.18-12.25l-9.11 0 0-3.15 9.11 0 0 3.15zm13.35 22.83c3.28 1.23 6.77 2.68 8.87 3.73l-3.81 2.32c-2.03-1.19-5.73-2.97-9.26-4.27l2.17-1.78-10.04 0 3.1 1.45c-2.92 1.89-7.51 3.7-11.11 4.71-0.71-0.83-2.21-2.43-3.13-3.15 3.42-0.65 7.23-1.74 9.72-3.01l-5.13 0 0-14.71 23.82 0 0 14.71-5.2 0zm-0.96-21.3c1.92 1.91 5.7 2.82 10.51 3.07-0.86 0.84-1.86 2.4-2.35 3.45-3.99-0.51-7.09-1.67-9.33-3.67-1.36 1.6-4.31 3.02-10.3 3.7-0.28-0.68-0.85-1.59-1.42-2.35l-9.43 0 0-3.3 10.75 0 0 2.21c6.8-0.72 7.69-2.36 7.69-3.7l0-0.54-2.14 0c-0.75 1.2-1.6 2.28-2.49 3.12-0.68-0.66-2.24-1.71-3.14-2.22 1.89-1.59 3.36-3.98 4.17-6.45l3.71 0.84c-0.18 0.54-0.4 1.09-0.61 1.59l10.11 0 0.65-0.18 2.88 0.91c-0.93 1.99-2.14 4.27-3.28 5.72l-3.27-1.23c0.39-0.58 0.85-1.34 1.25-2.1l-3.96 0 0 0.73 0 0.4zm28.56 18.22c1.5-0.29 3.06-0.65 4.7-0.98l0-3.4-4.7 0 0 4.38zm4.7-11.89l-4.7 0 0 3.73 4.7 0 0-3.73zm-4.7-3.77l4.7 0 0-3.65-4.7 0 0 3.65zm26.1 0.69c-0.32 14.86-0.64 20.19-1.82 21.86-0.81 1.23-1.67 1.63-2.95 1.85-1.14 0.21-2.99 0.18-4.84 0.11-0.08-1.16-0.5-2.98-1.25-4.1 1.74 0.11 3.35 0.15 4.13 0.15 0.57 0 0.93-0.12 1.25-0.62 0.82-0.98 1.14-5.47 1.35-17.11l-3.77 0c-0.54 9.57-2.46 17.18-9.33 22-0.64-1.05-1.96-2.5-2.96-3.26 1.75-1.2 3.14-2.54 4.21-4.09-5.45 1.37-11.29 2.75-15.64 3.8l-0.67-4.43c0.71-0.14 1.56-0.28 2.46-0.46l0-23.92 12.35 0 0 21.34 1.53-0.32 0.39 3.4c2.39-3.76 3.24-8.44 3.56-14.06l-4.52 0 0-4.06 4.66 0c0.04-2.46 0.04-5.04 0.04-7.79l4.17 0c0 2.72 0 5.33-0.07 7.79l7.72 0 0 1.92zm46.08 6.56l-6.59 0 0 17.58-4.42 0 0-17.58-6.23 0 0-4.24 6.23 0 0-11.37 4.42 0 0 11.37 6.59 0 0 4.24zm-26.82 12.11l4.63 0 0-4.06-4.63 0 0 4.06zm8.3 3.48l-8.3 0 0 1.52-3.56 0 0-12.51 11.86 0 0 10.99zm-0.14-12.72l-11.86 0 0-3.27 11.86 0 0 3.27zm-11.86-8.12l11.93 0 0 3.26-11.93 0 0-3.26zm13.42-1.63l-14.99 0 0-3.41 6.2 0c-0.54-1.38-1.46-3.19-2.28-4.56l3.31-1.56c0.97 1.48 2.07 3.48 2.6 4.82l-2.35 1.3 7.51 0 0 3.41zm61.36-8.66l0 28.12c0 2.28-0.47 3.44-1.75 4.09-1.28 0.69-3.21 0.87-6.02 0.84-0.14-1.16-0.71-3.01-1.28-4.24 1.89 0.07 3.63 0.07 4.24 0.07 0.56 0 0.78-0.18 0.78-0.76l0-28.12 4.03 0zm-6.88 24.06l-3.84 0 0-20.4 3.84 0 0 20.4zm-10 0.29l-3.14 0 0 1.16 3.14 0 0-1.16zm0-3.11l-3.14 0 0 1.19 3.14 0 0-1.19zm-0.29-13.92l-2.99 0 0 1.3 2.99 0 0-1.3zm-2.99-2.61l2.99 0 0-1.16-2.99 0 0 1.16zm-6.66 20.8l3.28 0 0-1.16-3.28 0 0 1.16zm0-3.08l3.28 0 0-1.19-3.28 0 0 1.19zm13.39 5.11l-16.66 0 0-8.3 16.66 0 0 8.3zm-18.51 1.41c5.05-0.14 12.85-0.39 20.15-0.72l-0.11 3.22c-7.12 0.33-14.71 0.65-19.76 0.84l-0.28-3.34zm18.33-24.24l1.89 0 0 2.61-1.89 0 0 3.62-6.55 0 0 1.09 6.94 0 0 2.35-6.94 0 0 1.09 8.26 0 0 2.72-19.83 0 0-2.72 7.8 0 0-1.09-6.27 0 0-2.35 6.27 0 0-1.09-6.2 0 0-2.32 6.2 0 0-1.3-8.01 0 0-2.61 8.01 0 0-1.16-6.09 0 0-2.32 6.09 0 0-1.96 3.77 0 0 1.96 6.55 0 0 3.48z"/>
</svg>
