<?xml version="1.0" encoding="UTF-8"?>
<svg xmlns="http://www.w3.org/2000/svg" viewBox="0 0 1024 1024" fill-rule="evenodd">
  <path fill="#d29f10" d="M511.93 433.07c-71.21 0-128.94 58.66-128.94 131.03 0 72.36 57.73 131.02 128.94 131.02 71.21 0 128.93-58.66 128.93-131.02 0-72.37-57.72-131.03-128.93-131.03zm485.02 333.73c24.03 157.17-129.43 249.09-213.04 249.11l-537.94 0.12c-77.7 0.01-245.57-76.95-219.17-249.23l113.2-738.8 744 0 112.95 738.8zm-477.67-570.55c189.44 0 343 162.04 343 361.92 0 199.89-153.56 361.92-343 361.92-189.44 0-343.01-162.03-343.01-361.92 0-199.88 153.57-361.92 343.01-361.92z"/>
</svg>
